<?xml version="1.0" standalone="no"?><!DOCTYPE svg PUBLIC "-//W3C//DTD SVG 1.1//EN" "http://www.w3.org/Graphics/SVG/1.1/DTD/svg11.dtd" ><svg xmlns="http://www.w3.org/2000/svg"><metadata></metadata><defs><font id="com.myfonts.linotype.trade-gothic.condensed-no-18-oblique-63882.wfkit2.fjkq" horiz-adv-x="1000"><font-face font-family="" font-weight="400" font-stretch="normal" units-per-em="1000" panose-1="2 11 5 6 4 3 3 9 0 4" ascent="812" descent="-188" x-height="4" bbox="-169 -216 1061 950" underline-thickness="50" underline-position="-100" unicode-range="U+000d-fb02" /><missing-glyph horiz-adv-x="512" d="M222 117 l0 67 l56 0 l0 -67 l-56 0 ZM225 234 l-2 17 q0 55 13 81 q13 26 46 59 q32 31 41 47.5 q9 16.5 9 35.5 q0 36 -22.5 60.5 q-22.5 24.5 -53.5 24.5 q-31 0 -53.5 -22 q-22.5 -22 -28.5 -73 l-50 8 q7 71 44 104 q37 33 91 33 q53 0 88.5 -36 q35.5 -36 35.5 -95 q0 -32 -12.5 -58.5 q-12.5 -26.5 -50.5 -61.5 q-37 -33 -43 -52 q-6 -19 -6 -72 l-46 0 ZM462 50 l0 617 l-412 0 l0 -617 l412 0 ZM512 718 l0 -718 l-512 0 l0 718 l512 0 Z" /><glyph glyph-name="nonmarkingreturn" unicode="" d="" /><glyph glyph-name="space" unicode=" " d="" /><glyph glyph-name="exclam" unicode="!" d="M228 94 l-20 -94 l-84 0 l20 94 l84 0 ZM280 722 l84 0 l-126 -508 l-52 0 l94 508 Z" /><glyph glyph-name="quotedbl" unicode="&quot;" d="M355 722 l62 0 l-56 -256 l-62 0 l56 256 ZM228 722 l62 0 l-56 -256 l-62 0 l56 256 Z" /><glyph glyph-name="numbersign" unicode="#" d="M279 439 l-52 -156 l100 0 l51 156 l-99 0 ZM451 227 l-84 0 l-74 -227 l-59 0 l74 227 l-99 0 l-74 -227 l-59 0 l75 227 l-84 0 l12 56 l90 0 l52 156 l-83 0 l12 56 l88 0 l75 227 l58 0 l-74 -227 l99 0 l74 227 l59 0 l-75 -227 l79 0 l-12 -56 l-84 0 l-52 -156 l78 0 l-12 -56 Z" /><glyph glyph-name="dollar" unicode="$" d="M335 662 q-36 -8 -63 -35.5 q-27 -27.5 -35 -65.5 q-3 -12 -3 -24 q0 -29 15 -52 q15 -23 38 -43 l48 220 ZM254 60 q45 4 76 35.5 q31 31.5 42 80.5 q3 15 3 28 q0 36 -18.5 63.5 q-18.5 27.5 -45.5 52.5 l-57 -260 ZM152 198 q-5 -28 -5 -49 q0 -33 12.5 -56 q12.5 -23 44.5 -33 l64 294 q-20 16 -39.5 33 q-19.5 17 -35 36.5 q-15.5 19.5 -25 42.5 q-9.5 23 -9.5 51 q0 19 4 36 q7 34 24.5 63 q17.5 29 42 51.5 q24.5 22.5 54.5 36.5 q30 14 64 18 l21 96 l50 0 l-21 -96 q59 -9 87 -46.5 q28 -37.5 28 -94.5 q0 -12 -1.5 -24.5 q-1.5 -12.5 -3.5 -26.5 l-72 0 q3 18 3 35 q0 32 -12.5 59.5 q-12.5 27.5 -41.5 37.5 l-55 -255 q21 -17 42 -35 q21 -18 38.5 -40 q17.5 -22 28 -48 q10.5 -26 10.5 -59 q0 -11 -1 -22 q-1 -11 -4 -24 q-17 -78 -72 -125 q-55 -47 -130 -54 l-26 -116 l-50 0 l26 116 q-60 9 -89 47 q-29 38 -29 95 q0 26 6 56 l72 0 Z" /><glyph glyph-name="percent" unicode="%" d="M228 566 q-1 -5 -1.5 -10 q-0.5 -5 -0.5 -10 q0 -32 20.5 -54 q20.5 -22 56.5 -22 q21 0 40 8 q19 8 35 21 q16 13 27 30.5 q11 17.5 15 36.5 q1 5 1.5 10 q0.5 5 0.5 10 q0 32 -20.5 54 q-20.5 22 -56.5 22 q-21 0 -40 -8 q-19 -8 -35 -21 q-16 -13 -27 -30.5 q-11 -17.5 -15 -36.5 ZM477 156 q-1 -5 -1.5 -10 q-0.5 -5 -0.5 -10 q0 -32 20.5 -54 q20.5 -22 56.5 -22 q21 0 40 8 q19 8 35 21 q16 13 27 30.5 q11 17.5 15 36.5 q1 5 1.5 10 q0.5 5 0.5 10 q0 32 -20.5 54 q-20.5 22 -56.5 22 q-21 0 -40 -8 q-19 -8 -35 -21 q-16 -13 -27 -30.5 q-11 -17.5 -15 -36.5 ZM770 732 l-575 -742 l-58 0 l575 742 l58 0 ZM168 566 q7 32 25 60.5 q18 28.5 43.5 49.5 q25.5 21 57 33.5 q31.5 12.5 64.5 12.5 q58 0 92 -35.5 q34 -35.5 34 -87.5 q0 -8 -1 -16.5 q-1 -8.5 -3 -16.5 q-7 -32 -25 -60.5 q-18 -28.5 -43.5 -49.5 q-25.5 -21 -57 -33.5 q-31.5 -12.5 -64.5 -12.5 q-58 0 -92 35.5 q-34 35.5 -34 87.5 q0 8 1 16.5 q1 8.5 3 16.5 ZM417 156 q7 32 25 60.5 q18 28.5 43.5 49.5 q25.5 21 57 33.5 q31.5 12.5 64.5 12.5 q58 0 92 -35 q34 -35 34 -87 q0 -18 -4 -34 q-7 -32 -24.5 -60.5 q-17.5 -28.5 -43 -49.5 q-25.5 -21 -57 -33.5 q-31.5 -12.5 -64.5 -12.5 q-58 0 -92.5 35 q-34.5 35 -34.5 88 q0 8 1 16.5 q1 8.5 3 16.5 Z" /><glyph glyph-name="ampersand" unicode="&amp;" d="M316 585 q-6 -29 -6 -52 q0 -24 3.5 -45 q3.5 -21 7.5 -41 q46 41 76 79 q30 38 41 86 q2 10 2 16 q0 22 -11.5 36 q-11.5 14 -28.5 14 q-29 0 -51 -20 q-22 -20 -33 -73 ZM160 180 q-4 -16 -4 -35 q0 -41 24.5 -65 q24.5 -24 74.5 -24 q30 0 61 18 q31 18 53 42 q-32 51 -57 108 q-25 57 -42 111 q-17 -14 -34.5 -32.5 q-17.5 -18.5 -32.5 -38.5 q-15 -20 -26.5 -41.5 q-11.5 -21.5 -16.5 -42.5 ZM556 346 q-9 -32 -18 -58.5 q-9 -26.5 -20 -51.5 q-11 -25 -25 -50.5 q-14 -25.5 -33 -53.5 q26 -41 71 -78 l-53 -54 q-18 9 -39.5 28 q-21.5 19 -36.5 40 q-35 -34 -80 -56 q-45 -22 -90 -22 q-72 0 -111 36 q-39 36 -39 99 q0 11 1 23.5 q1 12.5 4 25.5 q9 40 28 72 q19 32 43 59 q24 27 49.5 48.5 q25.5 21.5 46.5 40.5 q-6 21 -11 56 q-5 35 -5 71 q0 15 1 29.5 q1 14.5 4 28.5 q17 78 61.5 115.5 q44.5 37.5 97.5 37.5 q53 0 81.5 -29 q28.5 -29 28.5 -71 q0 -13 -3 -26 q-8 -38 -25.5 -68 q-17.5 -30 -40.5 -56 q-23 -26 -51 -49 q-28 -23 -58 -46 q31 -111 86 -199 q23 39 38.5 79.5 q15.5 40.5 28.5 82.5 l69 -4 Z" /><glyph glyph-name="quotesingle" unicode="&#39;" d="M236 722 l62 0 l-56 -256 l-62 0 l56 256 Z" /><glyph glyph-name="parenleft" unicode="(" d="M166 -110 q-26 63 -39.5 124 q-13.5 61 -13.5 127 q0 40 5 82 q5 42 15 88 q13 61 32.5 115.5 q19.5 54.5 45.5 105.5 q26 51 60 100.5 q34 49.5 77 99.5 l41 -30 q-75 -98 -121.5 -193 q-46.5 -95 -68.5 -198 q-18 -84 -18 -161 q0 -114 39 -230 l-54 -30 Z" /><glyph glyph-name="parenright" unicode=")" d="M246 732 q26 -63 39.5 -124 q13.5 -61 13.5 -127 q0 -40 -5 -82 q-5 -42 -15 -88 q-13 -61 -32.5 -115.5 q-19.5 -54.5 -45.5 -105.5 q-26 -51 -60 -100.5 q-34 -49.5 -77 -99.5 l-42 30 q75 98 121.5 193 q46.5 95 69.5 198 q9 42 13 81.5 q4 39.5 4 78.5 q0 59 -9.5 115.5 q-9.5 56.5 -29.5 115.5 l55 30 Z" /><glyph glyph-name="asterisk" unicode="*" d="M357 564 l159 70 l5 -66 l-160 -32 l89 -112 l-67 -44 l-49 138 l-109 -138 l-49 44 l139 112 l-148 32 l35 66 l129 -70 l14 158 l66 0 l-54 -158 Z" /><glyph glyph-name="plus" unicode="+" d="M379 520 l66 0 l-49 -227 l227 0 l-14 -66 l-227 0 l-49 -227 l-66 0 l49 227 l-227 0 l14 66 l227 0 l49 227 Z" /><glyph glyph-name="comma" unicode="," d="M173 94 l-22 -100 l-91 -144 l-30 0 l79 150 l-40 0 l20 94 l84 0 Z" /><glyph glyph-name="hyphen" unicode="-" d="M92 227 l14 66 l246 0 l-14 -66 l-246 0 Z" /><glyph glyph-name="period" unicode="." d="M173 94 l-20 -94 l-84 0 l20 94 l84 0 Z" /><glyph glyph-name="slash" unicode="/" d="M-12 -10 l392 742 l66 0 l-393 -742 l-65 0 Z" /><glyph glyph-name="zero" unicode="0" d="M402 361 q15 69 22 119.5 q7 50.5 7 86.5 q0 58 -16.5 81.5 q-16.5 23.5 -47.5 23.5 q-25 0 -47 -15.5 q-22 -15.5 -43 -51.5 q-21 -36 -40.5 -95.5 q-19.5 -59.5 -38.5 -148.5 q-30 -138 -30 -208 q0 -57 17 -80 q17 -23 47 -23 q25 0 47 15.5 q22 15.5 43 51.5 q21 36 40.5 95.5 q19.5 59.5 39.5 148.5 ZM474 361 q-21 -98 -47 -168 q-26 -70 -57.5 -115 q-31.5 -45 -69 -66.5 q-37.5 -21.5 -81.5 -21.5 q-60 0 -90 39 q-30 39 -30 125 q0 81 27 207 q21 98 46.5 168 q25.5 70 57 115 q31.5 45 69 66.5 q37.5 21.5 81.5 21.5 q60 0 90.5 -39.5 q30.5 -39.5 30.5 -126.5 q0 -81 -27 -205 Z" /><glyph glyph-name="one" unicode="1" d="M266 0 l-73 0 l-87 0 l12 60 l88 0 l126 580 l-92 -8 l10 44 q32 8 64.5 21.5 q32.5 13.5 61.5 34.5 l48 0 l-146 -672 l84 0 l-12 -60 l-84 0 Z" /><glyph glyph-name="two" unicode="2" d="M48 0 l12 60 q28 53 64 99.5 q36 46.5 74 88 q38 41.5 76.5 80 q38.5 38.5 70.5 76 q32 37.5 55 75.5 q23 38 32 79 q2 11 3.5 21 q1.5 10 1.5 19 q0 38 -18.5 56 q-18.5 18 -48.5 18 q-43 0 -79.5 -35.5 q-36.5 -35.5 -58.5 -116.5 l-66 0 q16 61 39.5 102 q23.5 41 51.5 65.5 q28 24.5 59.5 34.5 q31.5 10 64.5 10 q60 0 94 -32 q34 -32 34 -95 q0 -28 -7 -57 q-10 -45 -30 -81 q-20 -36 -48.5 -69.5 q-28.5 -33.5 -63 -66.5 q-34.5 -33 -73 -72.5 q-38.5 -39.5 -79.5 -87.5 q-41 -48 -82 -111 l274 0 l-12 -60 l-340 0 Z" /><glyph glyph-name="three" unicode="3" d="M185 578 q10 32 26 60 q16 28 38.5 49 q22.5 21 51.5 33 q29 12 64 12 q26 0 49.5 -8 q23.5 -8 41 -23.5 q17.5 -15.5 28 -39.5 q10.5 -24 10.5 -56 q0 -22 -6 -49 q-17 -77 -53.5 -119.5 q-36.5 -42.5 -77.5 -50.5 l0 -2 q42 -15 58 -47 q16 -32 16 -72 q0 -15 -2 -30 q-2 -15 -5 -31 q-12 -56 -35.5 -96 q-23.5 -40 -54 -66.5 q-30.5 -26.5 -65 -39 q-34.5 -12.5 -68.5 -12.5 q-61 0 -94 37 q-33 37 -33 97 q0 11 1 23 q1 12 4 25 l66 0 q-3 -18 -3 -34 q0 -88 80 -88 q18 0 37.5 9.5 q19.5 9.5 37 28.5 q17.5 19 32 47.5 q14.5 28.5 22.5 65.5 q7 31 7 58 q0 54 -34 74.5 q-34 20.5 -104 20.5 l13 60 q40 0 70.5 6 q30.5 6 52 21 q21.5 15 36 42 q14.5 27 23.5 69 q6 28 6 49 q0 38 -17.5 54.5 q-17.5 16.5 -46.5 16.5 q-23 0 -41 -9 q-18 -9 -31.5 -23.5 q-13.5 -14.5 -22 -32.5 q-8.5 -18 -13.5 -37 l-64 8 Z" /><glyph glyph-name="four" unicode="4" d="M140 224 l163 0 l93 432 l-2 0 l-254 -432 ZM483 722 l-108 -498 l75 0 l-13 -60 l-75 0 l-35 -164 l-72 0 l35 164 l-231 0 l7 34 l312 524 l33 0 l72 0 Z" /><glyph glyph-name="five" unicode="5" d="M158 168 q-1 -6 -1 -13 q0 -6 0 -13 q0 -17 3 -33.5 q3 -16.5 10.5 -29.5 q7.5 -13 20.5 -21 q13 -8 33 -8 q47 0 88 47.5 q41 47.5 61 141.5 q10 47 10 83 q0 53 -20 73.5 q-20 20.5 -50 20.5 q-31 0 -61 -20.5 q-30 -20.5 -46 -49.5 l-53 10 l103 366 l254 0 l-19 -60 l-190 0 l-62 -220 q23 16 49.5 25 q26.5 9 54.5 9 q50 0 81.5 -36.5 q31.5 -36.5 31.5 -110.5 q0 -41 -10 -88 q-14 -62 -38 -109 q-24 -47 -55 -78.5 q-31 -31.5 -66.5 -47.5 q-35.5 -16 -71.5 -16 q-33 0 -57 10 q-24 10 -39.5 28 q-15.5 18 -23 42 q-7.5 24 -7.5 52 q0 19 3 40 l67 6 Z" /><glyph glyph-name="six" unicode="6" d="M177 248 q-13 -61 -13 -103 q0 -51 18.5 -73 q18.5 -22 53.5 -22 q21 0 40 8.5 q19 8.5 35.5 28 q16.5 19.5 30.5 51.5 q14 32 24 79 q10 44 10 77 q0 49 -19.5 66.5 q-19.5 17.5 -45.5 17.5 q-35 0 -65.5 -19 q-30.5 -19 -53.5 -43 l-15 -68 ZM437 588 l0 13 q0 23 -5.5 37 q-5.5 14 -14.5 21.5 q-9 7.5 -19.5 10 q-10.5 2.5 -20.5 2.5 q-48 0 -91.5 -69 q-43.5 -69 -77.5 -220 q27 23 59 39 q32 16 64 16 q49 0 83 -31 q34 -31 34 -105 q0 -39 -10 -86 q-23 -106 -77.5 -166 q-54.5 -60 -126.5 -60 q-67 0 -102 32.5 q-35 32.5 -35 118.5 q0 68 24 181 q24 109 53 186.5 q29 77.5 63.5 127 q34.5 49.5 73 73 q38.5 23.5 81.5 23.5 q32 0 53.5 -9 q21.5 -9 34.5 -25 q13 -16 18.5 -38.5 q5.5 -22.5 5.5 -50.5 l0 -17 l-67 -4 Z" /><glyph glyph-name="seven" unicode="7" d="M216 722 l324 0 l-8 -38 l-358 -684 l-76 0 l353 662 l-248 0 l13 60 Z" /><glyph glyph-name="eight" unicode="8" d="M437 578 q3 12 3 23 q0 29 -17.5 50 q-17.5 21 -55.5 21 q-23 0 -42 -8 q-19 -8 -32.5 -21.5 q-13.5 -13.5 -22.5 -30.5 q-9 -17 -13 -34 q-2 -11 -3.5 -21.5 q-1.5 -10.5 -1.5 -21.5 q0 -38 16 -67.5 q16 -29.5 44 -49.5 q46 25 79.5 65 q33.5 40 45.5 95 ZM366 179 q4 17 4 36 q0 43 -21.5 73.5 q-21.5 30.5 -52.5 57.5 q-25 -16 -48 -33 q-23 -17 -42 -37 q-19 -20 -32.5 -44 q-13.5 -24 -19.5 -53 q-4 -16 -4 -36 q0 -36 19 -64.5 q19 -28.5 63 -28.5 q28 0 50.5 12 q22.5 12 39.5 30.5 q17 18.5 28 41.5 q11 23 16 45 ZM439 182 q-9 -39 -28.5 -74 q-19.5 -35 -48 -61 q-28.5 -26 -65 -41.5 q-36.5 -15.5 -78.5 -15.5 q-70 0 -106 40.5 q-36 40.5 -36 101.5 q0 24 6 50 q14 67 57 116 q43 49 103 86 q-31 30 -48.5 61 q-17.5 31 -17.5 73 q0 23 6 52 q7 36 26.5 65.5 q19.5 29.5 46 51 q26.5 21.5 58.5 33.5 q32 12 66 12 q59 0 95 -34 q36 -34 36 -91 q0 -20 -4 -37 q-14 -64 -48.5 -106 q-34.5 -42 -91.5 -80 q35 -30 56 -67.5 q21 -37.5 21 -85.5 q0 -11 -1 -23.5 q-1 -12.5 -4 -25.5 Z" /><glyph glyph-name="nine" unicode="9" d="M422 474 q13 61 13 103 q0 51 -18.5 73 q-18.5 22 -53.5 22 q-21 0 -40 -8.5 q-19 -8.5 -35.5 -28 q-16.5 -19.5 -30.5 -51.5 q-14 -32 -24 -79 q-10 -44 -10 -77 q0 -49 19.5 -66.5 q19.5 -17.5 45.5 -17.5 q35 0 65.5 19 q30.5 19 53.5 43 l15 68 ZM163 134 q0 -4 -0.5 -7.5 q-0.5 -3.5 -0.5 -7.5 q0 -22 5.5 -35.5 q5.5 -13.5 14.5 -21 q9 -7.5 19.5 -10 q10.5 -2.5 20.5 -2.5 q48 0 91 69 q43 69 78 220 q-27 -23 -59 -39 q-32 -16 -64 -16 q-49 0 -83 31.5 q-34 31.5 -34 105.5 q0 39 10 85 q23 106 77.5 166 q54.5 60 126.5 60 q67 0 102 -32.5 q35 -32.5 35 -118.5 q0 -69 -24 -181 q-24 -109 -53 -186.5 q-29 -77.5 -63.5 -127 q-34.5 -49.5 -73 -73 q-38.5 -23.5 -81.5 -23.5 q-64 0 -88 32.5 q-24 32.5 -24 86.5 q0 5 0.5 10.5 q0.5 5.5 0.5 10.5 l67 4 Z" /><glyph glyph-name="colon" unicode=":" d="M232 366 l-21 -94 l-84 0 l21 94 l84 0 ZM173 94 l-20 -94 l-84 0 l20 94 l84 0 Z" /><glyph glyph-name="semicolon" unicode=";" d="M232 366 l-21 -94 l-84 0 l21 94 l84 0 ZM173 94 l-22 -100 l-91 -144 l-30 0 l79 150 l-40 0 l20 94 l84 0 Z" /><glyph glyph-name="less" unicode="&lt;" d="M560 3 l-470 232 l11 50 l570 232 l-15 -69 l-462 -188 l381 -188 l-15 -69 Z" /><glyph glyph-name="equal" unicode="=" d="M80 186 l520 0 l-15 -66 l-520 0 l15 66 ZM126 400 l520 0 l-14 -66 l-520 0 l14 66 Z" /><glyph glyph-name="greater" unicode="&gt;" d="M55 72 l463 188 l-382 188 l15 69 l470 -232 l-11 -50 l-570 -232 l15 69 Z" /><glyph glyph-name="question" unicode="?" d="M215 94 l-20 -94 l-84 0 l20 94 l84 0 ZM177 214 l11 50 q12 58 39.5 98 q27.5 40 58 74.5 q30.5 34.5 57.5 71.5 q27 37 39 90 q3 13 3 23 q0 26 -14 38.5 q-14 12.5 -31 12.5 q-17 0 -31 -8 q-14 -8 -25.5 -20.5 q-11.5 -12.5 -20 -27.5 q-8.5 -15 -13.5 -30 l-57 12 q9 28 24 52.5 q15 24.5 36 42.5 q21 18 47 28.5 q26 10.5 56 10.5 q43 0 72.5 -24.5 q29.5 -24.5 29.5 -73.5 q0 -19 -4 -36 q-9 -42 -26 -73.5 q-17 -31.5 -38 -57.5 q-21 -26 -44 -49 q-23 -23 -43.5 -47 q-20.5 -24 -37 -52.5 q-16.5 -28.5 -24.5 -64.5 l-8 -40 l-56 0 Z" /><glyph glyph-name="at" unicode="@" d="M393 204 q33 0 66 21.5 q33 21.5 60.5 54 q27.5 32.5 47.5 69.5 q20 37 27 67 q1 5 1.5 9.5 q0.5 4.5 0.5 9.5 q0 30 -18 52.5 q-18 22.5 -45 22.5 q-35 0 -68.5 -20.5 q-33.5 -20.5 -61 -51.5 q-27.5 -31 -47 -68 q-19.5 -37 -26.5 -69 q-3 -15 -3 -28 q0 -32 17.5 -50.5 q17.5 -18.5 48.5 -18.5 ZM677 558 l63 0 l-147 -282 q-16 -31 -21 -54 q-1 -3 -1 -9 q0 -16 17 -16 q27 0 57.5 20 q30.5 20 59 52 q28.5 32 50 72 q21.5 40 30.5 80 q6 30 6 56 q0 47 -17.5 84 q-17.5 37 -48.5 62.5 q-31 25.5 -72.5 39 q-41.5 13.5 -89.5 13.5 q-66 0 -127 -25 q-61 -25 -111 -68 q-50 -43 -85.5 -99.5 q-35.5 -56.5 -49.5 -120.5 q-8 -40 -8 -72 q0 -54 18 -99 q18 -45 51 -77.5 q33 -32.5 78.5 -50.5 q45.5 -18 101.5 -18 q35 0 72 8 q37 8 72.5 23.5 q35.5 15.5 68 37.5 q32.5 22 59.5 50 l63 0 q-33 -41 -73.5 -73.5 q-40.5 -32.5 -86 -55 q-45.5 -22.5 -93.5 -34.5 q-48 -12 -96 -12 q-68 0 -124 22 q-56 22 -95.5 60.5 q-39.5 38.5 -61 92 q-21.5 53.5 -21.5 116.5 q0 40 9 82 q16 77 60 144 q44 67 105.5 117 q61.5 50 135 79 q73.5 29 149.5 29 q61 0 112 -17.5 q51 -17.5 88 -50 q37 -32.5 58 -77.5 q21 -45 21 -99 q0 -15 -1.5 -30.5 q-1.5 -15.5 -5.5 -31.5 q-14 -64 -48.5 -117 q-34.5 -53 -78 -91 q-43.5 -38 -89 -59 q-45.5 -21 -80.5 -21 q-23 0 -37 13 q-14 13 -14 39 q0 3 0 6 q0 4 1 8 l-3 -1 q-26 -24 -63 -44.5 q-37 -20.5 -73 -20.5 q-54 0 -83.5 33.5 q-29.5 33.5 -29.5 84.5 q0 9 1 18.5 q1 9.5 3 19.5 q11 51 39 101 q28 50 67 90 q39 40 87.5 64.5 q48.5 24.5 101.5 24.5 q35 0 60.5 -18 q25.5 -18 34.5 -60 l35 62 Z" /><glyph glyph-name="A" unicode="a" d="M201 280 l162 0 l4 388 l-2 0 l-164 -388 ZM432 722 l3 -722 l-78 0 l3 214 l-184 0 l-89 -214 l-78 0 l315 722 l108 0 Z" /><glyph glyph-name="B" unicode="b" d="M233 412 l44 0 q42 0 74 7 q32 7 55 22.5 q23 15.5 38 40.5 q15 25 23 62 q2 11 3.5 21 q1.5 10 1.5 19 q0 39 -26 55.5 q-26 16.5 -83 16.5 l-78 0 l-52 -244 ZM158 66 l78 0 q71 0 114.5 32 q43.5 32 58.5 102 q6 27 6 49 q0 48 -28 72.5 q-28 24.5 -91 24.5 l-78 0 l-60 -280 ZM222 722 l77 0 l115 0 q68 0 102.5 -34.5 q34.5 -34.5 34.5 -93.5 q0 -23 -6 -50 q-11 -54 -46.5 -98.5 q-35.5 -44.5 -97.5 -61.5 l-1 -2 q49 -14 71 -47 q22 -33 22 -81 q0 -26 -6 -54 q-22 -101 -89 -150.5 q-67 -49.5 -186 -49.5 l-68 0 l-78 0 l156 722 Z" /><glyph glyph-name="C" unicode="c" d="M471 504 q2 16 3 29.5 q1 13.5 1 25.5 q0 56 -19 81.5 q-19 25.5 -57 25.5 q-34 0 -62.5 -16 q-28.5 -16 -52.5 -52 q-24 -36 -44 -94.5 q-20 -58.5 -38 -142.5 q-25 -113 -25 -183 q0 -66 22.5 -94 q22.5 -28 67.5 -28 q27 0 50.5 10 q23.5 10 43 32 q19.5 22 35 57 q15.5 35 27.5 85 l78 0 q-27 -121 -91.5 -185.5 q-64.5 -64.5 -157.5 -64.5 q-71 0 -111 43.5 q-40 43.5 -40 145.5 q0 37 5.5 82 q5.5 45 17.5 100 q22 102 52 173 q30 71 66.5 115 q36.5 44 79.5 63.5 q43 19.5 91 19.5 q69 0 105 -40 q36 -40 36 -124 q0 -15 -1.5 -31 q-1.5 -16 -3.5 -33 l-78 0 Z" /><glyph glyph-name="D" unicode="d" d="M158 66 l42 0 q43 0 78.5 11.5 q35.5 11.5 65.5 43.5 q30 32 55 89.5 q25 57.5 45 150.5 q11 48 15.5 86 q4.5 38 4.5 68 q0 43 -9.5 70 q-9.5 27 -27.5 43 q-18 16 -43.5 22 q-25.5 6 -56.5 6 l-42 0 l-127 -590 ZM222 722 l77 0 l57 0 q43 0 78 -10 q35 -10 59 -33 q24 -23 37 -60.5 q13 -37.5 13 -92.5 q0 -68 -21 -165 q-23 -104 -54.5 -173.5 q-31.5 -69.5 -72 -111 q-40.5 -41.5 -89.5 -59 q-49 -17.5 -106 -17.5 l-56 0 l-78 0 l156 722 Z" /><glyph glyph-name="E" unicode="e" d="M552 722 l-15 -66 l-252 0 l-53 -246 l186 0 l-14 -66 l-186 0 l-60 -278 l264 0 l-14 -66 l-265 0 l-77 0 l156 722 l77 0 l253 0 Z" /><glyph glyph-name="F" unicode="f" d="M222 722 l77 0 l233 0 l-15 -66 l-232 0 l-53 -246 l174 0 l-14 -66 l-174 0 l-74 -344 l-78 0 l156 722 Z" /><glyph glyph-name="G" unicode="g" d="M474 500 q2 16 3.5 31 q1.5 15 1.5 29 q0 48 -18 77 q-18 29 -64 29 q-33 0 -60.5 -15.5 q-27.5 -15.5 -51.5 -51.5 q-24 -36 -44.5 -94.5 q-20.5 -58.5 -38.5 -143.5 q-25 -113 -25 -183 q0 -66 22.5 -94 q22.5 -28 65.5 -28 q55 0 90 29 q35 29 47 85 l22 102 l-98 0 l15 66 l98 0 l78 0 l-73 -338 l-50 0 l1 54 q-29 -30 -64.5 -47 q-35.5 -17 -80.5 -17 q-70 0 -109.5 43 q-39.5 43 -39.5 145 q0 37 5.5 82.5 q5.5 45.5 17.5 100.5 q22 102 52 173 q30 71 66 115 q36 44 78.5 63.5 q42.5 19.5 90.5 19.5 q41 0 69 -14 q28 -14 45 -37.5 q17 -23.5 24 -55 q7 -31.5 7 -66.5 q0 -14 -1 -29 q-1 -15 -3 -30 l-78 0 Z" /><glyph glyph-name="H" unicode="h" d="M300 722 l-68 -312 l212 0 l68 312 l78 0 l-156 -722 l-78 0 l74 344 l-212 0 l-74 -344 l-78 0 l156 722 l78 0 Z" /><glyph glyph-name="I" unicode="i" d="M306 722 l-156 -722 l-78 0 l156 722 l78 0 Z" /><glyph glyph-name="J" unicode="j" d="M368 722 l-118 -542 q-12 -56 -29.5 -92.5 q-17.5 -36.5 -44 -58 q-26.5 -21.5 -62 -30.5 q-35.5 -9 -83.5 -9 q-8 0 -17.5 2 q-9.5 2 -19.5 4 l19 68 q21 -8 44 -8 q47 0 72.5 23.5 q25.5 23.5 39.5 82.5 l121 560 l78 0 Z" /><glyph glyph-name="K" unicode="k" d="M290 722 l-80 -368 l2 0 l282 368 l84 0 l-195 -252 l65 -470 l-84 0 l-50 390 l-2 0 l-130 -168 l-48 -222 l-78 0 l156 722 l78 0 Z" /><glyph glyph-name="L" unicode="l" d="M300 722 l-142 -656 l234 0 l-14 -66 l-235 0 l-77 0 l156 722 l78 0 Z" /><glyph glyph-name="M" unicode="m" d="M283 722 l53 0 l8 -546 l2 0 l241 546 l52 0 l72 0 l-156 -722 l-72 0 l143 662 l-2 0 l-293 -662 l-51 0 l-7 662 l-2 0 l-143 -662 l-72 0 l156 722 l71 0 Z" /><glyph glyph-name="N" unicode="n" d="M290 722 l44 0 l71 -532 l2 0 l115 532 l78 0 l-156 -722 l-84 0 l-89 628 l-2 0 l-135 -628 l-78 0 l156 722 l78 0 Z" /><glyph glyph-name="O" unicode="o" d="M454 361 q24 114 24 179 q0 37 -6.5 61 q-6.5 24 -17.5 38.5 q-11 14.5 -26.5 20.5 q-15.5 6 -33.5 6 q-26 0 -52 -13 q-26 -13 -50.5 -47.5 q-24.5 -34.5 -47 -93.5 q-22.5 -59 -42.5 -151 q-24 -114 -24 -179 q0 -37 6.5 -61 q6.5 -24 17.5 -38.5 q11 -14.5 26.5 -20.5 q15.5 -6 33.5 -6 q26 0 52 13 q26 13 50.5 47.5 q24.5 34.5 47 93.5 q22.5 59 42.5 151 ZM532 361 q-22 -101 -52 -171.5 q-30 -70.5 -66.5 -115 q-36.5 -44.5 -78.5 -64.5 q-42 -20 -88 -20 q-68 0 -107 44.5 q-39 44.5 -39 146.5 q0 37 5.5 81.5 q5.5 44.5 17.5 98.5 q22 101 52 171.5 q30 70.5 66 115 q36 44.5 78 64.5 q42 20 88 20 q68 0 107 -45 q39 -45 39 -148 q0 -75 -22 -178 Z" /><glyph glyph-name="P" unicode="p" d="M218 392 l82 0 q59 0 98.5 32 q39.5 32 54.5 100 q2 12 3.5 22.5 q1.5 10.5 1.5 20.5 q0 46 -26.5 67.5 q-26.5 21.5 -74.5 21.5 l-82 0 l-57 -264 ZM212 722 l76 0 l94 0 q74 0 114.5 -39 q40.5 -39 40.5 -106 q0 -25 -6 -53 q-10 -45 -31.5 -81.5 q-21.5 -36.5 -52.5 -62.5 q-31 -26 -69.5 -40 q-38.5 -14 -81.5 -14 l-92 0 l-70 -326 l-78 0 l156 722 Z" /><glyph glyph-name="Q" unicode="q" d="M310 204 q24 -8 41.5 -23.5 q17.5 -15.5 29.5 -35.5 q20 35 38 87.5 q18 52.5 35 128.5 q24 114 24 179 q0 37 -6.5 61 q-6.5 24 -17.5 38.5 q-11 14.5 -26.5 20.5 q-15.5 6 -33.5 6 q-26 0 -52 -13 q-26 -13 -50.5 -47.5 q-24.5 -34.5 -47 -93.5 q-22.5 -59 -42.5 -151 q-24 -114 -24 -179 q0 -37 6.5 -61 q6.5 -24 17.5 -38.5 q11 -14.5 26.5 -20.5 q15.5 -6 33.5 -6 q20 0 38.5 7 q18.5 7 38.5 25 q-8 16 -18.5 28.5 q-10.5 12.5 -24.5 23.5 l14 64 ZM461 -56 q-42 2 -64.5 25 q-22.5 23 -35.5 57 q-26 -19 -55 -27.5 q-29 -8.5 -59 -8.5 q-68 0 -107 44.5 q-39 44.5 -39 146.5 q0 37 5.5 81.5 q5.5 44.5 17.5 98.5 q22 101 52 171.5 q30 70.5 66 115 q36 44.5 78 64.5 q42 20 88 20 q68 0 107 -45 q39 -45 39 -148 q0 -75 -22 -178 q-22 -101 -51.5 -171 q-29.5 -70 -66.5 -115 q4 -11 9.5 -21.5 q5.5 -10.5 13 -19.5 q7.5 -9 17 -15 q9.5 -6 22.5 -7 l-15 -68 Z" /><glyph glyph-name="R" unicode="r" d="M231 406 l68 0 q84 0 123 32 q39 32 52 93 q5 25 5 41 q0 42 -28.5 63 q-28.5 21 -97.5 21 l-68 0 l-54 -250 ZM222 722 l77 0 l97 0 q75 0 119 -36 q44 -36 44 -103 q0 -23 -6 -48 q-13 -61 -51 -108.5 q-38 -47.5 -103 -68.5 l45 -358 l-82 0 l-42 342 l-103 -4 l-73 -338 l-78 0 l156 722 Z" /><glyph glyph-name="S" unicode="s" d="M440 536 q3 18 3 35 q0 42 -19 68.5 q-19 26.5 -67 26.5 q-45 0 -78 -26.5 q-33 -26.5 -42 -68.5 q-3 -14 -3 -27 q0 -31 16 -55.5 q16 -24.5 39.5 -45.5 q23.5 -21 51 -41.5 q27.5 -20.5 51 -45.5 q23.5 -25 39.5 -56.5 q16 -31.5 16 -74.5 q0 -23 -6 -51 q-19 -87 -77 -135.5 q-58 -48.5 -148 -48.5 q-71 0 -108 40 q-37 40 -37 108 q0 26 6 56 l72 0 q-4 -20 -4 -42 q0 -45 23 -70.5 q23 -25.5 71 -25.5 q49 0 84.5 30.5 q35.5 30.5 47.5 88.5 q3 15 3 28 q0 32 -16 57 q-16 25 -39.5 47.5 q-23.5 22.5 -51 44.5 q-27.5 22 -51 46.5 q-23.5 24.5 -39.5 54.5 q-16 30 -16 69 q0 17 5 42 q8 38 27.5 69 q19.5 31 47 53 q27.5 22 62 34 q34.5 12 73.5 12 q67 0 104 -37 q37 -37 37 -108 q0 -12 -1.5 -24.5 q-1.5 -12.5 -3.5 -26.5 l-72 0 Z" /><glyph glyph-name="T" unicode="t" d="M537 722 l-15 -66 l-148 0 l-141 -656 l-78 0 l141 656 l-148 0 l15 66 l146 0 l79 0 l149 0 Z" /><glyph glyph-name="U" unicode="u" d="M300 722 l-115 -530 q-3 -14 -5 -27.5 q-2 -13.5 -2 -26.5 q0 -36 18 -59 q18 -23 66 -23 q32 0 55 11 q23 11 38.5 29.5 q15.5 18.5 25.5 43.5 q10 25 16 52 l115 530 l78 0 l-115 -532 q-9 -44 -27.5 -80.5 q-18.5 -36.5 -47 -63 q-28.5 -26.5 -66.5 -41.5 q-38 -15 -87 -15 q-78 0 -113 37.5 q-35 37.5 -35 98.5 q0 15 2 31 q2 16 6 33 l115 532 l78 0 Z" /><glyph glyph-name="V" unicode="v" d="M250 722 l3 -572 l2 0 l251 572 l78 0 l-326 -722 l-72 0 l-14 722 l78 0 Z" /><glyph glyph-name="W" unicode="w" d="M234 722 l-36 -564 l2 0 l230 564 l64 0 l-10 -564 l2 0 l202 564 l72 0 l-272 -722 l-66 0 l8 567 l-2 0 l-236 -567 l-66 0 l36 722 l72 0 Z" /><glyph glyph-name="X" unicode="x" d="M260 722 l54 -256 l158 256 l84 0 l-215 -338 l89 -384 l-84 0 l-67 302 l-181 -302 l-84 0 l239 384 l-77 338 l84 0 Z" /><glyph glyph-name="Y" unicode="y" d="M256 722 l55 -316 l189 316 l84 0 l-256 -416 l-66 -306 l-78 0 l66 306 l-78 416 l84 0 Z" /><glyph glyph-name="Z" unicode="z" d="M556 722 l-12 -54 l-398 -602 l268 0 l-14 -66 l-356 0 l12 56 l389 600 l-236 0 l15 66 l332 0 Z" /><glyph glyph-name="bracketleft" unicode="[" d="M216 722 l65 0 l119 0 l-9 -40 l-118 0 l-160 -742 l118 0 l-9 -40 l-119 0 l-65 0 l178 822 Z" /><glyph glyph-name="backslash" unicode="\" d="M219 -10 l-71 742 l66 0 l71 -742 l-66 0 Z" /><glyph glyph-name="bracketright" unicode="]" d="M196 -100 l-66 0 l-118 0 l9 40 l118 0 l160 742 l-118 0 l9 40 l116 0 l68 0 l-178 -822 Z" /><glyph glyph-name="asciicircum" unicode="^" d="M428 722 l56 0 l117 -427 l-72 0 l-92 342 l-240 -342 l-72 0 l303 427 Z" /><glyph glyph-name="underscore" unicode="_" d="M-27 -125 l11 50 l499 0 l-11 -50 l-499 0 Z" /><glyph glyph-name="grave" unicode="`" d="M146 716 l78 0 l69 -138 l-50 0 l-97 138 Z" /><glyph glyph-name="a" unicode="a" d="M353 280 q-26 -8 -59 -20.5 q-33 -12.5 -63.5 -31 q-30.5 -18.5 -53.5 -43 q-23 -24.5 -29 -55.5 q-3 -15 -3 -27 q0 -25 14 -39 q14 -14 45 -14 q29 0 58 17 q29 17 53 37 l38 176 ZM143 378 q12 31 30 58.5 q18 27.5 41 48.5 q23 21 52 33 q29 12 64 12 q60 0 91 -27.5 q31 -27.5 31 -77.5 q0 -18 -5 -43 l-63 -290 q-9 -44 -9 -70 q0 -16 3 -22 l-75 0 l0 44 q-13 -11 -29 -20.5 q-16 -9.5 -33 -17 q-17 -7.5 -33 -12 q-16 -4.5 -28 -4.5 q-52 0 -81 26.5 q-29 26.5 -29 73.5 q0 18 4 34 q10 48 42 84.5 q32 36.5 74 63 q42 26.5 88.5 43 q46.5 16.5 87.5 25.5 l8 37 q3 16 3 30 q0 30 -15 46.5 q-15 16.5 -43 16.5 q-21 0 -38.5 -9.5 q-17.5 -9.5 -31.5 -24 q-14 -14.5 -24.5 -32.5 q-10.5 -18 -17.5 -36 l-64 10 Z" /><glyph glyph-name="b" unicode="b" d="M171 100 q12 -23 30 -36.5 q18 -13.5 35 -13.5 q22 0 42.5 10.5 q20.5 10.5 38.5 34.5 q18 24 34 64.5 q16 40.5 29 100.5 q16 73 16 119 q0 51 -17.5 71 q-17.5 20 -49.5 20 q-24 0 -46 -15 q-22 -15 -42 -31 l-70 -324 ZM122 0 l-56 0 q11 23 21 56 q10 33 21 84 l126 582 l72 0 l-52 -240 q22 18 49.5 33 q27.5 15 56.5 15 q23 0 42.5 -8 q19.5 -8 34 -25.5 q14.5 -17.5 22.5 -45 q8 -27.5 8 -67.5 q0 -26 -3.5 -56.5 q-3.5 -30.5 -11.5 -67.5 q-17 -75 -40 -126.5 q-23 -51.5 -50.5 -83.5 q-27.5 -32 -57.5 -46 q-30 -14 -61 -14 q-35 0 -58 16 q-23 16 -37 44 l-26 -50 Z" /><glyph glyph-name="c" unicode="c" d="M355 366 q1 8 1.5 16 q0.5 8 0.5 15 q0 41 -16.5 57 q-16.5 16 -45.5 16 q-23 0 -41 -8.5 q-18 -8.5 -34 -32 q-16 -23.5 -29.5 -64.5 q-13.5 -41 -27.5 -105 q-19 -89 -19 -137 q0 -44 15.5 -58.5 q15.5 -14.5 44.5 -14.5 q17 0 32 5 q15 5 28 18 q13 13 25 35 q12 22 24 56 l70 0 q-13 -38 -31.5 -70 q-18.5 -32 -42.5 -55 q-24 -23 -53.5 -36 q-29.5 -13 -64.5 -13 q-60 0 -88.5 33 q-28.5 33 -28.5 104 q0 53 17 133 q30 141 82.5 205.5 q52.5 64.5 134.5 64.5 q64 0 91 -36 q27 -36 27 -99 q0 -7 0 -14 q0 -7 -1 -15 l-70 0 Z" /><glyph glyph-name="d" unicode="d" d="M385 424 q-12 16 -28 31 q-16 15 -40 15 q-23 0 -43 -10.5 q-20 -10.5 -37.5 -34.5 q-17.5 -24 -32.5 -64.5 q-15 -40.5 -28 -100.5 q-16 -71 -16 -117 q0 -52 18 -72.5 q18 -20.5 50 -20.5 q17 0 41.5 13.5 q24.5 13.5 45.5 36.5 l70 324 ZM317 50 l-2 0 q-25 -28 -55 -44 q-30 -16 -65 -16 q-23 0 -43 7.5 q-20 7.5 -34 25 q-14 17.5 -22 45 q-8 27.5 -8 66.5 q0 53 16 126 q16 75 39 126.5 q23 51.5 50.5 83.5 q27.5 32 57.5 46 q30 14 61 14 q29 0 50.5 -15 q21.5 -15 35.5 -33 l52 240 l72 0 l-126 -582 q-10 -45 -14 -75 q-4 -30 -4 -52 l0 -13 l-68 0 l7 50 Z" /><glyph glyph-name="e" unicode="e" d="M347 308 q11 55 11 88 q0 38 -14.5 56 q-14.5 18 -48.5 18 q-20 0 -37.5 -8 q-17.5 -8 -32.5 -26.5 q-15 -18.5 -28.5 -50 q-13.5 -31.5 -23.5 -77.5 l174 0 ZM160 248 l-6 -29 q-12 -56 -12 -90 q0 -43 18 -61 q18 -18 54 -18 q21 0 37.5 8.5 q16.5 8.5 30 22.5 q13.5 14 23.5 31.5 q10 17.5 18 35.5 l66 -8 q-11 -29 -29.5 -56 q-18.5 -27 -44 -48 q-25.5 -21 -57 -33.5 q-31.5 -12.5 -67.5 -12.5 q-60 0 -88.5 33 q-28.5 33 -28.5 104 q0 53 17 133 q30 141 82.5 205.5 q52.5 64.5 134.5 64.5 q62 0 90 -38 q28 -38 28 -106 q0 -47 -12 -104 l-8 -34 l-246 0 Z" /><glyph glyph-name="f" unicode="f" d="M130 520 l80 0 l23 106 q11 53 40.5 79.5 q29.5 26.5 88.5 26.5 q14 0 28 -2 q14 -2 27 -4 l-12 -56 q-16 8 -38 8 q-26 0 -42 -15 q-16 -15 -21 -40 l-22 -103 l84 0 l-13 -60 l-84 0 l-99 -460 l-72 0 l99 460 l-80 0 l13 60 Z" /><glyph glyph-name="g" unicode="g" d="M326 -42 q1 3 1 8 q0 15 -13.5 25 q-13.5 10 -34 16.5 q-20.5 6.5 -44.5 11 q-24 4.5 -45 9.5 q-35 -14 -58 -31.5 q-23 -17.5 -28 -39.5 q-1 -4 -1.5 -7 q-0.5 -3 -0.5 -7 q0 -26 24 -42.5 q24 -16.5 76 -16.5 q60 0 88.5 21 q28.5 21 35.5 53 ZM214 345 q-7 -34 -7 -60 q0 -40 15.5 -55.5 q15.5 -15.5 39.5 -15.5 q16 0 31 6.5 q15 6.5 28.5 22 q13.5 15.5 25 40.5 q11.5 25 19.5 62 q8 38 8 61 q0 38 -15.5 54 q-15.5 16 -39.5 16 q-32 0 -60.5 -28.5 q-28.5 -28.5 -44.5 -102.5 ZM508 464 q-6 2 -11 2 q-5 0 -10 0 q-14 0 -25.5 -5.5 q-11.5 -5.5 -23.5 -14.5 q1 -9 1.5 -17.5 q0.5 -8.5 0.5 -16.5 q0 -14 -1.5 -30 q-1.5 -16 -6.5 -36 q-11 -49 -29 -84 q-18 -35 -41.5 -57.5 q-23.5 -22.5 -51.5 -33.5 q-28 -11 -58 -11 q-12 0 -23.5 2 q-11.5 2 -23.5 2 q-10 -2 -25 -10.5 q-15 -8.5 -18 -23.5 q0 -2 -0.5 -3.5 q-0.5 -1.5 -0.5 -3.5 q0 -12 9.5 -18.5 q9.5 -6.5 25.5 -11 q16 -4.5 36.5 -8 q20.5 -3.5 43.5 -8.5 q24 -5 45 -12 q21 -7 37.5 -18 q16.5 -11 26 -27 q9.5 -16 9.5 -39 q0 -13 -3 -29 q-6 -26 -22.5 -48 q-16.5 -22 -43 -38.5 q-26.5 -16.5 -61 -26 q-34.5 -9.5 -75.5 -9.5 q-79 0 -118 24 q-39 24 -39 66 q0 10 3 22 q8 35 34 62 q26 27 64 42 q-18 6 -30 20.5 q-12 14.5 -12 34.5 q0 5 2 15 q6 29 31 46.5 q25 17.5 52 22.5 q-19 15 -27 42 q-8 27 -8 57 q0 13 1 25.5 q1 12.5 4 24.5 q20 94 72 145 q52 51 121 51 q26 0 51.5 -11.5 q25.5 -11.5 33.5 -36.5 q17 21 41 34.5 q24 13.5 57 13.5 l-14 -66 Z" /><glyph glyph-name="h" unicode="h" d="M228 722 l72 0 l-56 -259 q14 13 31 25 q17 12 34 21.5 q17 9.5 33.5 15 q16.5 5.5 29.5 5.5 q44 0 67.5 -20.5 q23.5 -20.5 23.5 -65.5 q0 -22 -6 -50 l-85 -394 l-72 0 l83 384 q5 25 5 39 q0 47 -44 47 q-26 0 -54 -17 q-28 -17 -59 -47 l-87 -406 l-72 0 l156 722 Z" /><glyph glyph-name="i" unicode="i" d="M231 722 l72 0 l-18 -84 l-72 0 l18 84 ZM187 520 l72 0 l-112 -520 l-72 0 l112 520 Z" /><glyph glyph-name="j" unicode="j" d="M234 722 l72 0 l-18 -84 l-72 0 l18 84 ZM-18 -106 q6 -2 11.5 -3 q5.5 -1 10.5 -1 q24 0 40 14.5 q16 14.5 24 49.5 l122 566 l72 0 l-124 -572 q-14 -65 -45.5 -91.5 q-31.5 -26.5 -85.5 -26.5 q-9 0 -18.5 1 q-9.5 1 -19.5 3 l13 60 Z" /><glyph glyph-name="k" unicode="k" d="M222 722 l72 0 l-99 -456 l2 0 l193 254 l74 0 l-132 -166 l44 -354 l-74 0 l-33 282 l-2 0 l-96 -128 l-33 -154 l-72 0 l156 722 Z" /><glyph glyph-name="l" unicode="l" d="M231 722 l72 0 l-156 -722 l-72 0 l156 722 Z" /><glyph glyph-name="m" unicode="m" d="M80 0 l112 520 l66 0 l-12 -57 q26 25 61.5 46 q35.5 21 73.5 21 q31 0 53 -18.5 q22 -18.5 26 -47.5 q27 24 62 45 q35 21 73 21 q42 0 62.5 -22 q20.5 -22 20.5 -60 q0 -19 -4 -38 l-88 -410 l-72 0 l86 400 q4 17 4 33 q0 21 -10.5 29 q-10.5 8 -32.5 8 q-33 0 -57.5 -18.5 q-24.5 -18.5 -44.5 -35.5 l-90 -416 l-72 0 l86 400 q4 16 4 30 q0 23 -11.5 31.5 q-11.5 8.5 -34.5 8.5 q-17 0 -31 -5 q-14 -5 -26 -13 q-12 -8 -22.5 -17.5 q-10.5 -9.5 -19.5 -18.5 l-90 -416 l-72 0 Z" /><glyph glyph-name="n" unicode="n" d="M184 520 l68 0 l-12 -57 q15 13 33 25 q18 12 35.5 21.5 q17.5 9.5 34 15 q16.5 5.5 29.5 5.5 q44 0 67.5 -20.5 q23.5 -20.5 23.5 -65.5 q0 -22 -6 -50 l-85 -394 l-72 0 l83 384 q5 25 5 39 q0 47 -44 47 q-26 0 -54 -17 q-28 -17 -59 -47 l-87 -406 l-72 0 l112 520 Z" /><glyph glyph-name="o" unicode="o" d="M163 260 q-19 -89 -19 -137 q0 -44 15.5 -58.5 q15.5 -14.5 44.5 -14.5 q23 0 41.5 8.5 q18.5 8.5 34 32 q15.5 23.5 29.5 64 q14 40.5 28 105.5 q19 88 19 135 q0 45 -15.5 60 q-15.5 15 -45.5 15 q-23 0 -41 -8.5 q-18 -8.5 -34 -32 q-16 -23.5 -29.5 -64.5 q-13.5 -41 -27.5 -105 ZM91 260 q30 141 82.5 205.5 q52.5 64.5 134.5 64.5 q60 0 89 -33 q29 -33 29 -105 q0 -52 -17 -132 q-31 -141 -83.5 -205.5 q-52.5 -64.5 -134.5 -64.5 q-60 0 -88.5 33 q-28.5 33 -28.5 104 q0 53 17 133 Z" /><glyph glyph-name="p" unicode="p" d="M170 96 q13 -16 28.5 -31 q15.5 -15 39.5 -15 q23 0 43 10.5 q20 10.5 37.5 34.5 q17.5 24 33 64.5 q15.5 40.5 28.5 100.5 q15 72 15 116 q0 53 -18 73.5 q-18 20.5 -50 20.5 q-17 0 -41 -13.5 q-24 -13.5 -46 -36.5 l-70 -324 ZM239 470 l2 0 q24 28 54 44 q30 16 65 16 q23 0 42.5 -8 q19.5 -8 34 -25.5 q14.5 -17.5 22.5 -45 q8 -27.5 8 -67.5 q0 -26 -3.5 -56.5 q-3.5 -30.5 -11.5 -67.5 q-17 -75 -40 -126.5 q-23 -51.5 -50.5 -83.5 q-27.5 -32 -57.5 -46 q-30 -14 -61 -14 q-29 0 -50 15 q-21 15 -35 33 l-45 -208 l-72 0 l149 690 l60 0 l-11 -50 Z" /><glyph glyph-name="q" unicode="q" d="M384 420 q-11 23 -29.5 36.5 q-18.5 13.5 -35.5 13.5 q-23 0 -43 -10.5 q-20 -10.5 -38 -34.5 q-18 -24 -33.5 -64.5 q-15.5 -40.5 -28.5 -100.5 q-16 -73 -16 -120 q0 -50 17 -70 q17 -20 49 -20 q24 0 46.5 15 q22.5 15 41.5 31 l70 324 ZM418 520 l60 0 l-149 -690 l-72 0 l45 208 q-22 -18 -50 -33 q-28 -15 -57 -15 q-23 0 -43 7.5 q-20 7.5 -34 25 q-14 17.5 -22 45 q-8 27.5 -8 66.5 q0 53 16 126 q16 75 39 126.5 q23 51.5 50.5 83.5 q27.5 32 57.5 46 q30 14 61 14 q35 0 58 -16 q23 -16 35 -44 l2 0 l11 50 Z" /><glyph glyph-name="r" unicode="r" d="M178 520 l72 0 l-14 -63 l2 0 q21 24 39 38 q18 14 35 22 q17 8 35 10.5 q18 2.5 39 2.5 l-15 -68 q-20 0 -39 -4 q-19 -4 -37.5 -14.5 q-18.5 -10.5 -37 -28 q-18.5 -17.5 -39.5 -45.5 l-80 -370 l-72 0 l112 520 Z" /><glyph glyph-name="s" unicode="s" d="M357 388 q-2 34 -15.5 58 q-13.5 24 -56.5 24 q-26 0 -46 -18 q-20 -18 -25 -44 q-2 -10 -2 -15 q0 -21 12.5 -37.5 q12.5 -16.5 31 -31.5 q18.5 -15 40 -29.5 q21.5 -14.5 40 -32.5 q18.5 -18 31 -40.5 q12.5 -22.5 12.5 -53.5 q0 -8 -1 -16.5 q-1 -8.5 -3 -17.5 q-7 -31 -23.5 -57 q-16.5 -26 -39.5 -45.5 q-23 -19.5 -51.5 -30.5 q-28.5 -11 -59.5 -11 q-71 0 -101 36 q-30 36 -35 102 l69 14 q2 -17 6.5 -33.5 q4.5 -16.5 13 -29.5 q8.5 -13 22 -21 q13.5 -8 33.5 -8 q15 0 29.5 6.5 q14.5 6.5 27.5 17 q13 10.5 22.5 25 q9.5 14.5 12.5 30.5 q1 5 1.5 9.5 q0.5 4.5 0.5 9.5 q0 23 -12 41 q-12 18 -30.5 33.5 q-18.5 15.5 -40 30 q-21.5 14.5 -40 32 q-18.5 17.5 -30.5 39 q-12 21.5 -12 50.5 q0 13 3 30 q6 25 20.5 48 q14.5 23 36.5 40.5 q22 17.5 48.5 27.5 q26.5 10 56.5 10 q60 0 89 -32.5 q29 -32.5 29 -91.5 l-64 -18 Z" /><glyph glyph-name="t" unicode="t" d="M120 520 l70 0 l38 174 l72 0 l-38 -174 l96 0 l-13 -60 l-96 0 l-79 -364 q-2 -10 -2 -15 q0 -17 10 -27 q10 -10 33 -10 q11 0 23.5 3.5 q12.5 3.5 22.5 6.5 l-11 -54 q-17 -5 -32.5 -7.5 q-15.5 -2.5 -38.5 -2.5 q-41 0 -61 16 q-20 16 -20 52 q0 18 6 44 l77 358 l-70 0 l13 60 Z" /><glyph glyph-name="u" unicode="u" d="M372 0 l-68 0 l12 57 q-16 -13 -34 -25 q-18 -12 -35.5 -21.5 q-17.5 -9.5 -34 -15 q-16.5 -5.5 -29.5 -5.5 q-44 0 -67 20 q-23 20 -23 65 q0 22 6 51 l85 394 l72 0 l-83 -384 q-5 -25 -5 -40 q0 -46 43 -46 q26 0 54.5 17 q28.5 17 58.5 47 l88 406 l72 0 l-112 -520 Z" /><glyph glyph-name="v" unicode="v" d="M202 520 l7 -448 l2 0 l199 448 l72 0 l-240 -520 l-96 0 l-16 520 l72 0 Z" /><glyph glyph-name="w" unicode="w" d="M198 520 l-9 -382 l2 0 l167 382 l68 0 l3 -382 l2 0 l151 382 l68 0 l-220 -520 l-60 0 l-3 404 l-2 0 l-177 -404 l-60 0 l2 520 l68 0 Z" /><glyph glyph-name="x" unicode="x" d="M113 520 l74 0 l47 -182 l115 182 l74 0 l-166 -250 l74 -270 l-74 0 l-50 204 l-132 -204 l-74 0 l178 270 l-66 250 Z" /><glyph glyph-name="y" unicode="y" d="M188 520 l12 -398 l2 0 l166 398 l74 0 l-229 -509 q-39 -86 -88 -133.5 q-49 -47.5 -115 -47.5 l-36 0 l13 60 l21 0 q43 0 76.5 29.5 q33.5 29.5 55.5 84.5 l-26 516 l74 0 Z" /><glyph glyph-name="z" unicode="z" d="M151 520 l270 0 l-10 -48 l-296 -412 l206 0 l-12 -60 l-286 0 l11 54 l288 406 l-184 0 l13 60 Z" /><glyph glyph-name="braceleft" unicode="{" d="M87 331 q31 0 48 18 q17 18 28 66 l48 221 q11 48 42 72 q31 24 73 24 l64 0 l-9 -40 l-52 0 q-40 0 -51 -52 l-51 -235 q-5 -23 -15.5 -40 q-10.5 -17 -23.5 -28 q-13 -11 -28 -17 q-15 -6 -29 -8 l0 -2 q22 -3 40 -18.5 q18 -15.5 18 -47.5 q0 -12 -3 -27 l-50 -235 q-3 -12 -3 -21 q0 -31 31 -31 l52 0 l-8 -40 l-64 0 q-35 0 -56 17 q-21 17 -21 52 q0 12 3 27 l48 221 q3 13 4 23 q1 10 1 18 q0 24 -11 33.5 q-11 9.5 -34 9.5 l9 40 Z" /><glyph glyph-name="bar" unicode="|" d="M236 732 l66 0 l-161 -742 l-66 0 l161 742 Z" /><glyph glyph-name="braceright" unicode="}" d="M324 291 q-31 0 -48 -18 q-17 -18 -28 -66 l-48 -221 q-10 -48 -41 -72 q-31 -24 -73 -24 l-64 0 l8 40 l52 0 q40 0 52 52 l50 235 q11 47 40 68 q29 21 57 25 l0 2 q-23 3 -41 19 q-18 16 -18 49 q0 11 3 25 l51 235 q1 5 1.5 9.5 q0.5 4.5 0.5 9.5 q0 33 -31 33 l-52 0 l9 40 l64 0 q35 0 55.5 -17 q20.5 -17 20.5 -51 q0 -13 -3 -28 l-48 -221 q-3 -13 -4 -23 q-1 -10 -1 -18 q0 -24 11 -33.5 q11 -9.5 34 -9.5 l-9 -40 Z" /><glyph glyph-name="asciitilde" unicode="~" d="M600 281 q-13 -16 -28 -32 q-15 -16 -33.5 -28.5 q-18.5 -12.5 -40.5 -20 q-22 -7.5 -48 -7.5 q-26 0 -53 9.5 q-27 9.5 -55 23.5 q-26 12 -51 23.5 q-25 11.5 -46 11.5 q-31 0 -57 -22.5 q-26 -22.5 -50 -49.5 l-27 50 q13 16 28.5 32 q15.5 16 34 28.5 q18.5 12.5 40 20 q21.5 7.5 47.5 7.5 q26 0 53.5 -9.5 q27.5 -9.5 54.5 -23.5 q26 -12 51.5 -23.5 q25.5 -11.5 46.5 -11.5 q31 0 56.5 22.5 q25.5 22.5 49.5 49.5 l27 -50 Z" /><glyph glyph-name="Euro" unicode="&#x20ac;" d="M544 577 q-10 19 -21 35 q-11 16 -24.5 28 q-13.5 12 -30.5 19 q-17 7 -40 7 q-37 0 -64.5 -17.5 q-27.5 -17.5 -48 -47 q-20.5 -29.5 -35.5 -67.5 q-15 -38 -26 -79 l233 0 l-28 -60 l-220 0 l-20 -92 l196 0 l-28 -60 l-178 0 q-2 -17 -3.5 -33.5 q-1.5 -16.5 -1.5 -32.5 q0 -27 5 -49 q5 -22 16 -38 q11 -16 30 -25 q19 -9 48 -9 q37 0 74.5 17.5 q37.5 17.5 66.5 41.5 l-16 -77 q-32 -24 -69.5 -36 q-37.5 -12 -73.5 -12 q-45 0 -75.5 13 q-30.5 13 -49 37 q-18.5 24 -26.5 57.5 q-8 33.5 -8 74.5 q0 17 1.5 34.5 q1.5 17.5 3.5 36.5 l-64 0 l28 60 l45 0 q4 27 12 58 l7 34 l-59 0 l28 60 l47 0 q16 55 38.5 105.5 q22.5 50.5 54.5 88.5 q32 38 75.5 60.5 q43.5 22.5 100.5 22.5 q46 0 80.5 -19.5 q34.5 -19.5 56.5 -56.5 l-37 -79 Z" /><glyph glyph-name="quotesinglbase" unicode="&#x201a;" d="M170 94 l-22 -100 l-91 -144 l-30 0 l79 150 l-40 0 l20 94 l84 0 Z" /><glyph glyph-name="florin" unicode="&#x192;" d="M12 -100 q18 -10 40 -10 q13 0 25.5 3.5 q12.5 3.5 25.5 18.5 q13 15 28.5 46 q15.5 31 36 86 q20.5 55 47 138.5 q26.5 83.5 62.5 203.5 l-88 0 l13 60 l92 0 q21 84 46.5 139 q25.5 55 54 88 q28.5 33 61 46 q32.5 13 68.5 13 q12 0 24 -1 q12 -1 23 -3 l-14 -64 q-11 2 -21 5 q-10 3 -21 3 q-22 0 -39.5 -6.5 q-17.5 -6.5 -34 -29.5 q-16.5 -23 -34.5 -68 q-18 -45 -41 -122 l86 0 l-13 -60 l-90 0 q-37 -124 -66.5 -213.5 q-29.5 -89.5 -54.5 -151 q-25 -61.5 -47.5 -99.5 q-22.5 -38 -45.5 -58.5 q-23 -20.5 -48 -27 q-25 -6.5 -54 -6.5 q-8 0 -17 1 q-9 1 -17 3 l13 66 Z" /><glyph glyph-name="quotedblbase" unicode="&#x201e;" d="M337 94 l-22 -100 l-91 -144 l-30 0 l79 150 l-40 0 l20 94 l84 0 ZM170 94 l-22 -100 l-91 -144 l-30 0 l79 150 l-40 0 l20 94 l84 0 Z" /><glyph glyph-name="ellipsis" unicode="&#x2026;" d="M562 94 l-20 -94 l-84 0 l20 94 l84 0 ZM895 94 l-20 -94 l-84 0 l20 94 l84 0 ZM229 94 l-20 -94 l-84 0 l20 94 l84 0 Z" /><glyph glyph-name="dagger" unicode="&#x2020;" d="M193 552 l155 -24 q11 60 14 115.5 q3 55.5 6 88.5 l80 0 q-6 -17 -14.5 -39.5 q-8.5 -22.5 -18 -49 q-9.5 -26.5 -19 -56 q-9.5 -29.5 -16.5 -59.5 l165 24 l-17 -78 l-155 24 q-8 -45 -9.5 -92 q-1.5 -47 -3.5 -82 q-13 -30 -27 -76.5 q-14 -46.5 -29 -102 q-15 -55.5 -30.5 -115 q-15.5 -59.5 -30.5 -114.5 l-24 0 q9 55 19.5 114.5 q10.5 59.5 19.5 115 q9 55.5 15 102 q6 46.5 7 76.5 q7 17 15 38 q8 21 16.5 43.5 q8.5 22.5 16 46 q7.5 23.5 13.5 46.5 l-165 -24 l17 78 Z" /><glyph glyph-name="daggerdbl" unicode="&#x2021;" d="M528 474 l-155 24 q-8 -45 -9.5 -92 q-1.5 -47 -3.5 -82 q-7 -17 -15.5 -38 q-8.5 -21 -17 -43.5 q-8.5 -22.5 -16 -46.5 q-7.5 -24 -13.5 -46 l165 24 l-17 -78 l-155 24 q-11 -60 -14 -115.5 q-3 -55.5 -6 -88.5 l-80 0 q6 16 14.5 39 q8.5 23 18 49.5 q9.5 26.5 19 56 q9.5 29.5 16.5 59.5 l-165 -24 l17 78 l155 -24 q8 45 10 92 q2 47 4 82 q7 17 15 38 q8 21 16.5 43.5 q8.5 22.5 16 46 q7.5 23.5 13.5 46.5 l-165 -24 l17 78 l155 -24 q11 60 14 115.5 q3 55.5 6 88.5 l80 0 q-6 -17 -14.5 -39.5 q-8.5 -22.5 -18 -49 q-9.5 -26.5 -19 -56 q-9.5 -29.5 -16.5 -59.5 l165 24 l-17 -78 Z" /><glyph glyph-name="circumflex" unicode="&#x2c6;" d="M231 716 l68 0 l72 -138 l-64 0 l-49 102 l-93 -102 l-64 0 l130 138 Z" /><glyph glyph-name="perthousand" unicode="&#x2030;" d="M200 574 q-2 -5 -2 -10 q0 -5 0 -10 q0 -30 19.5 -51 q19.5 -21 54.5 -21 q20 0 38.5 7.5 q18.5 7.5 33.5 20.5 q15 13 25.5 29.5 q10.5 16.5 14.5 34.5 q1 5 1.5 9.5 q0.5 4.5 0.5 9.5 q0 30 -19.5 51.5 q-19.5 21.5 -54.5 21.5 q-20 0 -38.5 -7.5 q-18.5 -7.5 -33.5 -20.5 q-15 -13 -25.5 -29.5 q-10.5 -16.5 -14.5 -34.5 ZM772 148 q-2 -5 -2 -10 q0 -5 0 -10 q0 -30 19.5 -51 q19.5 -21 54.5 -21 q20 0 38.5 7.5 q18.5 7.5 33.5 20.5 q15 13 25.5 29.5 q10.5 16.5 14.5 34.5 q1 5 1.5 9 q0.5 4 0.5 9 q0 30 -20 52 q-20 22 -55 22 q-20 0 -38.5 -7.5 q-18.5 -7.5 -33.5 -20.5 q-15 -13 -25 -29.5 q-10 -16.5 -14 -34.5 ZM416 148 q-2 -5 -2 -10 q0 -5 0 -10 q0 -30 19.5 -51 q19.5 -21 54.5 -21 q20 0 38.5 7.5 q18.5 7.5 33.5 20.5 q15 13 25.5 29.5 q10.5 16.5 14.5 34.5 q1 5 1.5 9 q0.5 4 0.5 9 q0 30 -20 52 q-20 22 -55 22 q-20 0 -38.5 -7.5 q-18.5 -7.5 -33.5 -20.5 q-15 -13 -25 -29.5 q-10 -16.5 -14 -34.5 ZM716 732 l-575 -742 l-58 0 l575 742 l58 0 ZM360 148 q6 30 24 56.5 q18 26.5 42.5 47 q24.5 20.5 54 32.5 q29.5 12 59.5 12 q26 0 48 -9.5 q22 -9.5 37.5 -25.5 q15.5 -16 24.5 -37.5 q9 -21.5 9 -46.5 q0 -14 -3 -29 q-7 -30 -24.5 -56.5 q-17.5 -26.5 -42.5 -47 q-25 -20.5 -54 -32.5 q-29 -12 -59 -12 q-26 0 -48 9 q-22 9 -37.5 25 q-15.5 16 -24.5 37.5 q-9 21.5 -9 46.5 q0 15 3 30 ZM716 148 q6 30 24 56.5 q18 26.5 42.5 47 q24.5 20.5 54 32.5 q29.5 12 59.5 12 q26 0 48 -9.5 q22 -9.5 37.5 -25.5 q15.5 -16 24.5 -37.5 q9 -21.5 9 -46.5 q0 -14 -3 -29 q-7 -30 -24.5 -56.5 q-17.5 -26.5 -42.5 -47 q-25 -20.5 -54 -32.5 q-29 -12 -59 -12 q-26 0 -48 9 q-22 9 -37.5 25 q-15.5 16 -24.5 37.5 q-9 21.5 -9 46.5 q0 15 3 30 ZM144 574 q6 30 24 56.5 q18 26.5 42.5 47 q24.5 20.5 54 32.5 q29.5 12 59.5 12 q26 0 48 -9.5 q22 -9.5 37.5 -25.5 q15.5 -16 24.5 -37.5 q9 -21.5 9 -46.5 q0 -14 -3 -29 q-6 -30 -24 -56.5 q-18 -26.5 -43 -47 q-25 -20.5 -54 -32.5 q-29 -12 -59 -12 q-26 0 -48 9.5 q-22 9.5 -37.5 25.5 q-15.5 16 -24.5 37.5 q-9 21.5 -9 46.5 q0 14 3 29 Z" /><glyph glyph-name="guilsinglleft" unicode="&#x2039;" d="M218 106 l-90 154 l157 154 l68 0 l-161 -154 l94 -154 l-68 0 Z" /><glyph glyph-name="OE" unicode="&#x152;" d="M481 554 q6 27 6 45 q0 32 -19 43.5 q-19 11.5 -57 11.5 q-36 0 -67.5 -13 q-31.5 -13 -59 -46 q-27.5 -33 -50.5 -90 q-23 -57 -42 -144 q-21 -98 -21 -157 q0 -78 30.5 -107 q30.5 -29 82.5 -29 q25 0 43.5 4.5 q18.5 4.5 32 15.5 q13.5 11 23 30.5 q9.5 19.5 15.5 49.5 l83 386 ZM454 66 l246 0 l-14 -66 l-248 0 l-73 0 l-65 0 q-52 0 -91 9 q-39 9 -65.5 30.5 q-26.5 21.5 -39.5 57 q-13 35.5 -13 89.5 q0 35 6 78 q6 43 17 97 q23 107 53.5 176.5 q30.5 69.5 71.5 110.5 q41 41 94.5 57.5 q53.5 16.5 122.5 16.5 l62 0 l77 0 l235 0 l-15 -66 l-234 0 l-53 -246 l178 0 l-14 -66 l-178 0 l-60 -278 Z" /><glyph glyph-name="quoteleft" unicode="&#x2018;" d="M177 488 l22 100 l91 144 l30 0 l-79 -150 l40 0 l-20 -94 l-84 0 Z" /><glyph glyph-name="quoteright" unicode="&#x2019;" d="M306 722 l-22 -100 l-91 -144 l-30 0 l78 150 l-40 0 l21 94 l84 0 Z" /><glyph glyph-name="quotedblleft" unicode="&#x201c;" d="M177 488 l22 100 l91 144 l30 0 l-79 -150 l40 0 l-20 -94 l-84 0 ZM344 488 l22 100 l91 144 l30 0 l-79 -150 l40 0 l-20 -94 l-84 0 Z" /><glyph glyph-name="quotedblright" unicode="&#x201d;" d="M473 722 l-22 -100 l-91 -144 l-30 0 l78 150 l-40 0 l21 94 l84 0 ZM306 722 l-22 -100 l-91 -144 l-30 0 l78 150 l-40 0 l21 94 l84 0 Z" /><glyph glyph-name="bullet" unicode="&#x2022;" d="M147 361 q8 37 29 70 q21 33 51 57.5 q30 24.5 65.5 38.5 q35.5 14 73.5 14 q66 0 106 -40 q40 -40 40 -102 q0 -9 -1 -18.5 q-1 -9.5 -3 -19.5 q-8 -38 -29.5 -70.5 q-21.5 -32.5 -51.5 -57.5 q-30 -25 -66.5 -39 q-36.5 -14 -73.5 -14 q-32 0 -58.5 10.5 q-26.5 10.5 -45.5 29.5 q-19 19 -29.5 45 q-10.5 26 -10.5 56 q0 21 4 40 Z" /><glyph glyph-name="endash" unicode="&#x2013;" d="M51 236 l10 48 l500 0 l-10 -48 l-500 0 Z" /><glyph glyph-name="emdash" unicode="&#x2014;" d="M51 236 l10 48 l1000 0 l-10 -48 l-1000 0 Z" /><glyph glyph-name="tilde" unicode="&#x2dc;" d="M97 588 q4 16 13 33.5 q9 17.5 22 31.5 q13 14 29 23.5 q16 9.5 34 9.5 q19 0 35.5 -7 q16.5 -7 30.5 -15 q15 -8 28.5 -15 q13.5 -7 26.5 -7 q22 0 32.5 15.5 q10.5 15.5 16.5 34.5 l36 0 q-5 -18 -13 -36 q-8 -18 -20 -31.5 q-12 -13.5 -28.5 -22 q-16.5 -8.5 -37.5 -8.5 q-16 0 -31.5 7 q-15.5 7 -29.5 15 q-15 8 -29 15 q-14 7 -28 7 q-21 0 -33.5 -15.5 q-12.5 -15.5 -17.5 -34.5 l-36 0 Z" /><glyph glyph-name="trademark" unicode="&#x2122;" d="M516 668 l-134 0 l-80 -369 l-66 0 l80 369 l-134 0 l12 54 l134 0 l66 0 l134 0 l-12 -54 ZM570 299 l-66 0 l92 423 l65 0 l40 0 l56 -321 l194 321 l39 0 l67 0 l-92 -423 l-66 0 l77 357 l-2 0 l-218 -357 l-44 0 l-62 357 l-3 0 l-77 -357 Z" /><glyph glyph-name="guilsinglright" unicode="&#x203a;" d="M91 106 l162 154 l-95 154 l68 0 l91 -154 l-158 -154 l-68 0 Z" /><glyph glyph-name="oe" unicode="&#x153;" d="M571 308 q11 55 11 88 q0 38 -14.5 56 q-14.5 18 -48.5 18 q-31 0 -59 -36.5 q-28 -36.5 -51 -125.5 l162 0 ZM151 260 q-19 -89 -19 -137 q0 -44 15.5 -58.5 q15.5 -14.5 44.5 -14.5 q23 0 41.5 8.5 q18.5 8.5 35 32 q16.5 23.5 30.5 64 q14 40.5 28 105.5 q19 86 19 133 q0 46 -16.5 61.5 q-16.5 15.5 -46.5 15.5 q-23 0 -41 -8.5 q-18 -8.5 -34 -32 q-16 -23.5 -29.5 -64.5 q-13.5 -41 -27.5 -105 ZM396 248 l-6 -29 q-11 -53 -11 -84 q0 -48 17 -66.5 q17 -18.5 42 -18.5 q21 0 37.5 8.5 q16.5 8.5 30 22.5 q13.5 14 23 31.5 q9.5 17.5 16.5 35.5 l66 -8 q-10 -29 -28 -56 q-18 -27 -43 -48 q-25 -21 -54.5 -33.5 q-29.5 -12.5 -61.5 -12.5 q-17 0 -33.5 4 q-16.5 4 -30 13.5 q-13.5 9.5 -24 25 q-10.5 15.5 -16.5 38.5 q-50 -81 -141 -81 q-60 0 -88.5 33 q-28.5 33 -28.5 104 q0 53 17 133 q30 141 82.5 205.5 q52.5 64.5 134.5 64.5 q48 0 74 -21 q26 -21 33 -67 q29 45 62.5 66.5 q33.5 21.5 66.5 21.5 q62 0 90 -38 q28 -38 28 -106 q0 -47 -12 -104 l-8 -34 l-234 0 Z" /><glyph glyph-name="nonbreakingspace" unicode=" " d="" /><glyph glyph-name="exclamdown" unicode="¡" d="M217 426 l20 94 l84 0 l-20 -94 l-84 0 ZM165 -202 l-84 0 l126 508 l52 0 l-94 -508 Z" /><glyph glyph-name="cent" unicode="¢" d="M345 477 q-9 3 -22 3 q-23 0 -41 -8.5 q-18 -8.5 -34 -32 q-16 -23.5 -29.5 -64.5 q-13.5 -41 -27.5 -105 q-10 -46 -15 -79 q-5 -33 -5 -56 q0 -12 1.5 -21 q1.5 -9 3.5 -17 l169 380 ZM209 63 q10 -3 23 -3 q17 0 32 5 q15 5 28 18 q13 13 25 35 q12 22 24 56 l70 0 q-13 -38 -31 -70 q-18 -32 -42 -55 q-24 -23 -53.5 -36 q-29.5 -13 -64.5 -13 q-11 0 -19.5 1 q-8.5 1 -16.5 4 l-53 -119 l-48 0 l60 136 q-41 33 -41 116 q0 52 17 132 q31 141 83 205.5 q52 64.5 134 64.5 q18 0 35 -3 l49 113 l48 0 l-57 -130 q23 -17 33 -46.5 q10 -29.5 10 -69.5 q0 -7 0 -14 q0 -6 -1 -14 l-70 0 q1 8 1.5 15 q0.5 7 0.5 14 q0 26 -7 41 l-169 -383 Z" /><glyph glyph-name="sterling" unicode="£" d="M44 58 q28 12 48.5 31.5 q20.5 19.5 35.5 43 q15 23.5 25 50 q10 26.5 15 51.5 q6 29 8 50 q2 21 5 46 l-78 0 l13 60 l66 0 q0 17 -0.5 35 q-0.5 18 -0.5 36 q0 22 1.5 44.5 q1.5 22.5 6.5 45.5 q10 48 29 82 q19 34 44 56 q25 22 53.5 32.5 q28.5 10.5 57.5 10.5 q38 0 63 -11 q25 -11 40 -30 q15 -19 21 -44.5 q6 -25.5 6 -54.5 q0 -34 -6 -68 l-66 0 q3 25 3 48 q0 45 -14.5 72.5 q-14.5 27.5 -52.5 27.5 q-38 0 -64 -23.5 q-26 -23.5 -40 -86.5 q-6 -26 -7.5 -52 q-1.5 -26 -1.5 -51 l0 -39 l0 -30 l106 0 l-13 -60 l-94 0 q-3 -20 -4 -41 q-1 -21 -6 -43 q-8 -33 -20 -65.5 q-12 -32.5 -32 -64.5 q16 -24 36 -41 q20 -17 49 -17 q15 0 29.5 5.5 q14.5 5.5 28 20.5 q13.5 15 25 40.5 q11.5 25.5 20.5 65.5 l66 0 q-13 -58 -29.5 -96.5 q-16.5 -38.5 -38.5 -61.5 q-22 -23 -50.5 -32.5 q-28.5 -9.5 -64.5 -9.5 q-35 0 -65 22.5 q-30 22.5 -44 53.5 q-26 -27 -57.5 -49 q-31.5 -22 -66.5 -27 l15 68 Z" /><glyph glyph-name="currency" unicode="¤" d="M156 361 q-4 -19 -4 -39 q0 -51 30 -82 q30 -31 85 -31 q32 0 61 11.5 q29 11.5 52.5 31.5 q23.5 20 40 48 q16.5 28 23.5 61 q4 19 4 39 q0 51 -30 82 q-30 31 -85 31 q-32 0 -61 -11.5 q-29 -11.5 -52.5 -31.5 q-23.5 -20 -40 -48 q-16.5 -28 -23.5 -61 ZM426 143 l-35 47 q-31 -24 -67.5 -34.5 q-36.5 -10.5 -70.5 -10.5 q-34 0 -66 10.5 q-32 10.5 -52 34.5 l-57 -47 l-32 42 l56 49 q-11 14 -16 35 q-5 21 -5 44 q0 12 1.5 24 q1.5 12 3.5 24 q8 35 26.5 70.5 q18.5 35.5 44.5 56.5 l-35 49 l51 42 l36 -47 q31 24 67 34.5 q36 10.5 70 10.5 q34 0 66.5 -10.5 q32.5 -10.5 52.5 -34.5 l56 47 l33 -42 l-57 -49 q11 -14 16.5 -35.5 q5.5 -21.5 5.5 -45.5 q0 -21 -5 -46 q-8 -35 -27 -70.5 q-19 -35.5 -45 -56.5 l36 -49 l-52 -42 Z" /><glyph glyph-name="yen" unicode="¥" d="M470 238 l-160 0 l-51 -238 l-72 0 l51 238 l-160 0 l13 60 l160 0 l2 8 l-16 84 l-126 0 l13 60 l102 0 l-51 272 l72 0 l61 -332 l201 332 l72 0 l-167 -272 l102 0 l-13 -60 l-126 0 l-52 -84 l-2 -8 l160 0 l-13 -60 Z" /><glyph glyph-name="brokenbar" unicode="¦" d="M236 732 l66 0 l-62 -284 l-66 0 l62 284 ZM137 274 l66 0 l-62 -284 l-66 0 l62 284 Z" /><glyph glyph-name="section" unicode="§" d="M215 396 q0 -2 -0.5 -3.5 q-0.5 -1.5 -0.5 -3.5 q0 -19 15 -50 q15 -31 37.5 -60.5 q22.5 -29.5 48 -51 q25.5 -21.5 46.5 -21.5 q23 0 42 18.5 q19 18.5 24 40.5 q1 3 1 10 q0 22 -15 53.5 q-15 31.5 -36.5 60.5 q-21.5 29 -46 49 q-24.5 20 -43.5 20 q-29 0 -47.5 -17 q-18.5 -17 -24.5 -45 ZM476 614 q-5 11 -13 22.5 q-8 11.5 -18.5 20.5 q-10.5 9 -23 15 q-12.5 6 -25.5 6 q-35 0 -53 -15.5 q-18 -15.5 -24 -43.5 q-1 -4 -1 -11 q0 -21 13.5 -43.5 q13.5 -22.5 33 -47.5 q19.5 -25 43 -51 q23.5 -26 43 -54 q19.5 -28 33 -56.5 q13.5 -28.5 13.5 -58.5 q0 -6 0 -12 q0 -6 -2 -12 q-11 -51 -49 -80 q-38 -29 -87 -29 q14 -22 25 -47 q11 -25 11 -54 q0 -13 -3 -26 q-6 -26 -21 -48.5 q-15 -22.5 -35.5 -38.5 q-20.5 -16 -45 -25 q-24.5 -9 -50.5 -9 q-53 0 -86.5 21.5 q-33.5 21.5 -55.5 62.5 l56 38 q10 -29 35.5 -48.5 q25.5 -19.5 60.5 -19.5 q26 0 48 19.5 q22 19.5 27 44.5 q1 5 1 14 q0 23 -13.5 48 q-13.5 25 -33 50.5 q-19.5 25.5 -43 52.5 q-23.5 27 -43 55.5 q-19.5 28.5 -33 58 q-13.5 29.5 -13.5 61.5 q0 13 3 27 q5 23 19 41.5 q14 18.5 33 31 q19 12.5 41.5 19.5 q22.5 7 44.5 7 q-17 21 -27 43.5 q-10 22.5 -10 49.5 q0 8 1 16 q1 8 3 17 q4 21 16.5 40 q12.5 19 31 34 q18.5 15 43.5 23.5 q25 8.5 54 8.5 q45 0 78 -23.5 q33 -23.5 55 -56.5 l-57 -38 Z" /><glyph glyph-name="dieresis" unicode="¨" d="M293 690 l66 0 l-22 -102 l-66 0 l22 102 ZM161 690 l66 0 l-22 -102 l-66 0 l22 102 Z" /><glyph glyph-name="copyright" unicode="©" d="M660 290 q-32 -72 -91 -115.5 q-59 -43.5 -128 -43.5 q-42 0 -75 13 q-33 13 -55.5 36 q-22.5 23 -34.5 54.5 q-12 31.5 -12 69.5 q0 28 6 58 q10 49 34 91 q24 42 59 73 q35 31 79 48 q44 17 95 17 q67 0 111 -35.5 q44 -35.5 44 -103.5 q0 -4 -0.5 -7 q-0.5 -3 -0.5 -7 l-63 0 l0 2 q0 39 -27 65 q-27 26 -76 26 q-36 0 -66.5 -13 q-30.5 -13 -53.5 -35.5 q-23 -22.5 -39.5 -53 q-16.5 -30.5 -23.5 -65.5 q-2 -12 -3.5 -23.5 q-1.5 -11.5 -1.5 -22.5 q0 -27 7.5 -50 q7.5 -23 22 -40 q14.5 -17 36.5 -27 q22 -10 51 -10 q50 0 88 28 q38 28 54 71 l64 0 ZM411 50 q64 0 124 23.5 q60 23.5 109.5 65.5 q49.5 42 85 99 q35.5 57 50.5 124 q4 19 6 36.5 q2 17.5 2 34.5 q0 52 -17.5 96 q-17.5 44 -49 75.5 q-31.5 31.5 -76 49.5 q-44.5 18 -99.5 18 q-65 0 -125.5 -24 q-60.5 -24 -110 -65.5 q-49.5 -41.5 -85 -98 q-35.5 -56.5 -49.5 -122.5 q-5 -20 -6.5 -38.5 q-1.5 -18.5 -1.5 -35.5 q0 -53 17.5 -96.5 q17.5 -43.5 49 -75 q31.5 -31.5 76.5 -49 q45 -17.5 100 -17.5 ZM398 -10 q-66 0 -122 21.5 q-56 21.5 -96 60 q-40 38.5 -62.5 92 q-22.5 53.5 -22.5 117.5 q0 39 9 81 q17 79 61.5 146.5 q44.5 67.5 106.5 117 q62 49.5 136 78 q74 28.5 151 28.5 q66 0 121.5 -21.5 q55.5 -21.5 95.5 -60 q40 -38.5 62.5 -92 q22.5 -53.5 22.5 -117.5 q0 -39 -9 -79 q-17 -80 -61.5 -148 q-44.5 -68 -106.5 -117.5 q-62 -49.5 -136 -78 q-74 -28.5 -150 -28.5 Z" /><glyph glyph-name="ordfeminine" unicode="ª" d="M296 574 q-15 -5 -33.5 -12.5 q-18.5 -7.5 -36 -18 q-17.5 -10.5 -30.5 -23.5 q-13 -13 -16 -28 q-1 -5 -1.5 -8.5 q-0.5 -3.5 -0.5 -6.5 q0 -25 34 -25 q19 0 36.5 10 q17.5 10 27.5 22 l20 90 ZM168 641 q14 37 44 64 q30 27 75 27 q40 0 60.5 -17 q20.5 -17 20.5 -48 q0 -11 -3 -24 l-38 -174 q-6 -26 -6 -42 q0 -7 2 -13 l-52 0 l-2 18 q-13 -12 -35 -18 q-22 -6 -38 -6 q-34 0 -53 16 q-19 16 -19 46 q0 5 0 10 q0 6 2 12 q6 29 26 51 q20 22 46.5 37.5 q26.5 15.5 55 26 q28.5 10.5 52.5 15.5 l4 18 q1 5 1.5 9.5 q0.5 4.5 0.5 8.5 q0 30 -34 30 q-26 0 -41.5 -16 q-15.5 -16 -23.5 -37 l-45 6 Z" /><glyph glyph-name="guillemotleft" unicode="«" d="M372 106 l-90 154 l157 154 l68 0 l-161 -154 l94 -154 l-68 0 ZM228 106 l-90 154 l157 154 l68 0 l-161 -154 l94 -154 l-68 0 Z" /><glyph glyph-name="logicalnot" unicode="¬" d="M566 334 l-454 0 l14 66 l455 0 l65 0 l-61 -280 l-66 0 l47 214 Z" /><glyph glyph-name="uni00AD" unicode="­" d="M92 227 l14 66 l246 0 l-14 -66 l-246 0 Z" /><glyph glyph-name="registered" unicode="®" d="M408 388 l72 0 q30 0 51.5 2.5 q21.5 2.5 36.5 10 q15 7.5 24 20.5 q9 13 14 35 q2 5 2 9 q0 4 0 9 q0 23 -19 34.5 q-19 11.5 -64 11.5 l-88 0 l-29 -132 ZM355 142 l-66 0 l94 434 l165 0 q128 0 128 -90 q0 -8 -1 -16 q-1 -8 -3 -17 q-6 -29 -19.5 -50.5 q-13.5 -21.5 -31.5 -35.5 q-18 -14 -38.5 -22 q-20.5 -8 -41.5 -11 l75 -192 l-79 0 l-74 190 l-67 0 l-41 -190 ZM411 50 q64 0 124 23.5 q60 23.5 109.5 65.5 q49.5 42 85 99 q35.5 57 50.5 124 q4 19 6 36.5 q2 17.5 2 34.5 q0 52 -17.5 96 q-17.5 44 -49 75.5 q-31.5 31.5 -76 49.5 q-44.5 18 -99.5 18 q-65 0 -125.5 -24 q-60.5 -24 -110 -65.5 q-49.5 -41.5 -85 -98 q-35.5 -56.5 -49.5 -122.5 q-5 -20 -6.5 -38.5 q-1.5 -18.5 -1.5 -35.5 q0 -53 17.5 -96.5 q17.5 -43.5 49 -75 q31.5 -31.5 76.5 -49 q45 -17.5 100 -17.5 ZM398 -10 q-66 0 -122 21.5 q-56 21.5 -96 60 q-40 38.5 -62.5 92 q-22.5 53.5 -22.5 117.5 q0 39 9 81 q17 79 61.5 146.5 q44.5 67.5 106.5 117 q62 49.5 136 78 q74 28.5 151 28.5 q66 0 121.5 -21.5 q55.5 -21.5 95.5 -60 q40 -38.5 62.5 -92 q22.5 -53.5 22.5 -117.5 q0 -39 -9 -79 q-17 -80 -61.5 -148 q-44.5 -68 -106.5 -117.5 q-62 -49.5 -136 -78 q-74 -28.5 -150 -28.5 Z" /><glyph glyph-name="macron" unicode="¯" d="M110 614 l11 48 l266 0 l-11 -48 l-266 0 Z" /><glyph glyph-name="degree" unicode="°" d="M422 584 q3 12 3 23 q0 33 -21 56 q-21 23 -56 23 q-21 0 -40 -8 q-19 -8 -35 -22 q-16 -14 -27.5 -32.5 q-11.5 -18.5 -15.5 -39.5 q-3 -12 -3 -23 q0 -33 21 -56 q21 -23 56 -23 q21 0 40 8 q19 8 35 22 q16 14 27 32.5 q11 18.5 16 39.5 ZM178 584 q6 30 23.5 57 q17.5 27 42 47.5 q24.5 20.5 54 32 q29.5 11.5 60.5 11.5 q54 0 86.5 -33 q32.5 -33 32.5 -84 q0 -16 -3 -31 q-7 -30 -24.5 -57 q-17.5 -27 -41.5 -47.5 q-24 -20.5 -53.5 -32 q-29.5 -11.5 -60.5 -11.5 q-54 0 -87 33 q-33 33 -33 83 q0 8 1 16 q1 8 3 16 Z" /><glyph glyph-name="plusminus" unicode="±" d="M54 66 l520 0 l-14 -66 l-520 0 l14 66 ZM379 520 l66 0 l-37 -170 l227 0 l-14 -66 l-227 0 l-37 -170 l-66 0 l37 170 l-227 0 l14 66 l227 0 l37 170 Z" /><glyph glyph-name="twosuperior" unicode="²" d="M85 292 l11 50 q25 45 60.5 82 q35.5 37 68.5 71 q33 34 59 65 q26 31 33 64 q1 5 1.5 9.5 q0.5 4.5 0.5 9.5 q0 37 -34 37 q-25 0 -45 -15.5 q-20 -15.5 -34 -59.5 l-50 0 q10 37 25.5 61.5 q15.5 24.5 33.5 39 q18 14.5 38.5 20.5 q20.5 6 41.5 6 q39 0 62 -19.5 q23 -19.5 23 -57.5 q0 -14 -3 -30 q-9 -41 -35.5 -76 q-26.5 -35 -59.5 -68 q-33 -33 -67 -66 q-34 -33 -59 -71 l162 0 l-11 -52 l-222 0 Z" /><glyph glyph-name="threesuperior" unicode="³" d="M167 636 q9 42 38 69 q29 27 78 27 q34 0 58.5 -19 q24.5 -19 24.5 -58 q0 -13 -3 -28 q-3 -15 -9 -31 q-6 -16 -16 -30 q-10 -14 -24 -25 q-14 -11 -33 -15 l0 -2 q27 -9 37.5 -29 q10.5 -20 10.5 -44 q0 -20 -4 -36 q-14 -68 -52.5 -98.5 q-38.5 -30.5 -84.5 -30.5 q-45 0 -66.5 22 q-21.5 22 -21.5 58 q0 13 3 30 l54 0 q-1 -5 -1 -9 q0 -4 0 -8 q0 -18 9.5 -29.5 q9.5 -11.5 35.5 -11.5 q23 0 41.5 18.5 q18.5 18.5 26.5 57.5 q3 15 3 27 q0 30 -20 42 q-20 12 -61 13 l11 52 l6 0 q42 0 65 15 q23 15 34 61 q2 6 2 11 q0 5 0 10 q0 17 -7.5 26 q-7.5 9 -26.5 9 q-25 0 -37 -11 q-12 -11 -17 -33 l-54 0 Z" /><glyph glyph-name="acute" unicode="´" d="M229 578 l-50 0 l127 138 l78 0 l-155 -138 Z" /><glyph glyph-name="mu" unicode="µ" d="M372 0 l-68 0 l12 57 q-16 -13 -34 -25 q-18 -12 -35.5 -21.5 q-17.5 -9.5 -34 -15 q-16.5 -5.5 -29.5 -5.5 q-24 0 -40 6 l-36 -166 l-72 0 l149 690 l72 0 l-83 -384 q-5 -25 -5 -40 q0 -46 43 -46 q26 0 54.5 17 q28.5 17 58.5 47 l88 406 l72 0 l-112 -520 Z" /><glyph glyph-name="paragraph" unicode="¶" d="M288 340 q-79 0 -123.5 40 q-44.5 40 -44.5 105 q0 11 1.5 21.5 q1.5 10.5 3.5 21.5 q11 52 37 88.5 q26 36.5 60.5 60 q34.5 23.5 74.5 34.5 q40 11 80 11 l57 0 l87 0 l68 0 l69 0 l-12 -54 l-70 0 l-163 -752 l-66 0 l163 752 l-85 0 l-163 -752 l-66 0 l92 424 Z" /><glyph glyph-name="periodcentered" unicode="·" d="M118 260 q5 20 22 34.5 q17 14.5 37 14.5 q17 0 28.5 -11 q11.5 -11 11.5 -28 q0 -6 -1 -10 q-5 -20 -22.5 -34.5 q-17.5 -14.5 -37.5 -14.5 q-17 0 -28 10.5 q-11 10.5 -11 27.5 q0 7 1 11 Z" /><glyph glyph-name="cedilla" unicode="¸" d="M-11 -156 q10 -5 25.5 -9.5 q15.5 -4.5 35.5 -4.5 q30 0 50.5 11.5 q20.5 11.5 25.5 29.5 q1 3 1 8 q0 14 -11.5 24.5 q-11.5 10.5 -34.5 10.5 q-12 0 -22.5 -3 q-10.5 -3 -21.5 -7 l-11 14 l78 82 l38 0 l-59 -58 l2 -2 q10 6 32 6 q27 0 46 -13.5 q19 -13.5 19 -40.5 q0 -5 -0.5 -9 q-0.5 -4 -1.5 -9 q-5 -21 -17 -37.5 q-12 -16.5 -29.5 -28 q-17.5 -11.5 -38 -18 q-20.5 -6.5 -42.5 -6.5 q-29 0 -49 3.5 q-20 3.5 -39 12.5 l24 44 Z" /><glyph glyph-name="onesuperior" unicode="¹" d="M127 340 l46 0 l71 328 l-49 -4 l8 36 q37 8 74 32 l43 0 l-85 -392 l52 0 l-10 -48 l-53 0 l-61 0 l-46 0 l10 48 Z" /><glyph glyph-name="ordmasculine" unicode="º" d="M286 570 q5 25 8 43 q3 18 3 32 q0 23 -8.5 32 q-8.5 9 -25.5 9 q-13 0 -23 -5 q-10 -5 -18 -18 q-8 -13 -15.5 -35.5 q-7.5 -22.5 -14.5 -57.5 q-5 -26 -8 -44.5 q-3 -18.5 -3 -32.5 q0 -23 8 -31 q8 -8 24 -8 q13 0 23.5 5 q10.5 5 19 18 q8.5 13 15.5 35.5 q7 22.5 15 57.5 ZM136 570 q18 85 50.5 123.5 q32.5 38.5 86.5 38.5 q40 0 59 -21 q19 -21 19 -66 q0 -32 -9 -75 q-19 -85 -52 -123.5 q-33 -38.5 -87 -38.5 q-77 0 -77 85 q0 34 10 77 Z" /><glyph glyph-name="guillemotright" unicode="»" d="M239 414 l91 -154 l-158 -154 l-68 0 l162 154 l-95 154 l68 0 ZM383 414 l91 -154 l-158 -154 l-68 0 l162 154 l-95 154 l68 0 Z" /><glyph glyph-name="onequarter" unicode="¼" d="M471 148 l83 0 l44 207 l-2 0 l-125 -207 ZM143 340 l46 0 l71 328 l-49 -4 l8 36 q37 8 74 32 l43 0 l-85 -392 l52 0 l-10 -48 l-52 0 l-62 0 l-46 0 l10 48 ZM88 -10 l600 742 l62 0 l-600 -742 l-62 0 ZM671 433 l-61 -285 l50 0 l-12 -52 l-50 0 l-20 -96 l-56 0 l20 96 l-139 0 l10 45 l183 292 l20 0 l55 0 Z" /><glyph glyph-name="onehalf" unicode="½" d="M143 340 l46 0 l71 328 l-49 -4 l8 36 q37 8 74 32 l43 0 l-85 -392 l52 0 l-10 -48 l-54 0 l-63 0 l-43 0 l10 48 ZM418 0 l10 50 q26 45 61 82 q35 37 68.5 71 q33.5 34 59 65 q25.5 31 32.5 64 q2 5 2 10 q0 5 0 10 q0 36 -34 36 q-25 0 -44.5 -15.5 q-19.5 -15.5 -33.5 -59.5 l-50 0 q10 37 25 61.5 q15 24.5 33 39 q18 14.5 39 20.5 q21 6 42 6 q39 0 62 -19.5 q23 -19.5 23 -57.5 q0 -14 -3 -30 q-9 -41 -35.5 -76 q-26.5 -35 -59.5 -68 q-33 -33 -67 -66 q-34 -33 -59 -71 l162 0 l-11 -52 l-222 0 ZM84 -10 l600 742 l62 0 l-600 -742 l-62 0 Z" /><glyph glyph-name="threequarters" unicode="¾" d="M471 148 l83 0 l44 207 l-2 0 l-125 -207 ZM187 636 q9 42 38 69 q29 27 78 27 q34 0 58.5 -19 q24.5 -19 24.5 -58 q0 -13 -3 -28 q-3 -15 -9 -31 q-6 -16 -16 -30 q-10 -14 -24 -25 q-14 -11 -33 -15 l0 -2 q27 -9 37.5 -29 q10.5 -20 10.5 -44 q0 -20 -4 -36 q-14 -68 -52.5 -98.5 q-38.5 -30.5 -84.5 -30.5 q-45 0 -66.5 22 q-21.5 22 -21.5 58 q0 13 3 30 l54 0 q-1 -5 -1 -9 q0 -4 0 -8 q0 -18 9.5 -29.5 q9.5 -11.5 35.5 -11.5 q23 0 41.5 18.5 q18.5 18.5 26.5 57.5 q3 15 3 27 q0 30 -20 42 q-20 12 -61 13 l11 52 l6 0 q42 0 65 15 q23 15 34 61 q2 6 2 11 q0 5 0 10 q0 17 -7.5 26 q-7.5 9 -26.5 9 q-25 0 -37 -11 q-12 -11 -17 -33 l-54 0 ZM84 -10 l600 742 l62 0 l-600 -742 l-62 0 ZM671 433 l-61 -285 l50 0 l-12 -52 l-50 0 l-20 -96 l-56 0 l20 96 l-139 0 l10 45 l183 292 l20 0 l55 0 Z" /><glyph glyph-name="questiondown" unicode="¿" d="M286 426 l20 94 l84 0 l-20 -94 l-84 0 ZM324 306 l-11 -50 q-8 -39 -24 -69 q-16 -30 -35 -55.5 q-19 -25.5 -39.5 -48 q-20.5 -22.5 -39.5 -46.5 q-19 -24 -34 -52 q-15 -28 -22 -63 q-3 -14 -3 -24 q0 -26 14 -38 q14 -12 31 -12 q16 0 30.5 8 q14.5 8 26 20.5 q11.5 12.5 19.5 27.5 q8 15 13 30 l58 -12 q-9 -28 -24.5 -52.5 q-15.5 -24.5 -36 -42.5 q-20.5 -18 -46.5 -28.5 q-26 -10.5 -56 -10.5 q-43 0 -72.5 24 q-29.5 24 -29.5 73 q0 8 1 17.5 q1 9.5 3 19.5 q9 42 26 73.5 q17 31.5 38 57.5 q21 26 43.5 49 q22.5 23 43 47 q20.5 24 37 52 q16.5 28 24.5 65 l9 40 l56 0 Z" /><glyph glyph-name="AE" unicode="æ" d="M418 280 l86 398 l-2 0 l-242 -398 l158 0 ZM830 722 l-15 -66 l-238 0 l-53 -246 l186 0 l-14 -66 l-186 0 l-60 -278 l250 0 l-14 -66 l-251 0 l-77 0 l46 214 l-184 0 l-128 -214 l-83 0 l446 722 l57 0 l78 0 l240 0 Z" /><glyph glyph-name="Ccedilla" unicode="ç" d="M127 -156 q11 -5 26.5 -9.5 q15.5 -4.5 35.5 -4.5 q30 0 50.5 11.5 q20.5 11.5 25.5 29.5 q1 3 1 8 q0 14 -11.5 24.5 q-11.5 10.5 -34.5 10.5 q-12 0 -22.5 -3 q-10.5 -3 -21.5 -7 l-11 14 l69 73 q-63 5 -98 48.5 q-35 43.5 -35 139.5 q0 37 5.5 82 q5.5 45 17.5 100 q22 102 52 173 q30 71 66.5 115 q36.5 44 79.5 63.5 q43 19.5 91 19.5 q69 0 105 -40 q36 -40 36 -124 q0 -15 -1.5 -31 q-1.5 -16 -3.5 -33 l-78 0 q2 16 3 29.5 q1 13.5 1 25.5 q0 56 -19 81.5 q-19 25.5 -57 25.5 q-34 0 -62.5 -16 q-28.5 -16 -52.5 -52 q-24 -36 -44 -94.5 q-20 -58.5 -38 -142.5 q-25 -113 -25 -183 q0 -66 22.5 -94 q22.5 -28 67.5 -28 q27 0 50.5 10 q23.5 10 43 32 q19.5 22 35 57 q15.5 35 27.5 85 l78 0 q-26 -115 -85.5 -179 q-59.5 -64 -144.5 -70 l-49 -49 l2 -2 q10 6 32 6 q27 0 46 -13.5 q19 -13.5 19 -40.5 q0 -5 -0.5 -9 q-0.5 -4 -1.5 -9 q-5 -21 -17 -37.5 q-12 -16.5 -29.5 -28 q-17.5 -11.5 -38 -18 q-20.5 -6.5 -42.5 -6.5 q-29 0 -49.5 3.5 q-20.5 3.5 -39.5 12.5 l24 44 Z" /><glyph glyph-name="Eth" unicode="ð" d="M352 410 l-14 -66 l-120 0 l-60 -278 l42 0 q43 0 78.5 11.5 q35.5 11.5 65.5 43.5 q30 32 55 89.5 q25 57.5 45 150.5 q11 48 15.5 86 q4.5 38 4.5 68 q0 43 -9.5 70 q-9.5 27 -27.5 43 q-18 16 -43.5 22 q-25.5 6 -56.5 6 l-42 0 l-53 -246 l120 0 ZM154 410 l68 312 l76 0 l58 0 q43 0 78 -10 q35 -10 59 -33 q24 -23 37 -60.5 q13 -37.5 13 -92.5 q0 -68 -21 -165 q-23 -104 -54.5 -173.5 q-31.5 -69.5 -72 -111 q-40.5 -41.5 -89.5 -59 q-49 -17.5 -106 -17.5 l-57 0 l-77 0 l74 344 l-54 0 l14 66 l54 0 Z" /><glyph glyph-name="multiply" unicode="×" d="M404 260 l166 -212 l-58 -48 l-166 213 l-258 -213 l-38 48 l258 212 l-166 212 l58 48 l166 -213 l258 213 l38 -48 l-258 -212 Z" /><glyph glyph-name="Oslash" unicode="ø" d="M461 627 q-12 22 -29 30.5 q-17 8.5 -38 8.5 q-26 0 -52 -13 q-26 -13 -50.5 -47.5 q-24.5 -34.5 -47 -93.5 q-22.5 -59 -42.5 -151 q-24 -110 -24 -173 q0 -5 0.5 -10.5 q0.5 -5.5 0.5 -10.5 l2 0 l280 460 ZM192 100 q11 -25 29 -34.5 q18 -9.5 41 -9.5 q26 0 52 13 q26 13 50.5 47.5 q24.5 34.5 47 93.5 q22.5 59 42.5 151 q14 64 19 111 q5 47 5 82 l0 10 l-2 0 l-284 -464 ZM58 -120 l-54 0 l117 190 q-20 45 -20 113 q0 71 23 178 q22 101 52 171.5 q30 70.5 66 115 q36 44.5 78 64.5 q42 20 88 20 q62 0 97 -34 l65 106 l54 0 l-91 -148 q21 -45 21 -118 q0 -74 -22 -177 q-22 -101 -52 -171.5 q-30 -70.5 -66.5 -115 q-36.5 -44.5 -78.5 -64.5 q-42 -20 -88 -20 q-31 0 -55.5 9 q-24.5 9 -43.5 29 l-90 -148 Z" /><glyph glyph-name="Thorn" unicode="þ" d="M183 230 l82 0 q59 0 98.5 32 q39.5 32 54.5 100 q2 12 3.5 22.5 q1.5 10.5 1.5 20.5 q0 46 -26.5 67.5 q-26.5 21.5 -74.5 21.5 l-82 0 l-57 -264 ZM212 722 l78 0 l-35 -162 l92 0 q74 0 114.5 -39 q40.5 -39 40.5 -106 q0 -25 -6 -53 q-10 -45 -31.5 -81.5 q-21.5 -36.5 -52.5 -62.5 q-31 -26 -69.5 -40 q-38.5 -14 -81.5 -14 l-92 0 l-35 -164 l-78 0 l156 722 Z" /><glyph glyph-name="germandbls" unicode="ß" d="M197 580 q6 29 21.5 56.5 q15.5 27.5 39 48.5 q23.5 21 53.5 34 q30 13 65 13 q61 0 94 -34.5 q33 -34.5 33 -94.5 q0 -25 -6 -53 q-13 -59 -39 -92.5 q-26 -33.5 -65 -53.5 q12 -7 23.5 -16.5 q11.5 -9.5 20.5 -23.5 q9 -14 14 -33 q5 -19 5 -46 q0 -35 -10 -79 q-14 -63 -33.5 -104.5 q-19.5 -41.5 -43.5 -66.5 q-24 -25 -51.5 -35 q-27.5 -10 -55.5 -10 q-28 0 -52 12 l13 62 q20 -14 46 -14 q15 0 29 6 q14 6 27 22.5 q13 16.5 25 44 q12 27.5 21 71.5 q12 55 12 91 q0 45 -19.5 64 q-19.5 19 -62.5 19 l13 60 q41 3 68.5 29 q27.5 26 42.5 94 q3 14 4 25.5 q1 11.5 1 21.5 q0 42 -18.5 58 q-18.5 16 -44.5 16 q-35 0 -62 -25.5 q-27 -25.5 -36 -66.5 l-125 -580 l-72 0 l125 580 Z" /><glyph glyph-name="ae" unicode="æ" d="M569 308 q11 55 11 88 q0 38 -14.5 56 q-14.5 18 -48.5 18 q-36 0 -69 -38 q-33 -38 -53 -124 l174 0 ZM317 280 q-20 -8 -49 -20.5 q-29 -12.5 -57.5 -31 q-28.5 -18.5 -51.5 -43 q-23 -24.5 -29 -55.5 q-3 -15 -3 -27 q0 -25 14 -39 q14 -14 45 -14 q23 0 49.5 17 q26.5 17 43.5 37 l38 176 ZM382 248 l-6 -29 q-9 -42 -9 -72 q0 -53 21.5 -75 q21.5 -22 47.5 -22 q21 0 37.5 8.5 q16.5 8.5 30 22.5 q13.5 14 23.5 31.5 q10 17.5 18 35.5 l66 -8 q-11 -29 -29.5 -56 q-18.5 -27 -43.5 -48 q-25 -21 -54.5 -33.5 q-29.5 -12.5 -61.5 -12.5 q-42 0 -72 15 q-30 15 -42 56 q-51 -45 -87.5 -58 q-36.5 -13 -58.5 -13 q-52 0 -81 26.5 q-29 26.5 -29 73.5 q0 18 4 34 q10 48 41.5 84.5 q31.5 36.5 72 63 q40.5 26.5 83.5 43 q43 16.5 77 25.5 l8 37 q2 10 3 18.5 q1 8.5 1 16.5 q0 29 -13.5 43.5 q-13.5 14.5 -37.5 14.5 q-16 0 -31.5 -9.5 q-15.5 -9.5 -29 -24 q-13.5 -14.5 -24 -32.5 q-10.5 -18 -17.5 -36 l-64 10 q12 31 30 58.5 q18 27.5 41 48.5 q23 21 52 33 q29 12 63 12 q40 0 62 -18.5 q22 -18.5 30 -45.5 q31 33 63 48.5 q32 15.5 64 15.5 q62 0 90 -38 q28 -38 28 -106 q0 -47 -12 -104 l-8 -34 l-246 0 Z" /><glyph glyph-name="ccedilla" unicode="ç" d="M72 -156 q11 -5 26.5 -9.5 q15.5 -4.5 35.5 -4.5 q30 0 50.5 11.5 q20.5 11.5 25.5 29.5 q1 3 1 8 q0 14 -11.5 24.5 q-11.5 10.5 -34.5 10.5 q-12 0 -22.5 -3 q-10.5 -3 -21.5 -7 l-11 14 l69 73 q-53 3 -79 36 q-26 33 -26 100 q0 53 17 133 q30 141 82.5 205.5 q52.5 64.5 134.5 64.5 q64 0 91 -36 q27 -36 27 -99 q0 -7 0 -14 q0 -7 -1 -15 l-70 0 q1 8 1.5 16 q0.5 8 0.5 15 q0 41 -16.5 57 q-16.5 16 -45.5 16 q-23 0 -41 -8.5 q-18 -8.5 -34 -32 q-16 -23.5 -29.5 -64.5 q-13.5 -41 -27.5 -105 q-19 -89 -19 -137 q0 -44 15.5 -58.5 q15.5 -14.5 44.5 -14.5 q17 0 32 5 q15 5 28 18 q13 13 25 35 q12 22 24 56 l70 0 q-23 -70 -64.5 -116.5 q-41.5 -46.5 -101.5 -55.5 l-50 -50 l2 -2 q10 6 32 6 q27 0 46 -13.5 q19 -13.5 19 -40.5 q0 -5 -0.5 -9 q-0.5 -4 -1.5 -9 q-5 -21 -17 -37.5 q-12 -16.5 -29.5 -28 q-17.5 -11.5 -38 -18 q-20.5 -6.5 -42.5 -6.5 q-29 0 -49.5 3.5 q-20.5 3.5 -39.5 12.5 l24 44 Z" /><glyph glyph-name="eth" unicode="ð" d="M163 260 q-19 -89 -19 -137 q0 -44 15.5 -58.5 q15.5 -14.5 44.5 -14.5 q23 0 41.5 8.5 q18.5 8.5 34 32 q15.5 23.5 29.5 64 q14 40.5 28 105.5 q19 88 19 135 q0 45 -15.5 60 q-15.5 15 -45.5 15 q-23 0 -41 -8.5 q-18 -8.5 -34 -32 q-16 -23.5 -29.5 -64.5 q-13.5 -41 -27.5 -105 ZM354 722 q10 -12 19 -25 q9 -13 16 -28 l106 37 l14 -46 l-100 -35 q13 -36 18.5 -76 q5.5 -40 5.5 -85 q0 -96 -24 -204 q-31 -141 -83.5 -205.5 q-52.5 -64.5 -134.5 -64.5 q-60 0 -88.5 33 q-28.5 33 -28.5 104 q0 53 17 133 q30 141 82.5 205.5 q52.5 64.5 134.5 64.5 q15 0 28 -2 q13 -2 19 -7 q-1 21 -5 41 q-4 20 -11 38 l-98 -34 l-14 46 l92 32 q-16 31 -36 56 l71 22 Z" /><glyph glyph-name="divide" unicode="÷" d="M334 464 q6 27 29.5 46.5 q23.5 19.5 50.5 19.5 q23 0 38.5 -14.5 q15.5 -14.5 15.5 -37.5 q0 -4 -2 -14 q-6 -27 -29.5 -46.5 q-23.5 -19.5 -50.5 -19.5 q-23 0 -38.5 14.5 q-15.5 14.5 -15.5 37.5 q0 4 2 14 ZM246 56 q5 27 29 46.5 q24 19.5 51 19.5 q24 0 38.5 -15 q14.5 -15 14.5 -38 q0 -3 0 -7 q0 -3 -1 -6 q-6 -27 -30 -46.5 q-24 -19.5 -51 -19.5 q-23 0 -38 15 q-15 15 -15 37 q0 4 0.5 7 q0.5 3 1.5 7 ZM89 227 l14 66 l520 0 l-14 -66 l-520 0 Z" /><glyph glyph-name="oslash" unicode="ø" d="M159 67 q7 -10 18.5 -13.5 q11.5 -3.5 26.5 -3.5 q23 0 41.5 8.5 q18.5 8.5 34 32 q15.5 23.5 29.5 64 q14 40.5 28 105.5 q9 43 13.5 75 q4.5 32 6.5 54 l-2 0 l-196 -322 ZM343 451 q-14 19 -48 19 q-23 0 -41 -8.5 q-18 -8.5 -34 -32 q-16 -23.5 -29.5 -64.5 q-13.5 -41 -27.5 -105 q-20 -92 -21 -136 l2 0 l199 327 ZM409 476 q16 -32 16 -86 q0 -56 -16 -130 q-31 -141 -83.5 -205.5 q-52.5 -64.5 -134.5 -64.5 q-44 0 -68 18 l-78 -128 l-49 0 l96 159 q-18 33 -18 88 q0 53 17 133 q30 141 82.5 205.5 q52.5 64.5 134.5 64.5 q23 0 41 -4.5 q18 -4.5 31 -15.5 l73 120 l50 0 l-94 -154 Z" /><glyph glyph-name="thorn" unicode="þ" d="M170 96 q13 -16 28.5 -31 q15.5 -15 39.5 -15 q23 0 43 10.5 q20 10.5 37.5 34.5 q17.5 24 33 64.5 q15.5 40.5 28.5 100.5 q15 72 15 116 q0 53 -18 73.5 q-18 20.5 -50 20.5 q-17 0 -41 -13.5 q-24 -13.5 -46 -36.5 l-70 -324 ZM250 482 l2 0 q19 19 46 33.5 q27 14.5 62 14.5 q23 0 42.5 -8 q19.5 -8 34 -25.5 q14.5 -17.5 22.5 -45 q8 -27.5 8 -67.5 q0 -26 -3.5 -56.5 q-3.5 -30.5 -11.5 -67.5 q-17 -75 -40 -126.5 q-23 -51.5 -50.5 -83.5 q-27.5 -32 -57.5 -46 q-30 -14 -61 -14 q-29 0 -50 15 q-21 15 -35 33 l-45 -208 l-72 0 l193 892 l68 0 l-52 -240 Z" /><glyph glyph-name="Aogonek" unicode="&#x104;" d="M432 722 l3 -722 l-31 0 q-12 -4 -26 -10 q-29 -11 -56.5 -26 q-27.5 -15 -49 -34.5 q-21.5 -19.5 -26.5 -44.5 q-1 -5 -1.5 -9 q-0.5 -4 -0.5 -8 q0 -20 13 -28 q13 -8 36 -8 q14 0 29.5 4 q15.5 4 31 10.5 q15.5 6.5 29.5 13.5 q14 7 25 13 l9 -32 q-35 -21 -78 -38 q-43 -17 -81 -17 q-29 0 -50 15 q-21 15 -21 48 q0 11 3 23 q8 38 35.5 63.5 q27.5 25.5 62.5 42.5 q33 15 69 23 l3 213 l-184 0 l-89 -214 l-78 0 l315 722 l108 0 ZM201 280 l162 0 l4 388 l-2 0 l-164 -388 Z" /><glyph glyph-name="aogonek" unicode="&#x105;" d="M143 378 q12 31 30 58.5 q18 27.5 41 48.5 q23 21 52 33 q29 12 64 12 q60 0 91 -27.5 q31 -27.5 31 -77.5 q0 -18 -5 -43 l-63 -290 q-9 -44 -9 -70 q0 -16 3 -22 l-15 0 q-11 -5 -32 -13 q-24 -10 -48.5 -26.5 q-24.5 -16.5 -43 -39.5 q-18.5 -23 -18.5 -54 q0 -18 11.5 -26.5 q11.5 -8.5 31.5 -8.5 q24 0 44 8 q20 8 45 23 l10 -32 q-33 -21 -61 -33 q-28 -12 -64 -12 q-32 0 -53 16 q-21 16 -21 48 q0 31 15.5 56.5 q15.5 25.5 38 44.5 q22.5 19 47.5 32 q24 11 42 17 l-2 0 l0 45 q-15 -12 -31 -21.5 q-16 -9.5 -33 -17 q-17 -7.5 -33 -12 q-16 -4.5 -28 -4.5 q-52 0 -81 26.5 q-29 26.5 -29 73.5 q0 18 4 34 q10 48 42 84.5 q32 36.5 74 63 q42 26.5 88.5 43 q46.5 16.5 87.5 25.5 l8 37 q3 16 3 30 q0 30 -15 46.5 q-15 16.5 -43 16.5 q-21 0 -38.5 -9.5 q-17.5 -9.5 -31.5 -24 q-14 -14.5 -24.5 -32.5 q-10.5 -18 -17.5 -36 l-64 10 ZM353 280 q-26 -8 -59 -20.5 q-33 -12.5 -63.5 -31 q-30.5 -18.5 -53.5 -43 q-23 -24.5 -29 -55.5 q-3 -15 -3 -27 q0 -25 14 -39 q14 -14 45 -14 q29 0 58 17 q29 17 53 37 l38 176 Z" /><glyph glyph-name="Dcroat" unicode="&#x110;" d="M352 410 l-14 -66 l-120 0 l-60 -278 l42 0 q43 0 78.5 11.5 q35.5 11.5 65.5 43.5 q30 32 55 89.5 q25 57.5 45 150.5 q11 48 15.5 86 q4.5 38 4.5 68 q0 43 -9.5 70 q-9.5 27 -27.5 43 q-18 16 -43.5 22 q-25.5 6 -56.5 6 l-42 0 l-53 -246 l120 0 ZM154 410 l68 312 l76 0 l58 0 q43 0 78 -10 q35 -10 59 -33 q24 -23 37 -60.5 q13 -37.5 13 -92.5 q0 -68 -21 -165 q-23 -104 -54.5 -173.5 q-31.5 -69.5 -72 -111 q-40.5 -41.5 -89.5 -59 q-49 -17.5 -106 -17.5 l-57 0 l-77 0 l74 344 l-54 0 l14 66 l54 0 Z" /><glyph glyph-name="dcroat" unicode="&#x111;" d="M317 50 l-2 0 q-25 -28 -55 -44 q-30 -16 -65 -16 q-23 0 -43 7.5 q-20 7.5 -34 25 q-14 17.5 -22 45 q-8 27.5 -8 66.5 q0 53 16 126 q16 75 39 126.5 q23 51.5 50.5 83.5 q27.5 32 57.5 46 q30 14 61 14 q29 0 50.5 -15 q21.5 -15 35.5 -33 l23 108 l-122 0 l12 56 l122 0 l17 76 l72 0 l-17 -76 l53 0 l-12 -56 l-53 0 l-97 -450 q-10 -45 -14 -75 q-4 -30 -4 -52 l0 -13 l-68 0 l7 50 ZM385 424 q-12 16 -28 31 q-16 15 -40 15 q-23 0 -43 -10.5 q-20 -10.5 -37.5 -34.5 q-17.5 -24 -32.5 -64.5 q-15 -40.5 -28 -100.5 q-16 -71 -16 -117 q0 -52 18 -72.5 q18 -20.5 50 -20.5 q17 0 41.5 13.5 q24.5 13.5 45.5 36.5 l70 324 Z" /><glyph glyph-name="Eogonek" unicode="&#x118;" d="M552 722 l-15 -66 l-252 0 l-53 -246 l186 0 l-14 -66 l-186 0 l-60 -278 l264 0 l-14 -66 l-36 0 q-12 -4 -26 -10 q-29 -11 -56.5 -26 q-27.5 -15 -49 -34.5 q-21.5 -19.5 -26.5 -44.5 q-1 -5 -1.5 -9 q-0.5 -4 -0.5 -8 q0 -20 13 -28 q13 -8 36 -8 q14 0 29.5 4 q15.5 4 31 10.5 q15.5 6.5 29.5 13.5 q14 7 25 13 l9 -32 q-35 -21 -78 -38 q-43 -17 -81 -17 q-29 0 -50 15 q-21 15 -21 48 q0 11 3 23 q8 38 35.5 63.5 q27.5 25.5 62.5 42.5 q30 14 62 22 l-180 0 l-72 0 l156 722 l72 0 l258 0 Z" /><glyph glyph-name="eogonek" unicode="&#x119;" d="M160 248 l-6 -29 q-12 -56 -12 -90 q0 -43 18 -61 q18 -18 54 -18 q21 0 37.5 8.5 q16.5 8.5 30 22.5 q13.5 14 23.5 31.5 q10 17.5 18 35.5 l66 -8 q-11 -29 -29.5 -56 q-18.5 -27 -44.5 -48 q-23 -19 -51 -32 l-17 -11 q-14 -9 -31.5 -21.5 q-17.5 -12.5 -33.5 -29 q-16 -16.5 -26.5 -35.5 q-10.5 -19 -10.5 -40 q0 -18 11.5 -26.5 q11.5 -8.5 31.5 -8.5 q24 0 44 8 q20 8 45 23 l10 -32 q-33 -21 -61 -33 q-28 -12 -64 -12 q-32 0 -53 16 q-21 16 -21 48 q0 25 9 46 q9 21 23.5 38 q14.5 17 32.5 31 q17 13 35 25 q-58 1 -86 33 q-28 33 -28 104 q0 53 17 133 q30 141 82.5 205.5 q52.5 64.5 134.5 64.5 q62 0 90 -38 q28 -38 28 -106 q0 -47 -12 -104 l-8 -34 l-246 0 ZM347 308 q11 55 11 88 q0 38 -14.5 56 q-14.5 18 -48.5 18 q-20 0 -37.5 -8 q-17.5 -8 -32.5 -26.5 q-15 -18.5 -28.5 -50 q-13.5 -31.5 -23.5 -77.5 l174 0 Z" /><glyph glyph-name="Hbar" unicode="&#x126;" d="M300 722 l-36 -163 l212 0 l36 163 l78 0 l-156 -722 l-78 0 l64 304 l-212 0 l-64 -304 l-78 0 l156 722 l78 0 ZM222 367 l212 0 l31 136 l-212 0 l-31 -136 Z" /><glyph glyph-name="hbar" unicode="&#x127;" d="M228 722 l72 0 l-17 -76 l126 0 l-12 -56 l-126 0 l-27 -127 q14 13 31 25 q17 12 34 21.5 q17 9.5 33.5 15 q16.5 5.5 29.5 5.5 q44 0 67.5 -20.5 q23.5 -20.5 23.5 -65.5 q0 -22 -6 -50 l-85 -394 l-72 0 l83 384 q5 25 5 39 q0 47 -44 47 q-26 0 -54 -17 q-28 -17 -59 -47 l-87 -406 l-72 0 l127 590 l-51 0 l12 56 l51 0 l17 76 Z" /><glyph glyph-name="Iogonek" unicode="&#x12e;" d="M306 722 l-156 -722 l-13 0 q-8 -4 -13.5 -7.5 q-5.5 -3.5 -10.5 -6.5 q-11 -6 -26 -17 q-15 -11 -29.5 -26.5 q-14.5 -15.5 -24.5 -35 q-10 -19.5 -10 -40.5 q0 -35 43 -35 q25 0 44 8 q19 8 47 24 l9 -32 q-35 -22 -62 -34 q-27 -12 -64 -12 q-32 0 -52.5 15.5 q-20.5 15.5 -20.5 47.5 q0 30 12 54 q12 24 31 42.5 q19 18.5 40.5 32 q21.5 13.5 41.5 22.5 l-20 0 l156 722 l78 0 Z" /><glyph glyph-name="iogonek" unicode="&#x12f;" d="M187 520 l72 0 l-112 -520 l-10 0 q-8 -4 -13.5 -7.5 q-5.5 -3.5 -10.5 -6.5 q-11 -6 -26 -17 q-15 -11 -29.5 -26.5 q-14.5 -15.5 -24.5 -35 q-10 -19.5 -10 -40.5 q0 -35 43 -35 q25 0 44 8 q19 8 47 24 l9 -32 q-35 -22 -62 -34 q-27 -12 -64 -12 q-32 0 -52.5 15.5 q-20.5 15.5 -20.5 47.5 q0 30 12 54 q12 24 31 42.5 q19 18.5 40.5 32 q21.5 13.5 41.5 22.5 l-17 0 l112 520 ZM231 722 l72 0 l-18 -84 l-72 0 l18 84 Z" /><glyph glyph-name="dotlessi" unicode="&#x131;" d="M187 520 l72 0 l-112 -520 l-72 0 l112 520 Z" /><glyph glyph-name="Lslash" unicode="&#x141;" d="M158 66 l234 0 l-14 -66 l-234 0 l-78 0 l64 299 l-87 -32 l14 62 l87 32 l78 361 l78 0 l-71 -329 l167 62 l-13 -62 l-168 -62 l-57 -265 Z" /><glyph glyph-name="lslash" unicode="&#x142;" d="M147 0 l-72 0 l79 369 l-88 -41 l13 60 l88 41 l64 293 l72 0 l-56 -256 l88 40 l-13 -60 l-88 -40 l-87 -406 Z" /><glyph glyph-name="Scedilla" unicode="&#x15e;" d="M99 -156 q10 -5 25.5 -9.5 q15.5 -4.5 35.5 -4.5 q30 0 50.5 11.5 q20.5 11.5 25.5 29.5 q1 3 1 8 q0 14 -11.5 24.5 q-11.5 10.5 -34.5 10.5 q-12 0 -22.5 -3 q-10.5 -3 -21.5 -7 l-11 14 l68 72 q-62 4 -96 40 q-37 40 -37 108 q0 26 6 56 l72 0 q-4 -20 -4 -42 q0 -45 23 -70.5 q23 -25.5 71 -25.5 q49 0 84.5 30.5 q35.5 30.5 47.5 88.5 q3 15 3 28 q0 32 -16 57 q-16 25 -39.5 47.5 q-23.5 22.5 -51 44.5 q-27.5 22 -51 46.5 q-23.5 24.5 -39.5 54.5 q-16 30 -16 69 q0 17 5 42 q8 38 27.5 69 q19.5 31 47 53 q27.5 22 62 34 q34.5 12 73.5 12 q67 0 104 -37 q37 -37 37 -108 q0 -12 -1.5 -24.5 q-1.5 -12.5 -3.5 -26.5 l-72 0 q3 18 3 35 q0 42 -19 68.5 q-19 26.5 -67 26.5 q-45 0 -78 -26.5 q-33 -26.5 -42 -68.5 q-3 -14 -3 -27 q0 -31 16 -55.5 q16 -24.5 39.5 -45.5 q23.5 -21 51 -41.5 q27.5 -20.5 51 -45.5 q23.5 -25 39.5 -56.5 q16 -31.5 16 -74.5 q0 -23 -6 -51 q-19 -87 -77 -136 q-49 -40 -121 -47 l-50 -49 l2 -2 q10 6 32 6 q27 0 46 -13.5 q19 -13.5 19 -40.5 q0 -5 -0.5 -9 q-0.5 -4 -1.5 -9 q-5 -21 -17 -37.5 q-12 -16.5 -29.5 -28 q-17.5 -11.5 -38 -18 q-20.5 -6.5 -42.5 -6.5 q-29 0 -49 3.5 q-20 3.5 -39 12.5 l24 44 Z" /><glyph glyph-name="scedilla" unicode="&#x15f;" d="M76 -156 q10 -5 25.5 -9.5 q15.5 -4.5 35.5 -4.5 q30 0 50.5 11.5 q20.5 11.5 25.5 29.5 q1 3 1 8 q0 14 -11.5 24.5 q-11.5 10.5 -34.5 10.5 q-12 0 -22.5 -3 q-10.5 -3 -21.5 -7 l-11 14 l69 73 q-56 4 -82 35 q-30 36 -35 102 l69 14 q2 -17 6.5 -33.5 q4.5 -16.5 13 -29.5 q8.5 -13 22 -21 q13.5 -8 33.5 -8 q15 0 29.5 6.5 q14.5 6.5 27.5 17 q13 10.5 22.5 25 q9.5 14.5 12.5 30.5 q1 5 1.5 9.5 q0.5 4.5 0.5 9.5 q0 23 -12 41 q-12 18 -30.5 33.5 q-18.5 15.5 -40 30 q-21.5 14.5 -40 32 q-18.5 17.5 -30.5 39 q-12 21.5 -12 50.5 q0 13 3 30 q6 25 20.5 48 q14.5 23 36.5 40.5 q22 17.5 48.5 27.5 q26.5 10 56.5 10 q60 0 89 -32.5 q29 -32.5 29 -91.5 l-64 -18 q-2 34 -15.5 58 q-13.5 24 -56.5 24 q-26 0 -46 -18 q-20 -18 -25 -44 q-2 -10 -2 -15 q0 -21 12.5 -37.5 q12.5 -16.5 31 -31.5 q18.5 -15 40 -29.5 q21.5 -14.5 40 -32.5 q18.5 -18 31 -40.5 q12.5 -22.5 12.5 -53.5 q0 -8 -1 -16.5 q-1 -8.5 -3 -17.5 q-7 -31 -23.5 -57 q-16.5 -26 -39.5 -45.5 q-23 -19.5 -52 -30.5 q-20 -7 -41 -10 l-49 -49 l2 -2 q10 6 32 6 q27 0 46 -13.5 q19 -13.5 19 -40.5 q0 -5 -0.5 -9 q-0.5 -4 -1.5 -9 q-5 -21 -17 -37.5 q-12 -16.5 -29.5 -28 q-17.5 -11.5 -38 -18 q-20.5 -6.5 -42.5 -6.5 q-29 0 -49 3.5 q-20 3.5 -39 12.5 l24 44 Z" /><glyph glyph-name="Tbar" unicode="&#x166;" d="M147 509 l118 0 l31 147 l-148 0 l15 66 l374 0 l-15 -66 l-148 0 l-31 -147 l117 0 l-13 -60 l-117 0 l-97 -449 l-78 0 l97 449 l-118 0 l13 60 Z" /><glyph glyph-name="tbar" unicode="&#x167;" d="M120 520 l70 0 l38 174 l72 0 l-38 -174 l96 0 l-13 -60 l-96 0 l-24 -108 l83 0 l-12 -59 l-83 0 l-43 -197 q-2 -10 -2 -15 q0 -17 10 -27 q10 -10 33 -10 q11 0 23.5 3.5 q12.5 3.5 22.5 6.5 l-11 -54 q-17 -5 -32.5 -7.5 q-15.5 -2.5 -38.5 -2.5 q-41 0 -61 16 q-20 16 -20 52 q0 18 6 44 l41 191 l-63 0 l12 59 l63 0 l24 108 l-70 0 l13 60 Z" /><glyph glyph-name="Uogonek" unicode="&#x172;" d="M300 722 l-115 -530 q-3 -14 -5 -27.5 q-2 -13.5 -2 -26.5 q0 -36 18 -59 q18 -23 66 -23 q32 0 55 11 q23 11 38.5 29.5 q15.5 18.5 25.5 43.5 q10 25 16 52 l115 530 l78 0 l-115 -532 q-9 -44 -27.5 -80.5 q-18.5 -36.5 -47 -63 q-28.5 -26.5 -66.5 -41.5 l-14 -5 q-4 -1 -8 -3 q-29 -13 -56.5 -29.5 q-27.5 -16.5 -49 -37 q-21.5 -20.5 -26.5 -45.5 q-1 -5 -1.5 -9 q-0.5 -4 -0.5 -8 q0 -20 13 -28 q13 -8 36 -8 q14 0 29.5 4 q15.5 4 31 10.5 q15.5 6.5 29.5 13.5 q14 7 25 13 l9 -32 q-35 -21 -78 -38 q-43 -17 -81 -17 q-29 0 -50 15 q-21 15 -21 48 q0 11 3 23 q8 38 35.5 64.5 q27.5 26.5 64.5 44.5 q10 5 19 9 q-75 1 -109 37 q-35 38 -35 99 q0 15 2 31 q2 16 6 33 l115 532 l78 0 Z" /><glyph glyph-name="uogonek" unicode="&#x173;" d="M372 0 l-9 0 q-11 -5 -32 -13 q-24 -10 -48.5 -26.5 q-24.5 -16.5 -43 -39.5 q-18.5 -23 -18.5 -54 q0 -18 11.5 -26.5 q11.5 -8.5 31.5 -8.5 q24 0 44 8 q20 8 45 23 l10 -32 q-33 -21 -61 -33 q-28 -12 -64 -12 q-32 0 -53 16 q-21 16 -21 48 q0 31 15.5 56.5 q15.5 25.5 38 44.5 q22.5 19 47.5 32 q24 11 42 17 l-3 0 l12 57 q-16 -13 -34 -25 q-18 -12 -35.5 -21.5 q-17.5 -9.5 -34 -15 q-16.5 -5.5 -29.5 -5.5 q-44 0 -67 20 q-23 20 -23 65 q0 22 6 51 l85 394 l72 0 l-83 -384 q-5 -25 -5 -40 q0 -46 43 -46 q26 0 54.5 17 q28.5 17 58.5 47 l88 406 l72 0 l-112 -520 Z" /><glyph glyph-name="dotlessj" unicode="&#x237;" d="M-18 -106 q6 -2 11.5 -3 q5.5 -1 10.5 -1 q24 0 40 14.5 q16 14.5 24 49.5 l122 566 l72 0 l-124 -572 q-14 -65 -45.5 -91.5 q-31.5 -26.5 -85.5 -26.5 q-9 0 -18.5 1 q-9.5 1 -19.5 3 l13 60 Z" /><glyph glyph-name="caron" unicode="&#x2c7;" d="M130 716 l64 0 l49 -102 l93 102 l64 0 l-130 -138 l-68 0 l-72 138 Z" /><glyph glyph-name="uni02C9" unicode="&#x2c9;" d="M110 614 l11 48 l266 0 l-11 -48 l-266 0 Z" /><glyph glyph-name="breve" unicode="&#x2d8;" d="M173 710 q-1 -5 -1 -15 q0 -34 21 -49.5 q21 -15.5 58 -15.5 q42 0 65 21 q23 21 39 59 l38 0 q-18 -61 -60 -94.5 q-42 -33.5 -103 -33.5 q-49 0 -73 28.5 q-24 28.5 -24 72.5 q0 7 0.5 13.5 q0.5 6.5 1.5 13.5 l38 0 Z" /><glyph glyph-name="dotaccent" unicode="&#x2d9;" d="M227 690 l66 0 l-22 -102 l-66 0 l22 102 Z" /><glyph glyph-name="ring" unicode="&#x2da;" d="M203 673 q-1 -3 -1 -10 q0 -18 12 -30.5 q12 -12.5 31 -12.5 q21 0 40 16 q19 16 24 37 q1 3 1 10 q0 18 -12 30.5 q-12 12.5 -30 12.5 q-21 0 -40.5 -16 q-19.5 -16 -24.5 -37 ZM161 673 q4 19 15 36.5 q11 17.5 27 30.5 q16 13 35 20.5 q19 7.5 39 7.5 q35 0 55.5 -21.5 q20.5 -21.5 20.5 -53.5 q0 -5 -0.5 -10 q-0.5 -5 -1.5 -10 q-4 -20 -15 -37 q-11 -17 -26.5 -30 q-15.5 -13 -34.5 -20.5 q-19 -7.5 -39 -7.5 q-35 0 -56 21.5 q-21 21.5 -21 53.5 q0 5 0.5 10 q0.5 5 1.5 10 Z" /><glyph glyph-name="ogonek" unicode="&#x2db;" d="M200 8 q-21 -7 -50 -18 q-29 -11 -56.5 -26 q-27.5 -15 -49 -34.5 q-21.5 -19.5 -26.5 -44.5 q-1 -5 -1.5 -9 q-0.5 -4 -0.5 -8 q0 -20 13 -28 q13 -8 36 -8 q14 0 29.5 4 q15.5 4 31 10.5 q15.5 6.5 29.5 13.5 q14 7 25 13 l9 -32 q-35 -21 -78 -38 q-43 -17 -81 -17 q-29 0 -50 15 q-21 15 -21 48 q0 11 3 23 q8 38 35.5 63.5 q27.5 25.5 63 42 q35.5 16.5 73.5 25.5 q38 9 68 15 l-2 -10 Z" /><glyph glyph-name="hungarumlaut" unicode="&#x2dd;" d="M285 578 l-50 0 l127 138 l78 0 l-155 -138 ZM169 578 l-48 0 l119 138 l80 0 l-151 -138 Z" /><glyph glyph-name="uni0394" unicode="&#x394;" d="M472 661 l-368 -609 l479 0 l-111 609 ZM17 0 l435 712 l63 0 l137 -712 l-635 0 Z" /><glyph glyph-name="uni03A9" unicode="&#x3a9;" d="M436 0 l38 179 q99 17 159.5 81 q60.5 64 80.5 158 q6 30 6 57 q0 44 -15.5 80.5 q-15.5 36.5 -44 62 q-28.5 25.5 -68 39.5 q-39.5 14 -87.5 14 q-54 0 -106 -18.5 q-52 -18.5 -94.5 -52 q-42.5 -33.5 -73 -80 q-30.5 -46.5 -41.5 -101.5 q-7 -31 -7 -64 q0 -69 36 -117.5 q36 -48.5 111 -58.5 l-38 -179 l-245 0 l10 48 l201 0 l19 92 q-37 10 -65 30 q-28 20 -46.5 47.5 q-18.5 27.5 -28 61.5 q-9.5 34 -9.5 72 q0 35 7 67 q14 66 51.5 121.5 q37.5 55.5 89.5 96 q52 40.5 114.5 63 q62.5 22.5 127.5 22.5 q55 0 102.5 -17.5 q47.5 -17.5 82 -49 q34.5 -31.5 54 -75 q19.5 -43.5 19.5 -96.5 q0 -32 -7 -63 q-11 -49 -34 -94 q-23 -45 -56.5 -82 q-33.5 -37 -76 -64 q-42.5 -27 -93.5 -40 l-19 -92 l201 0 l-10 -48 l-245 0 Z" /><glyph glyph-name="uni03BC" unicode="&#x3bc;" d="M372 0 l-68 0 l12 57 q-16 -13 -34 -25 q-18 -12 -35.5 -21.5 q-17.5 -9.5 -34 -15 q-16.5 -5.5 -29.5 -5.5 q-24 0 -40 6 l-36 -166 l-72 0 l149 690 l72 0 l-83 -384 q-5 -25 -5 -40 q0 -46 43 -46 q26 0 54.5 17 q28.5 17 58.5 47 l88 406 l72 0 l-112 -520 Z" /><glyph glyph-name="pi" unicode="&#x3c0;" d="M534 10 q-18 -8 -31.5 -11.5 q-13.5 -3.5 -30.5 -3.5 q-36 0 -48 13.5 q-12 13.5 -12 36.5 q0 14 2.5 30 q2.5 16 6.5 33 l68 320 l-274 0 l-90 -428 l-53 0 l90 428 l-69 0 l10 48 l525 0 l-11 -48 l-74 0 l-70 -331 q-2 -8 -3 -16 q-1 -8 -1 -14 q0 -11 6 -18 q6 -7 23 -7 q22 0 45 10 l-9 -42 Z" /><glyph glyph-name="fraction" unicode="&#x2044;" d="M-169 -10 l599 742 l62 0 l-599 -742 l-62 0 Z" /><glyph glyph-name="afii61289" unicode="&#x2113;" d="M414 38 q-64 -52 -131 -52 q-43 0 -70 21 q-27 21 -27 66 q0 18 4 37 l28 130 l-73 -64 l-2 0 l-15 27 l100 84 l56 264 q9 42 25 74 q16 32 36.5 53 q20.5 21 44.5 32 q24 11 48 11 q36 0 56.5 -21 q20.5 -21 20.5 -61 q0 -16 -5 -41 q-15 -73 -74.5 -153 q-59.5 -80 -159.5 -168 l-33 -159 q-4 -16 -4 -31 q0 -36 20 -48.5 q20 -12.5 42 -12.5 q21 0 45.5 9.5 q24.5 9.5 50.5 29.5 l2 0 l15 -27 ZM467 593 q3 16 3 31 q0 28 -11 44 q-11 16 -30 16 q-26 0 -52.5 -30 q-26.5 -30 -40.5 -96 l-49 -233 q73 69 120 138.5 q47 69.5 60 129.5 Z" /><glyph glyph-name="Omega" unicode="&#x2126;" d="M436 0 l38 179 q99 17 159.5 81 q60.5 64 80.5 158 q6 30 6 57 q0 44 -15.5 80.5 q-15.5 36.5 -44 62 q-28.5 25.5 -68 39.5 q-39.5 14 -87.5 14 q-54 0 -106 -18.5 q-52 -18.5 -94.5 -52 q-42.5 -33.5 -73 -80 q-30.5 -46.5 -41.5 -101.5 q-7 -31 -7 -64 q0 -69 36 -117.5 q36 -48.5 111 -58.5 l-38 -179 l-245 0 l10 48 l201 0 l19 92 q-37 10 -65 30 q-28 20 -46.5 47.5 q-18.5 27.5 -28 61.5 q-9.5 34 -9.5 72 q0 35 7 67 q14 66 51.5 121.5 q37.5 55.5 89.5 96 q52 40.5 114.5 63 q62.5 22.5 127.5 22.5 q55 0 102.5 -17.5 q47.5 -17.5 82 -49 q34.5 -31.5 54 -75 q19.5 -43.5 19.5 -96.5 q0 -32 -7 -63 q-11 -49 -34 -94 q-23 -45 -56.5 -82 q-33.5 -37 -76 -64 q-42.5 -27 -93.5 -40 l-19 -92 l201 0 l-10 -48 l-245 0 Z" /><glyph glyph-name="estimated" unicode="&#x212e;" d="M157 259 l0 -181 q59 -59 145 -59 q63 0 109 28.5 q46 28.5 84 91.5 l35 -21 q-23 -36 -46.5 -61.5 q-23.5 -25.5 -51 -42 q-27.5 -16.5 -59.5 -24 q-32 -7.5 -71 -7.5 q-59 0 -106.5 21.5 q-47.5 21.5 -81.5 59 q-34 37.5 -52 87.5 q-18 50 -18 108 q0 58 18 108.5 q18 50.5 52 87.5 q34 37 81.5 58.5 q47.5 21.5 106.5 21.5 q58 0 105.5 -20.5 q47.5 -20.5 81.5 -57 q34 -36.5 53 -87 q19 -50.5 19 -111.5 l-404 0 ZM448 295 l0 145 q-63 60 -147 60 q-84 0 -144 -60 l0 -145 l291 0 Z" /><glyph glyph-name="partialdiff" unicode="&#x2202;" d="M516 365 q-7 -36 -18.5 -77.5 q-11.5 -41.5 -29 -83.5 q-17.5 -42 -41 -81 q-23.5 -39 -54.5 -69 q-31 -30 -69 -48 q-38 -18 -85 -18 q-46 0 -78 19 q-32 19 -50.5 50 q-18.5 31 -23 71 q-4.5 40 4.5 83 q9 42 30 80.5 q21 38.5 51 67.5 q30 29 69 46 q39 17 84 17 q51 0 90.5 -25.5 q39.5 -25.5 61.5 -65.5 q3 14 6.5 28 q3.5 14 6.5 28 q9 43 11 93 q2 50 -10 93 q-12 43 -41.5 71.5 q-29.5 28.5 -83.5 28.5 q-35 0 -62.5 -12.5 q-27.5 -12.5 -57.5 -32.5 l-22 37 q35 27 72.5 41.5 q37.5 14.5 77.5 14.5 q56 0 97 -28 q36 -25 54.5 -62.5 q18.5 -37.5 24 -81.5 q5.5 -44 0.5 -91.5 q-5 -47.5 -15 -92.5 ZM440 275 q-9 19 -23.5 36.5 q-14.5 17.5 -32.5 31.5 q-18 14 -39.5 22.5 q-21.5 8.5 -44.5 8.5 q-35 0 -64.5 -14 q-29.5 -14 -52 -36.5 q-22.5 -22.5 -38 -52.5 q-15.5 -30 -22.5 -61 q-6 -31 -3.5 -62.5 q2.5 -31.5 15 -57 q12.5 -25.5 36 -41.5 q23.5 -16 58.5 -16 q45 0 79.5 24.5 q34.5 24.5 60.5 61.5 q26 37 43.5 79 q17.5 42 27.5 77 Z" /><glyph glyph-name="Delta" unicode="&#x2206;" d="M472 661 l-368 -609 l479 0 l-111 609 ZM17 0 l435 712 l63 0 l137 -712 l-635 0 Z" /><glyph glyph-name="product" unicode="&#x220f;" d="M577 -214 l0 948 l-450 0 l0 -948 l-54 0 l0 1000 l558 0 l0 -1000 l-54 0 Z" /><glyph glyph-name="summation" unicode="&#x2211;" d="M26 -214 l0 47 l335 455 l-321 451 l0 47 l515 0 l0 -52 l-447 0 l318 -446 l-337 -451 l478 0 l0 -51 l-541 0 Z" /><glyph glyph-name="minus" unicode="&#x2212;" d="M103 293 l520 0 l-14 -66 l-520 0 l14 66 Z" /><glyph glyph-name="fraction" unicode="&#x2215;" d="M-169 -10 l599 742 l62 0 l-599 -742 l-62 0 Z" /><glyph glyph-name="periodcentered" unicode="&#x2219;" d="M118 260 q5 20 22 34.5 q17 14.5 37 14.5 q17 0 28.5 -11 q11.5 -11 11.5 -28 q0 -6 -1 -10 q-5 -20 -22.5 -34.5 q-17.5 -14.5 -37.5 -14.5 q-17 0 -28 10.5 q-11 10.5 -11 27.5 q0 7 1 11 Z" /><glyph glyph-name="radical" unicode="&#x221a;" d="M281 -214 l-56 0 l-168 346 l-45 -22 l-19 40 l88 43 l166 -346 l194 939 l49 0 l-209 -1000 Z" /><glyph glyph-name="infinity" unicode="&#x221e;" d="M682 250 q0 -30 -9 -55.5 q-9 -25.5 -26 -44.5 q-17 -19 -41.5 -29.5 q-24.5 -10.5 -55.5 -10.5 q-28 0 -54 9.5 q-26 9.5 -49 24.5 q-23 15 -44.5 34 q-21.5 19 -40.5 37 q-21 -18 -42.5 -36.5 q-21.5 -18.5 -44 -33.5 q-22.5 -15 -47.5 -25 q-25 -10 -55 -10 q-30 0 -54.5 10.5 q-24.5 10.5 -42 29 q-17.5 18.5 -27 43.5 q-9.5 25 -9.5 54 q0 28 9.5 53.5 q9.5 25.5 26.5 45 q17 19.5 41 30.5 q24 11 54 11 q29 0 55 -10.5 q26 -10.5 49.5 -27 q23.5 -16.5 45 -36 q21.5 -19.5 41.5 -37.5 q21 18 41.5 37.5 q20.5 19.5 42.5 36 q22 16.5 47 27.5 q25 11 55 11 q30 0 54.5 -10.5 q24.5 -10.5 42.5 -29 q18 -18.5 27.5 -43.5 q9.5 -25 9.5 -55 ZM634 246 q0 40 -21.5 67 q-21.5 27 -63.5 27 q-21 0 -42 -9.5 q-21 -9.5 -41 -24 q-20 -14.5 -38 -31 q-18 -16.5 -33 -29.5 q16 -14 34 -29.5 q18 -15.5 37.5 -28.5 q19.5 -13 41 -21.5 q21.5 -8.5 44.5 -8.5 q39 0 60.5 25.5 q21.5 25.5 21.5 62.5 ZM328 246 q-16 12 -34.5 28 q-18.5 16 -38.5 30.5 q-20 14.5 -41.5 24.5 q-21.5 10 -43.5 10 q-38 0 -60 -28 q-22 -28 -22 -64 q0 -39 23 -64 q23 -25 63 -25 q20 0 41.5 8.5 q21.5 8.5 41.5 22 q20 13.5 38.5 28.5 q18.5 15 32.5 29 Z" /><glyph glyph-name="integral" unicode="&#x222b;" d="M395 742 q0 -14 -9.5 -23 q-9.5 -9 -23.5 -9 q-14 0 -21 6 q-7 6 -10.5 13.5 q-3.5 7.5 -6.5 14 q-3 6.5 -9 6.5 q-12 0 -20 -13 q-8 -13 -12.5 -33 q-4.5 -20 -6 -44 q-1.5 -24 -2 -46.5 q-0.5 -22.5 0 -40.5 q0.5 -18 0.5 -25 l0 -501 q0 -20 0 -47.5 q0 -27.5 -3 -56.5 q-3 -29 -9.5 -57 q-6.5 -28 -19.5 -50.5 q-13 -22.5 -34 -36 q-21 -13.5 -51 -13.5 q-21 0 -38 11 q-17 11 -17 34 q0 14 9 23 q9 9 23 9 q20 0 26 -12.5 q6 -12.5 14 -26.5 q4 -2 6 -2 q11 0 18 13 q7 13 11 33 q4 20 6.5 43.5 q2.5 23.5 3.5 44.5 q1 21 1 36 q0 15 0 18 l0 495 q0 21 -1 50.5 q-1 29.5 0.5 60.5 q1.5 31 6.5 61.5 q5 30.5 17.5 54.5 q12.5 24 34 39 q21.5 15 55.5 15 q21 0 41 -9.5 q20 -9.5 20 -34.5 Z" /><glyph glyph-name="approxequal" unicode="&#x2248;" d="M643 390 q-8 -25 -21 -48 q-13 -23 -31 -41 q-18 -18 -41.5 -29 q-23.5 -11 -51.5 -11 q-33 0 -68.5 11.5 q-35.5 11.5 -70 25.5 q-34.5 14 -67.5 25.5 q-33 11.5 -61 11.5 q-36 0 -62.5 -25 q-26.5 -25 -38.5 -58 l-38 0 q9 25 22 48.5 q13 23.5 30.5 42 q17.5 18.5 40.5 29.5 q23 11 53 11 q33 0 68 -11.5 q35 -11.5 69.5 -25.5 q34.5 -14 68 -25.5 q33.5 -11.5 62.5 -11.5 q37 0 62 24 q25 24 38 57 l37 0 ZM609 229 q-8 -25 -21 -48 q-13 -23 -31.5 -41 q-18.5 -18 -41.5 -29 q-23 -11 -51 -11 q-34 0 -69 11.5 q-35 11.5 -69.5 25.5 q-34.5 14 -67.5 25.5 q-33 11.5 -62 11.5 q-36 0 -62 -25 q-26 -25 -38 -58 l-38 0 q9 25 22 48.5 q13 23.5 30.5 42 q17.5 18.5 40.5 29.5 q23 11 53 11 q33 0 68.5 -11.5 q35.5 -11.5 70 -25.5 q34.5 -14 67.5 -25.5 q33 -11.5 62 -11.5 q37 0 62 24 q25 24 38 57 l37 0 Z" /><glyph glyph-name="notequal" unicode="&#x2260;" d="M286 125 l-105 -141 l-37 23 l89 118 l-156 0 l10 48 l182 0 l100 135 l-253 0 l10 48 l280 0 l108 145 l37 -22 l-92 -123 l164 0 l-10 -48 l-189 0 l-102 -135 l262 0 l-10 -48 l-288 0 Z" /><glyph glyph-name="lessequal" unicode="&#x2264;" d="M106 260 l11 54 l538 193 l-11 -54 l-466 -166 l395 -166 l-11 -54 l-456 193 ZM45 -25 l10 48 l497 0 l-10 -48 l-497 0 Z" /><glyph glyph-name="greaterequal" unicode="&#x2265;" d="M65 67 l11 54 l466 166 l-395 166 l11 54 l456 -193 l-11 -54 l-538 -193 ZM45 -25 l10 48 l497 0 l-10 -48 l-497 0 Z" /><glyph glyph-name="lozenge" unicode="&#x25ca;" d="M322 -35 l-53 0 l-167 391 l167 391 l53 0 l169 -391 l-169 -391 ZM296 691 l-140 -335 l140 -335 l142 335 l-142 335 Z" /><glyph glyph-name="grave.cap" unicode="&#xe300;" d="M146 898 l78 0 l69 -138 l-50 0 l-97 138 Z" /><glyph glyph-name="acute.cap" unicode="&#xe301;" d="M229 760 l-50 0 l127 138 l78 0 l-155 -138 Z" /><glyph glyph-name="circumflex.cap" unicode="&#xe302;" d="M231 898 l68 0 l72 -138 l-64 0 l-49 102 l-93 -102 l-64 0 l130 138 Z" /><glyph glyph-name="caron.cap" unicode="&#xe303;" d="M130 898 l64 0 l49 -102 l93 102 l64 0 l-130 -138 l-68 0 l-72 138 Z" /><glyph glyph-name="tilde.cap" unicode="&#xe304;" d="M97 770 q4 16 13 33.5 q9 17.5 22 31.5 q13 14 29 23.5 q16 9.5 34 9.5 q19 0 35.5 -7 q16.5 -7 30.5 -15 q15 -8 28.5 -15 q13.5 -7 26.5 -7 q22 0 32.5 15.5 q10.5 15.5 16.5 34.5 l36 0 q-5 -18 -13 -36 q-8 -18 -20 -31.5 q-12 -13.5 -28.5 -22 q-16.5 -8.5 -37.5 -8.5 q-16 0 -31.5 7 q-15.5 7 -29.5 15 q-15 8 -29 15 q-14 7 -28 7 q-21 0 -33.5 -15.5 q-12.5 -15.5 -17.5 -34.5 l-36 0 Z" /><glyph glyph-name="dieresis.cap" unicode="&#xe305;" d="M293 872 l66 0 l-22 -102 l-66 0 l22 102 ZM161 872 l66 0 l-22 -102 l-66 0 l22 102 Z" /><glyph glyph-name="macron.cap" unicode="&#xe306;" d="M110 796 l11 48 l266 0 l-11 -48 l-266 0 Z" /><glyph glyph-name="breve.cap" unicode="&#xe307;" d="M173 892 q-1 -5 -1 -15 q0 -34 21 -49.5 q21 -15.5 58 -15.5 q42 0 65 21 q23 21 39 59 l38 0 q-18 -61 -60 -94.5 q-42 -33.5 -103 -33.5 q-49 0 -73 28.5 q-24 28.5 -24 72.5 q0 7 0.5 13.5 q0.5 6.5 1.5 13.5 l38 0 Z" /><glyph glyph-name="ring.cap" unicode="&#xe308;" d="M203 855 q-1 -3 -1 -10 q0 -18 12 -30.5 q12 -12.5 31 -12.5 q21 0 40 16 q19 16 24 37 q1 3 1 10 q0 18 -12 30.5 q-12 12.5 -30 12.5 q-21 0 -40.5 -16 q-19.5 -16 -24.5 -37 ZM161 855 q4 19 15 36.5 q11 17.5 27 30.5 q16 13 35 20.5 q19 7.5 39 7.5 q35 0 55.5 -21.5 q20.5 -21.5 20.5 -53.5 q0 -5 -0.5 -10 q-0.5 -5 -1.5 -10 q-4 -20 -15 -37 q-11 -17 -26.5 -30 q-15.5 -13 -34.5 -20.5 q-19 -7.5 -39 -7.5 q-35 0 -56 21.5 q-21 21.5 -21 53.5 q0 5 0.5 10 q0.5 5 1.5 10 Z" /><glyph glyph-name="hungarumlaut.cap" unicode="&#xe309;" d="M285 760 l-50 0 l127 138 l78 0 l-155 -138 ZM169 760 l-48 0 l119 138 l80 0 l-151 -138 Z" /><glyph glyph-name="dotaccent.cap" unicode="&#xe30a;" d="M227 872 l66 0 l-22 -102 l-66 0 l22 102 Z" /><glyph glyph-name="caron.alt" unicode="&#xe30b;" d="M304 722 l-16 -73 l-60 -89 l-27 0 l52 89 l-36 0 l16 73 l71 0 Z" /><glyph glyph-name="commaaccent" unicode="&#xe30c;" d="M139 -46 l-17 -77 l-63 -93 l-28 0 l55 93 l-37 0 l17 77 l73 0 Z" /><glyph glyph-name="commaaccent.alt" unicode="&#xe30d;" d="M201 578 l13 64 l54 74 l24 0 l-46 -74 l32 0 l-13 -64 l-64 0 Z" /><glyph glyph-name="uniF8FF" unicode="&#xf8ff;" d="M222 117 l0 67 l56 0 l0 -67 l-56 0 ZM225 234 l-2 17 q0 55 13 81 q13 26 46 59 q32 31 41 47.5 q9 16.5 9 35.5 q0 36 -22.5 60.5 q-22.5 24.5 -53.5 24.5 q-31 0 -53.5 -22 q-22.5 -22 -28.5 -73 l-50 8 q7 71 44 104 q37 33 91 33 q53 0 88.5 -36 q35.5 -36 35.5 -95 q0 -32 -12.5 -58.5 q-12.5 -26.5 -50.5 -61.5 q-37 -33 -43 -52 q-6 -19 -6 -72 l-46 0 ZM462 50 l0 617 l-412 0 l0 -617 l412 0 ZM512 718 l0 -718 l-512 0 l0 718 l512 0 Z" /><glyph glyph-name="fi" unicode="&#xfb01;" d="M463 722 l72 0 l-18 -84 l-72 0 l18 84 ZM419 520 l72 0 l-112 -520 l-72 0 l112 520 ZM114 520 l80 0 l23 106 q11 53 40.5 79.5 q29.5 26.5 88.5 26.5 q14 0 28 -2 q14 -2 27 -4 l-12 -56 q-16 8 -38 8 q-26 0 -42 -15 q-16 -15 -21 -40 l-22 -103 l84 0 l-13 -60 l-84 0 l-99 -460 l-72 0 l99 460 l-80 0 l13 60 Z" /><glyph glyph-name="fl" unicode="&#xfb02;" d="M463 722 l72 0 l-156 -722 l-72 0 l156 722 ZM114 520 l80 0 l23 106 q11 53 40.5 79.5 q29.5 26.5 88.5 26.5 q14 0 28 -2 q14 -2 27 -4 l-12 -56 q-16 8 -38 8 q-26 0 -42 -15 q-16 -15 -21 -40 l-22 -103 l84 0 l-13 -60 l-84 0 l-99 -460 l-72 0 l99 460 l-80 0 l13 60 Z" /></font>
</defs>
</svg>
