<svg id="Layer_1" data-name="Layer 1" xmlns="http://www.w3.org/2000/svg" viewBox="0 0 748 354.9"><defs><style>.cls-1{fill:#2484c6}</style></defs><title>Artboard 1</title><path class="cls-1" d="M145.46 271.34H299a1.8 1.8 0 0 0 1-.33l214.62-152.32a.88.88 0 0 1 1.08 1.39L341.89 268.17a1.8 1.8 0 0 0 1.17 3.17h154.5a1.8 1.8 0 0 0 1.17-.44l98.92-85.18a.88.88 0 0 1 1.27 1.2l-61.82 81.53a1.8 1.8 0 0 0 1.43 2.89h153.53a1.8 1.8 0 0 0 1.61-2.6L563.14 7.68A13.89 13.89 0 0 0 543 2.34L144.46 268a1.8 1.8 0 0 0 1 3.34zm84.89 11.2h22.38v72.37h-22.38zM361.4 354.9h83.86v-15.73h-61.35v-11.4h61.35v-15.1h-61.35v-11.31h61.35v-18.82H361.4v72.36zm243.89-68.11c-5.64-7.46-18.29-7.44-24 0-10.67 14-40.61 57-40.61 57l-12.88-12.44a24.63 24.63 0 0 0-4.68-48.82h-66.54v18.82h61.35a5.66 5.66 0 0 1 0 11.28h-61.35v42.27h22.82v-22h21.78l20.14 22h38l34-48 14.34 20.91h-15.18l-13.27 18.59h41.19l5.86 8.54h42.09s.07-29.44 0-31.1c1.21 1.22 34.86 31.1 34.86 31.1H737s-46.81-36.77-48.91-38.22c1.15-.72 21.48-15.37 21.48-15.37l-8.79-17.58s-31 27-32.43 28.31c.14-1.87 0-29.37 0-29.37h-22.46v61.59s-30.12-43.66-40.6-57.51zm-339.77 51.95a9.23 9.23 0 0 0-2.85 6.75 9.41 9.41 0 0 0 9.41 9.41h78v-15.78h-53.57l50.76-39.36c3.09-2.54 4.13-4.73 4.13-7.81a9.41 9.41 0 0 0-9.41-9.41h-77.88v18.82h49.25s-44.79 34.5-47.84 37.38zm-158.79 5.62c-2.74 9.08.6 11.73 10.85 11.73s18.67-5.38 26.39-11.73c0 0 48.12-39.38 50.73-41.6-.71 2.61-9.48 52.14-9.48 52.14H219v-66.73a5.74 5.74 0 0 0-2.8-5.22 13.2 13.2 0 0 0-6.89-1.62 23.43 23.43 0 0 0-8.2 1.41 30.6 30.6 0 0 0-7.22 3.81s-50.35 35.63-52.18 37.06c.23-1.43 4.06-37.06 4.06-37.06.36-3.47-3.44-5.37-8-5.37-8.29 0-16.56 3.47-21.83 7L16.12 354.9h33.37s66.64-49.59 69.85-52.14c-.42 1.09-12.61 41.6-12.61 41.6z"/></svg>