<svg xmlns="http://www.w3.org/2000/svg" viewBox="0 0 214.22 99.35"><defs><style>.cls-1{fill:#231f20;}</style></defs><title>logo</title><g id="Layer_2" data-name="Layer 2"><g id="Layer_1-2" data-name="Layer 1"><path class="cls-1" d="M58.49,50.56c-4.75-1.74-9.92.23-11.86.93-.83.3-2.16.55-2.65,0C41.63,48.9,51,26.21,59.59,23c6.91-2.28,17.64-3.8,19-5.06,0,0,4.84-4.61,1.75-5C69.08,13.16.62,19.76,0,54.62c-.12,6.55,3.23,12.72,8.64,14.65,4.45,1.6,11.19-2,7-2.91-3.94-.84-12.62-5.23-8.58-17.8C12.25,32.35,45,26,44.81,28.4c-.08,1.12-5,9-11.63,33-2.57,9.32-3.06,24.52-1.45,30.3.55,2,1.33,3.1,2.95,2.92,1.42-.16,1.87-2.39,1.58-6.14-.71-9.07,3.29-27.38,5-28.54,5.69-3.94,9.08-5.37,16.08-5.25C58.24,54.68,61.2,51.56,58.49,50.56Z"/><path class="cls-1" d="M78.49,99,78,97.6l-3.83.2-.49,1.43-2.15.11,3.39-9.73,2.33-.12,3.39,9.38ZM74.86,95.8l2.44-.13-1.22-3.36Z"/><path class="cls-1" d="M92.94,94.83a3.52,3.52,0,0,1,.65.73,4.64,4.64,0,0,1,.45.85,4.43,4.43,0,0,1,.25.89,5,5,0,0,1,.08.86l-1,.05-1,.05c0-.06,0-.16,0-.31a3.09,3.09,0,0,0-.08-.47,2.74,2.74,0,0,0-.19-.52,1.78,1.78,0,0,0-.36-.49,1.58,1.58,0,0,0-.56-.35,2,2,0,0,0-.82-.1L88,96.14v2.35l-1.94.1V89l4.29-.23h.29a2.8,2.8,0,0,1,.56.09,4.14,4.14,0,0,1,.72.26,2.71,2.71,0,0,1,.75.52,3.84,3.84,0,0,1,1.08,2.92,3.46,3.46,0,0,1-.23,1.3A3,3,0,0,1,92.94,94.83Zm-2.57-.78a2.36,2.36,0,0,0,.4-.07,1.54,1.54,0,0,0,.48-.21,1.26,1.26,0,0,0,.4-.41,1.31,1.31,0,0,0,.16-.69,2.65,2.65,0,0,0-.18-1.07,1.52,1.52,0,0,0-.41-.58,1.12,1.12,0,0,0-.49-.23,1.73,1.73,0,0,0-.38,0L88,90.88v3.3Z"/><path class="cls-1" d="M107.63,95.18a5.16,5.16,0,0,1-1.68,1.73,4.94,4.94,0,0,1-1.11.52,4.75,4.75,0,0,1-1.23.23,4.45,4.45,0,0,1-3.35-1.23,4.62,4.62,0,0,1-1-1.47,4.49,4.49,0,0,1-.38-1.84,4.77,4.77,0,0,1,.38-1.88,5.34,5.34,0,0,1,1-1.57,5.16,5.16,0,0,1,1.5-1.11,4.7,4.7,0,0,1,1.85-.48,4.56,4.56,0,0,1,1.23.1,4.44,4.44,0,0,1,1.11.4,4.3,4.3,0,0,1,.95.67,4.57,4.57,0,0,1,.74.89l-1.45,1.54a2.74,2.74,0,0,0-.41-.7,2.48,2.48,0,0,0-.59-.53,2.63,2.63,0,0,0-.74-.33,2.66,2.66,0,0,0-.84-.09,2.78,2.78,0,0,0-1.08.28,3,3,0,0,0-.89.65,3.16,3.16,0,0,0-.6.92,2.81,2.81,0,0,0-.22,1.11A2.64,2.64,0,0,0,101,94.1a2.73,2.73,0,0,0,.6.86,2.55,2.55,0,0,0,.89.56,2.62,2.62,0,0,0,1.08.17,2.79,2.79,0,0,0,.84-.17,3,3,0,0,0,1.74-1.72Z"/><path class="cls-1" d="M120.53,87.22V96.8l-2,.1V93.39l-3.3.17v3.51l-2,.1V87.6l2-.1v4.07l3.3-.17V87.32Z"/><path class="cls-1" d="M128.46,88.77v1.95l4.28-.22v2l-4.28.22v1.65l4.44-.23v2l-6.41.33V86.89l6.41-.34v2Z"/><path class="cls-1" d="M145.9,92.05a3.5,3.5,0,0,1,.65.73,4.66,4.66,0,0,1,.45.85,4.53,4.53,0,0,1,.25.9,5.13,5.13,0,0,1,.08.86l-1,.05-1,.05c0-.06,0-.16,0-.31a3.11,3.11,0,0,0-.08-.47,2.76,2.76,0,0,0-.19-.53,1.79,1.79,0,0,0-.36-.49,1.58,1.58,0,0,0-.56-.35,2,2,0,0,0-.82-.1l-2.34.12v2.35l-1.94.1V86.21l4.29-.23h.29a2.79,2.79,0,0,1,.56.09,4.1,4.1,0,0,1,.72.26,2.71,2.71,0,0,1,.75.52,3.86,3.86,0,0,1,1.08,2.93,3.48,3.48,0,0,1-.23,1.31A3,3,0,0,1,145.9,92.05Zm-2.57-.78a2.35,2.35,0,0,0,.4-.07,1.55,1.55,0,0,0,.48-.21,1.27,1.27,0,0,0,.4-.41,1.31,1.31,0,0,0,.16-.69,2.67,2.67,0,0,0-.18-1.07,1.5,1.5,0,0,0-.41-.58,1.12,1.12,0,0,0-.49-.24,1.72,1.72,0,0,0-.38,0l-2.33.12v3.31Z"/>
<path class="cls-1" d="M213.89,41A7.87,7.87,0,0,0,210,39.9c-7.7.47-12.15,13.77-12.36,13.67,3-7.45,3.18-8.43,6.26-15.85.93-2.24.74-2.87-1.61-2.86s-3.65,1.46-4.44,3.51c-2.15,5.61-4.24,11.23-6.38,16.84a5.5,5.5,0,0,1-1,1.85,115.36,115.36,0,0,1-8.28,8.63c-.52.39-1,.78-1.59,1.16a10.55,10.55,0,0,1-5.42,2,8,8,0,0,1-2.36-.17h0A2.07,2.07,0,0,1,171,66.6q0-1.41,6.69-5.56a11.94,11.94,0,0,1,1.4-.64,6.24,6.24,0,0,0,1.87-1.18q.83-.75.82-1.18a2.38,2.38,0,0,0-.47-1.16,2.59,2.59,0,0,0-.89-.93,3.11,3.11,0,0,0-.81,0,8.44,8.44,0,0,0-2.17.65,8.39,8.39,0,0,1-2.3.65q-.75,0-.75-.22,0-.77,2-2.45A34.39,34.39,0,0,1,179.8,52a15.52,15.52,0,0,1,2.54-1.33,4.53,4.53,0,0,0-.13,1.07,1.52,1.52,0,0,0,.22.87q.22.33.92.29a5.78,5.78,0,0,0,3.85-1.82,5.28,5.28,0,0,0,1.7-3.82,1.49,1.49,0,0,0-1.08-1.39,4.76,4.76,0,0,0-2.12-.4q-4.38.24-10,3.6a15.19,15.19,0,0,0-4.23,3.68,6.78,6.78,0,0,0-1.73,4.07,7.56,7.56,0,0,0,.35,2.71,2.6,2.6,0,0,0,1.55,1.31q-6.06,2.61-6.06,7a4.64,4.64,0,0,0,1.21,3.26c-1.3.48-2.51.7-3.35.13-2.28-1.69,2.39-11.35,2.82-15.14.2-1.73-.65-4.57-1.88-5.23s-2.92.45-3.91,1.36c-3.59,3.3-13.71,13.72-14.23,13.18-1.95-1.38,16.34-23.23,21.66-33,2.33-4.27,4.75-8.59,5-13.59.11-2.24-.25-4.2-2.42-5.17-1.93-.86-3.18-.31-5.06,1.3-4.64,4-11.68,16.13-12.15,16.85a133.85,133.85,0,0,0-31.94.2c1.21-2.71,1.75-4.11,2.78-6,.9-1.66,1.08-3-.69-3.88-2-1.06-3.32-.58-4.45,1.61-1.29,2.52-4.48,9-4.79,9.25-1.54.34-9.13,1-14.86,3-1,.33-2,2.25-2,3.36,0,1.62,1.65,1.58,3,1.22s9-2,12-2.61c-2.08,5-7,21.14-15.27,29.17a44.87,44.87,0,0,1-7.3,5.95,9.64,9.64,0,0,1-3.74,1c-2.81.15-4.41-.61-4.22-2.26.39-3.38,9-3.81,9.79-6.68.22-.78-.17-1.13-.48-1.61a1.69,1.69,0,0,0-1.7-.95,8.62,8.62,0,0,0-2.17.65,8.42,8.42,0,0,1-2.3.65c-.5,0-.74,0-.75-.21-.26-5.07,8.67-7.93,10.45-8.18.44,2.12,3.18,2.49,3.74,1s.62-4.92-2-4.86a18.7,18.7,0,0,0-9.77,2.77c-1.67,1-7.9,4.39-6.66,10.91a3.05,3.05,0,0,0,1.61,2.17c-4,1.73-5.91,9-11.43,9.31-3.82.19-5-6.72-2.13-9.63,19.3-19.55,20-32.45,21-37.71s-2.56-8-7-6.78C77.61,24.37,65.38,40.35,63,57.61c-.48,3.52-1,7-1.14,9.62A112.22,112.22,0,0,1,51,74.89c-1.21.72-2.25,2-1.11,3.14.78.78,2.81,1.31,3.69.83a58.91,58.91,0,0,0,8-5.14A9.7,9.7,0,0,0,64.57,79c4.94,4.06,9.8.82,13.66-2.67a21.27,21.27,0,0,0,1.95,1.59,12.18,12.18,0,0,0,5.17.62,11.91,11.91,0,0,0,1.27-.15c7.18-.5,12.83-7.8,14.52-9.34-.5,2.54-2.71,8.61,1.43,10.42,3.45,1.51,6.63,0,9.38-2.4,1.87-1.61,3.48-3.52,5.2-5.28,4.07,9.69,16.87,3.95,24.48-8.6,0,.79-1.38,5.5-1.6,9-.15,2.3,1.11,3.31,2.81,2.76,3.59-1.15,9.49-8.72,12.11-11.75,1.82-2.11,3.75-4.13,5.62-6.2,1.86,2.22-1.68,9.44-2.06,13.57-.31,3.41,3.29,6.2,6.21,4.62a24.7,24.7,0,0,1,4.87-2.34,12.79,12.79,0,0,0,4.76.49Q180.4,73,187.19,67a9.92,9.92,0,0,0,1.48-1.79c-.21,1.66-.3,2.76-.51,3.83-.42,2.14-1.8,7.16.25,8s2.2.39,3.07-.91C193.62,73,201,50,206.58,45.53c1.82-1.28,3.19-.32,3.88-.07a2.47,2.47,0,0,0,3.4-1.41C214.28,43.14,214.38,41.32,213.89,41ZM83.6,28.71c3.76,1.42-11.44,29.08-16.18,31.76C67.08,55.47,79.84,27.29,83.6,28.71Zm84.64-12.21c.51,6.34-12.08,29-19,34.66C152.73,37.83,159.39,27,168.25,16.49ZM142.78,57.28c-1.84,5.73-16.6,20.46-20.1,14.32s7.26-21.45,12.64-23c-.82,2.37-1.51,4.5-2.3,6.6-.31.82-.84,1.56-1.23,2.36-.67,1.38-1.07,3.08.56,3.52a3.94,3.94,0,0,0,3.39-1.57,61.45,61.45,0,0,0,3.33-9.71c.42-1.62.44-3.38-1.46-4.51a5.23,5.23,0,0,0-5.84,0c-3.61,2.16-5.88,5.56-8.25,8.94-4.75,6.76-5,8.4-10.36,14.9-1.86,2.54-4.74,5.22-6.94,3.9-2.85-1.71,2-10.58,3.83-15.52,2.33-6.45,6.32-14.37,9.08-20.68,7.59-1.6,28.81-4,33.44-3.44-1.25,2.43-3.52,7.31-3.71,7.8C146.82,46.58,144.73,51.2,142.78,57.28Z"/><path class="cls-1" d="M94.15,3.46l.27,1.18-2.78.8.21.91,2.32-.67.25,1.1-2.32.67.21.91,2.78-.8.27,1.18L91.3,9.89,90.09,4.63Z"/><path class="cls-1" d="M101.5,3.65l-1.29.26c0-.27-.41-.57-1-.46-.39.08-.84.34-.8.65s.41.29,1.19.34,2.11.1,2.28,1.29c.14,1-.67,1.85-1.93,2.1a2,2,0,0,1-2.67-1.5l1.29-.25a1,1,0,0,0,1.29.62c.58-.11.76-.4.73-.63s-.51-.37-1-.39c-.83,0-2.29-.05-2.46-1.24a2.13,2.13,0,0,1,2-2.14A1.86,1.86,0,0,1,101.5,3.65Z"/><path class="cls-1" d="M109,2.08,107,2.33l.3,4.23L106,6.74l-.3-4.23-1.92.25-.09-1.22,5.17-.68Z"/><path class="cls-1" d="M111.79,5.41a.85.85,0,0,1-.77.85.73.73,0,0,1-.79-.7.85.85,0,0,1,.74-.88A.75.75,0,0,1,111.79,5.41Z"/><path class="cls-1" d="M120.2,5.61l-1.33,0L119,2a3.22,3.22,0,0,1-1.14.65l-.25-1.22A3,3,0,0,0,119,.16l1.33,0Z"/><path class="cls-1" d="M127.19,2.69c-.1,1.43-.83,3-2.67,3a2.86,2.86,0,0,1-1.75-.63l.57-1a2,2,0,0,0,1.2.44,1.49,1.49,0,0,0,1.32-1.18,1.73,1.73,0,0,1-1.32.52A1.64,1.64,0,0,1,122.91,2a2.06,2.06,0,0,1,2.26-2C126.37,0,127.32.94,127.19,2.69Zm-3-.7a.72.72,0,0,0,.77.76.81.81,0,0,0,.86-.74.74.74,0,0,0-.75-.8A.85.85,0,0,0,124.24,2Z"/><path class="cls-1" d="M133.77,1l-.71,1a1.94,1.94,0,0,0-1.13-.5c-.8-.06-1.11.51-1.34,1.1a1.53,1.53,0,0,1,1.26-.45,1.7,1.7,0,0,1,1.6,2A2.07,2.07,0,0,1,131.14,6c-1.27-.09-2.14-1.08-1.91-2.83.18-1.43,1-3,2.78-2.84A3.36,3.36,0,0,1,133.77,1Zm-3.25,2.86a.73.73,0,0,0,.7.85.84.84,0,0,0,.91-.73.71.71,0,0,0-.71-.81A.8.8,0,0,0,130.52,3.88Z"/><path class="cls-1" d="M140.93,4.33a2.77,2.77,0,0,1-3.13,2.4,2.46,2.46,0,0,1-1.94-3.22A2.75,2.75,0,0,1,139,1.11,2.47,2.47,0,0,1,140.93,4.33Zm-1.3-.21c.23-1.07-.31-1.71-.89-1.81s-1.36.33-1.58,1.4.31,1.71.9,1.81S139.4,5.2,139.63,4.12Z"/></g></g></svg>