<svg id="Layer_1" data-name="Layer 1" xmlns="http://www.w3.org/2000/svg" viewBox="0 0 207.07 59.67"><defs><style>.cls-1{fill:#ff4612}</style></defs><title>brand-onix</title><path d="M202.19 12.15h-.88v-.59h2.39v.59h-.88v2.3h-.63zm2-.58h.68l.76 1.22.76-1.22h.68v2.89h-.63v-1.89l-.81 1.23-.8-1.22v1.87h-.62zM76 29.95A19.15 19.15 0 0 0 93.7 49v-6.33a12.8 12.8 0 0 1 0-25.45v-6.33A19.15 19.15 0 0 0 76 29.95zm20.35-19.07v6.32a12.8 12.8 0 0 1 0 25.49V49a19.11 19.11 0 0 0 0-38.14zm42.83 20.92l-17.13-17.34h-1.94v31.02h6.19v-18.1l17.44 18.1h1.64V14.46h-6.2V31.8zm15.27-17.34h6.2v31.02h-6.2zm30.61 8.95v13.08L197 48.43h1.84V41.2l-7.55-7.53v-7.51l7.55-7.64v-7h-1.89l-11.89 11.89zm-16.44-11.89v7l7.55 7.58v7.64l-7.55 7.46v7.23h1.84l11.94-11.94V23.41l-11.88-11.89h-1.9z"/><path class="cls-1" d="M20.38 12.22L13.22 5l-4-4h-3v11l6.92 6.94 2.45 2.46L18 23.82v12l-5 4.9a19.91 19.91 0 0 1-1.9-3.75 19.92 19.92 0 0 1 0-14.26l-.92-.93-6.34-6.53A29.65 29.65 0 0 0 0 29.83c0 .59 0 1.17.06 1.75v.47q.05.7.14 1.39v.35A29.74 29.74 0 0 0 6.2 48v10.75h2.89l4.13-4.13a29.82 29.82 0 0 0 8.13 3.85 29.41 29.41 0 0 0 6.34 1.19v-9.92q-.93-.1-1.84-.29h-.12a19.89 19.89 0 0 1-5.34-2L22.84 45l4.92-4.92V19.6l-4.92-4.92zm4.02-1.64a19.87 19.87 0 0 1 3.29-.65V0a29.62 29.62 0 0 0-10.88 3l6.4 6.4zm10.92 38.54a19.85 19.85 0 0 1-3.48.65v9.9a29.61 29.61 0 0 0 11.08-2.95l-6.4-6.4zM48.63 37l.93.93 6.44 6.4a29.64 29.64 0 0 0 3.79-14.49v-1.56c0-.35 0-.7-.08-1s0-.47-.07-.7-.07-.62-.11-.92-.14-.87-.22-1.31l-.12-.59q-.15-.7-.33-1.39l-.11-.39q-.22-.79-.48-1.56v-.06a29.87 29.87 0 0 0-4.74-8.81V1h-3l-2 2-2 2A29.72 29.72 0 0 0 33.61.17h-.3l-.87-.12-.6-.05v9.9l.52.07c.43.05.85.1 1.27.18s.75.17 1.12.26a19.88 19.88 0 0 1 4.6 1.76l-7.43 7.43v20.47l7.43 7.43 7.17 7.17 4.08 4.08h2.88v-11.3l-6.76-6.74-5.06-5V23.92l2.5-2.53 2.49-2.52a19.93 19.93 0 0 1 1.93 3.74q.32.84.57 1.71c0 .12.06.25.09.37.12.45.24.91.33 1.37a20.15 20.15 0 0 1 .36 3.77 20 20 0 0 1-1.3 7.17z"/></svg>