<svg xmlns="http://www.w3.org/2000/svg" viewBox="0 0 260.77 37.08"><title>brand-kettleworx</title><g id="Layer_2" data-name="Layer 2"><g id="slider_5" data-name="slider 5"><path d="M0,0H10.94V16.11h.11L19.67,0H31.95L23.11,17l9.25,19.45H20.13l-9.08-19.2h-.11v19.2H0Z"/><path d="M57.11,33.84a26.35,26.35,0,0,1-12.62,3.24c-5,0-15-2.79-15-13.68C29.54,14,38.38,9.63,45.3,9.63c9.89,0,12.21,6,13.38,9.27L43.5,28.27A8.61,8.61,0,0,0,47,29a15.93,15.93,0,0,0,9.43-3.75ZM47.63,18.13c-.64-.71-2.5-.91-3.32-.91-2.79,0-5.12,1.73-5.12,4.87a7.4,7.4,0,0,0,.23,1.41Z"/><path d="M61.08,7,71.21,1.92v8.31h3.72v7.6H71.21V25c0,1.27,0,2.64,3,2.64a4.4,4.4,0,0,0,1.51-.2l-1.51,9c-8.56,0-13.09,0-13.09-6.64v-12H59v-7.6h2.09Z"/><path d="M78.73,7,88.85,1.92v8.31h3.72v7.6H88.85V25c0,1.27,0,2.64,3,2.64a4.42,4.42,0,0,0,1.51-.2l-1.51,9c-8.55,0-13.1,0-13.1-6.64v-12h-2.1v-7.6h2.1Z"/><path d="M95.73,0h10.13V36.47H95.73Z"/><path d="M134.86,33.84a26.41,26.41,0,0,1-12.62,3.24c-4.95,0-15-2.79-15-13.68,0-9.42,8.84-13.77,15.77-13.77,9.89,0,12.22,6,13.38,9.27l-15.18,9.37a8.57,8.57,0,0,0,3.49.71,15.89,15.89,0,0,0,9.42-3.75Zm-9.49-15.71c-.64-.71-2.5-.91-3.32-.91-2.79,0-5.12,1.73-5.12,4.87a6.48,6.48,0,0,0,.23,1.41Z"/><path d="M136.41,0h10.94l2.39,15.15h.11L158.24,0l8.37,15.15h.12L169.12,0h10.95l-5.59,36.47h-8.74l-7.5-14.08-7.51,14.08H142Z"/><path d="M194.17,9.63c8.73,0,15.76,6.13,15.76,13.73s-7,13.72-15.76,13.72S178.39,31,178.39,23.36,185.43,9.63,194.17,9.63Zm0,18.64c3.13,0,5.64-2.18,5.64-4.91s-2.51-4.91-5.64-4.91-5.65,2.18-5.65,4.91S191,28.27,194.17,28.27Z"/><path d="M211.35,10.23h10.12v2.63h.12c1.28-2,3-2.63,6.51-2.63V19c-5.64,0-6.63,1.72-6.63,4.71V36.47H211.35Z"/><path d="M248.66,18l12.11,18.43H248l-5.64-8.66-5.65,8.66H223.87l12-18.43L224.11,0h12.8l5.41,8.25L247.67,0h12.8Z"/><path d="M254.3,17.8h0a1.81,1.81,0,1,1,3.62,0h0a1.81,1.81,0,1,1-3.62,0Zm3.41,0h0a1.6,1.6,0,1,0-3.21,0h0a1.6,1.6,0,1,0,3.21,0Zm-2.39-1h.92c.47,0,.8.2.8.65a.61.61,0,0,1-.4.6l.46.67h-.62l-.38-.57h-.23v.57h-.54Zm.88.92c.19,0,.29-.09.29-.23s-.1-.23-.29-.23h-.34v.46Z"/></g></g></svg>