<?xml version="1.0" encoding="utf-8"?>
<!-- Generator: Adobe Illustrator 18.0.0, SVG Export Plug-In . SVG Version: 6.00 Build 0)  -->
<!DOCTYPE svg PUBLIC "-//W3C//DTD SVG 1.1//EN" "http://www.w3.org/Graphics/SVG/1.1/DTD/svg11.dtd">
<svg version="1.1" id="Layer_1" xmlns="http://www.w3.org/2000/svg" xmlns:xlink="http://www.w3.org/1999/xlink" x="0px" y="0px"
	 viewBox="3.4 2.4 605.2 205.2" enable-background="new 3.4 2.4 605.2 205.2" xml:space="preserve">
<g>
	<g>
		<path fill="#F15A00" d="M588.5,56.9l-30.3,62.5v34H536v-34l-29.3-62.5h24.5l16.5,38.3l17.1-38.3C564.9,56.9,588.5,56.9,588.5,56.9
			z M401.8,110.4c0,5.4,0,10.8-3,15.5c-3,5-8.4,8.1-14.1,8.1s-11.1-2.7-14.5-7.7c-3.4-4.7-3.4-9.8-3.4-15.5V57h-22.2v54.1
			c0,12.1,0.7,20.5,8.7,30.3c7.7,9.4,19.2,14.8,30.9,14.8c12.1,0,23.5-5.7,30.9-14.8c8.1-9.8,8.7-18.2,8.7-29.9V57h-22.2v53.4H401.8
			z M476.1,56.9h-22.5v73c0,16.5,5.7,23.2,22.5,23.2h32.3v-21.5h-32.3V56.9z M280.1,121.8l-16.8-64.9h-24.2l22.9,80
			c2.7,9.4,7.1,19.2,18.2,19.2h12.1l28.9-99.2h-23.9L280.1,121.8z"/>
		<path fill="#F15A00" d="M594.2,56.9h5v1h-2v6.7h-1v-6.7h-2V56.9L594.2,56.9z M607.6,56.9l-3,5.7l-3-5.7h-1v7.7h1v-5.4l3,5.4l3-5.4
			v5.4h1v-7.7H607.6z"/>
	</g>
	<path fill="#F15A00" d="M208.5,105c0,23.9-8.1,46.1-21.9,63.6c-14.8,12.8-34.3,20.5-55.5,20.5c-25.2,0-47.4-11.1-62.9-28.2
		c10.8,7.4,23.9,11.4,37.7,11.4c51.1,0,92.8-41.4,92.8-92.8c0-8.7-1.3-17.5-3.7-25.6C203.8,69,208.5,86.5,208.5,105z M173.5,105
		c0,14.1-4.4,26.9-11.4,37.7c17.5-15.5,28.2-38,28.2-62.9c0-21.2-7.7-40.7-20.8-55.5C152,10.5,130.2,2.4,105.9,2.4
		c-18.5,0-36,5-50.8,13.5c8.1-2.4,16.8-3.7,25.6-3.7C131.8,12.2,173.5,53.9,173.5,105z M105.9,37.4c14.1,0,26.9,4.4,37.7,11.4
		c-15.5-17.1-37.7-27.9-62.9-27.9c-21.2,0-40.7,7.7-55.5,20.8C11.4,58.9,3.4,81.1,3.4,105c0,18.5,5,36,13.5,50.8
		c-2.4-8.1-3.7-16.8-3.7-25.6C13.1,79.1,54.8,37.4,105.9,37.4z M38.7,105c0-14.1,4.4-26.9,11.4-37.7c-17.5,15.5-28.2,38-28.2,62.9
		c0,21.2,7.7,40.7,20.8,55.5c17.5,13.8,39.3,21.9,63.6,21.9c18.5,0,36-5,50.8-13.5c-8.1,2.4-16.8,3.7-25.6,3.7
		C80,197.8,38.7,156.1,38.7,105z"/>
</g>
</svg>
