<svg xmlns="http://www.w3.org/2000/svg" viewBox="0 0 244 52.76"><title>brand-stiga</title><g data-name="Layer 2"><path d="M84.18 16.89v34.97H67.91V16.81H57.77V1.64h36.32v15.17h-9.87l-.04.08zm34.43 35.29V1.64h-16.03v50.54h16.03zm44-20.03a12.27 12.27 0 0 1-10.36 5.63 12 12 0 1 1 0-24 12.34 12.34 0 0 1 6.55 1.87l8-11.12A25.2 25.2 0 0 0 152.44 0a25.86 25.86 0 0 0-25.62 26.08 25.63 25.63 0 1 0 51.25 0 26.79 26.79 0 0 0-.37-4.45h-24.86v10.5zm39-4.28V16.61a4 4 0 0 1 5 2.24s5.9 8.08 6.72 9zm24.17-8.67l-10-12.81s-5-5.38-14.15-4.68h-15.76v50h15.92v-9.16h22.34s10.32 9.67 19.87 9.2V35.36S234 31 225.78 19.2zM51.52 17V1.64S41.86-.13 30.65 9.3c0 0-7.55 7.55-14.27 15.45 0 0-7.55 11.08-16.39 11v17S11.78 54.52 24.4 39.9c12.32-14.28 12.73-14.74 15-16.74s6.46-5.84 12.12-6.16zm179-13v3.24h.57V6h.45a1.38 1.38 0 0 1 .63.1.79.79 0 0 1 .3.74v.43h.53a.47.47 0 0 1 0-.27v-.44a.9.9 0 0 0-.17-.5.77.77 0 0 0-.55-.32 1.22 1.22 0 0 0 .47-.16.71.71 0 0 0 .31-.64.8.8 0 0 0-.5-.82 2.47 2.47 0 0 0-.88-.12zm2 1a.49.49 0 0 1-.34.5 1.56 1.56 0 0 1-.54.07h-.52V4.41h.49a1.5 1.5 0 0 1 .69.12.49.49 0 0 1 .22.47zm2.16.64a2.93 2.93 0 0 0-2.98-2.94 2.82 2.82 0 0 0-2.07.86 2.83 2.83 0 0 0-.86 2.07 2.86 2.86 0 0 0 .85 2.09 2.93 2.93 0 0 0 4.16 0 2.85 2.85 0 0 0 .86-2.09zm-2.98-2.53a2.53 2.53 0 0 1 2.53 2.53 2.47 2.47 0 0 1-.74 1.8 2.53 2.53 0 0 1-3.59 0 2.47 2.47 0 0 1-.73-1.8 2.44 2.44 0 0 1 .74-1.79 2.44 2.44 0 0 1 1.79-.74z" data-name="Layer 1"/></g></svg>