<svg xmlns="http://www.w3.org/2000/svg" viewBox="0 0 445.82 139.34"><defs><style>.cls-1{fill:#010101}</style></defs><title>brand-step</title><g id="Layer_2" data-name="Layer 2"><g id="Layer_1-2" data-name="Layer 1"><path class="cls-1" d="M389.17 129.92a8 8 0 1 1 8 8 7.92 7.92 0 0 1-8-8zm1.3 0a6.69 6.69 0 1 0 6.69-6.67 6.66 6.66 0 0 0-6.69 6.67zm10.34 4.54h-1.48l-2.33-4.14h-1.66v4.13h-1.3v-9h3.77c1.62 0 3.08.49 3.08 2.37a2.28 2.28 0 0 1-2.39 2.45zm-5.43-7.66v2.2h1.38c1.22 0 2.88.2 2.88-1s-1-1.22-2-1.22zM251.57 1.9h43.16v35.85h-43.16zm0 49.62h64.04v35.85h-64.04zm0 49.61h88.44v35.85h-88.44zM0 51.18h23.18v5.46h-8.09v31.77H8.14V56.64H0zm29.34 37.23V51.18h6.95v14.74H46V51.18h7v37.23h-7v-17h-9.71v17zm31.13 0V51.18H80v5.46H67.42V66H79v5.46H67.42v11.48H80v5.46zM152 54.12c-8.2-3.16-13.94-5.66-17.15-8s-3.81-3.68-3.93-6.54c0-3.61 3.18-8.18 14.63-8.4a55.7 55.7 0 0 1 24.72 5.64l4.2 2.18L183 8.21l-3-1.4C172 3 161 0 145.91 0c-15.64 0-28.6 4.31-37.77 11.83a38.43 38.43 0 0 0-14.32 30.25c0 21 16.08 34.06 37.74 41.65 7.51 2.59 12.51 5 15.26 7.31s3.43 4 3.52 6.8a8 8 0 0 1-3.53 7c-2.46 1.78-6.72 3.08-12.81 3.08a69 69 0 0 1-30.14-7.49l-4.39-2.31-1.19 4.88-6.58 26.47 2.61 1.45c8.07 4.4 22.7 8.38 38 8.42 18.11 0 31.89-4.72 41.21-12.67a39.49 39.49 0 0 0 13.86-30.72C187.61 76 175.13 62.4 152 54.12z"/><path class="cls-1" d="M430.88 12.34c-9.48-7.76-23.33-10.45-41.55-10.45-17.74 0-42.78.14-42.78.14v135.23h36.32V92.08c1.88.14 3.86.2 5.94.2 17.64 0 33.38-4.47 44.22-14.45 8.53-7.89 12.8-19.65 12.78-33.09s-5.81-25.36-14.93-32.4zm-42.25 50c-2.31 0-4.19-.06-5.76-.2v-31a77.44 77.44 0 0 1 8-.34c6.68 0 11.34 1.62 14.19 4s4.37 5.77 4.41 10.78c-.22 10.68-6.72 16.42-20.84 16.8zM179.22 2.08v31.98h29.57v103.2h36.42V2.08h-65.99z"/></g></g></svg>