<svg xmlns="http://www.w3.org/2000/svg" viewBox="0 0 419.64 103.54"><defs><style>.cls-1{fill:#c4d600}.cls-2{fill:#231f20}</style></defs><title>brand-per4m</title><g id="Layer_2" data-name="Layer 2"><g id="Layer_3" data-name="Layer 3"><path class="cls-1" d="M288.03 22.3h28.79l34.82 30.61-35.75 32.14h-27.86l36.68-31.76-36.68-30.99z"/><path class="cls-1" d="M321.77 22.3h28.79l34.83 30.61-35.76 32.14h-27.86l36.69-31.76-36.69-30.99z"/><path class="cls-1" d="M384.47 22l-.11-.11h-30.07l37.18 31.4-37.16 32.16h29.12l36.21-32.55L384.47 22z"/><path class="cls-2" d="M.26 22h50.31q8.3 0 14 7.55a17.16 17.16 0 0 1 3.09 9.69v11.69q0 8.58-8 14.5a17.67 17.67 0 0 1-9 2.7H17.74v17.24c0 .2-.09.3-.26.3H.26c-.17 0-.26-.1-.26-.3V22.3c0-.19.11-.3.26-.3zm17.48 15.1V53h25.13q5.41 0 6.83-5.4a12.39 12.39 0 0 0 .26-2.4q0-5.81-4.22-7.69a8.16 8.16 0 0 0-2.61-.44zM151 85.7H83.89q-13.43 0-13.42-15.42V37.22q0-15.42 13.42-15.42h53.69Q151 21.8 151 37.22V46q0 15.43-13.42 15.42H87.73v6.62q0 2.2 1.92 2.2H151zM131.83 46q1.92 0 1.92-2.2v-4.37q0-2.2-1.92-2.2H89.64q-1.92 0-1.92 2.2V46z"/><path class="cls-1" d="M258.44 0l-9.66 55.38h-49.36A3.24 3.24 0 0 1 196 51.8v-.29l4.72-23.58-11.72-.28L183.83 53c0 10.41 2.68 14.29 9.77 14.29H248l-4.84 36.24h12.06L266 22z"/><path class="cls-2" d="M180.91 53h-8.06V37.1h11.23l2.52-12.44 17.72.43L201.74 38q3.33 2.06 3.33 7.22a12.38 12.38 0 0 1-.26 2.4 6.64 6.64 0 0 1-3.76 4.82h21.65c0-.5.07-1 .07-1.52V39.24a17.18 17.18 0 0 0-3.09-9.69Q214 22 205.68 22h-50.31c-.15 0-.24.1-.26.3v63.07c0 .2.09.3.26.3h17.22c.17 0 .26-.1.26-.3V68.13H186c-4.29-3.08-5.08-9.13-5.09-15.13z"/><path class="cls-2" d="M193.69 70.22q6.2 14.81 6.9 15.44h22.18v-.3Q217 75 214.35 70.22z"/><path class="cls-1" d="M243.17 103.54L248 67.3h-54.4c-7.09 0-9.75-3.88-9.77-14.29L189 27.65l11.78.29L196 51.51v.29a3.24 3.24 0 0 0 3.4 3.58h49.35L258.44 0 266 22l-10.73 81.55zm166.07-77.2a4.62 4.62 0 1 1 9.25 0 4.62 4.62 0 1 1-9.25 0zm8.71 0a4.09 4.09 0 1 0-8.18 0 4.09 4.09 0 1 0 8.18 0zm-6-2.5h2.26c1.12 0 1.94.5 1.94 1.59a1.48 1.48 0 0 1-1.06 1.49l1.22 1.73h-1.41l-1-1.51h-.74v1.51H412zm2.18 2.34c.53 0 .82-.27.82-.66s-.32-.66-.82-.66h-1v1.33zM282.35 22.3h-13.48l-1.53 11.64 22.9 19.35-19.1 16.54-9.62 8.32-.9 6.9h20.8l35.76-32.14-34.83-30.61z"/><path class="cls-2" d="M343.44 22.29H325.7q-.13 0-23.53 31.06l-23.68-31.06h-9.61L260.62 85a.24.24 0 0 0 .16.06H278q.26 0 .26-.29v-37q23.59 31.1 23.74 31.18h.23L326 47.73v37c0 .19.09.29.26.29h17.22c.15 0 .22-.1.22-.29V22.64c-.03-.17-.11-.33-.26-.35z"/></g></g></svg>