<svg xmlns="http://www.w3.org/2000/svg" viewBox="0 0 314.02 141.12"><defs><style>.cls-1{fill:#231f20}</style></defs><title>brand-hj-scott</title><g id="Layer_2" data-name="Layer 2"><g id="Layer_1-2" data-name="Layer 1"><path class="cls-1" d="M107.62 132.5c0-4.56 2.92-7.61 6-9.4a8.73 8.73 0 0 1-1.91-5.38c0-3.08 3.16-7.18 8.39-7.18a10.15 10.15 0 0 1 4.72 1 .89.89 0 0 1 .51 1A43.79 43.79 0 0 1 125 117c-.12.58-.23.66-.39.66s-.23-.16-.23-.74a4.68 4.68 0 0 0-1.21-3.32 5.38 5.38 0 0 0-3.9-1.72 4.75 4.75 0 0 0-5 5.11c0 3 2.11 5.58 6.16 10 1.33 1.44 6.12 5.93 7.37 7a11.9 11.9 0 0 0 2-6.47 2.66 2.66 0 0 0-.74-1.91 2.76 2.76 0 0 0-1.91-.62c-.23 0-.47-.08-.47-.27s.31-.27.62-.27a43.83 43.83 0 0 1 4.68.27c.59.08.7.39.7.78 0 3.16-2.14 7.1-3.86 9.2a34.21 34.21 0 0 0 5.38 3.86 10.7 10.7 0 0 0 4.7 1.44c.35 0 .55 0 .55.27s-.31.27-.66.27H135c-2.89 0-3.82-.27-8.11-3.67a13.1 13.1 0 0 1-9.75 4.21c-6.87.04-9.52-5.18-9.52-8.58zm18.21 3.67c-2.18-1.79-6-5.5-7.06-6.59a63.37 63.37 0 0 1-4.6-5.46 7.46 7.46 0 0 0-3.51 6.55c0 4.88 3.43 8.38 7.8 8.38a10.07 10.07 0 0 0 7.37-2.88zM32.07 66c-1 0-2-.14-3-.14-1.39 0-2.78.14-4.17.14-.09 0-.32 0-.32-.18s1-.14 1.62-.69A2.38 2.38 0 0 0 27 64a30.89 30.89 0 0 0 .27-4.68v-8.44c0-.74-.14-.88-.88-.88H6.72c-.74 0-.84.14-.84.88v9.92c0 1.06.28 3.52 1.12 4.26.65.56 1.2.42 1.9.65.09 0 .18.09.18.18s-.23.23-.42.23c-1.44 0-1.71-.23-4.35-.23-1.11 0-2.23.19-3.34.19-.19 0-.42 0-.42-.23s.93-.37 1.11-.47a1.44 1.44 0 0 0 .93-1.06 17.21 17.21 0 0 0 .32-3.8v-23c0-1.67-.32-3.06-1.81-3.66-.22-.12-1.1-.17-1.1-.5 0-.14.32-.14.42-.14 1.44 0 2.87.23 4.31.23a15.65 15.65 0 0 0 2.08-.14c.46 0 .88-.14 1.34-.14.23 0 .65 0 .65.32 0 .1-.23.14-.28.14a3.44 3.44 0 0 0-1.62.6c-.74.51-1 3.2-1 4.08v8.76c0 .74 0 .92.79.92h19.72c.79 0 .83-.14.83-.92v-9.63a4 4 0 0 0-1-3.11c-.6-.51-1.9-.46-1.9-.83s.92-.23 1.11-.23c1.07 0 2.45.19 3.52.19 1.35 0 2.32-.28 3.66-.28.14 0 .6 0 .6.23s-.79.37-.93.42a2.68 2.68 0 0 0-1.3.79c-.88.93-.79 3.24-.79 4.5v13.66c0 2.18 0 9.55.65 11.22.46 1.25 1.3 1.39 2.27 1.53.09 0 .28.14.28.23s-1.16.28-1.34.28M49 33.78c-1.16.18-2.18.32-2.55 1.62-.51 1.76-.51 5.7-.51 7.6v22.53c0 1.07.09 2.18.09 3.24 0 2.88-4.54 4.75-6.95 4.77-3.12 0-5.39-3.07-5.39-3.67 0-.33.65-1.11.83-1.48s.65-2.6 1.21-2.6c.23 0 .32.09.32.32s-.32.56-.32.83a3.36 3.36 0 0 0 .35.93c.81 1.45 1.81 4 5.41 3.81a1.65 1.65 0 0 0 1-.6c.42-.56.46-10 .46-11.44V40.73c0-.6 0-2.32-.19-3.8-.32-2.82-1.62-3-2.6-3.15-.37-.09-.93-.09-.93-.28s.83-.23 1.2-.23c1.39 0 2.74.19 4.13.19s2.87-.19 4.31-.19c.23 0 .56 0 .56.33 0 .09-.37.18-.46.18m52.49 31.72c-.07.45 0 .45-.42.62a20.29 20.29 0 0 1-7.09 1c-8.13 0-12.93-4.76-12.93-13a14.35 14.35 0 0 1 .9-5c1.85-5 5.77-7.5 11.05-7.5a26.22 26.22 0 0 1 5.46.52 30.5 30.5 0 0 0 3 .69c.21 0 .24-.17.38-.17s.1.35.1.38c0 .49-.1.94-.1 1.42 0 .66.1 1.36.1 2 0 0 0 .52-.14.52s-.31-.56-.38-.69l-.28-.56a4.08 4.08 0 0 0-.8-.93c-2-1.77-5.52-2.16-8.1-2.16-6.05 0-8.66 5-8.66 10.5 0 6.67 4.24 12.89 11.36 12.89a9.08 9.08 0 0 0 5.14-1.56 3.81 3.81 0 0 0 1.32-1.46c0-.11.21-.87.42-.87s.14.35.14.42a22.18 22.18 0 0 1-.52 2.82m14.72-22.61c-6.19 0-8.9 5-8.9 10.57 0 6 3.41 12.79 10.22 12.79 5.74 0 8.76-4.06 8.76-9.52 0-6.08-2.88-13.83-10.08-13.83m1 24.4c-7.47 0-12.48-5.08-12.48-12.51a15.3 15.3 0 0 1 .38-3.75c1.29-5.22 5.53-9.18 11.05-9.18a14.21 14.21 0 0 1 4.69.63 12.08 12.08 0 0 1 7.85 11.57c0 7.16-3.72 13.24-11.51 13.24m31.12-23.36c-.07.31-.07.63-.11.94 0 .07 0 .31-.1.31a2.52 2.52 0 0 1-.28-.42 3.24 3.24 0 0 0-1.49-.66 17.46 17.46 0 0 0-3.58-.21h-2.12c-.49 0-.45.24-.49.66-.07 1-.07 2.09-.07 3.13v13c0 1.11 0 4.17.52 5a1.91 1.91 0 0 0 1.39.83h.77c.25 0 .24.07.24.17s-.8.17-.94.17c-1 0-2-.11-3-.11-1.22 0-2.43.18-3.65.18-.07 0-.21 0-.21-.07s.62-.21.77-.24c.62-.11 1.32-.25 1.56-.94a30.54 30.54 0 0 0 .28-5.15V44.72c0-.52-.11-.9-.69-.9h-6.19c-1.81 0-1.49 1.07-1.73 1.07s-.18-.21-.18-.31a16.21 16.21 0 0 1 .56-1.91c0-.14.11-.84.21-.84a5.18 5.18 0 0 1 1 .25 16.31 16.31 0 0 0 2.92.21h11.09c1.25 0 2.47-.14 3.72-.14.07 0 .11.07.11.14a7.33 7.33 0 0 1-.31 1.53m21.1 0a7.32 7.32 0 0 0-.11.94c0 .07 0 .31-.11.31a2.23 2.23 0 0 1-.28-.42 3.23 3.23 0 0 0-1.5-.66 17.44 17.44 0 0 0-3.58-.21h-2.12c-.48 0-.45.24-.48.66-.07 1-.07 2.09-.07 3.13v13c0 1.11 0 4.17.52 5a1.9 1.9 0 0 0 1.39.83h.76c.24 0 .25.07.25.17s-.8.17-.94.17c-1 0-2-.11-3-.11-1.22 0-2.44.18-3.65.18-.07 0-.21 0-.21-.07s.62-.21.76-.24c.62-.11 1.32-.25 1.56-.94a30.54 30.54 0 0 0 .28-5.15V44.72c0-.52-.11-.9-.7-.9H152c-1.81 0-1.49 1.07-1.74 1.07s-.18-.21-.18-.31a15.74 15.74 0 0 1 .56-1.91c0-.14.1-.84.21-.84a5.15 5.15 0 0 1 1 .25 16.29 16.29 0 0 0 2.92.21h11.09c1.25 0 2.47-.14 3.72-.14.07 0 .11.07.11.14a7.83 7.83 0 0 1-.31 1.53"/><path class="cls-1" d="M21.7 64c0 2.6-1.68 4.67-4.28 4.67a3.65 3.65 0 0 1-2.73-1.3c-1.82 2.07-2.34 5.19-2.34 8.44 0 9.08 9.08 17.14 23.11 17.14 23.63 0 31.81-23.89 32.07-43.1C67.91 19.21 78.82 0 99.33 0c9.09 0 15.45 4.93 15.45 11.94 0 5.46-4.54 8.31-9.86 8.31a15.22 15.22 0 0 0 2.86-9.48c0-6.23-4.15-9.22-9.22-9.22-20.25 0-21.68 26-23.23 47.52C72.72 84.64 53.89 94.5 34.55 94.5 18.84 94.5 8.2 84.12 8.2 69.58c0-6 3-10.52 7.53-10.52 3.89 0 6 2.07 6 4.93m63.45 29.43c0-4.82 0-5.68-.06-6.67s-.31-1.55-1.33-1.75a5.83 5.83 0 0 0-1.05-.09c-.12 0-.25-.06-.25-.19s.16-.25.49-.25c1.39 0 3.34.09 3.49.09h7.6a7.1 7.1 0 0 0 1.36-.12c.19-.06.31-.19.43-.19s.19.12.19.28-.16.59-.25 1.45c0 .31-.09 1.67-.15 2 0 .15-.09.34-.25.34s-.22-.15-.22-.37a3.34 3.34 0 0 0-.28-1.17 2.36 2.36 0 0 0-2.1-1l-4.76-.1c-.18 0-.28.1-.28.34v8.53c0 .19 0 .28.22.28h5.39c.74-.06 1.14-.15 1.42-.56.12-.15.22-.31.34-.31s.15.09.15.25-.15.71-.25 1.73c-.06.62-.12 1.85-.12 2.07s0 .58-.22.58-.22-.12-.22-.28a5.06 5.06 0 0 0-.19-1.11 1.86 1.86 0 0 0-1.62-1.2H88c-.15 0-.22.06-.22.28v2.63c0 3 0 5.4.16 6.7.09.9.27 1.58 1.2 1.7a13.61 13.61 0 0 0 1.39.13c.19 0 .25.09.25.18s-.15.25-.49.25c-1.7 0-3.64-.09-3.8-.09s-2.1.09-3 .09c-.34 0-.49-.06-.49-.25s.06-.18.25-.18a4.82 4.82 0 0 0 .93-.12c.62-.12.77-.8.89-1.7.16-1.3.16-3.74.16-6.7zm16.5 0c0-4.82 0-5.68-.06-6.67s-.31-1.54-1.33-1.76a5.79 5.79 0 0 0-1-.09c-.12 0-.25-.06-.25-.19s.15-.25.49-.25c1.39 0 3.28.09 3.55.09s2.13-.09 3.06-.09c.34 0 .5.06.5.25s-.12.19-.25.19a4.67 4.67 0 0 0-.77.09c-.83.12-1.08.68-1.14 1.76s-.06 1.85-.06 6.67v4.33c0 4.45 1 6.36 2.31 7.63a6.06 6.06 0 0 0 4.67 1.7 6.49 6.49 0 0 0 4.85-2.23c1.42-1.76 1.79-4.39 1.79-7.57v-3.86c0-4.82 0-5.68-.06-6.67s-.31-1.54-1.33-1.76a5.81 5.81 0 0 0-1.05-.09c-.12 0-.25-.06-.25-.19s.15-.25.49-.25c1.39 0 3.09.09 3.28.09s1.67-.09 2.59-.09c.34 0 .5.06.5.25s-.13.19-.25.19a2.68 2.68 0 0 0-.77.09c-.83.15-1.08.68-1.14 1.76s-.06 1.85-.06 6.67v3.3c0 3.34-.37 7-2.84 9.24a9 9 0 0 1-6.36 2.29 9.49 9.49 0 0 1-6.36-2.19c-1.51-1.45-2.69-3.61-2.69-8.13zm29.91 2.69a.4.4 0 0 0 .22.37A8.45 8.45 0 0 0 135 97a4 4 0 0 0 2.32-.59c1.08-.74 1.88-2.41 1.88-4.76 0-3.86-2-6.18-5.34-6.18a9.26 9.26 0 0 0-2.07.19.37.37 0 0 0-.25.37zm-2.47-2.69c0-4.82 0-5.68-.06-6.67s-.31-1.54-1.33-1.76a5.82 5.82 0 0 0-1.05-.09c-.12 0-.25-.06-.25-.19s.15-.25.49-.25c1.39 0 3.34.09 3.49.09.34 0 2.69-.09 3.64-.09a9.51 9.51 0 0 1 5.65 1.36 5.41 5.41 0 0 1 2.13 4.2c0 2.29-1 4.57-3.74 7.14 2.53 3.24 4.64 6 6.43 7.91a6.41 6.41 0 0 0 3.77 2.22 7.39 7.39 0 0 0 1.2.09c.15 0 .28.09.28.18s-.19.25-.74.25h-2.19a6.32 6.32 0 0 1-3.31-.59c-1.33-.71-2.41-2.22-4.17-4.54-1.3-1.7-2.75-3.77-3.37-4.57a.5.5 0 0 0-.4-.19l-3.8-.06c-.16 0-.22.09-.22.25v.74c0 3 0 5.4.15 6.7.09.9.28 1.58 1.2 1.7a13.64 13.64 0 0 0 1.39.13c.19 0 .25.09.25.18s-.15.25-.49.25c-1.7 0-3.65-.09-3.8-.09s-2 .09-2.9.09c-.34 0-.5-.06-.5-.25s.06-.18.25-.18a4.82 4.82 0 0 0 .93-.12c.62-.12.77-.8.89-1.7.16-1.3.16-3.74.16-6.7z"/><path class="cls-1" d="M153.24 103.62c.06 2.53.37 3.34 1.2 3.58a6.74 6.74 0 0 0 1.54.19c.16 0 .25.06.25.18s-.19.25-.56.25c-1.76 0-3-.09-3.27-.09s-1.58.09-3 .09c-.31 0-.49 0-.49-.25s.09-.18.25-.18a4.44 4.44 0 0 0 1.27-.19c.77-.21.93-1.11.93-3.92v-17.7c0-1.21.09-1.54.34-1.54s.77.68 1.08 1c.46.53 5.07 5.5 9.82 10.6 3.06 3.27 6.43 7 7.42 8.06l-.28-15.7c0-2-.25-2.69-1.21-2.94a8.34 8.34 0 0 0-1.51-.15c-.22 0-.25-.09-.25-.22s.25-.22.62-.22c1.39 0 2.87.09 3.21.09s1.36-.09 2.62-.09c.34 0 .56 0 .56.22s-.12.22-.34.22a2.71 2.71 0 0 0-.74.09c-1 .22-1.14.9-1.14 2.75l-.06 18.1c0 2-.06 2.19-.28 2.19s-.62-.34-2.25-2c-.34-.31-4.79-4.85-8.06-8.37-3.58-3.86-7.08-7.75-8.06-8.87zm31.02-4.76c0 3 0 5.4.15 6.7.09.9.28 1.58 1.2 1.7a13.6 13.6 0 0 0 1.39.13c.18 0 .25.09.25.18s-.16.25-.49.25c-1.7 0-3.65-.09-3.8-.09s-2.1.09-3 .09c-.34 0-.49-.06-.49-.25s.06-.18.25-.18a4.78 4.78 0 0 0 .93-.12c.62-.12.77-.8.9-1.7.16-1.3.16-3.74.16-6.7v-5.45c0-4.82 0-5.68-.06-6.67s-.37-1.58-1.05-1.73a4.15 4.15 0 0 0-1-.12c-.12 0-.25-.06-.25-.19s.15-.25.49-.25c1 0 3 .09 3.12.09s2.1-.09 3-.09c.34 0 .5.06.5.25s-.13.19-.25.19a4.62 4.62 0 0 0-.77.09c-.83.15-1.08.68-1.14 1.76s-.06 1.86-.06 6.67zm17.58 0c0 3 0 5.4.16 6.7.09.9.28 1.58 1.2 1.7a13.57 13.57 0 0 0 1.39.13c.18 0 .25.09.25.18s-.15.25-.5.25c-1.7 0-3.64-.09-3.8-.09s-2.1.09-3 .09c-.34 0-.49-.06-.49-.25s.06-.18.25-.18a4.85 4.85 0 0 0 .93-.12c.62-.12.77-.8.89-1.7.15-1.3.15-3.74.15-6.7V85.79l-4.57.06c-1.92 0-2.66.25-3.15 1a5.5 5.5 0 0 0-.53 1c-.09.25-.19.31-.31.31s-.15-.09-.15-.28.62-3 .68-3.21.19-.59.31-.59a5.84 5.84 0 0 0 1.36.37c.9.09 2.07.15 2.44.15h11.55a14.87 14.87 0 0 0 3.06-.31c.16 0 .16.19.16.37 0 .93-.09 3.06-.09 3.4s-.09.4-.22.4-.22-.09-.25-.52v-.34c-.12-.93-.83-1.64-3.8-1.7l-3.89-.06zm12.97-5.44c0-4.82 0-5.68-.06-6.67s-.31-1.54-1.33-1.76a5.82 5.82 0 0 0-1.05-.09c-.12 0-.25-.06-.25-.19s.16-.25.5-.25c1.39 0 3.27.09 3.55.09s2.13-.09 3.06-.09c.34 0 .49.06.49.25s-.13.19-.25.19a4.64 4.64 0 0 0-.77.09c-.83.12-1.08.68-1.14 1.76s-.06 1.85-.06 6.67v4.33c0 4.45 1 6.36 2.32 7.63a6.06 6.06 0 0 0 4.66 1.7 6.49 6.49 0 0 0 4.85-2.23c1.42-1.76 1.79-4.39 1.79-7.57v-3.86c0-4.82 0-5.68-.07-6.67s-.31-1.54-1.33-1.76a5.81 5.81 0 0 0-1.05-.09c-.12 0-.25-.06-.25-.19s.16-.25.49-.25c1.39 0 3.09.09 3.27.09s1.67-.09 2.59-.09c.34 0 .5.06.5.25s-.12.19-.25.19a2.68 2.68 0 0 0-.77.09c-.84.15-1.08.68-1.14 1.76s-.06 1.85-.06 6.67v3.3c0 3.34-.37 7-2.84 9.24a9 9 0 0 1-6.36 2.29 9.49 9.49 0 0 1-6.36-2.19c-1.51-1.45-2.69-3.61-2.69-8.13zm29.91 2.69a.4.4 0 0 0 .22.37 8.45 8.45 0 0 0 3.24.5 4 4 0 0 0 2.32-.59c1.08-.74 1.88-2.41 1.88-4.76 0-3.86-2-6.18-5.34-6.18a9.23 9.23 0 0 0-2.07.19.37.37 0 0 0-.25.37zm-2.47-2.69c0-4.82 0-5.68-.06-6.67s-.31-1.54-1.33-1.76a5.79 5.79 0 0 0-1-.09c-.12 0-.25-.06-.25-.19s.16-.25.5-.25c1.39 0 3.34.09 3.49.09.34 0 2.69-.09 3.64-.09a9.5 9.5 0 0 1 5.65 1.36A5.41 5.41 0 0 1 255 90c0 2.29-1 4.57-3.74 7.14 2.53 3.24 4.63 6 6.43 7.91a6.4 6.4 0 0 0 3.77 2.22 7.38 7.38 0 0 0 1.2.09c.16 0 .28.09.28.18s-.18.25-.74.25H260a6.31 6.31 0 0 1-3.3-.59c-1.33-.71-2.41-2.22-4.17-4.54-1.3-1.7-2.75-3.77-3.37-4.57a.5.5 0 0 0-.4-.19l-3.8-.06c-.16 0-.22.09-.22.25v.74c0 3 0 5.4.16 6.7.09.9.28 1.58 1.2 1.7a13.6 13.6 0 0 0 1.39.13c.18 0 .25.09.25.18s-.15.25-.49.25c-1.7 0-3.65-.09-3.8-.09s-2 .09-2.9.09c-.34 0-.5-.06-.5-.25s.06-.18.25-.18a4.81 4.81 0 0 0 .93-.12c.62-.12.77-.8.9-1.7.15-1.3.15-3.74.15-6.7zm23.29 0c0-4.82 0-5.68-.06-6.67s-.31-1.54-1.33-1.76a5.8 5.8 0 0 0-1.05-.09c-.12 0-.24-.06-.24-.19s.16-.25.49-.25c1.39 0 3.33.09 3.49.09h7.08a8.62 8.62 0 0 0 1.33-.16c.16 0 .28-.15.43-.15s.12.12.12.28-.16.59-.25 1.45c0 .31-.09 1.67-.15 2 0 .15-.09.34-.22.34s-.25-.15-.25-.4a3.33 3.33 0 0 0-.18-1.11c-.22-.49-.53-.87-2.2-1-.52-.06-3.89-.09-4.23-.09-.12 0-.19.09-.19.31v8.48c0 .21 0 .31.19.31.4 0 4.2 0 4.91-.06s1.17-.12 1.45-.43.34-.4.46-.4.16.06.16.25-.16.71-.25 1.73c-.06.62-.12 1.76-.12 2s0 .59-.22.59-.22-.12-.22-.28a3.19 3.19 0 0 0-.12-1c-.12-.43-.4-1-1.61-1.08-.83-.09-3.89-.15-4.42-.15a.2.2 0 0 0-.22.22v8c.09 2.13.55 2.54 3.59 2.54a8.84 8.84 0 0 0 3-.34c.8-.34 1.18-1 1.39-2.23.06-.34.13-.46.28-.46s.18.25.18.46-.25 2.35-.4 3c-.21.8-.46.8-1.67.8-4.66 0-6.74-.19-7.63-.19-.16 0-2.1.09-3 .09-.34 0-.49-.06-.49-.25s.06-.18.24-.18a4.75 4.75 0 0 0 .93-.12c.62-.12.77-.8.9-1.7.15-1.3.15-3.74.15-6.7zM149 131c0 4.44.12 6.37.66 6.91s1.27.69 3.62.69c1.6 0 2.93 0 3.65-.9a4.23 4.23 0 0 0 .79-1.81c0-.24.09-.39.27-.39s.18.12.18.45a19.38 19.38 0 0 1-.45 3c-.21.7-.3.81-1.9.81-4.35 0-6.34-.18-8.09-.18-.27 0-2.05.09-3 .09-.33 0-.48-.06-.48-.24s.06-.18.24-.18a4.6 4.6 0 0 0 .91-.12c.6-.12.75-.78.88-1.66.15-1.27.15-3.65.15-6.55v-5.31c0-4.71 0-5.56-.06-6.52s-.3-1.51-1.3-1.72a5.61 5.61 0 0 0-1-.09c-.12 0-.24-.06-.24-.18s.15-.24.48-.24c1.36 0 3.26.09 3.41.09s2.36-.09 3.26-.09c.33 0 .48.06.48.24s-.12.18-.24.18a7.13 7.13 0 0 0-1 .09c-.88.15-1.12.66-1.18 1.72s-.06 1.81-.06 6.52zm17.91-.09c0 2.9 0 5.28.15 6.55.09.88.27 1.54 1.18 1.66a13.2 13.2 0 0 0 1.36.12c.18 0 .24.09.24.18s-.15.24-.48.24c-1.66 0-3.56-.09-3.72-.09s-2.05.09-3 .09c-.33 0-.48-.06-.48-.24s.06-.18.24-.18a4.66 4.66 0 0 0 .91-.12c.6-.12.75-.79.88-1.66.15-1.27.15-3.65.15-6.55v-5.31c0-4.71 0-5.56-.06-6.52s-.36-1.54-1-1.69a4 4 0 0 0-.93-.12c-.12 0-.24-.06-.24-.18s.15-.24.48-.24c1 0 2.9.09 3 .09s2.05-.09 3-.09c.33 0 .48.06.48.24s-.12.18-.24.18a4.47 4.47 0 0 0-.75.09c-.82.15-1.06.66-1.12 1.72s-.06 1.81-.06 6.52zm24.64 1.09c0-2.45-.15-2.78-1.36-3.11a5.62 5.62 0 0 0-1-.09c-.12 0-.24-.06-.24-.18s.15-.24.48-.24c1.36 0 3.26.09 3.41.09s2.05-.09 3-.09c.33 0 .48.06.48.24s-.12.18-.24.18a4.49 4.49 0 0 0-.75.09c-.82.15-1.06.66-1.12 1.72s-.06 1.87-.06 3.14v3.38c0 1.36 0 1.42-.39 1.63a15 15 0 0 1-6.4 1.36c-2.29 0-6.58-.3-9.93-3.23a11.78 11.78 0 0 1-3.59-8.6 11.45 11.45 0 0 1 5-9.93 14.8 14.8 0 0 1 8-1.9 26 26 0 0 1 4.62.51 14.81 14.81 0 0 0 2.45.3c.3 0 .36.15.36.27a38.45 38.45 0 0 0-.21 4.29c0 .48-.06.64-.27.64s-.18-.18-.21-.46a4.64 4.64 0 0 0-.63-2c-.76-1.15-3.2-2.45-7.1-2.45a9.64 9.64 0 0 0-6.46 2c-1.75 1.39-3 4.14-3 7.67a12.3 12.3 0 0 0 3.2 8.36 11 11 0 0 0 7.91 3.23 8.21 8.21 0 0 0 3.44-.63 1.09 1.09 0 0 0 .6-1.05zm29.93-1.09c0 2.9 0 5.28.15 6.55.09.88.27 1.54 1.18 1.66a13.15 13.15 0 0 0 1.36.12c.18 0 .24.09.24.18s-.15.24-.48.24c-1.66 0-3.56-.09-3.71-.09s-2.05.09-3 .09c-.33 0-.48-.06-.48-.24s.06-.18.24-.18a4.65 4.65 0 0 0 .9-.12c.6-.12.75-.79.88-1.66.15-1.27.15-3.65.15-6.55v-3.17a.18.18 0 0 0-.18-.18H206a.16.16 0 0 0-.18.18v3.17c0 2.9 0 5.28.15 6.55.09.88.27 1.54 1.18 1.66a13.16 13.16 0 0 0 1.36.12c.18 0 .24.09.24.18s-.15.24-.48.24c-1.66 0-3.56-.09-3.71-.09s-2.05.09-3 .09c-.33 0-.48-.06-.48-.24s.06-.18.24-.18a4.71 4.71 0 0 0 .91-.12c.6-.12.75-.79.87-1.66.15-1.27.15-3.65.15-6.55v-5.31c0-4.71 0-5.56-.06-6.52s-.3-1.51-1.3-1.72a5.61 5.61 0 0 0-1-.09c-.12 0-.24-.06-.24-.18s.15-.24.48-.24c1.36 0 3.26.09 3.41.09s2.05-.09 3-.09c.33 0 .48.06.48.24s-.12.18-.24.18a4.51 4.51 0 0 0-.75.09c-.82.15-1.06.66-1.12 1.72s-.06 1.81-.06 6.52v.63a.16.16 0 0 0 .18.18h12.8a.16.16 0 0 0 .18-.18v-.63c0-4.71 0-5.56-.06-6.52s-.3-1.51-1.3-1.72a5.67 5.67 0 0 0-1-.09c-.12 0-.24-.06-.24-.18s.15-.24.48-.24c1.36 0 3.26.09 3.41.09s2-.09 3-.09c.33 0 .48.06.48.24s-.12.18-.24.18a4.54 4.54 0 0 0-.75.09c-.81.15-1.06.66-1.12 1.72s-.06 1.81-.06 6.52zm17.18 0c0 2.9 0 5.28.15 6.55.09.88.27 1.54 1.18 1.66a13.22 13.22 0 0 0 1.36.12c.18 0 .24.09.24.18s-.15.24-.48.24c-1.66 0-3.56-.09-3.71-.09s-2.06.09-3 .09c-.33 0-.48-.06-.48-.24s.06-.18.24-.18a4.67 4.67 0 0 0 .9-.12c.6-.12.75-.79.88-1.66.15-1.27.15-3.65.15-6.55v-12.77l-4.47.06c-1.87 0-2.6.24-3.08 1a5 5 0 0 0-.51.93c-.09.24-.18.3-.3.3s-.15-.09-.15-.27.61-2.9.67-3.14.18-.57.3-.57a5.66 5.66 0 0 0 1.33.36c.88.09 2 .15 2.39.15h11.32a14.6 14.6 0 0 0 3-.3c.15 0 .15.18.15.36 0 .91-.09 3-.09 3.32s-.09.39-.21.39-.21-.09-.24-.51v-.33c-.12-.91-.81-1.6-3.71-1.66l-3.8-.06zm16.97 0c0 2.9 0 5.28.15 6.55.09.88.27 1.54 1.17 1.66a13.29 13.29 0 0 0 1.36.12c.18 0 .24.09.24.18s-.15.24-.48.24c-1.66 0-3.56-.09-3.71-.09s-2.05.09-3 .09c-.33 0-.48-.06-.48-.24s.06-.18.24-.18a4.65 4.65 0 0 0 .91-.12c.6-.12.75-.79.88-1.66.15-1.27.15-3.65.15-6.55v-5.31c0-4.71 0-5.56-.06-6.52s-.36-1.54-1-1.69a4 4 0 0 0-.94-.12c-.12 0-.24-.06-.24-.18s.15-.24.48-.24c1 0 2.9.09 3 .09s2.05-.09 3-.09c.33 0 .48.06.48.24s-.12.18-.24.18a4.55 4.55 0 0 0-.75.09c-.81.15-1.05.66-1.12 1.72s-.06 1.81-.06 6.52zm11.56 4.64c.06 2.48.36 3.26 1.18 3.5a6.63 6.63 0 0 0 1.51.18c.15 0 .24.06.24.18s-.18.24-.54.24c-1.72 0-2.93-.09-3.2-.09s-1.54.09-2.9.09c-.3 0-.48 0-.48-.24s.09-.18.24-.18a4.32 4.32 0 0 0 1.24-.18c.75-.21.91-1.09.91-3.83v-17.3c0-1.18.09-1.51.33-1.51s.76.67 1.06 1c.45.51 5 5.38 9.6 10.36 3 3.2 6.28 6.88 7.25 7.88l-.33-15.34c0-2-.24-2.63-1.18-2.87a8.1 8.1 0 0 0-1.48-.15c-.22 0-.25-.09-.25-.21s.25-.21.61-.21c1.36 0 2.81.09 3.14.09s1.33-.09 2.57-.09c.33 0 .54 0 .54.21s-.12.21-.33.21a2.62 2.62 0 0 0-.72.09c-1 .21-1.12.88-1.12 2.69l-.08 17.66c0 2-.06 2.14-.27 2.14s-.61-.33-2.2-1.93c-.33-.3-4.68-4.74-7.88-8.18-3.5-3.77-6.91-7.58-7.88-8.67zm42.12-3.55c0-2.45-.15-2.78-1.36-3.11a5.63 5.63 0 0 0-1-.09c-.12 0-.24-.06-.24-.18s.15-.24.48-.24c1.36 0 3.26.09 3.41.09s2.05-.09 3-.09c.33 0 .48.06.48.24s-.12.18-.24.18a4.48 4.48 0 0 0-.75.09c-.82.15-1.06.66-1.12 1.72s-.06 1.87-.06 3.14v3.38c0 1.36 0 1.42-.39 1.63a14.94 14.94 0 0 1-6.4 1.36c-2.3 0-6.58-.3-9.94-3.23a11.78 11.78 0 0 1-3.59-8.6 11.44 11.44 0 0 1 5-9.93 14.8 14.8 0 0 1 8-1.9 26.06 26.06 0 0 1 4.62.51 14.76 14.76 0 0 0 2.45.3c.3 0 .36.15.36.27a37.93 37.93 0 0 0-.21 4.29c0 .48-.06.64-.27.64s-.18-.18-.21-.46a4.73 4.73 0 0 0-.64-2c-.75-1.15-3.2-2.45-7.1-2.45a9.65 9.65 0 0 0-6.46 2c-1.75 1.39-3 4.14-3 7.67a12.3 12.3 0 0 0 3.2 8.36 11 11 0 0 0 7.91 3.23 8.21 8.21 0 0 0 3.44-.63 1.09 1.09 0 0 0 .6-1.05z"/></g></g></svg>