<svg id="Layer_1" data-name="Layer 1" xmlns="http://www.w3.org/2000/svg" viewBox="0 0 514.66 104.19"><defs><style>.cls-1{fill:#003452}</style></defs><title>Artboard 1</title><path class="cls-1" d="M263.69 26.9l-5.06 8.44-11.89 19.97-12.42 20.88-.03.05h17.8l.03-.05 12.02-20.2 17.32-29.09h-17.77zm185.97 15.28a22.87 22.87 0 0 0 1.47-3.18c3.19-8.43-.42-12.13-12.26-12.13h-26.1L396.06 55l-12.62 21.18v.06s17.58.14 17.8 0v-.06l11.17-18.86h6.52c8.25 0 15.39-1.82 21-5.26a27.94 27.94 0 0 0 9.73-9.88zm-18.1.07A11.44 11.44 0 0 1 426 47a11.23 11.23 0 0 1-4 1h-3.91L425 36.29h4.19c3.35 0 4.74 2.19 2.37 5.96zM316.2 56.86l17.91-30H316.3l-17.82 29.89-3.94 6.6c-2 3.5-4.14 4.87-6.56 5.21-4.33.55-5.69-.68-4.27-3.7a11.6 11.6 0 0 1 .76-1.51l4-6.75 17.77-29.7h-17.8L271 56.21l-3 5c-4.77 8-4.08 13 3.23 14.95 3.76 1 9.28 1.21 16.72.6a41.73 41.73 0 0 0 4.55-.6c9.19-1.74 16.11-6.57 21.2-15.09zM197.18 37.73l6.51-10.83H159.7l-6.42 10.83h13.42l-6.3 10.57-16.61 27.89-.03.05h17.7l.04-.05 15.54-25.99 7.47-12.47h12.67zm39.41 16.89c-.87-1.57-2.73-2.58-5.32-2.85a16 16 0 0 0 1.67-.34c6.22-1.37 10.53-4 13.8-8.36 8.06-10.69 4.35-16.17-8.33-16.17h-27.58L196 51.78l-14.51 24.4v.06h17.8v-.06l12-20.16h4.47c3.73 0 4.83 1.51 2.92 4.59l-5.29 9a8.52 8.52 0 0 0-.69 1.23c-1.91 3.51-2.16 4.1-2.13 5.36v.06h17.52v-.06a11.58 11.58 0 0 1 1.34-4.2 3.49 3.49 0 0 1 .42-.89l5.86-9.73c1.61-2.77 1.8-5.08.88-6.76zM229 43.48a10.22 10.22 0 0 1-4.48 3.29 15.41 15.41 0 0 1-4.51.89h-3.71l6.7-11.37h3.72c5.36 0 6.39 2.19 2.28 7.19zM405.41 26.9H380.9l-24.79 28.99 9.88-28.99h-24.61l-17.82 29.95-11.51 19.34-.03.05h16.12l.03-.05 11.6-19.47 9.19-15.43-5.14 15.37-6.52 19.53-.02.05h13.42l.04-.05 17.27-20.09 12.73-14.81L372 55.97l-12.04 20.22-.04.05h16.12l.03-.05 12.42-20.86 16.92-28.43zm86.89 0l-11.09 18.5h-9.98l11-18.5h-17.8l-14.55 24.45-14.78 24.84-.03.05h17.8l.03-.05 11.92-19.96h9.97l-11.92 19.96-.03.05h17.8l.04-.05 18.34-30.82 10.99-18.47H492.3zM139 23.22C139 13.18 130.89 4 122 4H52.84a18.9 18.9 0 0 0-18.95 19.29 23 23 0 0 0 2.66 9.5c-23.8 4.1-31.13 18.72-31.13 18.72 12.1-8.14 26.32-8.84 37.31-7.73l3.13 5.59C22.6 46.61 8.34 55.16 8.34 55.16c16-4.74 26.69-1.09 30.29-.37 1.5.3 6.4 2 12.48 3.95l3.59 6.4c-22.34-8.32-41.07-7.5-41.07-7.5 11.31 1.81 18.46 3 25.45 7C43.37 67.2 51 74 60.68 75.82l.2.37 8.67 15.47a19.18 19.18 0 0 0 31.79-.21l9.05-15.26 24.36-41.06C137.54 31 139 26.87 139 23.22zm-33 53l-7.84 13.19a15.55 15.55 0 0 1-12.78 6.81 15.38 15.38 0 0 1-12.62-6.56L65.27 76.3h.34c.86 0 1.69-.05 2.5-.13a29.44 29.44 0 0 0 17.19-7.88c-14.28 3.82-17.77 1.82-23 0l-2-.91-4-7.05c7.59 2.24 16 4.3 21.68 4.3 12 0 21.52-8.39 21.52-8.39-13.86 4.74-31-1.82-39.76-4a88.41 88.41 0 0 0-9.19-2.15l-3.19-5.7c5 .78 9.05 1.82 11.3 2.38 18.6 6.57 31 6.57 36.47 6.57 18.39 0 27.15-13.81 28.93-17-1.93 2.31-12.17 7.2-21.64 6-11.94-1.45-39.76-11.67-56.9-10.56-1.74.08-3.39.22-5 .4-1-1.76-2.82-5.5-2.88-9a15.15 15.15 0 0 1 15.2-15.37H122c6.94 0 13.27 7.35 13.27 15.41a15.62 15.62 0 0 1-1.89 6.86z"/><path class="cls-1" d="M94.79 17.22c-13.51 0-15.33 5.48-15.33 5.48-14.27-.06-12.24 8.48-12.24 8.48l1.3-1.92 25.17-.36c14.59.36 14.22 9.85 14.22 9.85 14.1-2.2 16.41-5.75 15.68-9.49-1.18-6.26-15.12-12.73-28.8-12.04zm-3.51 3.68a2.57 2.57 0 0 1-5 1l-3.2.1a25.93 25.93 0 0 1 12.8-1.52 35.08 35.08 0 0 0-4.59.41z"/></svg>