<svg xmlns="http://www.w3.org/2000/svg" xmlns:xlink="http://www.w3.org/1999/xlink" viewBox="0 0 706.48 183.06"><defs><style>.cls-1{fill:url(#Lifeline_Red_Gradient_3-Shades);}.cls-2{fill:url(#Lifeline_Red_Gradient_3-Shades-2);}.cls-3{fill:url(#Lifeline_Red_Gradient_3-Shades-3);}.cls-4{fill:url(#Lifeline_Red_Gradient_3-Shades-4);}.cls-5{fill:url(#Lifeline_Red_Gradient_3-Shades-5);}.cls-6{fill:url(#Lifeline_Red_Gradient_3-Shades-6);}.cls-7{fill:url(#Lifeline_Red_Gradient_3-Shades-7);}.cls-8{fill:url(#Lifeline_Red_Gradient_3-Shades-8);}.cls-9{fill:#c8202e;}.cls-10{fill:#939598;}.cls-11{fill:#231f20;}</style><linearGradient id="Lifeline_Red_Gradient_3-Shades" x1="185.7" y1="154.27" x2="185.7" y2="42.1" gradientUnits="userSpaceOnUse"><stop offset="0" stop-color="#af1a25"/><stop offset="0.17" stop-color="#c51a24"/><stop offset="0.37" stop-color="#da1b22"/><stop offset="0.5" stop-color="#e11b22"/><stop offset="1" stop-color="#af1a25"/></linearGradient><linearGradient id="Lifeline_Red_Gradient_3-Shades-2" x1="254.4" y1="154.27" x2="254.4" y2="42.1" xlink:href="#Lifeline_Red_Gradient_3-Shades"/><linearGradient id="Lifeline_Red_Gradient_3-Shades-3" x1="308.84" y1="154.27" x2="308.84" y2="42.1" xlink:href="#Lifeline_Red_Gradient_3-Shades"/><linearGradient id="Lifeline_Red_Gradient_3-Shades-4" x1="375.66" y1="154.27" x2="375.66" y2="42.1" xlink:href="#Lifeline_Red_Gradient_3-Shades"/><linearGradient id="Lifeline_Red_Gradient_3-Shades-5" x1="641.18" y1="154.27" x2="641.18" y2="42.1" xlink:href="#Lifeline_Red_Gradient_3-Shades"/><linearGradient id="Lifeline_Red_Gradient_3-Shades-6" x1="427.69" y1="154.27" x2="427.69" y2="42.1" xlink:href="#Lifeline_Red_Gradient_3-Shades"/><linearGradient id="Lifeline_Red_Gradient_3-Shades-7" x1="494.19" y1="154.27" x2="494.19" y2="42.1" xlink:href="#Lifeline_Red_Gradient_3-Shades"/><linearGradient id="Lifeline_Red_Gradient_3-Shades-8" x1="560.89" y1="154.27" x2="560.89" y2="42.1" xlink:href="#Lifeline_Red_Gradient_3-Shades"/></defs><title>brand-lifeline</title><g id="Layer_2" data-name="Layer 2"><g id="Layer_1-2" data-name="Layer 1"><path class="cls-1" d="M221.69,42.32H196.58a9.46,9.46,0,0,0-9,6.45c-.34,1-38.26,106.37-38.26,106.37h62.2l10.63-29.56H191.75Z"/><path class="cls-2" d="M218.18,155.15H250l40.6-112.86H265.45c-3.56,0-7.34,2-9.1,6.76C255.91,50.22,218.18,155.15,218.18,155.15Z"/><path class="cls-3" d="M257.68,155.15H289.5l14.58-40.54h22.47l10.5-29.2H314.58l5.2-14.47h29.89L360,42.29h-55a9.65,9.65,0,0,0-9.06,6.66C295.54,50,257.68,155.15,257.68,155.15Z"/><path class="cls-4" d="M325.94,155.15h58.84l10.63-29.56h-27.1L373,112.42h21.53l10.18-28.31H383.22L388,70.94h27.1l10.31-28.65H373.19a9.55,9.55,0,0,0-9,6.61C363.68,50.18,325.94,155.15,325.94,155.15Z"/><path class="cls-5" d="M680.59,70.94,690.9,42.29H638.7A9.53,9.53,0,0,0,629.64,49c-.48,1.41-38.18,106.14-38.18,106.14H650.3l10.63-29.56h-27.1l4.73-13.17H660.1l10.18-28.31H648.75l4.74-13.18Z"/><path class="cls-6" d="M463.9,42.29H438.79c-4.22,0-7.57,2.52-9.11,6.66-.65,1.74-38.2,106.2-38.2,106.2h60.33l10.63-29.56H433.94Z"/><path class="cls-7" d="M458,155.15h31.83L530.4,42.29H505.3a9.51,9.51,0,0,0-9.12,6.64C495.61,50.58,458,155.15,458,155.15Z"/><path class="cls-8" d="M576.15,90.83,538.76,37.5,496.44,155.15h31.81l15.91-44.23L582.9,160.3l42.45-118H600.26a9.52,9.52,0,0,0-9,6.55C590.74,50.23,576.15,90.83,576.15,90.83Z"/><polygon class="cls-9" points="116.27 34.49 88.25 112.98 126.93 113.08 142.01 70.89 116.27 34.49"/><polygon class="cls-10" points="39.41 144.96 91.34 0 37.66 36.79 0 141.32 27.22 180.1 102.97 180.1 115.51 144.87 39.41 144.96"/><path class="cls-9" d="M695.5,47.8v0a5.49,5.49,0,0,1,11,0v0a5.49,5.49,0,0,1-11,0Zm10.48,0v0a5,5,0,1,0-10,0v0a5,5,0,1,0,10,0Zm-7.14-3h2.52a2.34,2.34,0,0,1,1.67.59,1.48,1.48,0,0,1,.45,1.09v0A1.67,1.67,0,0,1,702,48.17l1.74,2.26h-1l-1.62-2.12h-1.44v2.12h-.83Zm2.44,2.76c.79,0,1.33-.36,1.33-1v0c0-.59-.49-1-1.29-1h-1.65v2Z"/><path class="cls-11" d="M325.94,163.7h4.21c3.88,0,6.21,2.28,6.21,5.84v.25c0,3.65-2.36,6.15-6.24,6.15h-1.24v6.86h-3Zm4.13,9.67c2.3,0,3.34-1.46,3.34-3.48v-.2c0-2.11-1-3.4-3.34-3.4h-1.18v7.08Zm10.57.14V173c0-6.07,2.81-9.53,6.91-9.53s6.91,3.46,6.91,9.53v.51c0,6.07-2.81,9.55-6.91,9.55S340.64,179.57,340.64,173.51Zm10.79-.08v-.34c0-4.58-1.52-7-3.88-7s-3.91,2.39-3.91,7v.34c0,4.58,1.55,7,3.91,7S351.43,178,351.43,173.42Zm6.41-9.72h3l1.94,7.64c.31,1.32.73,3.32.76,3.46,0-.11.48-2.11,1-3.54l2.47-7.76h.31l2.47,7.76c.45,1.4,1,3.54,1,3.54s.39-2.05.73-3.46l1.88-7.64h2.81l-4.92,19.25h-.37L368,174c-.39-1.18-.87-3-.9-3.15,0,.08-.53,1.91-.93,3.15l-3,8.94h-.37Zm22.88,0h9.13v2.59h-6.21v5.59h5.23v2.59h-5.23v5.76h6.43v2.59h-9.36Zm14.62,0h4.38c3.85,0,6,2.19,6,5.59v.22a5.63,5.63,0,0,1-2.92,5.17l3.68,8.12h-3.09l-3.32-7.42h-1.83v7.42h-3Zm4.3,9.19a3,3,0,0,0,3.2-3.29v-.17c0-2-1-3.15-3.2-3.15h-1.35v6.6Zm11.55-9.19h9.13v2.59h-6.21v5.59h5.23v2.59h-5.23v5.76h6.43v2.59h-9.36Zm14.62,0h4c4.92,0,8,3.54,8,9.33v.45c0,5.68-3,9.33-8,9.33h-4Zm3.85,16.52c3.23,0,5.14-2.53,5.14-6.83v-.28c0-4.36-1.66-6.83-5.14-6.83h-.9v13.94Zm21.22-16.52h4.52c3.71,0,5.48,2.14,5.48,4.86v.22a4,4,0,0,1-2.56,3.91,4.32,4.32,0,0,1,3.43,4.61v.2c0,3-2,5.31-5.87,5.31h-5Zm4.36,8A2.42,2.42,0,0,0,458,169v-.17c0-1.57-.79-2.64-2.78-2.64h-1.43v5.45Zm.48,8.6a2.79,2.79,0,0,0,3.09-3.06v-.11c0-1.85-1-3.06-3.26-3.06h-1.8v6.24Zm13.72-4.89-4.86-11.69h3l2.44,6.13c.42,1.12.87,2.5,1,2.75.06-.25.48-1.6.93-2.75l2.39-6.13h2.89l-4.81,11.66v7.45h-3Zm20.32-11.69h3v19.11h-3Zm13,9.81c-.56-.76-1.29-1.91-1.38-2.08,0,.08.08,1.69.08,2.67v8.71h-2.78V163.53H499l6.66,9.58c.56.81,1.29,2.05,1.38,2.19,0-.06-.08-1.69-.08-2.75V163.7h2.78V183h-.37Zm16.95,0c-.56-.76-1.29-1.91-1.38-2.08,0,.08.08,1.69.08,2.67v8.71h-2.78V163.53h.37l6.66,9.58c.56.81,1.29,2.05,1.38,2.19,0-.06-.08-1.69-.08-2.75V163.7h2.78V183h-.37Zm12.17,0V173c0-6.07,2.81-9.53,6.91-9.53s6.91,3.46,6.91,9.53v.51c0,6.07-2.81,9.55-6.91,9.55S531.82,179.57,531.82,173.51Zm10.79-.08v-.34c0-4.58-1.52-7-3.88-7s-3.91,2.39-3.91,7v.34c0,4.58,1.55,7,3.91,7S542.61,178,542.61,173.42Zm6-9.72h3l2.73,8.29c.45,1.38,1,3.48,1,3.48s.53-2.14,1-3.48l2.7-8.29h2.87l-6.35,19.25h-.39Zm23.1,15.54h-4.92l-1.1,3.57h-2.92l6.38-19.28h.37l6.38,19.28h-3.09Zm-4.16-2.44H571l-1-3.26c-.31-1-.67-2.56-.7-2.78-.06.22-.42,1.74-.73,2.78Zm14-10.51h-3.91V163.7h10.76v2.59h-3.91v16.52h-3Zm11.83-2.59h3v19.11h-3Zm8.18,9.81V173c0-6.07,2.81-9.53,6.91-9.53s6.91,3.46,6.91,9.53v.51c0,6.07-2.81,9.55-6.91,9.55S601.59,179.57,601.59,173.51Zm10.79-.08v-.34c0-4.58-1.52-7-3.88-7s-3.91,2.39-3.91,7v.34c0,4.58,1.55,7,3.91,7S612.38,178,612.38,173.42Zm12.26.08c-.56-.76-1.29-1.91-1.38-2.08,0,.08.08,1.69.08,2.67v8.71h-2.78V163.53h.37l6.66,9.58c.56.81,1.29,2.05,1.38,2.19,0-.06-.08-1.69-.08-2.75V163.7h2.78V183h-.37Zm12.06-9.81h3.93V165h-1.18v3.85H637.9V165h-1.21Zm4.78-.06h.17l2.25,2.47,2.19-2.47h.17v5.17h-1.46v-1.94l-.9,1.07-.93-1.07v1.94h-1.49Z"/></g></g></svg>