<svg xmlns="http://www.w3.org/2000/svg" viewBox="0 0 191.18 92.36"><defs><style>.cls-1{fill:#ff671b}.cls-2{fill:#636466}</style></defs><title>Asset 1</title><g id="Layer_2" data-name="Layer 2"><g id="Layer_1-2" data-name="Layer 1"><path class="cls-1" d="M86.71 12.8c2.81-1.5 21.36-8.43 54.89-.69q.35-3 .69-6.07C136 3.76 125.55-.17 101.21 0c-22 .17-37 4.37-46 8.64q-2.54 22.27-5.06 44.54c6.32 3.24 16.31 6.39 30.91 7.52l4.42-37.4 1.19-10.5z"/><path class="cls-1" d="M140.1 25.4c-20.92-4.26-43.3.31-43.3.31v.1c-.36 3.1-.7 6.19-1.06 9.28l-.65 5.63a109.83 109.83 0 0 1 11.12-1.21c1.15-.05 2.28-.07 3.31 0l-2.62 21.15c15.9-1.18 24.42-4.22 29.92-6.16l3.29-29a.63.63 0 0 1 0-.09z"/><path class="cls-2" d="M115.12 74.3a28.36 28.36 0 0 0-10.59 1.76l-1.44 12.7a8.46 8.46 0 0 0 4.52 1 9.83 9.83 0 0 0 5-1.05q.62-5.49 1.24-11l11-.08.19-1.73s-3.25-1.61-9.87-1.61zm-97.43-4.75c-7.63.06-12.81 1.51-15.94 3L0 88c2.8 1.43 7.65 2.82 15.28 2.76 8.43-.06 12.39-1.48 14.75-2.31l1.14-10.06-15 .11-.36 3.22h4.88l-.53 4.64-8.89.06L12.66 74l19-.14.25-2.2c-2.17-.8-5.81-2.16-14.25-2.1zm62.49 17.34l-8.54.11.36-3.18 8.54-.06-.36 3.18zM63.72 76.35l-.2 1.73L81.19 78c-.11.9-.21 1.81-.31 2.71l-7 .05c-4.88 0-9.51.68-11.21 1.5-.12 1-.74 6.54-.74 6.54s4 1.63 13.54 1.56 14-2.1 14-2.1q.63-5.52 1.25-11s-3.53-2.65-13.43-2.58c-9.34.07-13.61 1.76-13.61 1.76zm34.75-7.05a10.09 10.09 0 0 0-4.86 1.05q-1 9.24-2.1 18.49a8.52 8.52 0 0 0 4.63 1 9.46 9.46 0 0 0 4.86-1.07q1-9.25 2.1-18.49s-1.28-1-4.63-1zM50.59 87.11l-8.54.06q.51-4.47 1-8.94l8.54-.06q-.51 4.47-1 8.94zm-16.92-9.52q-.59 5.18-1.18 10.41s3.88 2.65 13.39 2.57S60 87.75 60 87.75l1.18-10.36s-3.95-2.65-13.46-2.57-14 2.78-14 2.78zM139.93 70q-1 9.25-2.1 18.49a8.51 8.51 0 0 0 4.63 1 9.45 9.45 0 0 0 4.85-1.05l2.1-18.49s-1.28-1-4.62-1a10.07 10.07 0 0 0-4.86 1.05zm-12.19.07s-.37 2.58-.47 3.48a9.68 9.68 0 0 1 4.89-1.05 9 9 0 0 1 4.59 1q.2-1.73.39-3.45s-1-1-4.66-1a11.31 11.31 0 0 0-4.11.7l-.64.33zm24.46-.16l-2.1 18.49a8.51 8.51 0 0 0 4.63 1 9.45 9.45 0 0 0 4.86-1.05q1-9.25 2.1-18.49s-1.28-1-4.63-1a10.08 10.08 0 0 0-4.85 1zm28.41 16.24l-8.54.06.36-3.18L181 83l-.36 3.18zm-2.85-12.3c-9.34.07-13.61 1.76-13.61 1.76l-.2 1.73 17.67-.13q-.16 1.35-.31 2.71l-7 .05c-4.88 0-9.52.68-11.21 1.5-.11 1-.74 6.54-.74 6.54s4 1.63 13.54 1.56 14-2.1 14-2.1q.62-5.52 1.25-11s-3.53-2.65-13.43-2.57zm2.85 16.42v.22h1.11l-.21 1.73a1 1 0 0 0 .54.12 1.17 1.17 0 0 0 .57-.12l.21-1.73h1.11v-.22a4.62 4.62 0 0 0-1.63-.22 5.37 5.37 0 0 0-1.7.22zm3.72.1l-.22 1.85a.9.9 0 0 0 .52.12 1.31 1.31 0 0 0 .6-.12l.21-1.73h.9l-.21 1.73a1.07 1.07 0 0 0 .53.12 1.4 1.4 0 0 0 .57-.12l.21-1.73h.91l-.21 1.73a1.19 1.19 0 0 0 .54.12 1.3 1.3 0 0 0 .56-.12l.23-1.85a5.32 5.32 0 0 0-2.53-.33 5.93 5.93 0 0 0-2.6.33zM127 75.62q-.73 6.49-1.47 13s1.28 1 4.62 1a9.46 9.46 0 0 0 4.85-1.1l1.48-13a8.82 8.82 0 0 0-4.55-1 11.41 11.41 0 0 0-4.93 1.1z"/></g></g></svg>