<svg xmlns="http://www.w3.org/2000/svg" xmlns:xlink="http://www.w3.org/1999/xlink" viewBox="0 0 360.35 81.96"><defs><style>.cls-1{mask:url(#mask);filter:url(#luminosity-noclip-41)}.cls-10,.cls-108,.cls-115,.cls-12,.cls-122,.cls-14,.cls-16,.cls-18,.cls-2,.cls-20,.cls-21,.cls-22,.cls-24,.cls-26,.cls-28,.cls-29,.cls-30,.cls-32,.cls-33,.cls-35,.cls-36,.cls-37,.cls-39,.cls-4,.cls-41,.cls-42,.cls-43,.cls-45,.cls-47,.cls-49,.cls-50,.cls-51,.cls-53,.cls-55,.cls-57,.cls-59,.cls-6,.cls-61,.cls-63,.cls-65,.cls-67,.cls-69,.cls-74,.cls-77,.cls-78,.cls-79,.cls-8,.cls-80,.cls-81,.cls-82,.cls-83,.cls-85{mix-blend-mode:multiply}.cls-2{fill:url(#linear-gradient)}.cls-27,.cls-3{mask:url(#mask-2)}.cls-3{filter:url(#luminosity-noclip-46)}.cls-10,.cls-101,.cls-103,.cls-105,.cls-107,.cls-109,.cls-110,.cls-111,.cls-113,.cls-114,.cls-116,.cls-117,.cls-118,.cls-12,.cls-120,.cls-121,.cls-123,.cls-124,.cls-126,.cls-127,.cls-128,.cls-130,.cls-132,.cls-133,.cls-134,.cls-135,.cls-137,.cls-139,.cls-14,.cls-141,.cls-143,.cls-145,.cls-147,.cls-149,.cls-16,.cls-18,.cls-20,.cls-21,.cls-22,.cls-24,.cls-26,.cls-28,.cls-29,.cls-30,.cls-32,.cls-33,.cls-35,.cls-36,.cls-37,.cls-39,.cls-4,.cls-41,.cls-42,.cls-43,.cls-45,.cls-47,.cls-49,.cls-50,.cls-51,.cls-53,.cls-55,.cls-57,.cls-59,.cls-6,.cls-61,.cls-63,.cls-65,.cls-67,.cls-69,.cls-72,.cls-8,.cls-84,.cls-87,.cls-89,.cls-91,.cls-93,.cls-95,.cls-97,.cls-98,.cls-99{fill-rule:evenodd}.cls-4{fill:url(#radial-gradient)}.cls-40,.cls-5{mask:url(#mask-3)}.cls-5{filter:url(#luminosity-noclip-47)}.cls-6{fill:url(#radial-gradient-2)}.cls-13,.cls-7{mask:url(#mask-4)}.cls-8{fill:url(#radial-gradient-3)}.cls-31,.cls-9{mask:url(#mask-5)}.cls-10{fill:url(#radial-gradient-4)}.cls-11,.cls-44{mask:url(#mask-6)}.cls-11{filter:url(#luminosity-noclip-49)}.cls-12{fill:url(#radial-gradient-5)}.cls-13{filter:url(#luminosity-noclip-42)}.cls-14{fill:url(#radial-gradient-6)}.cls-15{mask:url(#mask-8);filter:url(#luminosity-noclip-50)}.cls-16{fill:url(#radial-gradient-7)}.cls-17,.cls-38{mask:url(#mask-9)}.cls-17{filter:url(#luminosity-noclip-51)}.cls-18{fill:url(#radial-gradient-8)}.cls-19,.cls-52{mask:url(#mask-10)}.cls-19{filter:url(#luminosity-noclip-52)}.cls-20{fill:url(#radial-gradient-9)}.cls-21{fill:url(#radial-gradient-10)}.cls-22{fill:url(#radial-gradient-11)}.cls-23,.cls-48{mask:url(#mask-13)}.cls-24{fill:url(#radial-gradient-12)}.cls-25,.cls-34,.cls-68{mask:url(#mask-14)}.cls-25{filter:url(#luminosity-noclip-56)}.cls-26{fill:url(#radial-gradient-13)}.cls-28{fill:url(#radial-gradient-14)}.cls-29{fill:url(#radial-gradient-15)}.cls-30{fill:url(#radial-gradient-16)}.cls-31{filter:url(#luminosity-noclip-43)}.cls-32{fill:url(#radial-gradient-17)}.cls-33{fill:url(#radial-gradient-18)}.cls-34{filter:url(#luminosity-noclip-61)}.cls-35{fill:url(#radial-gradient-19)}.cls-36{fill:url(#radial-gradient-20)}.cls-37{fill:url(#linear-gradient-2)}.cls-39{fill:url(#linear-gradient-3)}.cls-41{fill:url(#radial-gradient-21)}.cls-42{fill:url(#radial-gradient-22)}.cls-43{fill:url(#radial-gradient-23)}.cls-44{filter:url(#luminosity-noclip-68)}.cls-45{fill:url(#radial-gradient-24)}.cls-46{mask:url(#mask-28);filter:url(#luminosity-noclip-69)}.cls-47{fill:url(#radial-gradient-25)}.cls-48{filter:url(#luminosity-noclip-44)}.cls-49{fill:url(#radial-gradient-26)}.cls-50{fill:url(#radial-gradient-27)}.cls-51{fill:url(#radial-gradient-28)}.cls-53{fill:url(#radial-gradient-29)}.cls-54{mask:url(#mask-33);filter:url(#luminosity-noclip-73)}.cls-55{fill:url(#linear-gradient-4)}.cls-56{mask:url(#mask-34);filter:url(#luminosity-noclip-74)}.cls-57{fill:url(#linear-gradient-5)}.cls-58{mask:url(#mask-35);filter:url(#luminosity-noclip-75)}.cls-59{fill:url(#linear-gradient-6)}.cls-60{mask:url(#mask-36);filter:url(#luminosity-noclip-76)}.cls-61{fill:url(#linear-gradient-7)}.cls-62{mask:url(#mask-37);filter:url(#luminosity-noclip-77)}.cls-63{fill:url(#linear-gradient-8)}.cls-64{mask:url(#mask-38);filter:url(#luminosity-noclip-78)}.cls-65{fill:url(#linear-gradient-9)}.cls-66{mask:url(#mask-39);filter:url(#luminosity-noclip-79)}.cls-67{fill:url(#linear-gradient-10)}.cls-68{filter:url(#luminosity-noclip-45)}.cls-69{fill:url(#radial-gradient-30)}.cls-70{isolation:isolate}.cls-71,.cls-72{fill:#231f20}.cls-73{fill:#fff}.cls-108,.cls-74,.cls-77,.cls-78,.cls-79,.cls-80,.cls-81,.cls-82,.cls-83{opacity:.25}.cls-74{fill:url(#linear-gradient-11)}.cls-75{mask:url(#mask-41)}.cls-76{fill:url(#linear-gradient-12)}.cls-77{fill:url(#linear-gradient-13)}.cls-78{fill:url(#linear-gradient-14)}.cls-79{fill:url(#linear-gradient-15)}.cls-80{fill:url(#linear-gradient-16)}.cls-81{fill:url(#linear-gradient-17)}.cls-82{fill:url(#linear-gradient-18)}.cls-83{fill:url(#linear-gradient-19)}.cls-84{fill:#e14329}.cls-85{opacity:.5}.cls-86{mask:url(#mask-42)}.cls-87{fill:url(#radial-gradient-31)}.cls-88{mask:url(#mask-43)}.cls-89{fill:url(#radial-gradient-32)}.cls-90{mask:url(#mask-44)}.cls-91{fill:url(#radial-gradient-33)}.cls-92{mask:url(#mask-45)}.cls-93{fill:url(#radial-gradient-34)}.cls-94{mask:url(#mask-46)}.cls-95{fill:url(#radial-gradient-35)}.cls-96{mask:url(#mask-47)}.cls-97{fill:url(#radial-gradient-36)}.cls-98{fill:url(#radial-gradient-37)}.cls-99{fill:url(#radial-gradient-38)}.cls-100{mask:url(#mask-50)}.cls-101{fill:url(#radial-gradient-39)}.cls-102{mask:url(#mask-51)}.cls-103{fill:url(#radial-gradient-40)}.cls-104{mask:url(#mask-52)}.cls-105{fill:url(#radial-gradient-41)}.cls-106{mask:url(#mask-53)}.cls-107{fill:url(#radial-gradient-42)}.cls-109{fill:url(#radial-gradient-43)}.cls-110{fill:url(#radial-gradient-44)}.cls-111{fill:url(#radial-gradient-45)}.cls-112{mask:url(#mask-57)}.cls-113{fill:url(#radial-gradient-46)}.cls-114{fill:url(#radial-gradient-47)}.cls-115{opacity:.2}.cls-116{fill:url(#radial-gradient-48)}.cls-117{fill:url(#radial-gradient-49)}.cls-118{fill:url(#radial-gradient-50)}.cls-119{mask:url(#mask-62)}.cls-120{fill:url(#radial-gradient-51)}.cls-121{fill:url(#radial-gradient-52)}.cls-122{opacity:.1}.cls-123{fill:url(#linear-gradient-20)}.cls-124{fill:url(#linear-gradient-21)}.cls-125{opacity:.28;mix-blend-mode:screen}.cls-126{fill:url(#radial-gradient-53)}.cls-127{fill:url(#radial-gradient-54)}.cls-128{fill:url(#radial-gradient-55)}.cls-129{mask:url(#mask-69)}.cls-130{fill:url(#radial-gradient-56)}.cls-131{mask:url(#mask-70)}.cls-132{fill:url(#radial-gradient-57)}.cls-133{fill:url(#radial-gradient-58)}.cls-134{fill:url(#radial-gradient-59)}.cls-135{fill:url(#radial-gradient-60)}.cls-136{mask:url(#mask-74)}.cls-137,.cls-139,.cls-141,.cls-143,.cls-145,.cls-147,.cls-149{opacity:.4;mix-blend-mode:soft-light}.cls-137{fill:url(#linear-gradient-22)}.cls-138{mask:url(#mask-75)}.cls-139{fill:url(#linear-gradient-23)}.cls-140{mask:url(#mask-76)}.cls-141{fill:url(#linear-gradient-24)}.cls-142{mask:url(#mask-77)}.cls-143{fill:url(#linear-gradient-25)}.cls-144{mask:url(#mask-78)}.cls-145{fill:url(#linear-gradient-26)}.cls-146{mask:url(#mask-79)}.cls-147{fill:url(#linear-gradient-27)}.cls-148{mask:url(#mask-80)}.cls-149{fill:url(#linear-gradient-28)}.cls-150{filter:url(#luminosity-noclip-39)}.cls-151{filter:url(#luminosity-noclip-38)}.cls-152{filter:url(#luminosity-noclip-37)}.cls-153{filter:url(#luminosity-noclip-36)}.cls-154{filter:url(#luminosity-noclip-35)}.cls-155{filter:url(#luminosity-noclip-34)}.cls-156{filter:url(#luminosity-noclip-33)}.cls-157{filter:url(#luminosity-noclip-28)}.cls-158{filter:url(#luminosity-noclip-14)}.cls-159{filter:url(#luminosity-noclip-13)}.cls-160{filter:url(#luminosity-noclip-10)}.cls-161{filter:url(#luminosity-noclip-9)}.cls-162{filter:url(#luminosity-noclip-8)}.cls-163{filter:url(#luminosity-noclip-6)}.cls-164{filter:url(#luminosity-noclip-5)}.cls-165{filter:url(#luminosity-noclip-4)}.cls-166{filter:url(#luminosity-noclip-3)}.cls-167{filter:url(#luminosity-noclip-2)}.cls-168{filter:url(#luminosity-noclip)}</style><filter id="luminosity-noclip" x="7.95" y="-8296.24" width="21.59" height="32766" filterUnits="userSpaceOnUse" color-interpolation-filters="sRGB"><feFlood flood-color="#fff" result="bg"/><feBlend in="SourceGraphic" in2="bg"/></filter><linearGradient id="linear-gradient" x1="13.02" y1="20.56" x2="19.48" y2="28.42" gradientUnits="userSpaceOnUse"><stop offset=".89" stop-color="#fff"/><stop offset=".89" stop-color="#f6f6f6"/><stop offset=".91" stop-color="#a0a0a0"/><stop offset=".93" stop-color="#5b5b5b"/><stop offset=".95" stop-color="#2a2a2a"/><stop offset=".96" stop-color="#0b0b0b"/><stop offset=".97"/></linearGradient><filter id="luminosity-noclip-2" x="42.75" y="-8296.24" width="10.15" height="32766" filterUnits="userSpaceOnUse" color-interpolation-filters="sRGB"><feFlood flood-color="#fff" result="bg"/><feBlend in="SourceGraphic" in2="bg"/></filter><radialGradient id="radial-gradient" cx="26.93" cy="15.69" r="32.06" gradientUnits="userSpaceOnUse"><stop offset=".59"/><stop offset=".62" stop-color="#050505"/><stop offset=".66" stop-color="#131313"/><stop offset=".7" stop-color="#2b2b2b"/><stop offset=".74" stop-color="#4b4b4b"/><stop offset=".78" stop-color="#757575"/><stop offset=".79" stop-color="gray"/><stop offset="1" stop-color="#fff"/></radialGradient><filter id="luminosity-noclip-3" x="10.92" y="-8296.24" width="23.22" height="32766" filterUnits="userSpaceOnUse" color-interpolation-filters="sRGB"><feFlood flood-color="#fff" result="bg"/><feBlend in="SourceGraphic" in2="bg"/></filter><radialGradient id="radial-gradient-2" cx="28.78" cy="18.67" r="36.05" gradientUnits="userSpaceOnUse"><stop offset=".17" stop-color="#fff"/><stop offset=".22" stop-color="#bbb"/><stop offset=".28" stop-color="#797979"/><stop offset=".33" stop-color="#454545"/><stop offset=".37" stop-color="#1f1f1f"/><stop offset=".4" stop-color="#080808"/><stop offset=".42"/></radialGradient><filter id="luminosity-noclip-4" x="8.71" y="-8296.24" width="20.5" height="32766" filterUnits="userSpaceOnUse" color-interpolation-filters="sRGB"><feFlood flood-color="#fff" result="bg"/><feBlend in="SourceGraphic" in2="bg"/></filter><radialGradient id="radial-gradient-3" cx="28.78" cy="18.67" r="36.05" xlink:href="#radial-gradient-2"/><filter id="luminosity-noclip-5" x="15.49" y="-8296.24" width="18.86" height="32766" filterUnits="userSpaceOnUse" color-interpolation-filters="sRGB"><feFlood flood-color="#fff" result="bg"/><feBlend in="SourceGraphic" in2="bg"/></filter><radialGradient id="radial-gradient-4" cx="28.79" cy="18.67" r="36.05" xlink:href="#radial-gradient-2"/><filter id="luminosity-noclip-6" x="33.74" y="-8296.24" width="12.42" height="32766" filterUnits="userSpaceOnUse" color-interpolation-filters="sRGB"><feFlood flood-color="#fff" result="bg"/><feBlend in="SourceGraphic" in2="bg"/></filter><radialGradient id="radial-gradient-5" cx="28.79" cy="18.6" r="36.11" xlink:href="#radial-gradient-2"/><radialGradient id="radial-gradient-6" cx="26.92" cy="15.69" r="32.07" xlink:href="#radial-gradient"/><filter id="luminosity-noclip-8" x="38.49" y="-8296.24" width="15.84" height="32766" filterUnits="userSpaceOnUse" color-interpolation-filters="sRGB"><feFlood flood-color="#fff" result="bg"/><feBlend in="SourceGraphic" in2="bg"/></filter><radialGradient id="radial-gradient-7" cx="28.69" cy="18.67" r="36.12" xlink:href="#radial-gradient-2"/><filter id="luminosity-noclip-9" x="38.29" y="-8296.24" width="7.27" height="32766" filterUnits="userSpaceOnUse" color-interpolation-filters="sRGB"><feFlood flood-color="#fff" result="bg"/><feBlend in="SourceGraphic" in2="bg"/></filter><radialGradient id="radial-gradient-8" cx="28.79" cy="18.67" r="36.05" xlink:href="#radial-gradient-2"/><filter id="luminosity-noclip-10" x="25.18" y="-8296.24" width="13.88" height="32766" filterUnits="userSpaceOnUse" color-interpolation-filters="sRGB"><feFlood flood-color="#fff" result="bg"/><feBlend in="SourceGraphic" in2="bg"/></filter><radialGradient id="radial-gradient-9" cx="28.79" cy="18.67" r="36.05" xlink:href="#radial-gradient-2"/><radialGradient id="radial-gradient-10" cx="28.3" cy="15.23" r="32.56" gradientUnits="userSpaceOnUse"><stop offset=".56"/><stop offset=".62" stop-color="#292929"/><stop offset=".76" stop-color="#909090"/><stop offset=".9" stop-color="#fff"/></radialGradient><radialGradient id="radial-gradient-11" cx="28.3" cy="15.23" r="32.56" xlink:href="#radial-gradient-10"/><filter id="luminosity-noclip-13" x="33.74" y="-8296.24" width="12.42" height="32766" filterUnits="userSpaceOnUse" color-interpolation-filters="sRGB"><feFlood flood-color="#fff" result="bg"/><feBlend in="SourceGraphic" in2="bg"/></filter><radialGradient id="radial-gradient-12" cx="28.3" cy="15.22" r="32.56" xlink:href="#radial-gradient-10"/><filter id="luminosity-noclip-14" x="38.56" y="-8296.24" width="15.79" height="32766" filterUnits="userSpaceOnUse" color-interpolation-filters="sRGB"><feFlood flood-color="#fff" result="bg"/><feBlend in="SourceGraphic" in2="bg"/></filter><radialGradient id="radial-gradient-13" cx="28.3" cy="15.22" r="32.56" xlink:href="#radial-gradient-10"/><radialGradient id="radial-gradient-14" cx="28.3" cy="15.23" r="32.55" xlink:href="#radial-gradient-10"/><radialGradient id="radial-gradient-15" cx="28.3" cy="15.23" r="32.56" gradientUnits="userSpaceOnUse"><stop offset=".7"/><stop offset=".96" stop-color="#fff"/></radialGradient><radialGradient id="radial-gradient-16" cx="28.3" cy="15.23" r="32.56" xlink:href="#radial-gradient-15"/><radialGradient id="radial-gradient-17" cx="26.92" cy="15.69" r="32.07" xlink:href="#radial-gradient"/><radialGradient id="radial-gradient-18" cx="28.3" cy="15.22" r="32.56" xlink:href="#radial-gradient-15"/><radialGradient id="radial-gradient-19" cx="28.3" cy="15.22" r="32.56" xlink:href="#radial-gradient-15"/><radialGradient id="radial-gradient-20" cx="28.3" cy="15.23" r="32.55" xlink:href="#radial-gradient-15"/><linearGradient id="linear-gradient-2" x1="51.26" y1="13.41" x2="43.4" y2="21.63" gradientUnits="userSpaceOnUse"><stop offset=".2" stop-color="#fff"/><stop offset=".26" stop-color="#b2b2b2"/><stop offset=".35" stop-color="#535353"/><stop offset=".41" stop-color="#171717"/><stop offset=".44"/></linearGradient><linearGradient id="linear-gradient-3" x1="43.8" y1="6.28" x2="35.94" y2="14.5" xlink:href="#linear-gradient-2"/><radialGradient id="radial-gradient-21" cx="28.78" cy="18.67" r="36.05" xlink:href="#linear-gradient-2"/><radialGradient id="radial-gradient-22" cx="28.78" cy="18.67" r="36.05" xlink:href="#linear-gradient-2"/><radialGradient id="radial-gradient-23" cx="28.79" cy="18.67" r="36.05" xlink:href="#linear-gradient-2"/><radialGradient id="radial-gradient-24" cx="28.79" cy="18.6" r="36.11" xlink:href="#linear-gradient-2"/><filter id="luminosity-noclip-28" x="38.49" y="-8296.24" width="15.85" height="32766" filterUnits="userSpaceOnUse" color-interpolation-filters="sRGB"><feFlood flood-color="#fff" result="bg"/><feBlend in="SourceGraphic" in2="bg"/></filter><radialGradient id="radial-gradient-25" cx="28.68" cy="18.67" r="36.14" xlink:href="#linear-gradient-2"/><radialGradient id="radial-gradient-26" cx="26.92" cy="15.69" r="32.07" xlink:href="#radial-gradient"/><radialGradient id="radial-gradient-27" cx="28.79" cy="18.67" r="36.04" xlink:href="#linear-gradient-2"/><radialGradient id="radial-gradient-28" cx="28.79" cy="18.67" r="36.05" xlink:href="#linear-gradient-2"/><radialGradient id="radial-gradient-29" cx="28.79" cy="18.67" r="36.05" xlink:href="#linear-gradient-2"/><filter id="luminosity-noclip-33" x="39.94" y="-8296.24" width="14.41" height="32766" filterUnits="userSpaceOnUse" color-interpolation-filters="sRGB"><feFlood flood-color="#fff" result="bg"/><feBlend in="SourceGraphic" in2="bg"/></filter><linearGradient id="linear-gradient-4" x1="48.41" y1="25.85" x2="39.94" y2="18.04" gradientUnits="userSpaceOnUse"><stop offset="0" stop-color="#fff"/><stop offset=".46"/></linearGradient><filter id="luminosity-noclip-34" x="46.07" y="-8296.24" width="6.83" height="32766" filterUnits="userSpaceOnUse" color-interpolation-filters="sRGB"><feFlood flood-color="#fff" result="bg"/><feBlend in="SourceGraphic" in2="bg"/></filter><linearGradient id="linear-gradient-5" x1="52.88" y1="20.3" x2="47.27" y2="12.06" gradientUnits="userSpaceOnUse"><stop offset=".66" stop-color="#fff"/><stop offset=".9"/></linearGradient><filter id="luminosity-noclip-35" x="13.52" y="-8296.24" width="10.77" height="32766" filterUnits="userSpaceOnUse" color-interpolation-filters="sRGB"><feFlood flood-color="#fff" result="bg"/><feBlend in="SourceGraphic" in2="bg"/></filter><linearGradient id="linear-gradient-6" x1="13.25" y1="11.9" x2="23.97" y2="8.91" gradientUnits="userSpaceOnUse"><stop offset=".59" stop-color="#fff"/><stop offset=".81"/></linearGradient><filter id="luminosity-noclip-36" x="9.13" y="-8296.24" width="19.91" height="32766" filterUnits="userSpaceOnUse" color-interpolation-filters="sRGB"><feFlood flood-color="#fff" result="bg"/><feBlend in="SourceGraphic" in2="bg"/></filter><linearGradient id="linear-gradient-7" x1="8.95" y1="22.23" x2="28.68" y2="18.56" gradientUnits="userSpaceOnUse"><stop offset=".58" stop-color="#fff"/><stop offset=".77"/></linearGradient><filter id="luminosity-noclip-37" x="15.49" y="-8296.24" width="2.52" height="32766" filterUnits="userSpaceOnUse" color-interpolation-filters="sRGB"><feFlood flood-color="#fff" result="bg"/><feBlend in="SourceGraphic" in2="bg"/></filter><linearGradient id="linear-gradient-8" x1="15.65" y1="44.46" x2="18.17" y2="38.09" gradientUnits="userSpaceOnUse"><stop offset=".42" stop-color="#fff"/><stop offset=".67"/></linearGradient><filter id="luminosity-noclip-38" x="33.74" y="-8296.24" width="3.25" height="32766" filterUnits="userSpaceOnUse" color-interpolation-filters="sRGB"><feFlood flood-color="#fff" result="bg"/><feBlend in="SourceGraphic" in2="bg"/></filter><linearGradient id="linear-gradient-9" x1="34.42" y1="50.39" x2="36.71" y2="39.93" gradientUnits="userSpaceOnUse"><stop offset=".41" stop-color="#fff"/><stop offset=".75"/></linearGradient><filter id="luminosity-noclip-39" x="35.62" y="-8296.24" width="10.54" height="32766" filterUnits="userSpaceOnUse" color-interpolation-filters="sRGB"><feFlood flood-color="#fff" result="bg"/><feBlend in="SourceGraphic" in2="bg"/></filter><linearGradient id="linear-gradient-10" x1="44.6" y1="45.86" x2="40.19" y2="25.84" gradientUnits="userSpaceOnUse"><stop offset=".7" stop-color="#fff"/><stop offset="1"/></linearGradient><radialGradient id="radial-gradient-30" cx="26.92" cy="15.69" r="32.07" xlink:href="#radial-gradient"/><linearGradient id="linear-gradient-11" x1="9.36" y1="37.25" x2="29.1" y2="18.9" gradientUnits="userSpaceOnUse"><stop offset="0" stop-color="#fff"/><stop offset=".01" stop-color="#f0f0f0"/><stop offset=".02" stop-color="#c5c4c5"/><stop offset=".04" stop-color="#9e9d9d"/><stop offset=".06" stop-color="#7d7b7b"/><stop offset=".09" stop-color="#615e5f"/><stop offset=".11" stop-color="#4a4748"/><stop offset=".14" stop-color="#383536"/><stop offset=".18" stop-color="#2c2829"/><stop offset=".22" stop-color="#252122"/><stop offset=".33" stop-color="#231f20"/><stop offset=".91" stop-color="#231f20"/><stop offset="1" stop-color="#231f20"/></linearGradient><filter id="luminosity-noclip-41" x="7.94" y="17.67" width="21.61" height="21.42" filterUnits="userSpaceOnUse" color-interpolation-filters="sRGB"><feFlood flood-color="#fff" result="bg"/><feBlend in="SourceGraphic" in2="bg"/></filter><mask id="mask-41" x="7.94" y="17.67" width="21.61" height="21.42" maskUnits="userSpaceOnUse"><g class="cls-1"><path class="cls-2" d="M8 26.83A9 9 0 0 1 8.61 24l1-1.32a23.87 23.87 0 0 1 10.25-4.79A14.57 14.57 0 0 1 29 19.16l.54.27-.48.36A64.94 64.94 0 0 0 11.79 39.1c-.35 0-.88-.13-1.14-.18C8.91 35.88 7.79 29.65 8 26.83z"/></g></mask><linearGradient id="linear-gradient-12" x1="13.02" y1="20.56" x2="19.48" y2="28.42" gradientUnits="userSpaceOnUse"><stop offset=".89" stop-color="#fff"/><stop offset=".97" stop-color="#fff"/></linearGradient><linearGradient id="linear-gradient-13" x1="21.6" y1="13.46" x2="22.18" y2="17.87" gradientUnits="userSpaceOnUse"><stop offset=".22" stop-color="#f8f8f9"/><stop offset=".23" stop-color="#ededee"/><stop offset=".29" stop-color="#bebdbe"/><stop offset=".34" stop-color="#959394"/><stop offset=".4" stop-color="#716f70"/><stop offset=".47" stop-color="#555253"/><stop offset=".53" stop-color="#3f3b3c"/><stop offset=".61" stop-color="#2f2b2c"/><stop offset=".69" stop-color="#262223"/><stop offset=".8" stop-color="#231f20"/></linearGradient><linearGradient id="linear-gradient-14" x1="27.31" y1="4.59" x2="38.27" y2="12.97" xlink:href="#linear-gradient-13"/><linearGradient id="linear-gradient-15" x1="40.23" y1="4.75" x2="42.74" y2="11.45" xlink:href="#linear-gradient-13"/><linearGradient id="linear-gradient-16" x1="42.25" y1="11.44" x2="55.2" y2="20.5" xlink:href="#linear-gradient-13"/><linearGradient id="linear-gradient-17" x1="42.38" y1="13.9" x2="53.95" y2="39.34" gradientUnits="userSpaceOnUse"><stop offset="0" stop-color="#231f20"/><stop offset=".52" stop-color="#f8f8f9"/><stop offset=".52" stop-color="#ededee"/><stop offset=".55" stop-color="#bebdbe"/><stop offset=".58" stop-color="#959394"/><stop offset=".61" stop-color="#716f70"/><stop offset=".64" stop-color="#555253"/><stop offset=".67" stop-color="#3f3b3c"/><stop offset=".71" stop-color="#2f2b2c"/><stop offset=".75" stop-color="#262223"/><stop offset=".8" stop-color="#231f20"/></linearGradient><linearGradient id="linear-gradient-18" x1="21.07" y1="48.76" x2="30.39" y2="20.57" gradientUnits="userSpaceOnUse"><stop offset=".06" stop-color="#231f20"/><stop offset=".07" stop-color="#595657"/><stop offset=".09" stop-color="#8b898a"/><stop offset=".1" stop-color="#b5b4b4"/><stop offset=".11" stop-color="#d5d4d5"/><stop offset=".13" stop-color="#ececec"/><stop offset=".14" stop-color="#fafafa"/><stop offset=".15" stop-color="#fff"/><stop offset=".76" stop-color="#fcfcfc"/><stop offset="1" stop-color="#f8f8f9"/></linearGradient><linearGradient id="linear-gradient-19" x1="40.08" y1="49.32" x2="34.74" y2="18.25" gradientUnits="userSpaceOnUse"><stop offset="0" stop-color="#231f20"/><stop offset=".04" stop-color="#595657"/><stop offset=".09" stop-color="#8b898a"/><stop offset=".14" stop-color="#b5b4b4"/><stop offset=".18" stop-color="#d5d4d5"/><stop offset=".23" stop-color="#ececec"/><stop offset=".27" stop-color="#fafafa"/><stop offset=".3" stop-color="#fff"/><stop offset=".51" stop-color="#fff"/><stop offset=".53" stop-color="#fff"/><stop offset=".83" stop-color="#231f20"/><stop offset=".85" stop-color="#535051"/><stop offset=".88" stop-color="#858283"/><stop offset=".91" stop-color="#aeadae"/><stop offset=".93" stop-color="#cecdce"/><stop offset=".96" stop-color="#e5e5e6"/><stop offset=".98" stop-color="#f3f3f4"/><stop offset="1" stop-color="#f8f8f9"/></linearGradient><filter id="luminosity-noclip-42" x="8.71" y="18.02" width="20.5" height="20.25" filterUnits="userSpaceOnUse" color-interpolation-filters="sRGB"><feFlood flood-color="#fff" result="bg"/><feBlend in="SourceGraphic" in2="bg"/></filter><mask id="mask-42" x="8.71" y="18.02" width="20.5" height="20.25" maskUnits="userSpaceOnUse"><g class="cls-13"><path class="cls-14" d="M29.21 19.45C26.27 18 19.45 16 10.34 22.89l-1 1.38a8.47 8.47 0 0 0-.57 2.59A29.05 29.05 0 0 0 11 38.08c.28 0 .86.15 1.2.18a65.72 65.72 0 0 1 17.01-18.81z"/></g></mask><radialGradient id="radial-gradient-31" cx="16.59" cy="19.01" r="27.25" gradientUnits="userSpaceOnUse"><stop offset=".59" stop-color="#bf4327"/><stop offset=".79" stop-color="#bf4327"/><stop offset="1" stop-color="#bd3b28"/></radialGradient><filter id="luminosity-noclip-43" x="15.49" y="21.34" width="18.86" height="28.7" filterUnits="userSpaceOnUse" color-interpolation-filters="sRGB"><feFlood flood-color="#fff" result="bg"/><feBlend in="SourceGraphic" in2="bg"/></filter><mask id="mask-43" x="15.49" y="21.34" width="18.86" height="28.7" maskUnits="userSpaceOnUse"><g class="cls-31"><path class="cls-32" d="M31.71 21.34a36.52 36.52 0 0 0-3.53 3.26l-.55.5a69.21 69.21 0 0 0-12.14 17.76l.28 1.52C18 46.84 22.53 49 25 49.74a7.27 7.27 0 0 0 1.5.26l1.83-.78c3.27-6.28 9.62-20.79 3.38-27.88z"/></g></mask><radialGradient id="radial-gradient-32" cx="26.68" cy="27.09" r="21.97" xlink:href="#radial-gradient-31"/><filter id="luminosity-noclip-44" x="33.74" y="17.9" width="12.42" height="32.52" filterUnits="userSpaceOnUse" color-interpolation-filters="sRGB"><feFlood flood-color="#fff" result="bg"/><feBlend in="SourceGraphic" in2="bg"/></filter><mask id="mask-44" x="33.74" y="17.9" width="12.42" height="32.52" maskUnits="userSpaceOnUse"><g class="cls-48"><path class="cls-49" d="M33.92 19.67c2.45 2.77 7.87 11.59-.18 29.65l1.05 1.1a19.79 19.79 0 0 0 4.73-1.25 21.05 21.05 0 0 0 5.94-3.36l.54-1.15c1-8.32-2.93-19.56-9.83-26.76-.81.5-1.5 1.22-2.25 1.77z"/></g></mask><radialGradient id="radial-gradient-33" cx="26.92" cy="22.49" r="27.4" xlink:href="#radial-gradient-31"/><filter id="luminosity-noclip-45" x="38.56" y="15.02" width="15.8" height="24.45" filterUnits="userSpaceOnUse" color-interpolation-filters="sRGB"><feFlood flood-color="#fff" result="bg"/><feBlend in="SourceGraphic" in2="bg"/></filter><mask id="mask-45" x="38.56" y="15.02" width="15.8" height="24.45" maskUnits="userSpaceOnUse"><g class="cls-68"><path class="cls-69" d="M54.14 27.15l-.92-1.33A51.64 51.64 0 0 1 40.4 15a8.43 8.43 0 0 0-1.85 1.24c8.69 9.86 11.06 18.63 11.68 23.12l1.08.09a29.51 29.51 0 0 0 1.42-3.31 24.75 24.75 0 0 0 1.38-4.54 11.5 11.5 0 0 0 .03-4.45z"/></g></mask><radialGradient id="radial-gradient-34" cx="34.2" cy="20.11" r="24.69" xlink:href="#radial-gradient-31"/><filter id="luminosity-noclip-46" x="42.75" y="11.97" width="10.15" height="8.82" filterUnits="userSpaceOnUse" color-interpolation-filters="sRGB"><feFlood flood-color="#fff" result="bg"/><feBlend in="SourceGraphic" in2="bg"/></filter><mask id="mask-46" x="42.75" y="11.97" width="10.15" height="8.82" maskUnits="userSpaceOnUse"><g class="cls-3"><path class="cls-4" d="M52.41 20.79l.49-1.17c-1.19-2.89-2.75-6-5-7.48l-.66-.14c-.37.06-.77.15-1.19.25-1.13.46-2.22 1-3.29 1.49a43 43 0 0 0 9.65 7.05z"/></g></mask><radialGradient id="radial-gradient-35" cx="31.39" cy="15.69" r="26.77" xlink:href="#radial-gradient-31"/><filter id="luminosity-noclip-47" x="10.92" y="8.85" width="23.22" height="9.58" filterUnits="userSpaceOnUse" color-interpolation-filters="sRGB"><feFlood flood-color="#fff" result="bg"/><feBlend in="SourceGraphic" in2="bg"/></filter><mask id="mask-47" x="10.92" y="8.85" width="23.22" height="9.58" maskUnits="userSpaceOnUse"><g class="cls-5"><path class="cls-6" d="M31.41 17.76c.93-.65 1.84-1.24 2.73-1.81-5.62-5-11-6.76-14.34-7.11l-2.22.68a15.94 15.94 0 0 0-5.89 6.28c-.24.43-.51 1-.76 1.5.12.33.28.76.39 1.11 4.62-2.03 11.86-5.29 20.09-.65z"/></g></mask><radialGradient id="radial-gradient-36" cx="29.38" cy="17.99" r="32.04" gradientUnits="userSpaceOnUse"><stop offset=".17" stop-color="#efa02d"/><stop offset=".42" stop-color="#efa02d"/></radialGradient><radialGradient id="radial-gradient-37" cx="28.87" cy="18.42" r="22.4" xlink:href="#radial-gradient-36"/><radialGradient id="radial-gradient-38" cx="30.54" cy="20.06" r="17.58" xlink:href="#radial-gradient-36"/><filter id="luminosity-noclip-49" x="33.74" y="17.83" width="12.42" height="32.59" filterUnits="userSpaceOnUse" color-interpolation-filters="sRGB"><feFlood flood-color="#fff" result="bg"/><feBlend in="SourceGraphic" in2="bg"/></filter><mask id="mask-50" x="33.74" y="17.83" width="12.42" height="32.59" maskUnits="userSpaceOnUse"><g class="cls-11"><path class="cls-12" d="M33.82 19.57c2.45 2.77 8 11.69-.09 29.75l1.05 1.1a22.23 22.23 0 0 0 10.67-4.61l.55-1.15c1-8.32-3-19.63-9.9-26.82z"/></g></mask><radialGradient id="radial-gradient-39" cx="29.99" cy="18.18" r="19.7" xlink:href="#radial-gradient-36"/><filter id="luminosity-noclip-50" x="38.49" y="15.02" width="15.84" height="24.45" filterUnits="userSpaceOnUse" color-interpolation-filters="sRGB"><feFlood flood-color="#fff" result="bg"/><feBlend in="SourceGraphic" in2="bg"/></filter><mask id="mask-51" x="38.49" y="15.02" width="15.84" height="24.45" maskUnits="userSpaceOnUse"><g class="cls-15"><path class="cls-16" d="M54.14 27.15l-.92-1.33A51.64 51.64 0 0 1 40.4 15l-1.91 1.16c8.7 9.84 11.12 18.73 11.75 23.22l1.08.09c3.61-7.56 3.09-11.07 2.82-12.32z"/></g></mask><radialGradient id="radial-gradient-40" cx="33.23" cy="16.44" r="17.46" xlink:href="#radial-gradient-36"/><filter id="luminosity-noclip-51" x="38.29" y="6.25" width="7.27" height="5.85" filterUnits="userSpaceOnUse" color-interpolation-filters="sRGB"><feFlood flood-color="#fff" result="bg"/><feBlend in="SourceGraphic" in2="bg"/></filter><mask id="mask-52" x="38.29" y="6.25" width="7.27" height="5.85" maskUnits="userSpaceOnUse"><g class="cls-17"><path class="cls-18" d="M45.55 10.18l-.15-.78c-1.65-1.32-4.49-2.4-6.6-3.15l-.51.08c0 1.7.85 3.54 2.91 5.77 1.7-.83 3.19-1.47 4.35-1.92z"/></g></mask><radialGradient id="radial-gradient-41" cx="32.25" cy="18.67" r="25.04" xlink:href="#radial-gradient-36"/><filter id="luminosity-noclip-52" x="25.18" y="4.72" width="13.88" height="9.72" filterUnits="userSpaceOnUse" color-interpolation-filters="sRGB"><feFlood flood-color="#fff" result="bg"/><feBlend in="SourceGraphic" in2="bg"/></filter><mask id="mask-53" x="25.18" y="4.72" width="13.88" height="9.72" maskUnits="userSpaceOnUse"><g class="cls-19"><path class="cls-20" d="M36.74 14.45c.8-.47 1.57-.89 2.32-1.28-3.56-4.7-4.55-6.36-4.82-7.64l-1.07-.76a20.69 20.69 0 0 0-4.57.32 34.48 34.48 0 0 0-3.42.69l.3.89c4.03 1.72 9.21 6.01 11.26 7.78z"/></g></mask><radialGradient id="radial-gradient-42" cx="28.79" cy="18.67" r="36.05" xlink:href="#radial-gradient-36"/><radialGradient id="radial-gradient-43" cx="19.22" cy="17.87" r="28.81" gradientUnits="userSpaceOnUse"><stop offset=".56" stop-color="#7b1b16"/><stop offset=".9" stop-color="#7b1b16"/></radialGradient><radialGradient id="radial-gradient-44" cx="28.3" cy="24.03" r="24.61" xlink:href="#radial-gradient-43"/><radialGradient id="radial-gradient-45" cx="28.3" cy="22.29" r="27.49" xlink:href="#radial-gradient-43"/><filter id="luminosity-noclip-56" x="38.56" y="15.02" width="15.8" height="24.45" filterUnits="userSpaceOnUse" color-interpolation-filters="sRGB"><feFlood flood-color="#fff" result="bg"/><feBlend in="SourceGraphic" in2="bg"/></filter><mask id="mask-57" x="38.56" y="15.02" width="15.8" height="24.45" maskUnits="userSpaceOnUse"><g class="cls-25"><path class="cls-26" d="M54.14 27.15l-.92-1.33A51.64 51.64 0 0 1 40.4 15a8.43 8.43 0 0 0-1.85 1.24c8.69 9.86 11.06 18.63 11.68 23.12l1.08.09a29.51 29.51 0 0 0 1.42-3.31 24.75 24.75 0 0 0 1.38-4.54 11.5 11.5 0 0 0 .03-4.45z"/></g></mask><radialGradient id="radial-gradient-46" cx="35.22" cy="19.28" r="25.46" xlink:href="#radial-gradient-43"/><radialGradient id="radial-gradient-47" cx="31.38" cy="15.23" r="28.7" xlink:href="#radial-gradient-43"/><radialGradient id="radial-gradient-48" cx="15.68" cy="25.11" r="18.58" gradientUnits="userSpaceOnUse"><stop offset=".7" stop-color="#231f20"/><stop offset=".96" stop-color="#231f20"/></radialGradient><radialGradient id="radial-gradient-49" cx="27.91" cy="28.8" r="20.3" xlink:href="#radial-gradient-48"/><radialGradient id="radial-gradient-50" cx="28.3" cy="27.5" r="23.97" xlink:href="#radial-gradient-48"/><filter id="luminosity-noclip-61" x="38.56" y="15.02" width="15.81" height="24.45" filterUnits="userSpaceOnUse" color-interpolation-filters="sRGB"><feFlood flood-color="#fff" result="bg"/><feBlend in="SourceGraphic" in2="bg"/></filter><mask id="mask-62" x="38.56" y="15.02" width="15.81" height="24.45" maskUnits="userSpaceOnUse"><g class="cls-34"><path class="cls-35" d="M54.14 27.15l-.92-1.33A51.64 51.64 0 0 1 40.4 15a8.43 8.43 0 0 0-1.85 1.24c8.69 9.86 11.06 18.63 11.68 23.12l1.08.09a29.51 29.51 0 0 0 1.42-3.31 24.75 24.75 0 0 0 1.38-4.54 11.5 11.5 0 0 0 .03-4.45z"/></g></mask><radialGradient id="radial-gradient-51" cx="40.4" cy="22.37" r="20.21" xlink:href="#radial-gradient-48"/><radialGradient id="radial-gradient-52" cx="42.29" cy="17.33" r="14.41" xlink:href="#radial-gradient-48"/><linearGradient id="linear-gradient-20" x1="51.26" y1="13.41" x2="43.4" y2="21.63" gradientUnits="userSpaceOnUse"><stop offset=".2" stop-color="#231f20"/><stop offset=".44" stop-color="#231f20"/></linearGradient><linearGradient id="linear-gradient-21" x1="43.8" y1="6.28" x2="35.94" y2="14.5" xlink:href="#linear-gradient-20"/><radialGradient id="radial-gradient-53" cx="28.78" cy="18.67" r="36.05" gradientUnits="userSpaceOnUse"><stop offset=".2" stop-color="#fbd129"/><stop offset=".44" stop-color="#fbd129"/></radialGradient><radialGradient id="radial-gradient-54" cx="28.85" cy="18.47" r="25.23" xlink:href="#radial-gradient-53"/><radialGradient id="radial-gradient-55" cx="30.08" cy="19.71" r="22.15" xlink:href="#radial-gradient-53"/><mask id="mask-69" x="33.74" y="17.83" width="12.42" height="32.59" maskUnits="userSpaceOnUse"><g class="cls-44"><path class="cls-45" d="M33.82 19.57c2.45 2.77 8 11.69-.09 29.75l1.05 1.1a19.79 19.79 0 0 0 4.73-1.25 21.05 21.05 0 0 0 5.94-3.36l.55-1.15c1-8.32-3-19.63-9.9-26.82z"/></g></mask><radialGradient id="radial-gradient-56" cx="29.72" cy="18.21" r="21.25" xlink:href="#radial-gradient-53"/><filter id="luminosity-noclip-69" x="38.49" y="15.02" width="15.85" height="24.45" filterUnits="userSpaceOnUse" color-interpolation-filters="sRGB"><feFlood flood-color="#fff" result="bg"/><feBlend in="SourceGraphic" in2="bg"/></filter><mask id="mask-70" x="38.49" y="15.02" width="15.85" height="24.45" maskUnits="userSpaceOnUse"><g class="cls-46"><path class="cls-47" d="M54.14 27.15l-.92-1.33A51.64 51.64 0 0 1 40.4 15l-1.91 1.16c8.7 9.84 11.12 18.73 11.75 23.22l1.08.09a29.51 29.51 0 0 0 1.42-3.31 24.75 24.75 0 0 0 1.38-4.54 11.5 11.5 0 0 0 .02-4.47z"/></g></mask><radialGradient id="radial-gradient-57" cx="32.63" cy="16.55" r="19.3" xlink:href="#radial-gradient-53"/><radialGradient id="radial-gradient-58" cx="38.83" cy="14.89" r="10.13" xlink:href="#radial-gradient-53"/><radialGradient id="radial-gradient-59" cx="31.04" cy="18.67" r="28.77" xlink:href="#radial-gradient-53"/><radialGradient id="radial-gradient-60" cx="28.79" cy="18.67" r="36.05" xlink:href="#radial-gradient-53"/><filter id="luminosity-noclip-73" x="39.94" y="15.02" width="14.41" height="19.72" filterUnits="userSpaceOnUse" color-interpolation-filters="sRGB"><feFlood flood-color="#fff" result="bg"/><feBlend in="SourceGraphic" in2="bg"/></filter><mask id="mask-74" x="39.94" y="15.02" width="14.41" height="19.72" maskUnits="userSpaceOnUse"><g class="cls-54"><path class="cls-55" d="M39.94 16a51.64 51.64 0 0 0 12.81 10.83l.92 1.33a11.5 11.5 0 0 1 0 4.48 20.44 20.44 0 0 1-.46 2.1l.45-1.15a17.64 17.64 0 0 0 .48-2 11.5 11.5 0 0 0 0-4.48l-.92-1.33A51.64 51.64 0 0 1 40.4 15z"/></g></mask><linearGradient id="linear-gradient-22" x1="48.41" y1="25.85" x2="39.94" y2="18.04" gradientUnits="userSpaceOnUse"><stop offset="0" stop-color="#fff"/><stop offset=".46" stop-color="#fff"/></linearGradient><filter id="luminosity-noclip-74" x="46.07" y="11.97" width="6.83" height="8.82" filterUnits="userSpaceOnUse" color-interpolation-filters="sRGB"><feFlood flood-color="#fff" result="bg"/><feBlend in="SourceGraphic" in2="bg"/></filter><mask id="mask-75" x="46.07" y="11.97" width="6.83" height="8.82" maskUnits="userSpaceOnUse"><g class="cls-56"><path class="cls-57" d="M52.41 20.79l.49-1.17c-1.19-2.89-2.75-6-5-7.48l-.66-.14c-.36.06-.75.14-1.15.25l1.24.43 1.8 1.8 1.29 2.1z"/></g></mask><linearGradient id="linear-gradient-23" x1="52.91" y1="20.28" x2="47.33" y2="12.09" gradientUnits="userSpaceOnUse"><stop offset=".66" stop-color="#fff"/><stop offset=".9" stop-color="#fff"/></linearGradient><filter id="luminosity-noclip-75" x="13.52" y="8.85" width="10.77" height="4.2" filterUnits="userSpaceOnUse" color-interpolation-filters="sRGB"><feFlood flood-color="#fff" result="bg"/><feBlend in="SourceGraphic" in2="bg"/></filter><mask id="mask-76" x="13.52" y="8.85" width="10.77" height="4.2" maskUnits="userSpaceOnUse"><g class="cls-58"><path class="cls-59" d="M13.52 13a14.53 14.53 0 0 1 4.05-3.52l2.22-.68a19.32 19.32 0 0 1 4.5 1.07s-3.34-.39-4.6-.51l-2.22.68A32.44 32.44 0 0 0 13.52 13z"/></g></mask><linearGradient id="linear-gradient-24" x1="13.35" y1="11.83" x2="23.96" y2="8.87" gradientUnits="userSpaceOnUse"><stop offset=".59" stop-color="#fff"/><stop offset=".81" stop-color="#fff"/></linearGradient><filter id="luminosity-noclip-76" x="9.13" y="17.93" width="20.08" height="6.33" filterUnits="userSpaceOnUse" color-interpolation-filters="sRGB"><feFlood flood-color="#fff" result="bg"/><feBlend in="SourceGraphic" in2="bg"/></filter><mask id="mask-77" x="9.13" y="17.93" width="20.08" height="6.33" maskUnits="userSpaceOnUse"><g class="cls-60"><path class="cls-61" d="M28.17 20.2c-2.41-1.05-9.06-3.56-18.17 3.29l-.86.68 1-1.37C19.29 16 26.11 17.89 29 19.37z"/></g></mask><linearGradient id="linear-gradient-25" x1="9.11" y1="22.31" x2="28.84" y2="18.64" gradientUnits="userSpaceOnUse"><stop offset=".58" stop-color="#fff"/><stop offset=".77" stop-color="#fff"/></linearGradient><filter id="luminosity-noclip-77" x="15.49" y="38.04" width="2.52" height="7.01" filterUnits="userSpaceOnUse" color-interpolation-filters="sRGB"><feFlood flood-color="#fff" result="bg"/><feBlend in="SourceGraphic" in2="bg"/></filter><mask id="mask-78" x="15.49" y="38.04" width="2.52" height="7.01" maskUnits="userSpaceOnUse"><g class="cls-62"><path class="cls-63" d="M16 43l.24 2-.43-.67-.28-1.52C16 41.78 16.83 40.1 18 38c0 0-1.53 4-2 5z"/></g></mask><linearGradient id="linear-gradient-26" x1="15.68" y1="44.27" x2="18.11" y2="38.14" gradientUnits="userSpaceOnUse"><stop offset=".42" stop-color="#fff"/><stop offset=".67" stop-color="#fff"/></linearGradient><filter id="luminosity-noclip-78" x="33.74" y="39.96" width="3.25" height="10.47" filterUnits="userSpaceOnUse" color-interpolation-filters="sRGB"><feFlood flood-color="#fff" result="bg"/><feBlend in="SourceGraphic" in2="bg"/></filter><mask id="mask-79" x="33.74" y="39.96" width="3.25" height="10.47" maskUnits="userSpaceOnUse"><g class="cls-64"><path class="cls-65" d="M34.32 49.12l1.05 1.1-.59.2-1.05-1.1A53.86 53.86 0 0 0 37 40a56.09 56.09 0 0 1-2.68 9.12z"/></g></mask><linearGradient id="linear-gradient-27" x1="34.48" y1="50.4" x2="36.78" y2="39.93" gradientUnits="userSpaceOnUse"><stop offset=".41" stop-color="#fff"/><stop offset=".75" stop-color="#fff"/></linearGradient><filter id="luminosity-noclip-79" x="35.62" y="17.9" width="10.54" height="27.99" filterUnits="userSpaceOnUse" color-interpolation-filters="sRGB"><feFlood flood-color="#fff" result="bg"/><feBlend in="SourceGraphic" in2="bg"/></filter><mask id="mask-80" x="35.62" y="17.9" width="10.54" height="27.99" maskUnits="userSpaceOnUse"><g class="cls-66"><path class="cls-67" d="M35.62 19.13c6.9 7.19 10.84 18.44 9.83 26.75l.55-1.22c1-8.32-2.93-19.56-9.83-26.76z"/></g></mask><linearGradient id="linear-gradient-28" x1="44.58" y1="45.8" x2="40.17" y2="25.82" gradientUnits="userSpaceOnUse"><stop offset=".7" stop-color="#fff"/><stop offset="1" stop-color="#fff"/></linearGradient></defs><title>Asset 1</title><g class="cls-70"><g id="Layer_2" data-name="Layer 2"><g id="Layer_1-2" data-name="Layer 1"><g id="Best_in_Basketball_Tag" data-name="Best in Basketball Tag"><path class="cls-71" d="M111.08 63.21c1.73-2.28 6.75-5.5 6.75-5.5 2.55-1.75 7.47-2.63 7.47-2.63a5 5 0 0 1 3.58.69 3.81 3.81 0 0 1 1.78 2.23c.64 2.5-4.33 6-4.33 6a14 14 0 0 1 3.27 1.92 3.6 3.6 0 0 1 .45 2.36c-.32 2.42-8.34 6.85-8.34 6.85l-7.52 4.22c-.8.53-1.12.35-1.12.35a12.4 12.4 0 0 0-2.36-.64c-.77-.77-.24-.63-.32-.69a17.39 17.39 0 0 1 1.86-1l1.41-6.19-1.49-.59a.63.63 0 0 1-.42-1 27.82 27.82 0 0 1 3.25-2.51l1.64-5.21c-.32-.31-4.57 4.84-4.57 4.84a1.5 1.5 0 0 1-1 .74c-2.74-.13-3.06-1.09-3.06-1.09l.08-.19v-.16l-.21-.05s-.24-.21.08-.16 1.12-.48 1.12-.48a21.49 21.49 0 0 0 2-2.11zm9.8-4.25a7.61 7.61 0 0 0-1.33 2.65l.4-.34-.45 1.73a5.71 5.71 0 0 0-.32.8h.13l-.32.75s-.29.32-.19.48a5.72 5.72 0 0 0 1.09-.34s6.7-4.2 6.88-5.15c0 0 1.3-2 .93-2.71.01.08-5.27.59-6.82 2.17zm-1.78 14.48a42.41 42.41 0 0 0 5.37-3.7s2.46-1.86 2.59-3.65c0 0-3.08-.1-4 .36l-6.21 3.63-1.67 5.24s0 .25.28.07c0 0 2.94-1.54 3.58-1.94zm30.1-10.34a5.47 5.47 0 0 0-2.2-1.7s-5.76 2.79-7.17 5.23c0 0-.77 1.49 1.11 2.23a5 5 0 0 0 2.77.42s1.11 0 1.08.45c0 0 .32 1-1 1.83 0 0-3.75 3-6.4 3 0 0 0-.33-.29-.24l-.43.93s.62.84 3.54.64c0 0 6.19-2.06 7-4.73 0 0 .18-1.06-1.22-2A8.82 8.82 0 0 0 143 67.4s3.7-4.03 6.2-4.3z"/><path class="cls-71" d="M151.18 65.64l-3 2.25s-2.17-.27-2.17-1.8a26.06 26.06 0 0 1 6.27-3.93l1.86-4.45s2 1.15 2.06 1.78l-.2.95s13.64-4.81 14.52-4.46.9.77.82.88-.64.67-1 .72l-5.91 1.94-6 2.26 4.88-1.5-5.3 2-3.28 1.62a30.63 30.63 0 0 0-2 5.76l-.62 2.34-.09-.24a19.77 19.77 0 0 0-1.38 4.06s-1.25.07-1.37-.36a1.76 1.76 0 0 1-.15-.91 50.68 50.68 0 0 0 1.32-5.55zm14.72-3.25s2.05.32 2 .92c0 0 .07-.19.21-.14s.16.07.14.17-2.25 7.09-2.25 7.09l1.06-2.84-1.72 5.72s-.42 2.25-.07 2.89c0 0-.34.27-.57.18a9.9 9.9 0 0 0-2-.22s-.78-.58-.71-1a11.38 11.38 0 0 1 .27-2.62s1.79-5.87 2.07-6.26zm6.89.11a6.63 6.63 0 0 0-2-.32s-.32-.08-1.44 4.6c0 0-.48 1.35-.8 2.63s-.15-.06-.15-.06l.24-1.14s-1.33 4.86-2 5.26c0 0 .08 1 2.81 1.12 0 0 1.35-1.66 2.5-7 0 0 2.37-4.21 5.71-4.56 0 0 1.41-.32-2.68 9.06l-3.64 8.65.45-.5-.73 1.76a2.08 2.08 0 0 0 .77-.66v.53a3.93 3.93 0 0 0 1.09-1.38.43.43 0 0 0 .37-.11 21.06 21.06 0 0 0 1.12-2.53 15.48 15.48 0 0 0 1.7-1.67s6.75-11.74 4.22-13.71a5.88 5.88 0 0 0-4.22-1.25 8.35 8.35 0 0 0-3.32 1.28zm16.05.62c1.72-2.29 6.75-5.5 6.75-5.5C198.13 55.86 203 55 203 55a5 5 0 0 1 3.59.69 3.8 3.8 0 0 1 1.78 2.23c.64 2.49-4.33 6-4.33 6a14.13 14.13 0 0 1 3.27 1.91 3.57 3.57 0 0 1 .46 2.36c-.32 2.42-8.34 6.86-8.34 6.86l-7.52 4.22c-.8.53-1.12.35-1.12.35a12.5 12.5 0 0 0-2.36-.64c-.77-.78-.24-.64-.32-.69a17.66 17.66 0 0 1 1.86-1l1.41-6.19-1.49-.58a.64.64 0 0 1-.42-1 27.53 27.53 0 0 1 3.24-2.52l1.65-5.21c-.32-.32-4.57 4.83-4.57 4.83a1.48 1.48 0 0 1-1 .74c-2.73-.13-3.05-1.09-3.05-1.09l.08-.19v-.16l-.21-.05s-.24-.21.08-.16 1.11-.48 1.11-.48a22 22 0 0 0 2.04-2.11zm9.8-4.25a7.52 7.52 0 0 0-1.33 2.66l.4-.35-.45 1.82a5.69 5.69 0 0 0-.32.8l.13.05-.32.75s-.29.32-.18.48a5.36 5.36 0 0 0 1.09-.35s6.71-4.2 6.88-5.15c0 0 1.3-2 .93-2.71-.01-.05-5.29.45-6.83 1.99zm-1.78 14.48a42.22 42.22 0 0 0 5.36-3.7s2.46-1.86 2.59-3.65c0 0-3.08-.1-4 .36L194.63 70 193 75.23s0 .25.29.07c0 0 2.94-1.55 3.58-1.94zm49.24-.44a1.88 1.88 0 0 0 .39 1.19c.47.54.88.38.88.38a9.36 9.36 0 0 0 1.57-.54 11.47 11.47 0 0 1 2-.67c1.31.31.71 1 .71 1-1 1.58-4.67 1.46-4.67 1.46a3.72 3.72 0 0 1-2.98-1.39c-1.3-1.9.32-5.14.32-5.14 2.81-7.08 8.34-8.3 8.34-8.3a2.93 2.93 0 0 1 2.54.75c.75.55.23 2.06.23 2.06-.59 3-8.19 7.79-8.19 7.79-.67.2-.95 0-.95 0-.23-.12-.19 1.41-.19 1.41zm7.27-10.44c-2.93 0-6.21 6.33-6.21 6.33 6.09-3.32 6.21-6.33 6.21-6.33zM235.46 61a5.37 5.37 0 0 0-2.32-1.88s-6.82 3.37-8.47 6.23c0 0-.9 1.74 1.31 2.61a5.85 5.85 0 0 0 3.23.5s1.3.06 1.27.53c0 0 .38 1.18-1.14 2.14 0 0-4.17 3.71-7.28 3.62l-.47.13-.7.75s.83.87 4.23.64c0 0 7.35-2.49 8.34-5.62a2.85 2.85 0 0 0-1.53-2.39 12.25 12.25 0 0 0-3.84-2s4.62-4.66 7.37-5.26z"/><path class="cls-71" d="M242 54.14a3.46 3.46 0 0 0-2.41-.94s-3.49 7.79-4.11 12.31c0 0-2.64 11.7-1.81 13.42 0 0 .74 0 .79.19a.21.21 0 0 0 .29-.05.81.81 0 0 1 .75-.23s.21.34.32 0a30 30 0 0 1 1.49-9.22s2 7.73 6.77 6.48c0 0 .33-.18-.05-.35 0 0 .19-.37-.34-.53 0 0-1.33.61-2.66-2.6 0 0-1.46-4.3-1.73-4.22 0 0 5.69-2.49 6.91-4.84a3.62 3.62 0 0 0-2.34-.93s-4.38 4.07-5.87 4c0 .03 2.28-8.78 4-12.49zm21.92 4.49a2.41 2.41 0 0 0-1.92-1.16 18.92 18.92 0 0 0-2.33 3v.08c-.45 1 0-.42 0-.42a61.52 61.52 0 0 0-2.95 5.77s-2.07 1.35-3 1.17c0 0-.4.26 0 .5 0 0 0 .43.4.43 0 0 1.48.37 1.46.53 0 0-3.32 6.64.93 7 0 0 3.24.71 3.69-1.36 0 0 0-.92-1.35-.5 0 0-1.2.88-1.73.64 0 0-1.25-1.09 1.73-6.77 0 0 7.44-3.51 7.57-3.48s.77-.61 1.09-.56l.08-.27s-.72.08-.51-.1c0 0 .8-.3.21-.64 0 0-.56-.19-.77-.08 0 0-.74.21-.58-.18a4.38 4.38 0 0 1-.75.24s-5.15 2.34-4.86 1.73c.04-.01 3.57-5.74 3.59-5.57z"/><path class="cls-71" d="M274.56 54.92c.13-.18.22 0 .22 0l-2.65 6.11c7.94-1 6.66 4.7 6.66 4.7-2.95 5.87-11.9 8.55-11.9 8.55a1.54 1.54 0 0 0-.32.74c-.11.68-.37-.08-.37-.08-1.12.48-1 .26-1 .26a.8.8 0 0 0-.75-.53c-.31-1.25 1.62-6.11 1.62-6.11-.5.13-.66 0-.66 0-1.12-.4.34-2.18.34-2.18a15.64 15.64 0 0 0 2-2.37c.24-.42 4.6-10.22 4.6-10.22l-.14.55.4-.43c.53-.16 1.73.82 1.73.82-.04.8.22.19.22.19zm2 7.73c-2.34-1.22-5.55 1.14-5.55 1.14l-3.75 9.14c11.8-5.16 9.3-10.28 9.3-10.28zm24.02-5.98s-.59.13-.35-.1l.22-.32s-1-1-1.7-.91a28.89 28.89 0 0 0-6.12 8.85s-3.91 7.45-2.74 9.17c0 0 .68 1.81 3.87 1.35 0 0-.11 3.76 1.63 4.39a1.8 1.8 0 0 1 .81.61s.22.31.78-.21a1.44 1.44 0 0 1 .71.14s.25 0 0-.25 0-.11 0-.11a2.65 2.65 0 0 1-.35-.39c-.18-.25-1.74-1.95-.46-5.74a37.76 37.76 0 0 1 4.82-8.32s4.85-7.12 5.06-7.86c0 0-.23.28-.1-.33 0 0-1.47-1.09-2.09-.77 0 0-7.26 10.6-7.39 10.92 0 0-3.08 5.61-2.95 6.19a11.72 11.72 0 0 1-1.73.42s-.59-.45-.16-1.75c.01.01 4.39-11.02 8.24-14.98zm-160.93 6.69a2.4 2.4 0 0 0-1.88-.64h-.3s-4.92 1.16-7.38 7.38c0 0-1.42 2.87-.29 4.51a3.27 3.27 0 0 0 2.54 1.19h.14c.52 0 3.16-.06 3.95-1.26a.39.39 0 0 0 .09-.34c-.05-.16-.27-.3-.64-.39a10.1 10.1 0 0 0-1.72.59 8.43 8.43 0 0 1-1.44.5.42.42 0 0 1-.14 0 1 1 0 0 1-.74-.4 1.77 1.77 0 0 1-.37-1.14c0-.26 0-1.16.17-1.35a.16.16 0 0 1 .12-.05h.06a.59.59 0 0 0 .34.08 1.48 1.48 0 0 0 .4-.06c.32-.2 6.77-4.3 7.27-6.9 0 0 .42-1.28-.18-1.72zm-7.17 6.33s2.94-5.63 5.52-5.69c0 0-.06 2.72-5.51 5.69zm92.36-8.59s-1.13-1.24-1.45-1.22a17.85 17.85 0 0 0-2.85 2.3s-.16.21-.44-.07a8.3 8.3 0 0 0-.89-.73s-4.84.65-9.59 6.11c0 0-3.93 4.59-3.51 7.14 0 0 .44 1.7 3 1.06 0 0 2.8-1.51 8.62-8.57 0 0-2.66 5.14-2.25 7.51 0 0 .16 2.32 3.59 1.72 0 0 .92-.24 2.39-2.37 0 0-.3-.23 0-.35 0 0 .16-.67-.41-.88 0 0-2.28 1.91-3.13 1.82 0 0 .05-2.6 2.58-6.14a5.87 5.87 0 0 0 1-2.18s2.89-4.07 3.38-4.24c0-.01-.53-.2-.04-.91zm-15.25 11.42a16 16 0 0 1 8.33-7.9c-6.57 7.47-8.33 7.9-8.33 7.9zm82.29-10.38s-1-1.09-1.27-1.07a15.28 15.28 0 0 0-2.48 2s-.14.18-.39-.06a7.43 7.43 0 0 0-.77-.63s-4.22.57-8.37 5.33c0 0-3.43 4-3.06 6.22 0 0 .39 1.48 2.62.92 0 0 2.43-1.31 7.52-7.47 0 0-2.32 4.48-2 6.55 0 0 .14 2 3.13 1.5 0 0 .8-.22 2.09-2.08 0 0-.27-.2 0-.3 0 0 .14-.59-.35-.78 0 0-2 1.67-2.74 1.6a10.61 10.61 0 0 1 2.25-5.36 5 5 0 0 0 .88-1.9s2.51-3.56 3-3.69c-.03 0-.49-.17-.06-.78zM278.4 72.27c1.84-4.4 7.44-7.06 7.44-7.06-5.84 6.67-7.44 7.06-7.44 7.06z"/><path class="cls-71" d="M308 56.64h2.42v.45h-1v2.54h-.52v-2.54h-.9zm2.65 0h.74l.83 2.35.8-2.35h.73v3h-.5v-2.31l-.83 2.31H312l-.83-2.31v2.31h-.5z" id="Best_in_Basketball_Tag-2" data-name="Best in Basketball Tag"/></g><g id="Goal_Setter_Type" data-name="Goal Setter Type"><path id="_" data-name="®" class="cls-71" d="M360.35 48.06a3.07 3.07 0 0 1-.24 1.22 2.86 2.86 0 0 1-.64.94 2.9 2.9 0 0 1-.93.61 3 3 0 0 1-1.11.21 3 3 0 0 1-1.19-.23 2.81 2.81 0 0 1-.93-.63 2.92 2.92 0 0 1-.61-.95 3.17 3.17 0 0 1-.22-1.18 3.06 3.06 0 0 1 .24-1.22 2.84 2.84 0 0 1 .64-.94 2.89 2.89 0 0 1 .94-.61 3 3 0 0 1 1.13-.21 2.93 2.93 0 0 1 1.11.21 2.85 2.85 0 0 1 1.57 1.55 3.08 3.08 0 0 1 .24 1.23zm-.64 0a2.75 2.75 0 0 0-.17-1 2.34 2.34 0 0 0-.49-.78 2.18 2.18 0 0 0-.72-.51 2.22 2.22 0 0 0-.89-.18 2.27 2.27 0 0 0-.91.18 2.18 2.18 0 0 0-.73.51 2.36 2.36 0 0 0-.49.78 2.77 2.77 0 0 0-.17 1 2.85 2.85 0 0 0 .16 1 2.34 2.34 0 0 0 .46.78 2.21 2.21 0 0 0 .72.53 2.26 2.26 0 0 0 1 .2 2.21 2.21 0 0 0 .89-.18 2.16 2.16 0 0 0 .72-.51 2.35 2.35 0 0 0 .49-.78 2.73 2.73 0 0 0 .13-1.04zm-2.87 1.71h-.54v-3.3h1.25a1.52 1.52 0 0 1 .9.22.84.84 0 0 1 .3.73.81.81 0 0 1-.25.65 1.13 1.13 0 0 1-.62.25l.93 1.45h-.61l-.85-1.41h-.51zm.61-1.87h.29a.6.6 0 0 0 .24-.07.47.47 0 0 0 .17-.16.53.53 0 0 0 .06-.28.38.38 0 0 0-.07-.24.45.45 0 0 0-.14-.15.69.69 0 0 0-.23-.06h-.9v1z"/><path class="cls-71" d="M98.71 29.66h16.39v6.41h-3.8V49a51.12 51.12 0 0 1-14 2c-13.9 0-22.21-8.25-22.21-21.2C75.09 18.28 82.34 8 97.96 8a38 38 0 0 1 14 2.49V22h-7.48v-6.84a20 20 0 0 0-5.88-.83c-10.51 0-14.08 7.25-14.08 14.85 0 6.29 2.73 15 14 15a26.89 26.89 0 0 0 4.51-.35v-7.76h-4.32zm34.51-11.23c10.46 0 16.33 5.76 16.33 16.57 0 9.27-6.41 15.92-16.33 15.92S116.89 45.57 116.89 35c0-8.91 6.18-16.57 16.33-16.57zm0 25.72c5.11 0 7.31-3.38 7.31-9 0-6.65-2.2-10-7.31-10s-7.3 4.34-7.3 10 2.19 9 7.3 9zm37.36-13.72c0-4.69-2-5.94-5.88-5.94a18.84 18.84 0 0 0-5.17.89v4.16h-7.13v-7.9a27.29 27.29 0 0 1 12.41-3.21c8.32 0 13.6 2.91 13.6 11.94 0 5.11-.18 9.38-.3 13.78h3.5v6.06h-10.43v-1.9a16.15 16.15 0 0 1 .41-4.28h-.12c-2.08 4.69-4.93 6.89-10.15 6.89-7 0-10.39-4.16-10.39-9a9 9 0 0 1 6.24-8.55c3.15-1.13 7.36-1.42 13.42-1.42zM168.15 37c-6.77 0-8.91 1.43-8.91 4.1 0 1.84 1.31 3.74 4.57 3.74s6.65-2.14 6.65-7.84zM187 11.78h-4.75V5.72h13.07v38.43h3.56v6.06h-15.23v-6.06H187zM219 25a14.31 14.31 0 0 0-4.81-.89c-3.8 0-5.58 1.54-5.58 3.27 0 1.48.41 2.08 2.79 2.43l6.53 1c7.13 1 10.1 3.74 10.1 9.38s-3.86 10.75-14.67 10.75a41.52 41.52 0 0 1-12.23-2v-8.71h7.48v3.62a19.42 19.42 0 0 0 5.52 1c1.72 0 6.06-.53 6.06-3.8 0-1.72-1.07-2.61-4.69-3.15l-7-1.07c-5.41-.83-7.72-3.8-7.72-8.25 0-7.66 7.25-10.16 13.66-10.16a38.05 38.05 0 0 1 12.06 2.08v7.66H219zm19.23 11.54c.24 4.93 4 8 9.86 8a22.91 22.91 0 0 0 10-2.14l-.38 6.6a31 31 0 0 1-11.46 2c-12 0-17-7.48-17-16.09 0-9.68 5.88-16.39 15.62-16.39 10.69 0 15 8.08 15 18.11zm12.59-5.7c0-4.28-2.44-6.71-6.29-6.71s-6 2.5-6.36 6.71zm12.78-18.11l8.32-.47v6.89h8.31v6.05h-8.31V39c0 4.39 1.13 5.46 4.57 5.46a11.89 11.89 0 0 0 4-.95l-.3 5.88a21.69 21.69 0 0 1-7.19 1.53c-6.12 0-9.38-2.85-9.38-8.32V25.2h-4.22v-6.06h4.22zm22.27 0l8.32-.47v6.89h8.31v6.05h-8.31V39c0 4.39 1.13 5.46 4.57 5.46a11.89 11.89 0 0 0 4-.95l-.3 5.88a21.69 21.69 0 0 1-7.25 1.48c-6.12 0-9.38-2.85-9.38-8.32V25.2h-4.22v-6.06h4.22zm26.55 23.81c.24 4.93 4 8 9.86 8a22.91 22.91 0 0 0 10-2.14l-.38 6.6a31 31 0 0 1-11.46 2c-12 0-17-7.48-17-16.09 0-9.68 5.88-16.39 15.62-16.39 10.69 0 15 8.08 15 18.11zm12.58-5.7c0-4.28-2.43-6.71-6.29-6.71s-6 2.5-6.35 6.71zm13.91-5.64h-4v-6.06h12.05a47.26 47.26 0 0 1-.53 7.13h.12c1.25-5.23 4.16-7.84 8.91-7.84a13.14 13.14 0 0 1 2.73.36l-.53 7.42a14.13 14.13 0 0 0-2.67-.3c-4.51 0-7.72 3.09-7.72 8.2v10h3.92v6.06h-15.67v-6.02h3.39z" id="Goalsetter_Logotype" data-name="Goalsetter Logotype"/></g><g id="Circle_Shape" data-name="Circle Shape"><g id="Circle_Shape-2" data-name="Circle Shape"><path class="cls-72" d="M57.65 11.08c.72 1.92 1.4 3.86 2 5.47 4.67 3.78 6.58 10.81 6.58 14.4 0 13.54-14.43 24.19-20.3 26.14C42.37 61 32.8 68.38 32.8 68.38 58.27 65 71.31 46.68 71.31 33.61c0-15.11-13-22.15-13.66-22.53z"/><path class="cls-72" d="M58 20.34L51.65 0c-2.17 1.3-6 3.73-9.46 5.87 3.53.91 9.58 3.95 15.81 14.47zM44.3 55.18C26.6 63 14.57 51.31 11.7 48c0 0 2.52 28.53 2.68 30.21zM7.81 23.92C-6.73 41.31 2.16 57.72 9.4 62.69l-.83-15s-5.3-9.46-.76-23.77z"/></g></g><g id="Ball_White_Edge" data-name="Ball White Edge"><path class="cls-73" d="M17.51 9l1.65-.5c8.25.77 15.24 7.59 15.24 7.59l-3.34 2.19c-5.15-2.71-10.19-4.15-20.85.91l-.45-.89c.33-.95 2.59-6.72 7.75-9.3z"/><path class="cls-73" d="M9.62 22.7L8.61 24c-1.3 2.82-.76 9.23 2 14.9.26 0 .8.14 1.14.18 6.7-11.91 17.76-19.66 17.76-19.66s-8.32-5.58-19.89 3.28zM33.39 4.5l.82.58c0 1.94 5.06 8.26 5.06 8.26L36.34 15s-8.22-7.3-12.71-8.44l-.14-.73S29.14 4 33.39 4.5zM37.57 6l.8-.12s5.73 2 7.32 3.66l.17.86s-3.24 1.26-5.1 2.22C37 8.76 37.57 6 37.57 6zm9.17 5.69l1 .16c3.43 2.41 5.49 8.57 5.49 8.57l-.33 1.24c-4.93-1.94-11.13-8-11.13-8s3.74-1.91 4.97-1.97zm-6.59 2.93a50.7 50.7 0 0 0 13.18 11.13l.71 1c1.48 7.51-3.87 14.53-3.87 14.53h-.5c-.93-13.39-12-25.06-12-25.06zM14.6 43c1.29-2.82 7.72-15.1 16.8-22.14 6.87 7.48-.07 22.79-3.4 29.14l-1.11.47c-2.87.31-9.95-3.46-12-6.08z"/><path class="cls-73" d="M32.51 50.25c10.26-21.87.49-30.59.49-30.59l2.88-2.18S47.25 28 46 44.74l-.57 1.32A22.84 22.84 0 0 1 33.19 51z"/><path class="cls-74" d="M29.55 19.43S18.37 27.31 11.79 39.1c-.35 0-.88-.13-1.14-.18a16.66 16.66 0 0 1-1.38-3.42C8.93 34.36 20 22.43 26.08 18.08a12.92 12.92 0 0 1 3.47 1.35z"/><g class="cls-75"><path class="cls-76" d="M8.61 24l1-1.32c11.57-8.85 19.93-3.26 19.93-3.26S18.49 27.18 11.79 39.1c-.35 0-.88-.13-1.14-.18C7.85 33.25 7.31 26.83 8.61 24z"/></g><path class="cls-77" d="M17.51 9l1.65-.5c8.25.77 15.24 7.59 15.24 7.59l-3.34 2.19c-5.15-2.71-10.19-4.15-20.85.91l-.45-.89c.33-.95 2.59-6.72 7.75-9.3z"/><path class="cls-78" d="M33.39 4.5l.82.58c0 1.94 5.06 8.26 5.06 8.26L36.34 15s-8.22-7.3-12.71-8.44l-.14-.73S29.14 4 33.39 4.5z"/><path class="cls-79" d="M37.57 6l.8-.12s5.73 2 7.32 3.66l.17.86s-3.24 1.26-5.1 2.22C37 8.76 37.57 6 37.57 6z"/><path class="cls-80" d="M46.74 11.69l1 .16c3.43 2.41 5.49 8.57 5.49 8.57l-.33 1.24c-4.93-1.94-11.13-8-11.13-8s3.74-1.91 4.97-1.97z"/><path class="cls-81" d="M40.15 14.62a50.7 50.7 0 0 0 13.18 11.13l.71 1c1.48 7.51-3.87 14.53-3.87 14.53h-.5c-.93-13.39-12-25.06-12-25.06z"/><path class="cls-82" d="M14.6 43c1.29-2.82 7.72-15.1 16.8-22.14 6.87 7.48-.07 22.79-3.4 29.14l-1.11.47c-2.87.31-9.95-3.46-12-6.08z"/><path class="cls-83" d="M32.51 50.25c10.26-21.87.49-30.59.49-30.59l2.88-2.18S47.25 28 46 44.74l-.57 1.32A22.84 22.84 0 0 1 33.19 51z"/></g><g id="Ball_Flat_Orange_Base" data-name="Ball Flat Orange Base"><path class="cls-84" d="M31.41 17.76c.93-.65 1.84-1.24 2.73-1.81-5.62-5-11-6.76-14.34-7.11l-2.22.68c-4.15 2.29-6.4 7.1-6.66 7.78.12.33.28.76.39 1.11 4.63-2.03 11.87-5.29 20.1-.65z"/><path class="cls-84" d="M29.21 19.45C26.27 18 19.45 16 10.34 22.89l-1 1.38C7.8 27.34 9.54 35 11 38.08c.28 0 .86.15 1.2.18a65.72 65.72 0 0 1 17.01-18.81zm2.5 1.89c-9.09 7.33-14.85 18.56-16.22 21.52l.28 1.52c2.29 2.54 7.91 5.33 10.73 5.66l1.83-.78c3.27-6.32 9.62-20.83 3.38-27.92z"/><path class="cls-84" d="M33.82 19.57c2.45 2.77 8 11.69-.09 29.75l1.05 1.1a21.7 21.7 0 0 0 10.67-4.61l.55-1.15c1-8.32-3-19.63-9.9-26.82zm20.32 7.58l-.92-1.33A51.64 51.64 0 0 1 40.4 15l-1.91 1.16c8.7 9.84 11.12 18.73 11.75 23.22l1.08.09c1.38-2.91 3.76-8.3 2.82-12.32zm-1.73-6.36l.49-1.17c-1.19-2.89-2.75-6-5-7.48l-.66-.14c-.37.06-1.17.13-4.47 1.75a43 43 0 0 0 9.64 7.04zm-6.86-10.61l-.15-.78c-1.65-1.32-4.49-2.4-6.6-3.15l-.51.08c0 1.7.85 3.54 2.91 5.77 1.7-.83 3.19-1.47 4.35-1.92zm-8.81 4.27c.8-.47 1.57-.89 2.32-1.28-3.56-4.7-4.55-6.36-4.82-7.64l-1.07-.76a27.91 27.91 0 0 0-8 1l.3.89c4.04 1.73 9.22 6.02 11.27 7.79z"/></g><g id="Ball_Base_Dark" data-name="Ball Base Dark" class="cls-85"><g class="cls-86"><path class="cls-87" d="M13.16 21a30.37 30.37 0 0 0-2.82 1.89l-1 1.38C7.81 27.66 9.54 35 11 38.08c.28 0 .86.15 1.2.18a62.38 62.38 0 0 1 5.34-7.64c-1-4.29-.78-5.62-4.38-9.62z"/></g><g class="cls-88"><path class="cls-89" d="M22.13 31.69a72.61 72.61 0 0 0-6.64 11.17l.28 1.52A22.46 22.46 0 0 0 26.5 50l1.83-.78a58 58 0 0 0 5.6-15.43c-2.87-2.4-4.82-3.97-11.8-2.1z"/></g><g class="cls-90"><path class="cls-91" d="M37.33 26.46c1.22 4.88 1.13 12.29-3.59 22.86l1.05 1.1a21.75 21.75 0 0 0 10.67-4.61l.54-1.15c.75-6.14-1.2-13.87-5-20.39-1.53.19-2 .14-3.67 2.19z"/></g><g class="cls-92"><path class="cls-93" d="M54.14 27.15l-.92-1.33a57.88 57.88 0 0 1-8.44-6.23c-1.46-.13-2 .75-2 2 5.31 7.62 7 14.13 7.49 17.79l1.08.09c1.34-2.8 3.74-8.47 2.79-12.32z"/></g><g class="cls-94"><path class="cls-95" d="M52.41 20.79l.49-1.17c-1.19-2.89-2.75-6-5-7.48l-.66-.14a10.33 10.33 0 0 0-2.57.86 6.12 6.12 0 0 0-.07 2.53 37.84 37.84 0 0 0 7.81 5.4z"/></g></g><g id="Ball_Base_Light" data-name="Ball Base Light"><g class="cls-96"><path class="cls-97" d="M31.41 17.76c.93-.65 1.84-1.24 2.73-1.81-5.62-5-11-6.76-14.34-7.11l-2.22.68a13 13 0 0 0-1.34.88 6.76 6.76 0 0 0-2.54 7c4.56-1.86 10.78-3.54 17.71.36z"/></g><g class="cls-86"><path class="cls-98" d="M29.21 19.45c-2.64-1.33-8.41-3-16.16 1.61a12.11 12.11 0 0 0 4.55 9.54 67.84 67.84 0 0 1 11.61-11.15z"/></g><g class="cls-88"><path class="cls-99" d="M31.71 21.34A56.75 56.75 0 0 0 21.43 32.7c5.37 3.81 8.75 2.12 12.43 1.57.92-4.87.71-9.68-2.15-12.93z"/></g><g class="cls-100"><path class="cls-101" d="M33.82 19.57c1.53 1.73 4.26 5.87 4.13 13.13 2.83-1.27 4-1.72 5.48-3.39a37.19 37.19 0 0 0-7.33-11.48z"/></g><g class="cls-102"><path class="cls-103" d="M46.84 21.34A42.93 42.93 0 0 1 40.4 15l-1.91 1.16a57.26 57.26 0 0 1 6.15 8.34c2.48-1.03 2.56-1.25 2.2-3.16z"/></g><g class="cls-104"><path class="cls-105" d="M38.8 6.25l-.51.08c0 1.7.85 3.54 2.91 5.77.59-.29 1.16-.56 1.7-.8-.74-2.61-1.5-4.24-4.1-5.05z"/></g><g class="cls-106"><path class="cls-107" d="M36.74 14.45c.8-.47 1.57-.89 2.32-1.28-3.56-4.7-4.55-6.36-4.82-7.64l-1.07-.76a28.32 28.32 0 0 0-8 1l.3.89c4.04 1.73 9.22 6.02 11.27 7.79z"/></g></g><g id="Bottom_Ball_Darker_Red_Overlay" data-name="Bottom Ball Darker Red Overlay" class="cls-108"><g class="cls-86"><path class="cls-109" d="M14.32 20.34a29.35 29.35 0 0 0-4 2.54l-1 1.38C7.82 27.45 9.54 35 11 38.08c.28 0 .86.15 1.2.18a62.94 62.94 0 0 1 7.47-10.13c-.26-3.47-2.8-6.07-5.35-7.79z"/></g><g class="cls-88"><path class="cls-110" d="M23.61 29.76a68.85 68.85 0 0 0-8.12 13.1l.28 1.52A23 23 0 0 0 26.5 50l1.83-.78c2.28-4.42 6.08-12.86 6-20-4.63-.87-9.52-.99-10.72.54z"/></g><g class="cls-90"><path class="cls-111" d="M37.46 27.25c1 4.88.74 12.05-3.72 22.07l1.05 1.1a21.89 21.89 0 0 0 10.67-4.61l.54-1.15c.74-6.07-1.23-13.76-5-20.23-.78.77-2.49 1.86-3.54 2.82z"/></g><g class="cls-112"><path class="cls-113" d="M54.14 27.15l-.92-1.33a57.56 57.56 0 0 1-9-6.7 9.44 9.44 0 0 0-1.5 2.48c5.31 7.62 7 14.13 7.49 17.79l1.08.09c3.76-7.83 3.12-11.08 2.85-12.33z"/></g><g class="cls-94"><path class="cls-114" d="M52.41 20.79l.49-1.17c-1.19-2.89-2.75-6-5-7.48l-.66-.14a14.72 14.72 0 0 0-2.77.94c-.58.26-.59 1.83 0 2.34a38.18 38.18 0 0 0 7.94 5.51z"/></g></g><g id="Bottom_Ball_Black_Overlay" data-name="Bottom Ball Black Overlay" class="cls-115"><g class="cls-86"><path class="cls-116" d="M8.73 26.85A29.05 29.05 0 0 0 11 38.08c.28 0 .86.15 1.2.18a61.82 61.82 0 0 1 3.71-5.55c.46-2.14-1.19-6.89-7.18-5.86z"/></g><g class="cls-88"><path class="cls-117" d="M21 33.27a67.15 67.15 0 0 0-5.54 9.59l.28 1.52c2.26 2.46 7.9 5.3 10.76 5.62l1.83-.78a59.8 59.8 0 0 0 5.44-14.55c-5.36-4.06-9.14-1.04-12.77-1.4z"/></g><g class="cls-90"><path class="cls-118" d="M37.92 34a45.27 45.27 0 0 1-4.19 15.32l1.05 1.1a22 22 0 0 0 10.67-4.61l.55-1.15a31.87 31.87 0 0 0-2.57-15.41c-1.2 1.06-4.49 2.66-5.51 4.75z"/></g><g class="cls-119"><path class="cls-120" d="M54.14 27.15l-.92-1.33A60.38 60.38 0 0 1 48 22.23a43.87 43.87 0 0 1-2.07 4.48 38.52 38.52 0 0 1 4.34 12.67l1.08.09c.88-2.01 3.87-8.22 2.79-12.32z"/></g><g class="cls-94"><path class="cls-121" d="M52.41 20.79l.49-1.17a30.9 30.9 0 0 0-1.91-4c-.86-1.45-3.92 1.85-1.64 3.36a25.66 25.66 0 0 0 3.06 1.81z"/></g></g><g id="Extra_Black_Top_Right" data-name="Extra Black Top Right" class="cls-122"><g class="cls-94"><path class="cls-123" d="M52.41 20.79l.49-1.17c-1.19-2.89-2.75-6-5-7.48l-.66-.14c-.37.06-1.32.19-4.47 1.75a43 43 0 0 0 9.64 7.04z"/></g><g class="cls-104"><path class="cls-124" d="M45.55 10.18l-.15-.78c-1.65-1.32-4.49-2.4-6.6-3.15l-.51.08c0 1.7.85 3.54 2.91 5.77 1.7-.83 3.19-1.47 4.35-1.92z"/></g></g><g id="Ball_Hotspot" data-name="Ball Hotspot" class="cls-125"><g class="cls-96"><path class="cls-126" d="M31.41 17.76c.93-.65 1.84-1.24 2.73-1.81-5.62-5-11-6.76-14.34-7.11l-2.22.68a15.94 15.94 0 0 0-5.89 6.28c-.24.43-.51 1-.76 1.5.12.33.28.76.39 1.11 4.62-2.03 11.86-5.29 20.09-.65z"/></g><g class="cls-86"><path class="cls-127" d="M29.21 19.45c-2.69-1.36-8.64-3.09-16.62 1.89-2.11 2.32.19 9.34 3.75 10.85a67.39 67.39 0 0 1 12.87-12.74z"/></g><g class="cls-88"><path class="cls-128" d="M31.71 21.34A59.2 59.2 0 0 0 19.88 35c3.34 4.84 11 5 13.61 1 1.31-5.46 1.41-11-1.78-14.66z"/></g><g class="cls-129"><path class="cls-130" d="M33.82 19.57c1.56 1.77 4.4 6.12 4.11 13.63 1.15 1.3 6.68 1.22 6.14-2.2a38.17 38.17 0 0 0-8-13.15z"/></g><g class="cls-131"><path class="cls-132" d="M46.84 21.34A42.93 42.93 0 0 1 40.4 15l-1.91 1.16A57.61 57.61 0 0 1 45 25.13c2.16.78 4.36-1.76 1.84-3.79z"/></g><g class="cls-94"><path class="cls-133" d="M45 12.68q-1.13.5-2.21 1c.67.63 1.38 1.25 2.1 1.87a1.87 1.87 0 0 0 .11-2.87z"/></g><g class="cls-104"><path class="cls-134" d="M40.41 6.86l-1.61-.61-.51.08c0 1.7.85 3.54 2.91 5.77.9-.44 1.74-.82 2.5-1.16s-1.5-3.39-3.29-4.08z"/></g><g class="cls-106"><path class="cls-135" d="M36.74 14.45c.8-.47 1.57-.89 2.32-1.28-3.56-4.7-4.55-6.36-4.82-7.64l-1.07-.76a20.69 20.69 0 0 0-4.57.32 34.48 34.48 0 0 0-3.42.69l.3.89c4.03 1.72 9.21 6.01 11.26 7.78z"/></g></g><g id="Ball_Edge_Bevel" data-name="Ball Edge Bevel"><g class="cls-136"><path class="cls-137" d="M39.94 16a51.64 51.64 0 0 0 12.81 10.83l.92 1.33a11.5 11.5 0 0 1 0 4.48 20.44 20.44 0 0 1-.46 2.1l.45-1.15a17.64 17.64 0 0 0 .48-2 11.5 11.5 0 0 0 0-4.48l-.92-1.33A51.64 51.64 0 0 1 40.4 15z"/></g><g class="cls-138"><path class="cls-139" d="M52.41 20.79l.49-1.17c-1.19-2.89-2.75-6-5-7.48l-.66-.14a7 7 0 0 0-1.07.27l1.15.41 1.8 1.8 1.29 2.1z"/></g><g class="cls-140"><path class="cls-141" d="M13.61 12.94a14.32 14.32 0 0 1 4-3.41l2.22-.68a19.32 19.32 0 0 1 4.5 1.07s-3.34-.39-4.6-.51l-2.22.68a32.19 32.19 0 0 0-3.9 2.85z"/></g><g class="cls-142"><path class="cls-143" d="M28.21 20.22c-2.41-1.05-8.85-3.77-18 3.08l-1 1 1-1.37c9.24-6.93 16.06-4.93 19-3.48z"/></g><g class="cls-144"><path class="cls-145" d="M16 43l.25 1.8-.44-.46-.28-1.52c.5-1.08 1.31-2.7 2.5-4.76C18 38.1 16.47 42 16 43z"/></g><g class="cls-146"><path class="cls-147" d="M34.32 49.12l1.16 1.2-.69.1-1.05-1.1A53.79 53.79 0 0 0 37 40a55.67 55.67 0 0 1-2.68 9.12z"/></g><g class="cls-148"><path class="cls-149" d="M35.62 19.13c6.9 7.19 10.86 18.37 9.85 26.68l.53-1.15c1-8.32-3-19.47-9.83-26.76z"/></g></g></g></g></g></svg>