<svg xmlns="http://www.w3.org/2000/svg" viewBox="0 0 340.93 171.75"><defs><style>.cls-1{fill:#231f20}</style></defs><title>brand-rage</title><g id="Layer_2" data-name="Layer 2"><g id="Layer_1-2" data-name="Layer 1"><path class="cls-1" d="M85 0c24.3-.17 54.76 3.93 56 27.38.52 8.9-5.81 22.77-13.17 29.1-21.39 18.32-84 20.2-84.55 25.33-.51 4.11 69 22.43 73.77 34.92.86 2.39 2.4 19.85 0 21.56-5.31 3.76-81.64-42.44-86.43-37.65-4.28 4.27-20.2 38.16-28.93 36.11-8.38-1.88 17.63-35.43 17.46-42.61 0-3.43-7.53-2.23-7.36-4.63.35-7 4.62-11.12 10.45-14.89 4.45-2.91 10.44-1.37 13.52-4.28 8-7.7 28.07-37.32 26.36-40.73-.69-1.54-23.28 2.56-24.3 4.79-1.2 2.74 2.05 3.94 1 5.31-2.24 3.08-33.39 3.29-33.9 1.71-1.54-5 1-17.29 7.88-24.3C20.84 8.91 53.87.35 85 0zM70.81 38.68C60.37 58.37 62.6 50.5 55.76 63.5c-3.43 6.5 72.73-16.43 72.56-30.29-.17-10.78-49-10.44-52.54-5.65-2.57 3.6-1.38 4.44-4.97 11.12z"/><path class="cls-1" d="M189.87 57.86c3.43.52 8.22 7.53 7.36 10.44-.68 2.57-3.25 4.28-3.08 5.82.17 1.88 1 4.79.86 7.87-.69 11.47-18.14 25.67-10.27 32.69 5.65 5.13 22.25-8.9 22.25-8.38v6c0 .85-26.18 34.23-38.51 21.73-5.82-6 .69-21.05-.34-21.56-2.4-1.55-21.05 21.56-28.92 21.56-5.82 0-15.06-13.86-14.72-25.33 1.2-30.65 60.42-51.53 65.37-50.84zm-37.14 34.4c-9.93 6.5-18.31 19.69-13.35 25.33 3.94 4.61 14.72-7.19 22.25-14 8.9-8 21.91-22.08 19.34-24.13-1.36-1.07-18.82 6.63-28.23 12.8z"/><path class="cls-1" d="M268.52 65c-4.45 10.44-29.26 14.2-43 29.95-4.11 4.79-6.85 10.44-3.94 15.75 4.28 8 20.36-8 26.69-14.55 8.39-8.73 18.32-27.38 24.14-24.48 12.83 6.34-11 42.28-7.36 42.28 2.4 0 15.41-10.79 15.41-10.44v6.5c0 .34-25.84 23.28-29.61 25.85-2.57 1.71-.34 7.7-9.41 18.14-7.71 8.9-21.22 21.22-25.33 16.77-4.62-5.13 3.77-17.28 10.27-26 4.62-6.33 13-10.26 15.4-13.86s11.13-20.54 9.41-21.73-20.67 21.07-31.61 18.82c-7-1.37-13.87-14.72-13.87-21.91C205.53 85.92 242 60.77 259.79 58c4.45-.66 10.1 3.62 8.73 7z"/><path class="cls-1" d="M330.15 58c9.58.17 10.78 5.31 10.78 7.88-1 22.59-37.14 36.28-42.62 39.88-3.59 2.23-.69 13.69 12.49 14 12.15.17 29.6-18 29.6-17.11v7.53c0 .86-22.59 27-42.1 26.7-15.24-.17-20.37-18.82-20.2-28.41.7-33.16 41.09-50.61 52.05-50.47zm-29.27 36.14c1.71 1.71 11.81-5.65 17.8-11.29 4.28-4.11 8.9-11.13 7-13.35-.86-1.2-10.1 3.77-14.89 8.22-5.46 4.95-11.62 14.71-9.91 16.42z"/></g></g></svg>