<svg xmlns="http://www.w3.org/2000/svg" viewBox="0 0 694.89 189.99"><defs><style>.cls-1{fill:none}</style></defs><title>brand-cue-and-case</title><g id="Layer_2" data-name="Layer 2"><g id="new"><path d="M46.62 111.71h37.17l-.08 48.94c0 30.82-83.71 40-83.71-4.94V29.9c0-39.57 83.79-39.54 83.79-.74l-.08 40H46.62l.1-33.62c0-8-10.13-8.09-10.13.26 0 26.77.25 106 .25 115.91 0 8.41 9.79 8.14 9.79-.06zm355.07 0h37.18l-.08 48.94c0 30.82-83.71 40-83.71-4.94V29.9c0-39.57 83.79-39.54 83.79-.74l-.08 40h-37.1l.1-33.62c0-8-10.13-8.09-10.13.26 0 26.77.25 106 .25 115.91 0 8.41 9.79 8.14 9.79-.06zm-263.77 39.18c0-4.73.25-146 .25-146h36.58v153.29c0 37.85-84 38.25-84 0V4.93h37.05s.24 140.83.24 146c-.04 8.07 9.88 7.69 9.88-.04zM249.89 32.87V4.93h-68.22v178.96l66.54.08.02-28.01h-29.14V98.61h29.12v-27.9l-29.12-.03.01-37.81h30.79zm445 0V4.93h-68.22v178.96l66.54.08.02-28.01h-29.14V98.61h29.12v-27.9l-29.12-.03.01-37.81h30.79zM513.38 5.68h-47.21L439 184.63h33.37l5.68-48a138.77 138.77 0 0 1 14.34 0l3.71 47.7h39.05zM481.74 108.5l4.7-57.59 3.71 57.59zm100.31-70.15v33.09h37.12V29.71c0-34.93-76.27-39.14-84.27-2.14-.34 1.56-1.48 33.85 1.24 41.64 8.65 24.72 28.09 29.77 37.08 44.24a64.57 64.57 0 0 1 9.89 29.66c.43 6.57.9 16.28-4.82 16.28s-5.13-6.71-5.13-11.58c0-9.25.06-34.36.06-34.36h-37.4s.05-.08.05 40.78c.84 45.49 77 44.17 84.59 6.24 1.5-7.5-1.32-44.34-6.23-53.95C609.14 96.58 602.29 90.23 593 82s-20.92-15.58-20.92-44c.05-8.51 9.97-8.53 9.97.35z"/><path class="cls-1" d="M288.65 148.55c.12 4.33 2 7.29 5.38 8.57s8.32.67 12.26-2.44c-3.31-5.95-11.64-21.65-17.65-33 0 12.11.01 26.69.01 26.87zm3.24-85.47a5 5 0 0 0 4.35 0c.6-.34.6-.6.6-.92V33.63a5.17 5.17 0 0 0-5.5.12v28.38a.89.89 0 0 0 .55.95z"/><path d="M302.51 62.13V33.75c0-8.86-16.85-8.54-16.85 0v28.38c0 9.59 16.85 9.38 16.85 0zm-11.18-28.38a5.17 5.17 0 0 1 5.5-.12v28.5c0 .32 0 .58-.6.92a5 5 0 0 1-4.35 0 .89.89 0 0 1-.56-1zm-4.38 72.54c-.37-.74-4-.23-4 1.19v41.2c.44 16.5 19.42 19 29.18 8.36.72-.78 1.1-1.68.09-3.37-2.98-5-25.27-47.38-25.27-47.38zm7.05 50.83c-3.4-1.27-5.26-4.24-5.38-8.57v-26.9c6 11.37 14.34 27.08 17.65 33-3.93 3.14-8.9 3.72-12.27 2.47z"/><path d="M349.4 152.55a20 20 0 0 1-3-.16c0-.32-.09-.76-.12-1.42-.11-2.54-.17-4.47-.17-6a36.65 36.65 0 0 1 .79-8c.38-2.08.85-4.66 1.36-8.87v-.35l-.12-44H314v18.14l-7.65-14.11.79-.41c8.13-4.21 21.73-11.27 25.86-24.56a59.91 59.91 0 0 0 2.21-17.28c0-12.29-2.58-24.94-5.72-30.31C322.52 3.33 304.62-.9 290 .16c-16.41 1.19-29 8.68-33.57 20-2.76 6.74-3.43 17.93-3.43 25.59a66.5 66.5 0 0 0 .33 7.59c1.75 12.4 4.82 18.28 10.23 25.59a33.19 33.19 0 0 0-15.1 20.6c-1.44 5.48-2.17 14.27-2.17 24 0 18.42 2.66 40 8.23 48.18 14.76 21.57 49.48 23 71.47 10 4.81 5 12.24 5 20.08 4.9l9-.06v-34zm0 28.38c-9.5 0-16.87.79-20.25-4.21-1.07-1.58-3-1.75-5-.5-20 12.51-52 11.25-65-7.75C252 158 249.9 116.22 253.9 101c4.31-16.45 18.45-19.82 18.45-19.82-8.11-10.36-11.49-14.78-13.45-28.59-.52-3.68-.62-22 2.74-30.21 9-22.22 53.26-20.83 62.93-4.38 4.08 7 7.14 29.69 3 43-4.57 14.8-24.33 20.92-28.84 24.63l14.92 27.5c1.51 2.41 6 2.08 6-.67V89.38h22.92l.1 38c-1.52 12.37-2.63 10.26-2 23.81.25 5.56 1.63 7 8.75 7z"/><path class="cls-1" d="M340.65 151.22c-.61-13.55.5-11.44 2-23.81l-.1-38h-22.9v23.08c0 2.75-4.49 3.08-6 .67l-14.92-27.5c4.51-3.71 24.25-9.83 28.82-24.54 4.15-13.35 1.09-36.08-3-43-9.65-16.57-53.91-17.96-62.91 4.22-3.35 8.26-3.26 26.53-2.74 30.21 2 13.81 5.34 18.23 13.45 28.59 0 0-14.13 3.38-18.45 19.82-4 15.25-1.94 57 5.25 67.5 13 19 45 20.26 65 7.75 2-1.25 3.93-1.08 5 .5 3.38 5 10.75 4.21 20.25 4.21v-22.7c-7.13 0-8.5-1.44-8.75-7zm-55-117.46c0-8.54 16.85-8.86 16.85 0v28.37c0 9.38-16.85 9.59-16.85 0zm3 73.73zm23.5 49.51c-9.75 10.61-28.74 8.14-29.18-8.36v-41.2c0-1.42 3.61-1.93 4-1.19 0 0 22.29 42.38 25.29 47.38 1 1.74.61 2.63-.11 3.37z"/></g></g></svg>