<svg data-name="Layer 1" xmlns="http://www.w3.org/2000/svg" viewBox="0 0 159.75 194.01"><title>brand-bear</title><path d="M48.97 174.64l4.21.01-1.31-3.26-2.9 3.25zm51.2-19.33c-2.13.06-3.19.45-3.76 2.59l-.84 3.1a2.55 2.55 0 0 0 .08 2.1c.45.64 1.41.72 2.44.76h3c2.79 0 3.25-.73 4.18-4.14l1.21-4.38h-6.31zM72 149.25c.41-1.54.16-2.16-1.26-2.16h-5.3c-1.42 0-2 .63-2.46 2.16l-1.45 5.28h9zm63.48 15.66a2.26 2.26 0 0 0-2.06 1.91 1.51 1.51 0 0 0 1.42 1.92 2.25 2.25 0 0 0 2.06-1.91 1.5 1.5 0 0 0-1.42-1.92zm.06 2c.2 0 .31.24.3.61a2.4 2.4 0 0 0 0 .62h-.4a1.6 1.6 0 0 1 0-.64c0-.32-.14-.45-.45-.45h-.27l-.19 1.09h-.38l.43-2.52a4.4 4.4 0 0 1 .7-.06 1.11 1.11 0 0 1 .71.19.53.53 0 0 1 .14.52.77.77 0 0 1-.6.6z"/><path d="M135.18 165.86h-.28l-.14.85h.24c.32 0 .61-.12.67-.43s-.04-.42-.49-.42zm-71.29 5.56h-4.23l-.56 2.2h4.23a1 1 0 0 0 .8-.24 1.11 1.11 0 0 0 .22-.45l.2-.83c.12-.45-.1-.68-.66-.68zm40.53.08h-4.23l-.54 2.2h4.23a.79.79 0 0 0 1-.69l.22-.82c.11-.46-.1-.69-.68-.69zm-70.47-16.27H27l-2.3 8.37h6.91c1.5 0 2-.25 2.43-1.75l1.38-4.85c.4-1.52.03-1.77-1.47-1.77z"/><path d="M156.51 7.07S123.48 0 79.94 0 3.24 7.08 3.24 7.08A4.38 4.38 0 0 0 0 11.22v160.13S31.78 194 79.74 194s80-22.66 80-22.66V11.22a4.39 4.39 0 0 0-3.23-4.15zM62.67 163.36h18a5.58 5.58 0 0 0 .66 4.21 3.74 3.74 0 0 0 1.16 1H52.82c-5.78 0-6.75-2.5-5.23-8.08l2.9-10.58c1.52-5.57 3.85-8.08 9.64-8.08h20.56c1.8.15 3 .63 3.64 1.5a3.9 3.9 0 0 1 .63 2.35 15 15 0 0 1-.63 3.78s-.81 3-1.55 5.62l-.22.79c-1.29 3.59-5.85 3.82-6.5 3.83H60.69l-.23.86c-.46 2 .14 2.8 2.21 2.8zm87.2-38.77a3.39 3.39 0 0 1-3.31 3.45H99.88a3.82 3.82 0 0 0-.61-.73 5.86 5.86 0 0 0-1.92-1.36 1.32 1.32 0 0 1-.11-1c.13-.73 4.15-17.48 5.22-21.94s2-7.44 2.22-10.63c.23-3.37-1-12.3-1-12.3a3.78 3.78 0 0 0-.77 1 13 13 0 0 0-1 5.69 44.28 44.28 0 0 1 .06 6.26c-.29 1.86-2.66 11.62-3.75 16.31-.95 4.13-3.4 15.91-4 18.75H80.24a118 118 0 0 1 .49-18.24 60.07 60.07 0 0 1 5.76-20.08 42.92 42.92 0 0 0-4.26 8.15 64.22 64.22 0 0 0-2.69 10.23 35.23 35.23 0 0 1-6 3.56 25.23 25.23 0 0 1-6.9 2.26L70.57 128H49a18.78 18.78 0 0 1-5.73-9.79 64.68 64.68 0 0 1-1-28.21 65.5 65.5 0 0 0-2.5 13.81c-.41 8.59 1 10.71 1.11 14.55a79.78 79.78 0 0 1-.79 9.64H33c-1.3-2.74-11.39-24.73-9.34-41.83 2.16-18 11.21-26.05 15.6-27.32 4.22-1.22 5.83 1 5.83 1a39.36 39.36 0 0 0 4.42-5.61c2.66-4.09 2-7.12 4-11.21a60 60 0 0 1 3.69-6.23.54.54 0 0 0-.46.17 19.56 19.56 0 0 0-1.46 1.47 64.59 64.59 0 0 1-7.81 7.79 65.4 65.4 0 0 1-6.71 5.26 49.16 49.16 0 0 0-4.64 3.05c-2 1.57-18.65 14.57-16.38 40.54C21 109.31 25.89 122 28.55 128H13.19a3.39 3.39 0 0 1-3.31-3.45V23.35a4.41 4.41 0 0 1 3.24-4.16S41.33 13 79.94 13s66.69 6.18 66.69 6.18a4.41 4.41 0 0 1 3.24 4.16zM36 168.74H10.52a13.61 13.61 0 0 0 2.43-5.34l5.57-20.4c.82-3 .75-4.13.5-5.35H44.5c6.55 0 7.34 2.63 6.31 6.42l-1 3.55c-1.07 3.93-3.69 4.62-8.11 5v.09c5 .64 6.42 1.21 5.52 4.53l-1.41 5.15c-1.04 3.73-3.27 6.35-9.81 6.35zm18.23 8.48l-.63-1.6h-5.51l-1.42 1.6h-1.49l6.29-6.8h1.35l3 6.82zm11.92-5.49l-.38 1.53a1.77 1.77 0 0 1-2 1.3h-1.06l2.83 2.68h-2L61 174.56h-2.13l-.67 2.67h-1.51l1.71-6.81h6.39c1.12 0 1.56.45 1.35 1.31zm10.22.32l-.16.64-1.57.21.38-1.46h-5.55l-1.21 4.82h5.54l.4-1.62 1.46.24-.2.8a2 2 0 0 1-.74 1.25 3 3 0 0 1-1.61.32h-4.68a2.07 2.07 0 0 1-1.45-.34c-.21-.21-.23-.64-.08-1.28l.89-3.58a2.13 2.13 0 0 1 .73-1.29 2.92 2.92 0 0 1 1.62-.33h4.66a2.24 2.24 0 0 1 1.47.33c.21.24.25.66.09 1.29zm9.7 5.23h-1.53l.77-3H79l-.76 3h-1.5l1.7-6.79h1.5l-.67 2.72h6.31l.68-2.73h1.5zm9.86 0h-8.08l1.7-6.81h8l-.25 1h-6.5l-.42 1.73h3.89l-.25 1h-3.9l-.5 2h6.55zm10.74-5.48l-.38 1.52c-.21.86-.88 1.29-2 1.29h-1l2.84 2.68h-2l-2.49-2.68h-2.22l-.68 2.67h-1.51l1.7-6.81h6.39c1.12.03 1.57.47 1.35 1.35zm5.5 2.53l-.74 3h-1.51l.74-3-3.18-3.85h1.83l2.43 3 3.74-2.94h1.76zm25.13-7.54a2.7 2.7 0 0 1-2.53 2.26 1.81 1.81 0 0 1-1.76-2.26 2.71 2.71 0 0 1 2.53-2.26 1.81 1.81 0 0 1 1.76 2.29zm11.7-23.21a7.73 7.73 0 0 1-7.7 5.83c-4.9 0-6.13.9-7.11 4.48l-3.94 14.69H88.49c-5.78 0-6.73-2.49-5.21-8.05l.52-1.92c1.51-5.56 3.83-8.06 9.62-8.06h11.72c1.8 0 2.21-.48 2.64-1.7s.56-1.7.56-1.7H86.75a5.82 5.82 0 0 0-.7-4.26 3.73 3.73 0 0 0-1.05-1h28.93c6.15 0 7.86 2.72 5.87 10L117 162.2c-.07.32-.57 2.71-.07 3.63.24.44.71.34 1.41-1.39.21-.57.41-1.23.63-2l3.92-14.44c1-3.69.65-4.76.26-6.12l13.17.06-.52 2.06a12.53 12.53 0 0 1 7.27-2.12h6.35z"/><path d="M37.35 142.79h-6.9l-2 7.29h6.9c1.5 0 2-.24 2.42-1.75l1-3.79c.46-1.54.08-1.75-1.42-1.75zm92.86-94.32c1.2-.8 2.52-1.56 3.6-2.16a11.16 11.16 0 0 1 1.09 3.36 15.79 15.79 0 0 0 .85-4.41l.21-.1s.59.07 1.07 1.12a10.8 10.8 0 0 1 .63 2.25 12.27 12.27 0 0 0 .81-4.75 5 5 0 0 0-.67-2.8 22.53 22.53 0 0 1-3.12 2.11 51.67 51.67 0 0 0-4.79 2.83 6.67 6.67 0 0 0-2.89 5.66 15 15 0 0 0 .7 4.21 14.77 14.77 0 0 0 4.53 2.09 8.37 8.37 0 0 0 5.18 0 3.7 3.7 0 0 0 .83-1.71 6.87 6.87 0 0 0-.09-2.7 5.3 5.3 0 0 1-.76 1.62 4.61 4.61 0 0 1-.92.9 1.64 1.64 0 0 0-.29-.19l-.27-.14a2.66 2.66 0 0 0 .29-1.35 3.08 3.08 0 0 0-.17-1.21 3.28 3.28 0 0 1-.77 1.63 2.83 2.83 0 0 1-1 .71 11.33 11.33 0 0 1-3.43-.84 12.83 12.83 0 0 1-2.72-1.3 1.28 1.28 0 0 1-.54-.67 2 2 0 0 1-.08-.84c.02-.14.18-1.64 2.72-3.32zm-2.09 10.29a32.62 32.62 0 0 0-5.49 1.81c-2.8 1.23-5.56 3.7-9.55 4.52-5 1-6.42-.1-8.65-.74a20.32 20.32 0 0 0-2.95-.61 22.6 22.6 0 0 1 .3 4.67c-.18 2.06-.34 3.63-1.55 5.26a19.52 19.52 0 0 0-3 5.15 17.34 17.34 0 0 0-.82 4.89.36.36 0 0 0 .35.4s2.32-5.43 9.06-10.52a117.22 117.22 0 0 1 11.14-7 56 56 0 0 1 7-4.06c6.28-2.53 8.04-1.96 8.04-1.96s-1.17-.68-2.06-1.08-1.82-.73-1.82-.73zm10.45-29.36c-1.63-.28-5.16 2.25-10.24 2s-8.41-2.25-11.55-3.46a11.25 11.25 0 0 0-4.91-.75c-4.37.52-7.72 4.24-7.94 4.52s0 .36 0 .36a13.57 13.57 0 0 1 6.77-1.68 26.5 26.5 0 0 1 9.21 2.43 18.35 18.35 0 0 0 8.46 2.24c6.34 0 8.28-2.45 10.17-2a2.23 2.23 0 0 1 1.66 2.21c.07 1.89-.13 2.42.29 2.42s.63-2.64.4-4.81-.95-3.24-2.32-3.48zM98 31.06a5.81 5.81 0 0 1 3.44 1.87 15.38 15.38 0 0 1 .94-2.1 8.23 8.23 0 0 1 1.24-1.9s-3.27-2.62-9.15-.61c-4.75 1.62-7.09 5.15-11.32 5.15-3.37 0-6-1.87-8.61-2.57a11.29 11.29 0 0 0-9.25 1.53 21.35 21.35 0 0 0-3.5 2.88.22.22 0 0 0 0 .26s4-2.44 11.57-1.35c2.85.41 6.7 2.75 10.14 2.74 3.06 0 6.17-2.69 7.73-3.6 1.84-1.06 4.68-2.57 6.77-2.3z"/></svg>