<svg id="Layer_1" data-name="Layer 1" xmlns="http://www.w3.org/2000/svg" viewBox="0 0 324.22 120.96"><defs><style>.cls-1{fill:#231f20}</style></defs><title>brand-dmi</title><path class="cls-1" d="M22.48.22l-3.7 13.12H52l21 24.6h46.86S121.91 5.28 84.14.22zM0 86l4.14-16.5h45.55l25.09-24.6h44.3S122.19 79.08 66 86zm232.18-46.38h28.14l7.56-39.4h-48.17L200.83 32.6h-12.68L182.22.22h-46.59l-7.89 38.31h14.91a6.15 6.15 0 0 1 4.41-3.86h80.44s4.68 2.34 4.68 5zM197.35 86.1l20.19-35.38h5.93L216 85.61h34.45l9.1-41.61-27.38-.11c-.54 2.72-5.06 4.79-5.06 4.79h-80.43a6.12 6.12 0 0 1-4.41-3.86h-14.92l-1 .11-8.27 40.6h32.87l6.48-34.89h6.48L170 85.77l27.32.33zm87.73-42.23L267.5 44l-8.76 41.8h39.73L314.52 0H276.2L268 39.57l17.63.05s5.17 1.85-.54 4.24zm-244.7 76.51h15.93c12.14 0 18.17-6.88 20.18-11.65 1.78-4.21 1.92-10.59-10.46-10.59H49.79l-9.4 22.24M55.69 102h7.38c3.27 0 8.22.53 5.44 7.09A12.07 12.07 0 0 1 57 116.53h-7.46L55.69 102m45.63 13.82h13.57l.41 4.59h8.35l-3.56-22.24h-8.86l-22.51 22.21h8.1l4.5-4.59m12.1-12.64h.1l.84 8.8H105l8.42-8.8m29.39 17.23h7.53l3.68-8.7h7.94c5.68 0 5.49 1.17 4.21 4.21a9.59 9.59 0 0 0-1.08 4.49h8.51l.25-.6c-1.49-.37-1.15-1.17.23-4.42 1.76-4.15.41-4.83-2.27-5.63 3.95-.75 6.89-2.86 7.92-5.3.82-1.92.87-6.29-8.91-6.29H152.2l-9.4 22.24m12.79-12.45l2.51-6h9.58c4.51 0 4.65 1.74 4.15 2.91-.93 2.2-3.23 3-7.23 3h-9m56.72-5.86h11.1l1.66-3.93h-29.9l-1.66 3.93h11.11l-7.74 18.31h7.68l7.74-18.31m23.16 11.46c-1.17 2.75-.85 7.44 12.57 7.44 3.23 0 14.75-.59 17.58-7.28 1.69-4-2.4-5.23-7.1-6l-8.4-1.33c-1.45-.22-3.64-.59-2.91-2.33.85-2 4.6-2.67 7.53-2.67 6.7 0 6.32 2.36 6.11 3.35h7.38c1.11-2.72 0-7.18-11.3-7.18-11.93 0-16 4.37-17 6.85-2.07 4.89 3.33 5.69 8.92 6.53l3.71.55c3.66.56 6.22 1 5.49 2.76-1 2.35-5.26 2.88-8.9 2.88-6.7 0-6.74-2.35-6.27-3.59h-7.36M314.45 71a10 10 0 0 1 4.82 1.25 9.09 9.09 0 0 1 3.63 3.6 9.72 9.72 0 0 1 0 9.75 9.13 9.13 0 0 1-3.61 3.6 9.8 9.8 0 0 1-9.73 0 9.15 9.15 0 0 1-3.61-3.6 9.75 9.75 0 0 1 0-9.75 9.08 9.08 0 0 1 3.62-3.6 10 10 0 0 1 4.88-1.25zm0 1.93a8 8 0 0 0-3.86 1 7.3 7.3 0 0 0-2.91 2.88 7.79 7.79 0 0 0 0 7.82 7.38 7.38 0 0 0 2.9 2.89 7.83 7.83 0 0 0 7.8 0 7.44 7.44 0 0 0 2.9-2.89 7.79 7.79 0 0 0 0-7.82 7.25 7.25 0 0 0-2.97-2.81 8 8 0 0 0-3.87-1zm-4.42 13V75.66h5.43a4.12 4.12 0 0 1 1.63.41 2.63 2.63 0 0 1 1 1 2.88 2.88 0 0 1 .39 1.47 2.75 2.75 0 0 1-.73 1.91 3.33 3.33 0 0 1-2 1 2.72 2.72 0 0 1 .73.39 5.56 5.56 0 0 1 .7.79c.07.11.33.52.76 1.26l1.2 2.07h-2.61l-.85-1.67a6.68 6.68 0 0 0-1.45-2.12 2.35 2.35 0 0 0-1.46-.43h-.55v4.22zm2.11-5.84h.86a10.45 10.45 0 0 0 2.25-.14 1.3 1.3 0 0 0 .94-1.27 1.24 1.24 0 0 0-.25-.76 1.4 1.4 0 0 0-.7-.48 10.6 10.6 0 0 0-2.24-.14h-.85z"/></svg>