<svg id="Layer_1" data-name="Layer 1" xmlns="http://www.w3.org/2000/svg" viewBox="0 0 739.22 101.23"><defs><style>.cls-1{fill:#6e499c}.cls-2{fill:#be268e}.cls-3{fill:#00adee}.cls-4{fill:#ee61a2}.cls-5{fill:#ed782f}.cls-6{fill:#ef4f35}.cls-7{fill:#f1d90d}.cls-8{fill:#8fc63e}.cls-9{fill:none;stroke:#be268e;stroke-miterlimit:10;stroke-width:2.39px}</style></defs><title>brand-woodplay</title><path class="cls-1" d="M0 0l21.74 100.69h28.61L69.8 58.36l8.01 42.33h27.46L138.46 0h-28.61L96.12 50.35 82.39 27.46l-29.75-2.29-16.02 40.05L21.74 0H0z"/><path class="cls-2" d="M481.95 4.57h27.47l-1.79 72.46 53.28-1.79v25.99h-78.96V4.57z"/><path class="cls-3 hoverHide" d="M631.07 6.35l24.03 45.42v49.34h27.1V54.63l28.6-47.48h-30.39l-10.37 27.1L655.1 5l-24.03 1.35z"/><path class="cls-4" d="M326.84 4.57v96.13s74.38 9.14 74.38-48.06-74.38-48.07-74.38-48.07zm54.06 47.56C379.75 75 347.85 77 347.85 77l1.79-47.64s32.36-.11 31.26 22.77z"/><path class="cls-5" d="M621.55 2.29L579.22 4l-12.59 97.2h21.74l6.87-36H605l7.44 35.47h30.89zm-26 43l3.57-20h7.66l1.79 20z"/><path class="cls-6" d="M272.05 4.57c-65.22 0-73.23 96.13 5.72 96.13 64.08-.01 53.78-96.13-5.72-96.13zm-.92 67.78c-24 0-23.47-35.16 0-35.58s27.47 35.58 0 35.58z"/><path class="cls-7 hoverHide" d="M271.13 36.77c-23.47.42-24 35.58 0 35.58 27.47 0 23.47-36.01 0-35.58z"/><path class="cls-8" d="M407.08 4v96.66h24v-39.1s45.79 3.66 45.79-29.56S456.27.63 407.08 4zm47.69 29c-2.3 17.46-23.62 8.85-23.62 8.85V24.17s25.92-8.6 23.61 8.83z"/><path class="cls-3" d="M431.15 24.17v17.7s21.31 8.61 23.62-8.85-23.62-8.85-23.62-8.85zM172.07 4.58c-53.78 1.14-54.92 96.12 0 96.12 62.93-.01 53.78-97.27 0-96.12zm2.14 74c-25 0-29.29-45.83 0-48 31.4 1.42 22.03 48 0 48z"/><path class="cls-2 hoverHide" d="M174.25 30.53c-29.33 2.22-25.06 48 0 48 21.99.05 31.36-46.53 0-48z"/><path class="cls-2" d="M731.19 11.35a2.83 2.83 0 0 0 1.35-3c-.56-3.63-2.78-3.09-8.11-1.89l1.63 10.57 1.8-.28.17-4.41a8.11 8.11 0 0 0 1-.15l2.84 3.95 2.75-.42zm-2.48-.74a5.07 5.07 0 0 1-1.56-.08l-.41-2.63s3.66-1.87 3.71.77a1.91 1.91 0 0 1-.34 1.22 2 2 0 0 1-1.4.71z"/><path class="cls-9" d="M726.52 1.93c10-1.55 12.83 7.78 11 13.34s-10.71 6.13-14.61 3.31-7.51-11.77 3.61-16.65z"/></svg>