<svg xmlns="http://www.w3.org/2000/svg" viewBox="0 0 136.1 21.93"><defs><style>.cls-1{fill:#b31217;}.cls-2{fill:#000;}</style></defs><title>logo</title><g id="Layer_2" data-name="Layer 2"><g id="Layer_1-2" data-name="Layer 1"><polygon class="cls-1" points="9.95 9.09 9.95 5.96 14.01 2.28 14.01 9.09 16.8 9.09 24.35 2.27 27.28 2.27 29.78 0 12.14 0 2.1 9.09 2.1 9.09 9.95 9.09"/><path class="cls-1" d="M16.8,12.84H6.9L4.83,11H0l12.11,11H26.85ZM14,19.67,10,16V14.6H14Z"/><polygon class="cls-1" points="37.19 21.93 25.07 10.96 37.19 0 32.72 0 20.57 10.96 20.57 10.96 27.28 17.03 27.28 19.67 29.78 21.93 37.19 21.93"/><path class="cls-1" d="M47,19.11v1.11h1.65v.37H46.56V18.74h2.08v.37Z"/><path class="cls-1" d="M57.93,18.73v1.12h-.54l.54.47v.26h-.31l-.82-.73h-.54v.73h-.41V18.73Zm-.42.38H56.26v.37H57.5Z"/><path class="cls-1" d="M67.18,20.59H65.1V18.73h2.08Zm-.41-1.49H65.52v1.11h1.24Z"/><path class="cls-1" d="M74.8,19.11v.37h1.65v1.11H74.39v-.37H76v-.36H74.39V18.74h2.06v.37Z"/><path class="cls-1" d="M84,19.11v.37H85.7v1.11H83.64v-.37h1.65v-.36H83.64V18.74H85.7v.37Z"/><path class="cls-1" d="M95,20.59H92.88V18.73H95Zm-.41-1.49H93.31v.38h1.24Zm0,.74H93.31v.36h1.24Z"/><path class="cls-1" d="M104.24,20.59h-2.08V18.73h2.08Zm-.41-1.49h-1.24v1.11h1.24Z"/><path class="cls-1" d="M113.52,18.73v1.85h-.29l-.75-.67-.74.67h-.29V18.73h.42V20l.61-.56.63.56V18.73Z"/><path class="cls-1" d="M121.13,19.11v.37h1.65v1.11h-2.06v-.37h1.65v-.36h-1.65V18.74h2.06v.37Z"/><polygon class="cls-2" points="76.33 12.18 76.33 5.31 66.02 5.31 63.38 7.71 63.38 14.23 66.02 16.62 66.02 16.62 66.01 8.53 66.9 7.71 73.69 7.71 73.68 9.75 67.18 9.75 67.18 10.96 68.53 12.19 69.52 12.19 74.42 16.62 76.33 16.62 76.33 14.91 73.33 12.19 76.33 12.19 76.33 12.18"/><polygon class="cls-2" points="133.45 14.23 129.03 14.23 126.39 16.62 136.1 16.62 133.45 14.23"/><polygon class="cls-2" points="35.3 14.2 37.94 16.62 37.94 13.32 35.3 13.32 35.3 14.2"/><polygon class="cls-2" points="39.75 9.75 37.94 9.75 37.94 5.31 35.3 7.7 35.3 9.75 31.96 9.75 31.96 10.96 33.31 12.19 39.75 12.19 44.66 16.62 46.56 16.62 46.56 14.9 42.22 10.97 42.22 10.96 46.56 7.03 46.56 5.31 44.66 5.31 39.75 9.75"/><polygon class="cls-2" points="134.36 12.19 135.71 10.96 135.71 9.75 129.59 9.75 127.34 7.71 133.45 7.71 136.1 5.31 122.78 5.31 122.78 7.03 127.13 10.96 127.12 10.97 122.78 14.9 122.78 16.62 124.69 16.62 129.59 12.19 134.36 12.19"/><polygon class="cls-2" points="110.68 5.31 108.03 7.71 108.03 14.23 110.67 16.62 120.63 16.62 120.63 9.75 113.9 9.75 113.9 10.96 115.25 12.19 118 12.19 118 14.23 111.57 14.23 110.67 13.4 110.67 8.52 111.57 7.7 120.63 7.7 120.63 5.31 120.63 5.31 110.68 5.31"/><polygon class="cls-2" points="51.35 5.31 48.71 7.71 48.71 14.23 51.35 16.62 51.35 16.62 51.34 8.53 52.25 7.71 58.6 7.71 58.6 9.74 52.52 9.74 52.52 10.96 53.87 12.19 58.59 12.19 58.59 16.62 61.23 16.62 61.23 5.31 51.35 5.31"/><polygon class="cls-2" points="96.01 5.31 93.37 7.71 93.37 14.23 96.01 16.62 96.01 16.62 96 8.53 96.91 7.71 103.25 7.71 103.25 9.74 97.17 9.74 97.17 10.96 98.53 12.19 103.25 12.19 103.25 16.62 105.88 16.62 105.88 5.31 96.01 5.31"/><polygon class="cls-2" points="88.79 5.31 88.79 13.16 80.13 5.31 78.22 7.04 88.8 16.62 91.45 16.62 91.45 5.31 88.79 5.31"/><polygon class="cls-2" points="78.22 14.23 80.86 16.61 80.86 10.99 78.22 8.59 78.22 14.23"/></g></g></svg>