<svg id="Layer_1" data-name="Layer 1" xmlns="http://www.w3.org/2000/svg" viewBox="0 0 449.14 94.12"><defs><style>.cls-1{fill:#003da6}</style></defs><title>Artboard 2</title><path class="cls-1" d="M234.07 37.82a14.12 14.12 0 0 1 .4 13.1c-2.7 4.2-7.3 5.4-11.9 4.6a9.11 9.11 0 0 1-6.6-7.6c-.75-4.53 2.7-13.6-4.6-15.6a4.53 4.53 0 0 0-3.9 1.9c-5.6 8.4-5.1 20.5-3.8 30.6.8 6.7 4.6 13.5 11.3 16.4 5.4 2.2 11.37-.08 15.4-3.6 2.1-2 2.1-4.35 4.22-4.6 1.38-.5 2.87 1.25 2.18 3.65a28.42 28.42 0 0 1-24.4 17.45 29 29 0 0 1-28.5-15.4c-5.78-11.83-4.78-28.83 3.6-39.8 7.4-9.2 18.2-12.3 29.9-11 6.4 1.4 12.9 3.6 16.7 9.9zm124.4-4.9a10.84 10.84 0 0 1 .9 10.6 9.84 9.84 0 0 1-9 5.9c-6.2 1-11.4-10.4-16.4-2.2l-.9 4-.4 30c.3 3.7 1.6 7.8 5.5 9.1 1.2.6 2.9.3 3.5 1.7.1.9-.9 1.2-1.4 1.3l-36.6-.07c-.9 0-.8-1.13-.6-1.73 3.1-1 6.5-3.7 6.9-7.2l.3-5.4.3-35.82c-.2-3.6-1.2-8.1-4.5-10.1-.9-.6-2.5-.8-2.7-2.1-.1-.6.63-1.3 1.22-1.4h25.75c1.5 0 1.58.92 1.67 1.47.42 2.55-.08 6.17.66 8.23h.7c4.7-6.3 11-11.6 19.1-10a10.08 10.08 0 0 1 6 3.72z"/><path class="cls-1" d="M298.67 43.12c6.3 11.4 6.3 28.9-2.5 39.1-7.6 9.5-18.8 13.4-31.1 12-10.6-1.3-21.5-9.2-25-19.6-4.4-12.4-2.6-28.1 7.4-37.3 9.3-9.1 25-11.8 36.9-6.4 5.5 2.3 11.3 6.7 14.3 12.2zM270 32.42c-4.2 1.2-6 5.6-6.7 9.4a158.32 158.32 0 0 0-.2 40.1c.6 3.4 2.1 7.6 6 8.3a6.84 6.84 0 0 0 6.7-3.4c3.6-8.6 3.2-18.7 3.4-28.7-.6-7.2.6-15.2-2.4-21.5-1.33-2.5-3.8-4.62-6.8-4.2z"/><circle class="cls-1" cx="160.34" cy="13.14" r="13.14"/><path class="cls-1" d="M173.74 83.32c.1 3.2 1.6 6.4 4.6 7.8a1.7 1.7 0 0 1 .4 1.8l-.67.35-65.77-.07-.67-.35a1.7 1.7 0 0 1 .4-1.8c3-1.4 4.5-4.6 4.6-7.8l.13-39.54a6.12 6.12 0 0 0-3.1-4.4c-3.6-1.1-6.8.9-9.1 3.8l-1.1 2.1-.1 38.1c.1 3.2 1.6 6.4 4.6 7.8a1.7 1.7 0 0 1 .4 1.8l-.67.35H46.11c-2 0-2-.77-2-5.69l-.57-.36c-6.7 6.6-16.2 10.3-25.3 6.9-6.5-2.7-9.9-9.3-9.7-16.1l-.3-37.8c0-4.62-3.88-7.37-6.9-8-2.4-.7-1.4-2.87 1.16-2.7 5.27.17 17.1 0 25.94 0a2.06 2.06 0 0 1 2.3 2.3v41.4c.1 4.1-.9 9.1 3.2 11.3 1.8 1 4.1.2 5.7-.8a16.77 16.77 0 0 0 4.5-5l.1-40.22a7.54 7.54 0 0 0-3.72-6.12c-1.49-.86-1.66-2.69.65-2.86h23.36c1.08 0 2.77.25 2.74 2.38l.1 48.52c0 6.56 3.28 9.73 5.91 10.14 3.6.56 6.87-3.58 6.89-6.94l.1-42c-.3-2.5-.85-5.75-2.75-7.55-1.2-2-5-1.4-4.1-4.2l1.2-.3h26.7c1.7 1.6.5 4.7 1.5 6.7h1c5.8-5.9 12.95-9 21.55-7.65 4.4.9 8.9 3.4 11.3 7.7a25.62 25.62 0 0 1 2.4 10.4l-.2 34.9c.4 3.4 1.3 7.1 4.7 8.6 2.1 1 4 0 5.4-1.8 1.7-2.1 2.2-4.7 2.4-7.4l.2-39.4c-.4-3.2-1.36-7.08-4.46-8.78-.9-.5-2.3-.6-2.6-1.9a1.39 1.39 0 0 1 1.5-1.4h26.11c1.3.1 1.49 1.42 1.69 2.33zM364 93.27l-.67-.35a1.69 1.69 0 0 1 .4-1.8c3-1.4 4.5-4.6 4.6-7.8l.09-41.64c-.3-2.5-.85-5.75-2.75-7.55-1.2-2-5-1.4-4.1-4.2l1.2-.3h26.7c1.7 1.6.5 4.7 1.5 6.7h1c5.8-5.9 13-9 21.55-7.65 4.4.9 8.9 3.4 11.3 7.7a25.6 25.6 0 0 1 2.4 10.4L427 83.32c.1 3.2 1.6 6.4 4.6 7.8a1.7 1.7 0 0 1 .4 1.8l-.67.35h-30.9l-.67-.35a1.7 1.7 0 0 1 .4-1.8c3-1.4 4.5-4.6 4.6-7.8l.13-39.54a6.12 6.12 0 0 0-3.1-4.4c-3.6-1.1-6.8.9-9.1 3.8l-1.1 2.1-.1 38.1c.1 3.2 1.6 6.4 4.6 7.8a1.7 1.7 0 0 1 .4 1.8l-.9.29zm76.51-62.63a6.75 6.75 0 0 1 5 2.16 6.94 6.94 0 0 1 2.07 5 7 7 0 0 1-2.08 5.09 7 7 0 0 1-10 0 7.2 7.2 0 0 1 0-10.12 6.79 6.79 0 0 1 5.01-2.13zm8.63 7.17a8.65 8.65 0 0 0-8.64-8.64 8.47 8.47 0 0 0-5.94 2.34 8.24 8.24 0 0 0-2.7 6.3 8.64 8.64 0 1 0 17.28 0zM442 36a1.32 1.32 0 0 1-.49 1.15 2.31 2.31 0 0 1-1.37.36h-1V34.7h.61a4.17 4.17 0 0 1 1.46.2A1.11 1.11 0 0 1 442 36zm-2.84 6.6v-3.37h1.08a2.8 2.8 0 0 1 .85.15 1.16 1.16 0 0 1 .7.7 4.49 4.49 0 0 1 .16 1.17 7.1 7.1 0 0 0 .17 1.32h2.41l-.09-.27a1.29 1.29 0 0 1-.07-.28 1.94 1.94 0 0 1 0-.28v-.85a2.56 2.56 0 0 0-.85-2.13 3.31 3.31 0 0 0-1.37-.54 3.13 3.13 0 0 0 1.66-.65 2.12 2.12 0 0 0 .68-1.75 2.41 2.41 0 0 0-1.28-2.29 4.63 4.63 0 0 0-1.89-.49h-4.62v9.56z"/></svg>