<svg xmlns="http://www.w3.org/2000/svg" viewBox="0 0 566.07 248.76"><defs><style>.cls-1{fill:#231f20}</style></defs><title>brand-silverback</title><g id="Layer_2" data-name="Layer 2"><path class="cls-1" d="M35.35 232.43v-4.65l-1.63-1.63H6.53L0 219.93v-24.08l6.53-6.53H53V204H19.68L18 205.65v4.65l1.63 1.63h27.24l6.53 6.37v23.92l-6.53 6.53H.41v-14.7h33.31zm43.11 16.33h-18v-59.44h18zm24.99-14.7h27.27v14.7H85.4v-59.44h18zm109 0h34v14.7H194.4v-59.44h52.1V204h-34v7.92h30v14.21h-30zm66.21-4.25h-7.51v18.94h-18v-59.43h51.6l6.53 6.53v26.37l-8.17 7.59h-4.9l13.15 18.94h-19.8zm12.74-13.31l1.63-1.63v-9.23L291.4 204h-20.25v12.5zm84.92 5.72v20l-6.53 6.53h-51.85v-59.43h51.85l6.53 6.53v20l-3.84 3.15zM336 213.08h20.49l1.63-1.63v-5.8l-1.65-1.65H336zm0 21h20.49l1.63-1.63v-5.8l-1.65-1.65H336zm43.66 14.68l22.13-59.44h22l22.13 59.44H427l-2.86-7.84h-22.76l-2.86 7.84zm39.84-21l-6.69-19.6-6.81 19.61zm49.4 6.3h30.86v14.7h-44l-6.53-6.53v-46.38l6.53-6.53h44V204H468.9l-1.63 1.63v26.78zm54.71 14.7h-18V189.4h18v22.7h5.06L546 189.4h20.09l-17.31 22.7h6.86l6.53 6.53v30.13h-18v-20.42l-1.63-1.63h-18.93zm-377.61 0l-22.54-59.44h19.43l14 40 14-40h19.43l-22.54 59.44zm249.37-142.99a155.36 155.36 0 0 0-3.93-23.49 112.57 112.57 0 0 0-217.21 1.42 156 156 0 0 0-3.48 21.39c-.54 6-.61 10.56-.59 13a.28.28 0 0 0 .55.07c6.88-25.62 24.59-51.45 70.8-58.17 0 16.73-10.66 32.15-26.41 51.94-12.89 16.19-12.88 34.77-12.52 40.49a.28.28 0 0 0 .55 0c2.89-12.32 7.65-22.29 16.83-32.44 25-27.68 35.58-34.63 35.58-61.92a214.11 214.11 0 0 1 22.33-1.18c-.24 10.12.65 91.3 4.92 104.1a.28.28 0 0 0 .53 0c1.89-5.66 3.11-24.69 3.87-45 1-25.67 1.18-53.43 1-59.08a214.11 214.11 0 0 1 22.33 1.18c0 27.29 10.55 34.24 35.58 61.92 9.17 10.15 13.94 20.11 16.83 32.43a.28.28 0 0 0 .55 0c.36-5.72.37-24.3-12.52-40.49-15.73-19.78-26.38-35.2-26.38-51.94 46.24 6.72 63.7 32.27 70.8 58.21a.28.28 0 0 0 .55-.07c0-2.35-.07-6.69-.56-12.37zM187.55 72.08c10.84-21.34 20.34-30.5 32-38.48 15.09 1.43 20.62 12.06 20.62 15.08-21.95 3.06-39.28 10.9-52.62 23.4zm90.31-25.7c-9.33.16-16.44.59-23.24 1-4.28-17.72-23-19.24-26.85-19.35 22.57-13.46 43.23-14.61 51.37-14.5-.14 2.31-.78 15.53-1.28 32.85zm33.6 1c-6.8-.46-13.91-.89-23.24-1-.5-17.32-1.17-30.54-1.28-32.85 8.18-.11 28.8 1 51.37 14.55-3.86.11-22.57 1.63-26.85 19.35zm14.54 1.3c0-3 5.53-13.65 20.62-15.08 11.61 8 21.11 17.14 32 38.48-13.43-12.5-30.76-20.34-52.62-23.4z" id="art"/></g></svg>