<svg xmlns="http://www.w3.org/2000/svg" viewBox="0 0 231.43 149.85"><defs><style>.cls-1{fill:#574f24;}.cls-2{fill:#784d28;}.cls-3{fill:#9b8542;}</style></defs><title>brand-natural-fitness</title><g id="Layer_2" data-name="Layer 2"><g id="Layer_1-2" data-name="Layer 1"><path class="cls-1" d="M96.06,81.41H107V54.88c0-7.25,4.81-9.83,8.94-9.83s9,2.58,9,9.83V81.41h10.93V57c0-6.82-1.51-12.09-4.49-15.67-3.86-4.63-8.89-6.88-15.37-6.88a18.69,18.69,0,0,0-14.1,6,20.46,20.46,0,0,0-5.82,14.92Z"/><circle class="cls-1" cx="138.87" cy="13.4" r="8.6"/><path class="cls-1" d="M93,22a8.6,8.6,0,1,0-8.59-8.6A8.59,8.59,0,0,0,93,22Z"/><circle class="cls-1" cx="115.94" cy="8.6" r="8.6"/><path class="cls-1" d="M115,115.36c.7,0,1.41,0,2.1,0a56.67,56.67,0,0,0,55.19-58,56.05,56.05,0,0,0-12.64-34.27,6.45,6.45,0,0,0-10,8.13,43.25,43.25,0,0,1,9.75,26.47,43.75,43.75,0,0,1-42.61,44.78h-1.62A43.71,43.71,0,0,1,81.75,31.25a6.45,6.45,0,0,0-10-8.12A56.6,56.6,0,0,0,115,115.36Z"/><path class="cls-2" d="M35,126h6v20.61L30,123.43h-.66l-11.55,24V133.86a21.23,21.23,0,0,0-.49-5.58,7.39,7.39,0,0,0-3.11-4.05,9.92,9.92,0,0,0-5.58-1.53,8.16,8.16,0,0,0-5.11,1.62A7.82,7.82,0,0,0,.7,128.12a19.22,19.22,0,0,0-.7,5.74v16H2.69v-16A19.48,19.48,0,0,1,3,129.71a6.27,6.27,0,0,1,1.21-2.4,5.68,5.68,0,0,1,2-1.55,6.1,6.1,0,0,1,2.56-.56,7.12,7.12,0,0,1,3.05.71,5.47,5.47,0,0,1,2.25,1.77,5.85,5.85,0,0,1,.93,2.62,33,33,0,0,1,.11,3.55v16h4.53l4.19-8.69H35.44l4.23,8.69h4.12V126h6v-2.59H35Zm-10,12.59L29.68,129l4.59,9.56Z"/><path class="cls-2" d="M65.43,138.93a18.27,18.27,0,0,1-.27,4A6,6,0,0,1,64,145.26a5.68,5.68,0,0,1-2,1.5,6.27,6.27,0,0,1-2.56.54,7.33,7.33,0,0,1-3.05-.69A5.46,5.46,0,0,1,54,144.9a5.56,5.56,0,0,1-.93-2.54,31,31,0,0,1-.11-3.44v-15.5H50.31v15.5a19.86,19.86,0,0,0,.5,5.41,7.19,7.19,0,0,0,3.11,3.93,10.16,10.16,0,0,0,5.58,1.48,8.32,8.32,0,0,0,5.11-1.57,7.59,7.59,0,0,0,2.82-3.69,18.1,18.1,0,0,0,.7-5.56v-15.5H65.43Z"/><path class="cls-2" d="M110.94,147.3V123.43h-2.69V147.9L96.63,123.43H96L84.34,147.61l-7.91-10a13.81,13.81,0,0,0,5.3-.85,6.41,6.41,0,0,0,3-2.47,7,7,0,0,0,1-3.79,6.52,6.52,0,0,0-1.5-4.36,7,7,0,0,0-3.9-2.31,33,33,0,0,0-6.07-.36H68.89v26.42h2.69V137.58H73.1l9.68,12.27h3.48l4.19-8.69H102l4.23,8.69h15V147.3ZM71.58,135.13V126h4.75a11.8,11.8,0,0,1,4,.47,4.07,4.07,0,0,1,1.92,1.57,4.3,4.3,0,0,1,.73,2.44,4.5,4.5,0,0,1-.72,2.5,4.17,4.17,0,0,1-2,1.63,11.61,11.61,0,0,1-4,.51Zm20.1,3.48L96.29,129l4.59,9.56Z"/><polygon class="cls-3" points="126 149.82 128.67 149.82 128.67 136.91 139.37 136.91 139.37 134.34 128.67 134.34 128.67 126.09 139.37 126.09 139.37 123.51 126 123.51 126 149.82"/><rect class="cls-3" x="140.87" y="123.51" width="2.67" height="26.31"/><polygon class="cls-3" points="159.07 123.51 144.45 123.51 144.45 126.09 150.4 126.09 150.4 149.82 153.12 149.82 153.12 126.09 159.07 126.09 159.07 123.51"/><polygon class="cls-3" points="180.47 136.91 192.99 136.91 192.99 134.34 180.47 134.34 180.47 126.09 193.1 126.09 193.1 123.51 177.81 123.51 177.81 149.82 192.99 149.82 192.99 147.25 180.47 147.25 180.47 136.91"/><path class="cls-3" d="M222.06,139a19,19,0,0,0-4.75-4.37q-2.92-2.08-3.45-2.56a6.11,6.11,0,0,1-1.32-1.71,3.82,3.82,0,0,1-.36-1.62,3,3,0,0,1,1-2.32,3.75,3.75,0,0,1,2.64-.94,4.55,4.55,0,0,1,2.31.61,10.23,10.23,0,0,1,2.57,2.53L222.9,127a11.9,11.9,0,0,0-3.47-3.3,7.23,7.23,0,0,0-3.53-.9,7,7,0,0,0-3.29.79,5.84,5.84,0,0,0-2.35,2.17,5.78,5.78,0,0,0-.83,3,6.26,6.26,0,0,0,1.41,3.92,23.08,23.08,0,0,0,4.15,3.5,21.48,21.48,0,0,1,4.57,4.11,4.24,4.24,0,0,1,.91,2.53,4,4,0,0,1-.62,2.14,4.38,4.38,0,0,1-1.79,1.61,5.48,5.48,0,0,1-2.52.6q-3.14,0-5.53-4.24l-2.2,1.27a6.47,6.47,0,0,0,.16-1.44,6.87,6.87,0,0,0-1.29-3.85,19.07,19.07,0,0,0-4.75-4.37q-2.92-2.08-3.44-2.56a6,6,0,0,1-1.33-1.71,3.82,3.82,0,0,1-.36-1.62,3,3,0,0,1,1-2.32,3.76,3.76,0,0,1,2.64-.94,4.54,4.54,0,0,1,2.31.61,10.22,10.22,0,0,1,2.57,2.53l2.18-1.59a11.87,11.87,0,0,0-3.47-3.3,7.23,7.23,0,0,0-3.53-.9,7,7,0,0,0-3.29.79,5.84,5.84,0,0,0-2.35,2.17,5.77,5.77,0,0,0-.84,3,6.26,6.26,0,0,0,1.41,3.92,23,23,0,0,0,4.16,3.5,21.47,21.47,0,0,1,4.57,4.11,4.24,4.24,0,0,1,.91,2.53,4.06,4.06,0,0,1-.62,2.14,4.37,4.37,0,0,1-1.8,1.61,5.47,5.47,0,0,1-2.52.6q-3.14,0-5.53-4.24l-2.27,1.31a11.53,11.53,0,0,0,3.64,4.17,8.09,8.09,0,0,0,4.41,1.25,7.57,7.57,0,0,0,5.36-2.06,6.65,6.65,0,0,0,2-3.3,11.43,11.43,0,0,0,3.61,4.11,8.08,8.08,0,0,0,4.41,1.25,7.57,7.57,0,0,0,5.36-2.06,6.42,6.42,0,0,0,2.2-4.85A6.86,6.86,0,0,0,222.06,139Z"/><path class="cls-3" d="M172.58,124.41a9.86,9.86,0,0,0-5.53-1.51,8.1,8.1,0,0,0-5.07,1.6,7.7,7.7,0,0,0-2.79,3.76,18.82,18.82,0,0,0-.7,5.66V149.7h2.67V133.91a19.25,19.25,0,0,1,.27-4.09,6.19,6.19,0,0,1,1.2-2.36,5.64,5.64,0,0,1,2-1.53,6.07,6.07,0,0,1,2.54-.55,7.1,7.1,0,0,1,3,.7,5.42,5.42,0,0,1,2.23,1.74,5.74,5.74,0,0,1,.92,2.59,32.1,32.1,0,0,1,.11,3.5V149.7h2.67V133.91a20.76,20.76,0,0,0-.49-5.51A7.28,7.28,0,0,0,172.58,124.41Z"/><path class="cls-1" d="M226.11,126.25v0a2.66,2.66,0,1,1,5.32,0v0a2.66,2.66,0,1,1-5.32,0Zm5,0v0a2.36,2.36,0,1,0-4.71,0v0a2.36,2.36,0,1,0,4.71,0Zm-3.4-1.41H229c.6,0,1,.29,1,.86a.82.82,0,0,1-.63.83l.72,1h-.63l-.64-.93h-.57v.93h-.52Zm1.18,1.35c.35,0,.55-.18.55-.44s-.2-.44-.55-.44h-.66v.89Z"/></g></g></svg>