<svg id="Artwork" xmlns="http://www.w3.org/2000/svg" viewBox="0 0 643.88 258.18"><defs><style>.cls-1{fill:none}.cls-2{fill:#696a6d}.cls-3{fill:#d31245}</style></defs><title>brand-goaliath</title><path class="cls-1" d="M138.66 113c-12 0-21.12 9.56-21.14 22.25v.25c0 12.84 9.18 22.53 21.38 22.55a20.22 20.22 0 0 0 15.17-6.57 23.18 23.18 0 0 0 5.82-15.68v-.25a23.42 23.42 0 0 0-5.89-15.88 20.49 20.49 0 0 0-15.34-6.67zm81.2 30.43l15.68.01-7.77-19.79-7.91 19.78zm420 29.94h-.73v1h.7c.42 0 .64-.2.64-.49s-.22-.51-.61-.51z"/><path class="cls-1" d="M639.64 170.73a3.78 3.78 0 0 0-3.77 3.82 3.76 3.76 0 1 0 7.53 0 3.74 3.74 0 0 0-3.76-3.82zm.78 6l-.88-1.3h-.41v1.3h-1.39v-4.51h2.17c1.17 0 2 .52 2 1.54a1.43 1.43 0 0 1-.91 1.42l1 1.52zm-197.11-33.1l-7.78-19.78-7.9 19.77 15.68.01z"/><path class="cls-2" d="M398.2 123l3.77-2.8s-12.17-2.62-19.47-9.63v6.48a39.43 39.43 0 0 0 15.7 5.95zm-21.35-35.15l-7-2.89a46.47 46.47 0 0 0-.28 5h7c.09-.76.18-1.48.28-2.11zm24.49 102.41a48 48 0 0 0 8-8.68h-3.72a47.33 47.33 0 0 1-4.28 8.68z"/><path class="cls-3" d="M355 181.53l.08-91.61h.73A75.85 75.85 0 0 1 365 55.35a58.18 58.18 0 0 0-7.78 0 48.55 48.55 0 0 0-7.7 1.51s-5.94 2.79-20.64 18.46c-9.63 10.25-19 12.91-19 12.91-14.76-5.69-17.86-24.61-17.86-24.61S277.14 63 270 65.38c0 0 8.65 12.14 7.08 47.73-.9 20.56-10.19 32-11.57 33.64 3 6.57 9.39 16.93 16.47 27.32l.08-84.2h27.46l-.06 67.18h43v24.42l-65.26-.06c4.92 6.92 9.87 13.44 14 18.39 0 0 13.78 11.65 34.87 5.2 9.69-3 18.28-12.6 25.24-23.51z"/><path class="cls-2" d="M422.9 77.39l.32.24a34.53 34.53 0 0 1 5.1 4.64l1.06 1.17.21-1.56a153.69 153.69 0 0 0 1.48-18.83v-.33l-.26-.22c-25.93-21.34-65.62-29.34-94.35-32.29l-1.46-.14.76 1.26c1.06 1.73 2.06 3.39 3 5l.18.3h.34c25.44 3.3 60.64 11.24 84.18 30.45 0 1.06-.07 4.58-.53 9.92zM284.24 46c.29-2 1.85-8.81 1.24-15.08s-2.53-13.2-3-13.85l-3.71 1.46a58.44 58.44 0 0 1 2.45 9.92 82.91 82.91 0 0 1 .22 15.95c-.36 3.51-1.24 7.06-1.18 8.3s1 1.94 2.19 2.93a10 10 0 0 0 3.39 1.88 14.74 14.74 0 0 0 2.55.08l26.5-2.18 1.8-4-2.61-1a8.49 8.49 0 0 1-3.91 3.67c-1.44.64-20.32 2-22.29 1.78A7.06 7.06 0 0 1 284 54a3.84 3.84 0 0 1-1.11-3.16c.02-.73 1.11-2.84 1.35-4.84zm53.08 5.48a5.29 5.29 0 0 0 1.94 2.52 11.09 11.09 0 0 0 5.33 1.92h2.26a165.32 165.32 0 0 1-12.28-19.07c-3.17-5.62-10.95-17.27-10.95-17.27v4.78c4.21 5.89 10.2 17.77 11.26 20.48s2.12 5.86 2.44 6.64zM318.83 11.6l4.09-4.36s-7.7-18.77-48.65 4.12l-.8 3.92s32.22-17.74 45.36-3.68z"/><path class="cls-2" d="M373.61 57.28c12.47 1.39 29.29 19.69 20.74 8.25-12.46-16.63-33.22-9.64-20.74-8.25zm55.17 32.09c-9.33-14.3-28-15.7-28-15.7s-4.12-.91 7.35 4.15a39.83 39.83 0 0 1 14.75 11.67v-.12zm-24.02 37.85s-6.77.88-9.49 5.91c-5.46 10.06-6.51 27.72-6.65 37.54l1.75-4.14c5.51-31.27 14.39-39.31 14.39-39.31zM248.33 85a25.76 25.76 0 0 1 2.4-4 24.15 24.15 0 0 1 9.35-8.32A22.84 22.84 0 0 1 269.6 70a13.9 13.9 0 0 0-1.87-4c-11.18 2.39-18.19 9.82-19.84 15.7-1.22 4.39-.83 5.81.44 3.3zm-6.92.17s-4.49-2.34-11.72.62a27.24 27.24 0 0 0-6.1 3.38h9.9c7.46-3.25 9.35-2.98 7.92-4zm.8 108.83a105.57 105.57 0 0 1-26-28.6h-4.51a105.12 105.12 0 0 0 30.51 28.6zm18.19-3.74a27.88 27.88 0 0 0-.22-8.82h-3.35c1.17 2.74 2.37 5.67 3.57 8.82zm115.45 16.13c-8.77-.1-14.59-11.2-14.59-11.2.34 7.18 8.56 14 8.56 14a33.24 33.24 0 0 0 28.83-10.66s-10.26 8-22.17 7.83c-.2 0-.43.01-.63.03zm0-.01h-.01.01zm-98.46 3.94s-11.15 9.32-19.17 5.93c-10.92-4.53-13.88-11.77-13.88-11.77 6.41 18 19.89 15.56 19.89 15.56s8.58-3.49 13.16-9.72zM266 140.55a81.64 81.64 0 0 1-8.51-16.55 10.14 10.14 0 0 0-.3 4.1l6.41 15.22a35.33 35.33 0 0 0 2.4-2.77z"/><path class="cls-2" d="M442.74 56.16v-.34l-.26-.21C410 28.87 357.55 21 329.17 18.75l-1.49-.12.82 1.25c1.08 1.63 2.22 3.39 3.39 5.21l.18.3h.35c31.15 3.25 74.15 12 102.28 35a189.12 189.12 0 0 1-2.41 26.88v.26l.13.22c.32.53.61 1.07.91 1.61h6c3.54-19.89 3.41-33.07 3.41-33.2zM370 214.69l-.31-.13-.22.24c-2.62 2.76-8.49 8.51-9.63 9.62a247.31 247.31 0 0 1-42.12 31.24 250 250 0 0 1-44.12-33.05l-.25-.23-.3.15c-.86.44-1.74.84-2.58 1.18l-.72.28.57.52A253.62 253.62 0 0 0 317.46 258l.23.13.23-.13a254.13 254.13 0 0 0 45.85-32.37c3.38-2.85 7.48-6.92 9.62-9.09l.61-.54-.79-.22a29.65 29.65 0 0 1-3.21-1.09z"/><path class="cls-2" d="M279.32 219l-.28-.29-.21.15-.14.11c-.54.41-1.09.8-1.68 1.2l-.5.35.45.41a240.19 240.19 0 0 0 40.49 29.9l.25.15.24-.15A241.36 241.36 0 0 0 357.29 222h.06c3-2.67 6.35-5.78 8.8-8.34l.44-.46-.55-.3c-.64-.35-1.29-.73-1.92-1.11l-.32-.19-.28.26c-3.25 3.21-8.1 7.77-8.3 8-8.51 7.65-21.65 18.89-37.53 28.32-16.17-9.74-29.64-21.32-38.37-29.18zm-23.75-111.16l-5.32 3.74 4 9.59c2.18-5.8 1.97-11.11 1.32-13.33z"/><path d="M63.37 157.51l-.63.43c-3.89 2.63-8.78 3.9-14.95 3.9h-.06a25.27 25.27 0 0 1-18.34-7.39 26.59 26.59 0 0 1-7.16-18.79v-.25a26.44 26.44 0 0 1 6.95-18.16 23.28 23.28 0 0 1 17.16-7.46c8 0 14.39 2.35 21.22 7.8l12.7-15.29c-9.55-7.88-20.39-11.57-34-11.58h-.05c-12.77 0-24.51 4.59-33.06 12.93A44 44 0 0 0 0 135.39v.25c0 25.76 19.61 44.47 46.69 44.5h.06a57.75 57.75 0 0 0 37.06-13v-37.69H45.99v15.14h17.39zm75.57-66.7h-.05c-26 0-46.44 19.61-46.48 44.67v.25a43.6 43.6 0 0 0 13.1 31.49c8.57 8.38 20.32 13 33.09 13 26 0 46.46-19.61 46.49-44.66v-.26A43.57 43.57 0 0 0 172 103.83c-8.54-8.38-20.29-13-33.06-13.02zm23.83 45a26 26 0 0 1-6.57 17.61 23.05 23.05 0 0 1-17.29 7.51c-13.6 0-24.25-11.18-24.24-25.42v-.26c0-14.32 10.34-25.12 24-25.12a23.33 23.33 0 0 1 17.49 7.62 26.27 26.27 0 0 1 6.61 17.8zm89.9-11.08a29.64 29.64 0 0 1-13.84 12.75v-2.75h-1.49a21.7 21.7 0 0 0 8.94-8.61 30.81 30.81 0 0 0 3.12-9.12l-10.5-24.95H228c-13.62 8.47-13.53 20.85-15 17.93-1.32-2.6 1.66-9.46 1.66-9.46a37.61 37.61 0 0 1 5.8-8.47h-3.31l-11.3 26.75c.34-.32.68-.63 1.05-.93 1.93-1.56-2.8 12.42-1.79 18.5a80 80 0 0 0 9.48 26.21h31.29l6.33 16h3.4c-11.41-25.16-21.65-31.83-21.65-31.83s6.19-.28 10.69 3.25c2.2 1.74 10.28 14.39 13.63 23.84a44.68 44.68 0 0 1 1.39 4.74h15.76zm-37 21.56l12.16-30.42 12 30.44zm-35.1 32.21h22.61l6.35-16h.24c-7.19-11.19-10.17-21.25-11-27.11z"/><path d="M212.95 110c1.48 2.92 1.38-9.46 15-17.93h-7.55a37.61 37.61 0 0 0-5.8 8.47s-2.97 6.83-1.65 9.46zm-6.11 7.85c-.37.3-.71.61-1.05.93l-7 16.67c.85 5.85 3.83 15.92 11 27.11h4.76a80 80 0 0 1-9.48-26.21c-1.07-6.08 3.7-20.06 1.77-18.5zM244.6 150c-4.5-3.53-10.69-3.25-10.69-3.25s10.24 6.67 21.65 31.83h4.06a44.68 44.68 0 0 0-1.39-4.74c-3.35-9.46-11.43-22.12-13.63-23.84zm-7.25-15.27h1.49v2.75a29.64 29.64 0 0 0 13.84-12.75L249.4 117a30.81 30.81 0 0 1-3.12 9.16 21.7 21.7 0 0 1-8.93 8.57zm47.46 43.87h.27l-.27-.38z"/><path d="M349.52 160h-43l.06-67.18h-21.73l-.08 85.49.27.38 64.42.06zm28.16-57a15.22 15.22 0 0 0 2 4.24V92.82h-3.27a34 34 0 0 0 1.27 10.18zm-8.06-10.19h-11.7v16.09c2.25 9.58 7.5 22.82 21.7 32.21v-26.24c-7.16-6.29-9.55-14.81-10-22.06zm9.95 85.88v-36.27A205 205 0 0 1 363 178.67z"/><path d="M377.68 103a34 34 0 0 1-1.29-10.14h-6.76c.45 7.26 2.84 15.77 10 22.07v-7.73a15.22 15.22 0 0 1-1.95-4.2zm-19.78 5.9l-.06 69.77H363a205 205 0 0 0 16.61-36.26v-1.3c-14.21-9.38-19.45-22.63-21.71-32.21zm73.85-13.68a28.36 28.36 0 0 1 .88 4.88c.12 2.11-.27 6.54-.27 6.54A57.14 57.14 0 0 0 425 92.23h-.12l-36.54 86.47h18.41c2.34-6.43 4.58-14.18 7.51-22.84l9.17.18q-1.43 3.56-2.89 6.69h33l6.32 16h23.24l-36.43-86.48h-7.88q-.43 2.26-.93 4.62l-.59 2.78-.82-2.71a41.07 41.07 0 0 0-1.73-4.69h-4.28a30.4 30.4 0 0 1 1.31 2.97zm15.76 51.29h-24.12l12.16-30.41z"/><path d="M414.26 155.88c-2.93 8.65-5.17 16.4-7.51 22.84h4.19l6.36-16h3.24q1.46-3.14 2.89-6.69zm18.37-55.78a28.36 28.36 0 0 0-.88-4.88 30.4 30.4 0 0 0-1.32-3H425a57.14 57.14 0 0 1 7.37 14.41s.38-4.42.26-6.53zm4.64-.46l.59-2.78q.5-2.36.93-4.62h-4.07a41.07 41.07 0 0 1 1.73 4.69zm57.64 11.98l-.06 67.19 21.73.01.07-67.18 26.62.02.01-18.68-74.84-.02.03 18.67 26.44-.01zm79.69-18.61l-21.74-.02-.08 85.87 21.73.02.04-33.71 34.42.02-.03 33.73 21.73.02.08-85.88-21.73-.02-.03 33.21-34.42-.03.03-33.21zm65.04 77.25a4.28 4.28 0 0 0-4.25 4.28 4.25 4.25 0 1 0 8.5 0 4.23 4.23 0 0 0-4.25-4.28zm3.76 4.28a3.76 3.76 0 1 1-7.53 0 3.78 3.78 0 0 1 3.77-3.82 3.74 3.74 0 0 1 3.76 3.79z"/><path d="M641.86 173.73c0-1-.78-1.54-2-1.54h-2.17v4.51h1.39v-1.3h.41l.88 1.3H642l-1-1.55a1.43 1.43 0 0 0 .86-1.42zm-2 .61h-.7v-1h.73c.39 0 .61.17.61.49s-.25.51-.67.51z"/><path class="cls-2" d="M277.61 39.65l.06-.52A44.76 44.76 0 0 0 278 34v-.87l-.85.16c-31.39 5.63-55.8 15.46-72.53 29.23l-.27.22v.33c0 .15 0 15 4.56 36.55l.63 2.83 4.71-11.2a174.46 174.46 0 0 1-2.29-24.17c15.33-12.51 37.24-21.7 65.15-27.33z"/><path class="cls-2" d="M203 118l4.26-10.13-.49-1.92c-5.78-24.89-6-43-6-45.61C218.42 45.9 244.09 35.4 277 29.2l.69-.13-.11-.69a28.71 28.71 0 0 0-1.3-5.25l-.21-.57-.59.11C250.83 27 216.5 36.2 192.94 55.6l-.26.21v.34c0 .24-.25 24.59 9 57.39z"/></svg>