<svg id="Layer_1" xmlns="http://www.w3.org/2000/svg" viewBox="0 0 185.9 21.8"><style>.st0{fill:#231f20}.st1{fill:#fff;stroke:#221e1f;stroke-width:.98;stroke-miterlimit:10}</style><title>brand-bullshooter</title><path class="st0" d="M1.9 18c.6-.3.7-.8.7-1.7V7.5c0-.9-.1-1.4-.7-1.7V2.4h8.4c4.5 0 6.4 1.2 6.4 4.9 0 2.2-1.1 3.7-3 4.1 2.2.4 3.3 1.9 3.3 4.5 0 4.3-2.2 5.5-6.7 5.5H1.9V18zM9 9.8c1.2 0 1.9-.5 1.9-1.7.1-.9-.5-1.6-1.3-1.8H8.4v3.5H9zm0 7.6c1.4 0 2-.7 2-2.1s-.7-2-2.2-2h-.4v4.1c.2.1.4.1.6 0zM26.9 5.7V2.4h6.8v3.3c-.7.3-.8.9-.8 1.8v6.7c0 2 0 3.6-.6 4.8-1 1.9-3.1 2.8-6.2 2.8-2.7 0-4.6-.8-5.8-2.3-.7-1.2-1-2.6-.9-4v-8c0-.9-.2-1.4-.8-1.7V2.4h7.3v3.3c-.6.3-.7.8-.7 1.7v8.4c0 1.2.2 1.9 1.2 1.9s1.2-.6 1.2-1.9V7.5c-.1-1-.2-1.5-.7-1.8zM35.7 18c.6-.3.7-.8.7-1.7V7.5c0-.9-.1-1.4-.7-1.7V2.4h7.5v3.3c-.8.1-.9.7-.9 2v9.5h.4c1.5 0 1.6-.6 1.6-2.2v-2.8h5.2v9.2H35.7V18zm15.6 0c.6-.3.7-.8.7-1.7V7.5c0-.9-.1-1.4-.7-1.7V2.4h7.5v3.3c-.8.1-.9.7-.9 2v9.5h.4c1.5 0 1.6-.6 1.6-2.2v-2.8h5.2v9.2H51.3V18zm15.9-3.5H73v1c0 1.4.2 2.1 1.2 2.1.7 0 1.2-.6 1.2-1.7 0-1.7-1.4-1.9-3.6-2.6-3.2-1-4.9-1.9-4.9-5.4 0-4.1 2.1-6 6.8-6 2.5 0 5 .7 7.1 2.1v4.7h-5.6V8c0-1.2-.4-1.9-1.2-1.9s-1.2.4-1.2 1.3c0 1.4 1 1.6 3.3 2.2 3.6 1 5.1 1.9 5.1 6.1s-2.3 6-7 6c-2.5.1-5-.6-7.1-2l.1-5.2zM90.6 18v3.4h-7.3V18c.6-.3.7-.8.7-1.7V7.5c0-.9-.1-1.4-.7-1.7V2.4h7.3v3.3c-.6.3-.7.8-.7 1.8v2.3h2.3V7.5c0-1-.1-1.5-.6-1.7V2.4h7.3v3.3c-.6.3-.7.8-.7 1.7v8.8c0 .9.1 1.4.7 1.7v3.4h-7.3V18c.6-.2.6-.7.6-1.7v-2.9h-2.3v2.9c0 1 .1 1.5.7 1.7zm17.7-16c5.4 0 7.1 1.8 7.1 6.8V15c0 5-1.7 6.8-7.1 6.8s-7.1-1.8-7.1-6.8V8.8c0-5 1.7-6.8 7.1-6.8zm1.1 5.9c0-1.2-.3-1.9-1.2-1.9s-1.2.6-1.2 1.9v7.9c0 1.2.2 1.9 1.2 1.9s1.2-.6 1.2-1.9V7.9zM124.9 2c5.4 0 7.1 1.8 7.1 6.8V15c0 5-1.7 6.8-7.1 6.8s-7.1-1.8-7.1-6.8V8.8c0-5 1.8-6.8 7.1-6.8zm1.2 5.9c0-1.2-.3-1.9-1.2-1.9s-1.2.6-1.2 1.9v7.9c0 1.2.3 1.9 1.2 1.9s1.2-.6 1.2-1.9V7.9zm24.1 3.1H146V7.8c0-1-.2-1.5-1.2-1.5v10c0 1 .1 1.4 1 1.7v3.4h-7.7V18c.9-.3 1-.8 1-1.7v-10c-1 0-1.2.5-1.2 1.5V11h-4.1V2.4h16.4V11zm1.7 7c.6-.3.7-.8.7-1.7V7.5c0-.9-.1-1.4-.7-1.7V2.4h14.2v6.3h-5.4v-.5c0-1.3-.3-1.7-1.7-1.7h-.5v3.4h3.8v3.7h-3.8v3.8h.5c1.3 0 1.7-.6 1.7-2.2v-.7h5.4v6.9h-14.2V18zm23.7 0v3.4h-7.3V18c.6-.3.7-.8.7-1.7V7.5c0-.9-.1-1.4-.7-1.7V2.4h8.3c4.6 0 6.6 1.2 6.6 5.1 0 2.4-.9 3.8-2.8 4.3 2.2.6 2.4 1.6 2.4 3.8 0 1.3 0 2 .7 2.4v3.4h-6.3c-.3-1.6-.4-3.2-.4-4.9 0-1.8-.2-2.5-1.7-2.5h-.3v2.3c.1 1 .1 1.5.8 1.7zm-.1-7.8c1.4 0 1.8-.5 1.8-2s-.5-1.9-2.1-1.9h-.3v3.9h.6z"/><path class="st1" d="M.5 16.5c.6-.3.7-.8.7-1.7V6c0-.9-.1-1.4-.7-1.7V.9h8.4c4.5 0 6.5 1.2 6.5 4.9 0 2.2-1.1 3.7-3 4.1 2.2.4 3.3 1.9 3.3 4.5 0 4.3-2.2 5.5-6.7 5.5H.5v-3.4zm7.1-8.2c1.2 0 1.9-.5 1.9-1.7.1-.9-.5-1.7-1.3-1.8H7.1v3.5c.1-.1.3 0 .5 0zm0 7.7c1.4 0 2-.7 2-2.1s-.7-2-2.2-2H7V16h.6zM25.5 4.2V.9h6.8v3.3c-.6.3-.7.8-.7 1.7v6.7c0 2 0 3.6-.6 4.8-1 1.9-3.1 2.8-6.2 2.8-2.7 0-4.6-.8-5.8-2.3-.7-1.2-1-2.6-.9-4V6c0-.9-.2-1.4-.8-1.7V.9h7.3v3.3c-.7.3-.8.8-.8 1.8v8.4c0 1.3.3 1.9 1.2 1.9s1.2-.6 1.2-1.9V6c0-1-.1-1.5-.7-1.8zm8.8 12.3c.6-.3.7-.8.7-1.7V6c0-.9-.1-1.4-.7-1.7V.9h7.5v3.3c-.8.1-.9.7-.9 2v9.5h.4c1.5 0 1.6-.6 1.6-2.2v-2.8H48v9.2H34.3v-3.4zm15.7 0c.6-.3.7-.8.7-1.7V6c0-.9-.1-1.4-.7-1.7V.9h7.5v3.3c-.8.1-.9.7-.9 2v9.5h.4c1.5 0 1.6-.6 1.6-2.2v-2.8h5.2v9.2H50v-3.4zM65.8 13h5.8v1c0 1.4.2 2.1 1.2 2.1.7 0 1.2-.6 1.2-1.7 0-1.7-1.4-1.9-3.6-2.6-3.2-1-4.9-1.9-4.9-5.4 0-4.1 2.1-6 6.8-6 2.5 0 5 .7 7.1 2.1v4.7H74v-.7c0-1.2-.4-1.9-1.2-1.9s-1.2.4-1.2 1.3c0 1.3 1 1.6 3.3 2.2 3.6 1 5.1 1.9 5.1 6.1s-2.3 6-7 6c-2.5.1-5-.6-7.1-2l-.1-5.2zm23.4 3.5v3.4h-7.3v-3.4c.6-.3.7-.8.7-1.7V6c0-.9-.1-1.4-.7-1.7V.9h7.3v3.3c-.6.3-.6.8-.6 1.8v2.3h2.3V6c0-1-.1-1.5-.6-1.7V.9h7.3v3.3c-.6.3-.7.8-.7 1.7v8.8c0 .9.1 1.4.7 1.7v3.4h-7.3v-3.4c.6-.2.6-.7.6-1.7v-2.9h-2.3v2.9c0 1 0 1.6.6 1.8zm17.7-16c5.4 0 7.1 1.8 7.1 6.8v6.2c0 5-1.7 6.8-7.1 6.8s-7.1-1.8-7.1-6.8V7.3c0-5 1.7-6.8 7.1-6.8zm1.2 5.9c0-1.2-.3-1.9-1.2-1.9s-1.2.6-1.2 1.9v7.9c0 1.3.3 1.9 1.2 1.9s1.2-.6 1.2-1.9V6.4zM123.6.5c5.4 0 7.1 1.8 7.1 6.8v6.2c0 5-1.7 6.8-7.1 6.8s-7.1-1.8-7.1-6.8V7.3c0-5 1.7-6.8 7.1-6.8zm1.1 5.9c0-1.2-.3-1.9-1.2-1.9s-1.2.6-1.2 1.9v7.9c0 1.3.3 1.9 1.2 1.9s1.2-.6 1.2-1.9V6.4zm24.2 3.1h-4.2V6.3c0-1-.2-1.5-1.2-1.5v10c0 .9.2 1.4 1 1.7v3.4h-7.7v-3.4c.9-.3 1-.8 1-1.7v-10c-1 .1-1.2.5-1.2 1.5v3.2h-4.1V.9h16.4v8.6zm1.6 7c.6-.3.7-.8.7-1.7V6c0-.9-.1-1.4-.7-1.7V.9h14.2v6.3h-5.4v-.6c0-1.3-.3-1.7-1.7-1.7h-.5v3.4h3.8V12h-3.8v3.8h.5c1.3 0 1.7-.6 1.7-2.2v-.7h5.4v6.9h-14.2v-3.3zm23.7 0v3.4h-7.3v-3.4c.6-.3.7-.8.7-1.7V6c0-.9-.1-1.4-.7-1.7V.9h8.3c4.6 0 6.6 1.1 6.6 5.1 0 2.4-.9 3.8-2.8 4.3 2.2.6 2.4 1.6 2.4 3.8 0 1.3 0 2 .7 2.4v3.4h-6.3c-.3-1.6-.4-3.2-.4-4.9 0-1.8-.2-2.5-1.7-2.5h-.3v2.3c.1.9.2 1.5.8 1.7zm-.1-7.8c1.4 0 1.8-.5 1.8-2s-.5-1.9-2.1-1.9h-.3v3.9h.6z"/><path class="st0" d="M182.9 1.9h-.6v-.2h1.4v.2h-.6v1.7h-.2V1.9zm2.7.8v-.8c-.1.2-.1.5-.2.7l-.4 1h-.2l-.3-.9c-.1-.3-.2-.5-.2-.7v.8l-.1.8h-.2l.1-1.9h.3l.3.9c.1.2.1.5.2.6 0-.2.1-.4.2-.6l.3-.9h.3l.1 1.9h-.2v-.9z"/></svg>