<svg xmlns="http://www.w3.org/2000/svg" viewBox="0 0 257.01 275.57"><defs><style>.cls-1,.cls-3{fill:#231f20}.cls-2{fill:#005496}.cls-2,.cls-3{fill-rule:evenodd}</style></defs><title>brand-pro-series</title><g id="Layer_2" data-name="Layer 2"><g id="Layer_1-2" data-name="Layer 1"><path class="cls-1" d="M0 197.87h8.92c7.59 0 8.46 4.48 8.46 6.07 0 4.9-3.33 6.65-7.83 6.65a15.86 15.86 0 0 1-2.08-.13v-3c3.54 0 5.07-1 5.07-3s-1.43-2.95-3.76-2.95H6.22v15.79a1.7 1.7 0 0 0 1.34 1.81v.84H.09v-.77a1.57 1.57 0 0 0 1.27-1.72v-16.6c0-1.25-.43-1.87-1.37-2.15zm27.92.03h10.16c4.94 0 6.72 2.86 6.72 5.72 0 3-1.59 4.88-4.7 5.59a16 16 0 0 1 2.77 2.21c3.14 3.14 3.86 7.28 5.22 7.74v.77H40v-.8c.59-.13 1-.38 1-1 0-1.77-2.4-5.81-5.72-8.33v-3h.53c2.3 0 4.13-.59 4.13-2.73 0-1.84-1.21-2.48-3.64-2.48H34v15.54c0 1.12.37 1.93 1.37 2.18v.71h-7.45v-.77a1.62 1.62 0 0 0 1.31-1.62V200.7a1.72 1.72 0 0 0-1.31-1.93zm41.56-.78c7.31 0 12 5.32 12 11.66 0 8.24-6.78 11.94-13 11.94-7.58 0-12-5.35-12-12s5.69-11.6 13-11.6zm-8.08 10.77c0 4.81 2.7 9.29 7.43 9.29 4.13 0 7.78-2.52 7.78-7.31s-3-9.2-7.53-9.2-7.68 3.2-7.68 7.22zm47.35 4.84A9.17 9.17 0 0 0 116 217c2.46 0 3.26-1.43 3.26-2.55a2.4 2.4 0 0 0-.84-1.9c-1.77-1.8-6.12-2.83-8.4-5.1a6.18 6.18 0 0 1-1.67-4.31c0-2.68 2-5.82 6.83-5.82a10.55 10.55 0 0 1 5.32 1.28l.81-.93h.74l.81 7.3h-1.22c-1-1.71-3-4.16-6.09-4.16-2 0-2.77 1.18-2.77 2.15a1.71 1.71 0 0 0 .56 1.27c1.41 1.43 6.12 2.67 8.61 5.16a6.49 6.49 0 0 1 1.9 4.41c0 3.58-1.86 6.85-7.53 6.85a15.29 15.29 0 0 1-5.43-1.13l-.66.84h-.75l-2-7.59zm26.03-14.89h16.07l2.11 5.38h-1.18c-.69-1.18-1.74-1.58-3.45-1.58h-7.27v4.69h7.83c1.3 0 1.89-.43 2.18-1.3h.84v6.25h-.84c-.22-.87-.75-1.27-1.84-1.27h-8.17v6.26H149a3.72 3.72 0 0 0 3.17-1.69h1.12l-2 5.38h-16.5v-.84c.81-.19 1.33-.68 1.33-2v-16.36c0-1-.22-1.71-1.33-2.05zm29.07.06H174c4.94 0 6.72 2.86 6.72 5.72 0 3-1.59 4.88-4.69 5.59a15.79 15.79 0 0 1 2.77 2.21c3.14 3.14 3.85 7.28 5.22 7.74v.77H176v-.8c.59-.13 1-.38 1-1 0-1.77-2.39-5.81-5.72-8.33v-3h.52c2.3 0 4.13-.59 4.13-2.73 0-1.84-1.21-2.48-3.63-2.48h-2.34v15.54c0 1.12.38 1.93 1.37 2.18v.71h-7.46v-.77a1.62 1.62 0 0 0 1.3-1.62V200.7a1.72 1.72 0 0 0-1.3-1.93zm29.63-.03H201v.87a1.52 1.52 0 0 0-1.27 1.56v16.6c0 1 .31 1.93 1.33 2.17v.87h-7.49v-.84a1.73 1.73 0 0 0 1.27-1.74v-16.48c0-1.34-.43-1.93-1.33-2.15zm18.36-.03h16.08l2.11 5.38h-1.18c-.68-1.18-1.74-1.58-3.45-1.58h-7.27v4.69H226c1.3 0 1.9-.43 2.17-1.3h.83v6.25h-.85c-.21-.87-.74-1.27-1.83-1.27h-8.18v6.26H226a3.72 3.72 0 0 0 3.17-1.69h1.11l-2 5.38h-16.44v-.84c.81-.19 1.34-.68 1.34-2v-16.36c0-1-.22-1.71-1.34-2.05zm30.04 14.89a9.16 9.16 0 0 0 7.27 4.23c2.46 0 3.27-1.43 3.27-2.55a2.39 2.39 0 0 0-.84-1.9c-1.77-1.8-6.12-2.83-8.39-5.1a6.19 6.19 0 0 1-1.68-4.31c0-2.68 2-5.82 6.84-5.82a10.52 10.52 0 0 1 5.32 1.28l.81-.93h.74l.81 7.3h-1.21c-1-1.71-3-4.16-6.1-4.16-2 0-2.77 1.18-2.77 2.15a1.69 1.69 0 0 0 .56 1.27c1.39 1.43 6.12 2.67 8.61 5.16a6.52 6.52 0 0 1 1.89 4.41c0 3.58-1.87 6.85-7.52 6.85a15.31 15.31 0 0 1-5.44-1.13l-.66.84h-.74l-2.06-7.59z"/><path class="cls-2" d="M150.64 127.46c-.72 28.13 43.49 48 44.4 48 0 0 16.57 2.73 22.2-4.12 4.16-5.06-2.88-17-2.88-17l-30.9-56.54s-31.91-5.68-32.82 29.66zM101.69 47l-41.37 74.64s71.27-9.42 41.37-74.64z"/><path class="cls-3" d="M224 157.88l-19.81-36.27-12.69-23.13a104 104 0 0 1 31.4 9.73 55.13 55.13 0 0 0-36.78-19.58l-.59-1.08-35.1-64.26-6.57-12c-15-25.75-28.61.71-28.61.71L112 17.67c-18.59-9.83-48-7.54-48-7.54s22.93 3 36.76 21.35c.69.91 1.35 1.82 2 2.72l-69 122.24c-13.62 24.21 6.74 25 13.23 25.16a3.19 3.19 0 0 0 1.07-.12h160.17c31.47 1.43 15.77-23.6 15.77-23.6zM106.74 40.4c16.53 27.76 8 48.29-.06 58.63-12.42 15.89-34.53 21-45.94 22.88zM46.95 174.55c-6.16-.84-14-5-3.81-21.44l3.81-6.74 6.76-12 .22-.39c15.6-.92 37.81-3.89 55.3-13.05 13.64-7.14 32.18-21.56 32.18-51.16 0-21.14-8.59-37.66-22.31-47.22-.49-.44-1-.87-1.51-1.28 3.26-5.09 13.53-17.94 24.68 1.17l.47.86L178 87.92l.28.45c-.83 0-1.67.07-2.52.13-30.87 2.32-54.48 27-54.48 54.71a56.11 56.11 0 0 0 10.53 32.42H56s-4.51-.46-9.05-1.08zm157.2 1.11H175.2l-4-2.49c-11.91-7.73-27.35-20.92-27.35-39.59a42.21 42.21 0 0 1 2.92-15.84c3.85-11.29 16-20.29 36.69-19.87l20.68 37.84 10.21 18.7s12.78 20.3-10.2 21.24z"/><path class="cls-1" d="M69.64 274.43a6.64 6.64 0 0 1-3.55 1.15c-6.55 0-7.51-8.55-7.51-13.32 0-4.51.15-15.32 7.77-15.32a6 6 0 0 1 3.29.89v2.85a5.52 5.52 0 0 0-3.26-1.22c-4.51 0-5.14 6.55-5.14 11.73 0 3.26 0 11.88 5 11.88a6.11 6.11 0 0 0 3.44-1.26zm33.11.77H100l-1-5.74h-6l-1 5.74h-2.75l5.48-27.9h2.44zm-4.22-8l-1.85-10.69c-.33-1.89-.48-3.81-.7-5.7h-.15c-.26 1.89-.44 3.81-.74 5.7l-1.63 10.69zm34.64-15.49a5.41 5.41 0 0 0-4.11-2.26c-2.59 0-4 2.15-4 4.51 0 3.26 2.37 4.77 4.77 6.4s4.74 3.44 4.74 7.29c0 4.07-2.63 7.92-7 7.92a7.27 7.27 0 0 1-4.4-1.41v-3.36a6.37 6.37 0 0 0 4.51 2.26c2.74 0 4.26-2.41 4.22-4.92 0-3.26-2.37-4.7-4.74-6.36s-4.77-3.44-4.77-7.44c0-3.74 2.29-7.4 6.4-7.4a7.5 7.5 0 0 1 4.4 1.48zm31.97-2.04H159v9.84h6v2.37h-6v11h6.18v2.37h-8.77V247.3h8.77zm31.93 2.04a5.41 5.41 0 0 0-4.11-2.26c-2.59 0-4 2.15-4 4.51 0 3.26 2.37 4.77 4.77 6.4s4.74 3.44 4.74 7.29c0 4.07-2.63 7.92-7 7.92a7.27 7.27 0 0 1-4.4-1.41v-3.36a6.37 6.37 0 0 0 4.51 2.26c2.74 0 4.26-2.41 4.22-4.92 0-3.26-2.37-4.7-4.74-6.36s-4.77-3.44-4.77-7.44c0-3.74 2.29-7.4 6.4-7.4a7.5 7.5 0 0 1 4.4 1.48z"/></g></g></svg>