<svg xmlns="http://www.w3.org/2000/svg" viewBox="0 0 1099.64 827.02"><defs><style>.cls-1{fill:#80392c}</style></defs><title>brand-cajun</title><g id="Layer_2" data-name="Layer 2"><g id="Layer_1-2" data-name="Layer 1"><path class="cls-1" d="M135.7 748.33l-33.66-18 3.52-6.58 3.32 1.78a3.39 3.39 0 0 0 4.65-1l15.34-28.63a2.51 2.51 0 0 0-1.28-3.31l-3.33-1.78 3.52-6.57 31.62 16.95c4.75 2.54 8.94 9.06 6.48 13.66l-4 7.39c-1.53 2.85-5.28 4-8.54 4 2.54 2.93 3.85 7 2.13 10.21l-5.14 9.6c-2.33 4.5-10.08 4.71-14.63 2.28zm7.35-17.48c1.22-2.27 0-5.29-2.6-6.71l-4.82-2.59c-3.19-1.71-5.22-1.68-6.25.25l-4.65 8.67c-1 1.92.1 3.57 3.29 5.28l4.82 2.58c2.65 1.42 5.79.78 7-1.55zm9.95-19.39c1.22-2.27.11-5.26-2.54-6.68l-4.55-2.44c-3.19-1.71-5.19-1.73-6.21.19l-3.59 6.69c-1 1.92.1 3.57 3.29 5.28l4.55 2.44c2.65 1.42 5.72.74 7-1.59zm59 70.31l-4.27-1.56c-12.36-4.52-18.28-14.13-13.56-27l5.78-15.81c3.2-8.74 13.88-12.85 23.93-9.17l6.8 2.49c10.05 3.67 15.56 13.7 12.37 22.44l-5.78 15.8c-4.27 11.58-12.8 17.39-25.27 12.81zM232 747c1.25-3.41-1-7.45-4.94-8.9l-3.69-1.35c-4-1.46-8.2.23-9.45 3.64l-7.41 20.27c-1.65 4.52-1.19 10 4.67 12.11l2 .74c4.77 1.74 9.2-.29 11.13-5.56zm114.86 24.3c-1.2-.28-2.32.48-3.28 1.88l-18.13 39.71-13.8-3.2.27-30.84-12.72 27.96-14.63-3.39.32-43.35c.07-2-.89-3.32-2.54-3.71l-3.83-.89 1.68-7.26 25.35 5.87-1.68 7.26-4.8-1.11c-1.2-.28-1.72.62-1.71 1.57v19.85l10.36-21.86 15.15 3.51-.26 25.35 8.5-18.63c.81-1.1.3-2.3-1.13-2.63l-3.83-.89 1.68-7.27 24.3 5.63-1.68 7.27zm78.7 21.18l.44-6.79c.19-2.9-2.42-5.45-5.8-5.67l-10.91-.71a1.45 1.45 0 0 0-1.62 1.22l-.85 13.11 4.61.3a1.34 1.34 0 0 0 1.46-1.1l.23-3.49 8.53.56-1.19 18.09-8.53-.56.31-4.74c.06-1-.51-1.69-1.81-1.77l-4.07-.26-.91 14a2.58 2.58 0 0 0 2.61 2.55l6.61.43-.48 7.44-30.12-2 .48-7.44 3.53.23c2.54.16 4.73-1.48 4.87-3.65l2-31.09a3 3 0 0 0-3-3l-4.92-.32.48-7.45 47.86 3.12-1.28 19.51zM469.07 827l-.1-7.46 4.16-.05a3 3 0 0 0 3-2.81l-.43-32.54a2.63 2.63 0 0 0-2.73-2.54l-4.54.06-.1-7.46 26.71-.36.1 7.46-5.16.07a2.15 2.15 0 0 0-2.2 2.08l.43 32.41a3.61 3.61 0 0 0 3.82 3.38h3.62l.1 7.45zm86.35-2.33l-2.84.21a22 22 0 0 1-11.92-2.56l-1 2.79-7.6.56-1.55-20.94 7.6-.56.24 3.16c.41 5.6 6.83 9.89 15 9.28l.69-.05c5.07-.37 8.33-3.2 8.13-6-.88-11.85-31.93-3.79-33.3-22.23-.67-9 7.32-16.83 19-17.69l1.61-.12a24.36 24.36 0 0 1 11.39 1.61l1-1.72 7.45-.55 1.37 18.56-7.6.56-.22-3c-.35-4.68-5.78-8.25-12.62-7.74h-.69c-5.45.41-8.33 3.27-8.12 6 .67 9 31.61 3.62 33 22.31.64 9.32-7.12 17.24-19.02 18.12zM645.43 813l-1.23-7.36 6.07-1a1.29 1.29 0 0 0 1.19-1.33L649.08 789l-17.92 3 2.34 14a1.45 1.45 0 0 0 1.74 1.05l5.93-1 1.23 7.36-27.2 4.59-1.2-7.35 3.8-.63c1.82-.3 3.07-1.72 2.81-3.28l-5.32-31.9a3.08 3.08 0 0 0-3.72-2.19l-3 .5-1.23-7.36 25.44-4.24 1.23 7.36-5.39.9a1.06 1.06 0 0 0-1 1.17l2.15 12.89 17.92-3-2.06-12.37a1.71 1.71 0 0 0-2.08-1.19l-4.71.79-1.23-7.36 25.39-4.25 1.23 7.36-3.57.6a2.53 2.53 0 0 0-2.37 2.67l5.33 32c.29 1.76 2.28 2.9 4.33 2.55l3.42-.57 1.23 7.36zm66.2-13.59l-1.89-7.21 4-1.05a3 3 0 0 0 2.28-3.46l-8.25-31.48a2.63 2.63 0 0 0-3.26-1.81l-4.4 1.15-1.89-7.22 25.85-6.77 1.89 7.22-5 1.31a2.15 2.15 0 0 0-1.64 2.55l8.25 31.36a3.61 3.61 0 0 0 4.52 2.37l3.5-.92 1.89 7.22zm99.69-79.75a2.17 2.17 0 0 0-1.44 2.72l15.21 40.55-11 4.11-34.53-28.72 1.08 1.57 9.23 24.6c.79 2.1 2.29 2.81 4.09 2.13l5.19-1.95 2.62 7-26.38 9.89-2.62-7 3.32-1.24a3.05 3.05 0 0 0 2.06-3.73l-11.43-30.47a2.68 2.68 0 0 0-3.57-1.41l-2.81 1.06-2.62-7 21.69-8.14 27.26 22.91-1-1.53L799 727a2.75 2.75 0 0 0-3.64-1.38l-4.4 1.65-2.62-7 22.93-8.59 2.62 7zM898.38 704a1.79 1.79 0 0 0-.89 2.37l8.85 16.08-6.54 3.6-2.17-1.05a21.49 21.49 0 0 1-8 7.49l-6.41 3.51c-9.44 5.2-20.69 2.81-25.18-5.35l-10-18.16c-4.49-8.15-.5-18.94 8.94-24.14l6.41-3.53a22.12 22.12 0 0 1 10.52-2.77l-.29-2 7.22-4 11.33 20.58-5.17 2.91c-.74.41-6.67-2.05-7.05-2.75l-1.75-3.18c-1.68-3.06-6.86-3.83-10.77-1.68l-3.43 1.93c-3.71 2-5.28 6.38-3.53 9.55L872.35 725c1.78 3.24 6.25 4.17 10 2.12l3.51-1.93c3.71-2 5.31-6.32 3.53-9.55l-1.78-3.24a2.43 2.43 0 0 0-3.35-.65l-3.57 2-3.6-6.53 21.78-12 3.6 6.53zM624 662c-8.66 6-13.74 5.38-14.94 3.29a7.91 7.91 0 0 1-.53-2.94c5.93-4.13 30.68-23.37 30.68-23.37l-10.94-1.87s-15.27 11.77-19 14.31a6.18 6.18 0 0 1 .39-1.37c.89-1.79-.9-7.77-3.29-11.05s-6 0-6 0c-.9 3.58-1.49 19.72-.9 22.7s.9 8.66-.9 13.14S600.4 687.72 604 688s15.53-8.66 17.92-12.25 42.3-32.21 42.3-32.21l-14.52-2.12S632.66 656.05 624 662z"/><path class="cls-1" d="M440.76 600.22c17.29 6.77 47.94 18.19 67.61 22.91 6.27-5.38 17-15.24 26-14.94s43.63-5.08 43.63-5.08-33.18 10.75-41.24 12.89-14.94 4.78-16.13 8.36-6 14.94-5.08 19.42.9 11.35-.6 14.64-4.78 8.36-4.18 14.63 3.88 17 2.39 20.31-.6 10.16 6.57 10.46c3.28.3 15.23-9.56 16.13-10.46s1.82-5 6-8.66c39.73-34.65 59.7-63.53 59.7-63.53 3.88 1.49 33.42 13.17 79.5 17.22 5.69.5 9-1.79 13.44 1.2s46 48.69 53.77 53.47c.89-.3 6.34 1-9.3-19.47-6.15-8.06-9.52-16.37-9.22-17.57s.9-2.39 2.39-2.09 17.62 7.17 30.47 7.17a83.24 83.24 0 0 0 23.6-3.59s13.1-9.23 11.51 1.58c-.52 3.55-5.84 13.66-8.52 18.44-9.06 16.11-2.82 15.77 6.77 2.06 2.09-3 20.71-19.69 15.63-44.18s6-25.09 6-25.09 9.26 2.69 12.85 1.49 14.5-6.06 11.05-13.94c-4.18-9.56-9.75-12.88-9.86-22.21-.06-5.58 4.77-14.49-1.79-17-2.12-1.15-5.08 0-6.27 2.69s-4.18 8.66-14 8.66c-61.06 0-77.67 32.26-82.15 37.34s-7.77 6.57-13.44 7.17-9.56-1.79-7.77-6.27S717.19 604 719 604.6a5.89 5.89 0 0 0 6-1.79c23.9-43 77.77-37.18 77.77-37.18 6.71.49 10.06-2 11.85-4.64s5.68-9.26-.89-12.55-19.12-.6-25.09 2.09-3.29-3.29 2.39-5.68 4.48-5.08 3-6.87c-.88-1.06-8-11.95-16.27-25.17-2.15-3.44-2.37-17-4-20.5-3.83-8.17-10.26-5.77-12.5-9.17-13.5-20.46-8-50-51.48-57.74a9.85 9.85 0 0 1 4.79-.64c3.33.14-6.87-25.09-34.06-36.15-15.88-6.46-13.74-12.85-18.22-25.09s-6.87-24.2-14-31.37-10.56-19.15-14.45-20.6-15.53 9.56-20.31 12.25-30.17 8.07-41.52 7.77-23-.3-27.78 2.09-20.61 3-27.18 5.38-60.94 29-70.5 33.46a136.73 136.73 0 0 0-18.72 11.05s-4 4-2.39 8.76 25.89 5.18 25.89 5.18-47.4 35.05-57.75 41c-4-.8-12.75 3.58-12.75 3.58-4-2-16.33 3.19-19.12 4.38-2.79-1.2-23.9-1.2-28.28-1.2s-14.34.4-18.72-2.79-43-59.15-100-66.72c-.8 2.39-5.18 14.54-7.57 14.94s-7.17-.4-7.17 1.59 8 4.78 8.76 7.57-.4 5.18-.4 6.77 2.79 8.37 2.39 9.56 0 6-1.59 7.57-2.79 6-2.79 6 3.88 4.58 7.77 6.67-.3 4.78-.6 7.17.89 5.38 5.67 7.17 12.55 4.48 13.44 5.38 4.18 4.18-2.09 5.68-8.36 3-10.16 3.58-5.68 2.39-6.57 4.18-2.69 4.18-4.48 4.18-7.77 1.2-9.26 3-6.87 4.78-8.66 5.68-12.25 2.69-13.44 5.38.9 9.26-1.2 10.16-7.47 7.47-4.48 12.85 6.27 12.84 12.25 15.23 20.31 5.38 28.38 5.38 26.59-2.09 33.46-5.38 27.18-11.95 32.26-14 14.64-7.17 19.72-8.07 14-3.58 20.61-2.09 12.85 2.09 21.51 8.36 32.4 34.85 36 36.87c7.22 4 16 2.37 18.44 1.2 48.79-23.8 112-49.72 112-49.72l-192 106 15.73-72.4-15.23 2.49-40.59 72.85 6.55 20.67-44.87 25.39-40.72 37.59 55.66-16.12 45.33-25.86 13.42 14.94 89 14.29L412 665.63l-80.44-32.07 193.55-114.68-86.28 67.94s-9.83 8.8 1.93 13.4zm56.56-238c1.79-.4 8.17-3.19 9-1.79s1.2 4.18-.6 4.78a46.55 46.55 0 0 1-7.77 1.19 32.83 32.83 0 0 1-4.18-1s1.76-2.76 3.56-3.16zm-276.39 29c-.2-1 3.58-1 4.78-1a53.12 53.12 0 0 1 9.76 2c2 .8 9.36 4.78 11.35 7.17S264.95 411 264.95 411l-1.59 3.58a8.2 8.2 0 0 0-1.79-.4c-.6 0-2.59-1.59-3.19-2a28.68 28.68 0 0 0-4.38-2.79 28.07 28.07 0 0 1-5.38-3.58c-1.19-1-4.38-2.79-5.58-4.18s-5.18-2.39-6.57-3.39-3-1.19-3.58-1.59a39.73 39.73 0 0 0-5.77-2.79c-2.2-.86-5.98-1.62-6.18-2.62zm.95 15.63c-1.39-1.79-1.39-2.79 1.59-2.19s6.37 2.79 8.17 4a130.18 130.18 0 0 0 12.95 7c2.59 1 12.4 8.2 12.4 8.2l-2 3.91-1.68-.37s-1.2-.6-2.19-1a45.07 45.07 0 0 1-4.78-3c-1.19-.8-3.19-2.19-5.38-3.38a21.7 21.7 0 0 0-5.38-2.19 11.05 11.05 0 0 1-4.38-2.79 38.73 38.73 0 0 0-5-4.38 15.83 15.83 0 0 1-4.31-3.79zm-.78 17.7c1.39-.8 5.18.2 5.77.4s2.79 1.2 4.18 1.59a43.25 43.25 0 0 0 6.17 1c.8 0 5.18 1 6.17 1.19s9.18 4.26 9.18 4.26l-1.59 3.3-3.61-.79s-4.18-1.59-4.78-1.79a50.19 50.19 0 0 1-6.57-2.19c-1.39-.8-3.78.6-6.17.4s-5-2.79-5-2.79-2-.6-3.58-1.2a1.84 1.84 0 0 1-.16-3.36zm3.38 17.32a7.92 7.92 0 0 1-3.38-3.39c-.4-1.19 3.58-1 4.78-1s5.58.2 7.17.2 7 .6 8.36.8 7.17 1.19 7.17 1.19l1.59.6 1.43 4s-3.62-.58-4.62-.78a56.5 56.5 0 0 0-6.77-.2 58.71 58.71 0 0 0-10 .39c-3.73.61-4.92-1.58-5.72-1.78zm4 24.51c1.39-.4 4.78.8 6 1.59a9.69 9.69 0 0 0 4.38 1.2h5c1 0 7-.2 7-.2s2.79-2.39 3.78.6-1.39 3.38-1.39 3.38-4 .2-5.18.2-7.37.4-9.36.4a20.84 20.84 0 0 1-5.58-.8 19.93 19.93 0 0 1-4.38-2.59c-2.7-2.35-1.75-3.35-.31-3.75zm-14 12.34c1 0 5 .6 6.17.79s5.18 2.39 6.37 2.79a28.34 28.34 0 0 0 6 .4c1.59 0 5.58.6 7 .2s8.16.2 9.76 0a10.46 10.46 0 0 1 3.59.4s-.6 2.79-1.39 3.38a5.17 5.17 0 0 1-3 .8c-1 0-5.77.4-7.37.4s-7.37 0-8.56-.2-5.18-.2-6.77-.2a14.25 14.25 0 0 1-5.78-2c-1.19-.79-4.83-1.48-5.77-2-6.29-3.33-1.31-4.73-.31-4.73zm-18 10.68c.8-.6 5.38 1.59 6 2.19s6.37 2.19 8.36 1.8 8.16.39 10.55 1.39 10 1.39 11.95 1.39 8.56-.4 10.16-1 8.17-.6 8.17-.6 1.11 2.36.51 3.36-4.5.42-5.49.62a20.16 20.16 0 0 0-5.18 1.79c-1.79 1-5 .8-7.17.8s-5.18.2-7.37.2a36.84 36.84 0 0 1-8.17-1.39 62 62 0 0 0-7.37-1.59c-1.59-.2-6-1-7.37-1.2a22.49 22.49 0 0 1-6.37-2.79c-4.26-2.75-2.06-4.37-1.27-4.93zm-12 17.38c-2.39-2.59 0-2.79 1.59-2.59a71.09 71.09 0 0 1 8.76 2.19c2.39.8 11.35 2 14.34 2.39a96.21 96.21 0 0 0 15.34-.4c2.19-.4 10-.6 11.35 0s4.38-1.59 5.58-2a72 72 0 0 0 7-2.39c1-.6 3.78 0 4.18 1s-1.39 2-2 2.39a35.2 35.2 0 0 0-3.59 3c-1 1-3.78.8-6.37 1s-2.19 1.2-3.58 1.79-5.77.8-7.77.8-14.34-.2-18.72-.6-14.14-1.59-18.32-2.79a28.5 28.5 0 0 1-7.81-3.75zm69.9 10s-13.14 8-34.26 10-31.66-5-31.66-5c-2.19-1.19-1-2.59.2-2.59s3.19 1 5.77 2.39c28.48 6.77 56.56-8.17 58.75-9.56a2.06 2.06 0 0 1 3.19.8l.4 1.79zm.71-61.73a40.06 40.06 0 0 0-4.58-1.2c-1-.2-3-.8-4.38-1.19s-3.78.2-5.38.4-4.17.45-5.58-.4c-1-.6-3-2-2.79-2.59s2.19-1.39 2.79-1.39 4.78.6 5.77.4 5.78-.4 7.37-.4 5 .91 5.79 1.7 4.36 5.26 4.36 5.26a11.93 11.93 0 0 1-3.38-.64zm135.5 16.52c-1.79 1-11 7.17-11.75 12.95s-.4 9.36.6 10.76-.2 3.58-1.39 3.19-2.79-2-4.18-4.58-2-3.78-2-5.18 0-2-.6-2.59-4-1.79-4-4-1.39-7.57-1-8.56a30.64 30.64 0 0 0-5 5.38c-1.39 1.79-4.58 6.38-5.38 7.77s-3.39 3.59-2.19 6 3.19 8.56 4.38 10.36 1.59 3 .6 3.19-5 .4-7.37-6-3.78-9-4.58-10.16-4-7-4.38-7.77-1.39 0-1.39 0-8.76 9-1.59 20.31c.2 2.59-.2 2.19-1.19 2.39s-4-1.25-5.48-3.93-2.39-4.19-2.54-5.38a6.11 6.11 0 0 0-1.49-3.28c-.6-.45-3.29-2.84-3.73-4.18s-1-4.48-2.69-4.63-3.73-.89-4.48.15-1.94 3.28-2.84 4.63-1.34 1.64-1.64 3 0 4.18-1 4.48-3.88-1.2-4.48-2.54-2.84-3.13-3.14-4.63-3.88-5.83-3.88-6.27-1-2.39-1.94-2.39-1.49.45-2.09 1.64-1.94 2.39-2.39 3.44-1.49 1.94-1.79 3.29a4.3 4.3 0 0 0 .3 3.59 25.58 25.58 0 0 1 2.54 4.93c.45 1.49.9 4-.9 4.33s-4.48-1-5.08-3a45.56 45.56 0 0 0-2.54-5.53c-.9-1.94-2.39-6-3-7.46s-1.94-4.33-2.39-4.33-1.19-1.35-1.64-.75-2.09 3.74-2.54 4.48a12.63 12.63 0 0 0-1.33 2.81c-.3 1-.9 4.48.3 6.42s3.58 5.23 4 6.42 2.24 2.69 1.94 3.58-.75 2.89-3.58 1.89c0 0-8-6.57-8.37-12.75s.2-9.16 2.19-11.55 6.77-9 7.17-11.15.8-4.38 2-4 2.59 3.38 2.59 4v4.38c0 1.59 4.58 9 4.58 9.76 1-2.59 2.19-7 4.58-8.56a11.61 11.61 0 0 0 4-5.78c.4-1.19.8-3.58 2.39-3.58a4.08 4.08 0 0 1 2.79 1.59s.8 3 .2 4a17.31 17.31 0 0 0-1.19 3.19s5.38 8.17 6.17 10.16l1 1.2s2-2.59 3-3.58 5.58-4.38 6-5.18 2.39-2 2.39-3.18-4-4.58-4.38-5.58-2.39-4.18-1.2-4.78 3.59-1 4-.2 2.39 5.18 3.58 5.78c1.79-1.19 5.77-5.57 7.37-6s2.59 1.79 1.79 2.79-3.39 4.58-3.39 4.58a23.44 23.44 0 0 0-2.19 3c-.2.6-1.39 4-1.39 4s5.66 8.34 6.66 10.13c2.39-5.78 7.37-10.56 7.77-11.15s-1.39-3-1.39-3-3.19-5.18-3-6 1-3.39 2.39-2.79 3.59 6.17 3.59 6.17 3.19-5.77 6.17-7.77 4.78-.4 4.38.79-3.19 5-3.78 6S345 476 345 476l4.18 9.76s9.56-12.15 11.75-14.14a9.81 9.81 0 0 1 4.18-2.39s1.79-.4 1.79-1.39-3.19-3.78-2.39-4.38a5.26 5.26 0 0 1 4.38-1.39c2.19.4 3 .79 3.58 1.39s2.79 1.79 2.19 3.19a33.31 33.31 0 0 1-3 4.78c-.6.8-1.39 8.37.4 10.76 1.39-3 4.78-12.55 17.33-13.74 1.79.73 2.98 2.13 1.19 3.12zm65.52-32.46c1.79 9 14.94 19.12 17.33 21.21s.6 3-1.79 2.69c-16.73-5.68-21.21-18.82-21.81-20.91-19.42 22.4-3.58 45.4-2.39 48.1-12-3.29-15.53-18.22-15.53-20.61-6-4.48-9.56-11.35-12.25-14.94s-4.48-9.86-4.48-9.86l-3 1.49c-1.19.6-7.47 11.95-10.16 15.24s.3 11.35.3 15.23 6.27 13.14 7.77 15.83 1.49 4.18.6 4.18a35.4 35.4 0 0 1-16.43-30.17s.6-2.69-.9-3.59-5.38-6.27-5.38-6.27c-.9-2.39 1.49-3 3-1.79s6.87 4.78 6.87 4.78l.6-1.19c2.39-11.65 14.34-17.33 17.33-18.22 0-1.49 3.29-9.26 6.27-11.65s4.48-.3 3.88 1.79c-7.17 6.87-3.88 14.64-3.29 18.22s8.36 12.25 10.45 13.14c3.29-16.43 14.34-25.39 17.62-26.29a22.7 22.7 0 0 1 4.18-17.92c11.35-14.64 18.22-9 19.72-8.06s-.3 4.48.6 7.77 8.66 9.56 11.35 13.14c-8.66-2.39-14.94-9-16.13-11.05s-3-4.78-4.18-4.18a17.09 17.09 0 0 0-5.08 4.48c-1.18 1.79-6.87 10.45-5.08 19.41zM479 374.58c-2.59 1.59-1.59 1.39-3.19 1.39s-3.79-2-3.79-2a2.07 2.07 0 0 1 .6-2.59 6.46 6.46 0 0 1 4.58-1.59s4 .2 4.58.6-.2 2.61-2.78 4.19zm-20.67 9.33c-2.59 1.59-1.59 1.39-3.19 1.39s-3.79-2-3.79-2a2.07 2.07 0 0 1 .6-2.59 6.46 6.46 0 0 1 4.58-1.59s4 .2 4.58.6-.19 2.6-2.78 4.2zm64.39 44.74c-21.51-9-23-25.69-23-25.69l-3.58-2.09c-3.58-2.09-5.38-8.66-5.38-8.66.3-2.69 1.79-2.09 3-.3s5.38 3.88 6.27 3.88 1.2-1.49 1.49-3 3.58-6 4.78-7.17a34.75 34.75 0 0 1 4.78-3.29s2.09.6 1.49 2.39c-17.92 22.41 9.26 40 10.45 41.23s.89 2.7-.3 2.7zm-7.5 49.5c-21.51-9-23-25.69-23-25.69l-3.58-2.09c-3.58-2.09-5.38-8.66-5.38-8.66.3-2.69 1.79-2.09 3-.3s5.38 3.88 6.27 3.88 1.2-1.49 1.49-3 3.58-6 4.78-7.17a34.83 34.83 0 0 1 4.78-3.29s2.09.6 1.49 2.39c-17.92 22.41 9.26 40 10.45 41.22s.89 2.71-.3 2.71zm40.5-50c-21.51-9-23-25.69-23-25.69l-3.58-2.09c-3.58-2.09-5.38-8.66-5.38-8.66.3-2.69 1.79-2.09 3-.3s5.38 3.88 6.27 3.88 1.2-1.49 1.49-3 3.58-6 4.78-7.17a34.75 34.75 0 0 1 4.78-3.29s2.09.6 1.49 2.39c-17.92 22.41 9.26 40 10.45 41.23s.89 2.7-.3 2.7zM526.6 635.37c.9-2.39-.9-5.08 1.19-8.66s8.07-2.39 11.05-3.58 15.54-2.13 15.54-2.13c2.69 0 9-1.49 8.07-.89a77.32 77.32 0 0 1-8.66 4.48c-1.79.6-6.87 3.29-11.05 5.08s-7.77 5.08-11.95 7.77-5.09.32-4.19-2.07zm19.12 33.46c-2.09 1.19-11.95 9.56-13.14 10.46s-6.27 6.87-8.06 4.78-1.79-12.84-1.5-15.53a79.36 79.36 0 0 1 3.29-12.25c.6-1.19 1.49-3.29.6-4.18s2.69-3.88 6.57-5.68 13.74-6.57 15.53-8.07 11.65-6.57 11.65-6.57-3 6-6.27 7.77a49.48 49.48 0 0 0-10.16 7.44c-2.69 2.69-6.27 6.27-8.36 8.07s-5.08 5.08-5.08 8.06 1.79 5.68 3 4.18 9-7.47 12.55-9.56 24.79-16.13 28.38-19.42c-.03.03-26.91 29.3-29 30.5zM622 342.92c.57-.18 4.78.8 4.78.8s3-11.11 3.76-9.91 1.22 15.29 3 17.88 2.19 2.59 3.58 5.77 5 5.38 3.79 7.17-7.17-1.4-8.77-4.18-1.79-2.59-4.78-5.38-2.59-5-3.19-5.57-5.96-5.38-2.17-6.58zm-25.93-3.66c.57-.18 4.78.8 4.78.8a4.75 4.75 0 0 1 2.59 1.59c.79 1.2 2.39 3.78 4.18 6.37s2.19 2.59 3.58 5.77 5 5.38 3.79 7.17-11.53-1-13.12-3.84 2.56-2.93-.42-5.72-2.59-5-3.19-5.57-5.98-5.37-2.19-6.57zm-28.76 10.31c1.39-1 1.39 0 1.39 0 .4-.6 1.19-.8 2-1.59a23.29 23.29 0 0 0 2-2.19 7.31 7.31 0 0 1 3.19-2c.6-.2 2.79-.4 3.58-.6a14.8 14.8 0 0 1 4.18.2c.8.2 1.59 0 1.79 1a2.64 2.64 0 0 1-.2 2.19c-.4.6-1.79 1-2.39 2s3.38 5.78 3 6.38 2.79 5.33 2 5.33-15.37-6.29-15.37-6.29l-1.39.4a2.75 2.75 0 0 1-1.39.4c-.8 0-1 .6-2-.8s-1.79-3.43-.39-4.42zm-17.21 6.89c-1.59 1.19 1 .6-1.59 1.19s-1.4 1.19-3.58.6-.8-.6-2.19-.6 1.19-1-1.4 0-5 2.19-5.58 2.39a21.75 21.75 0 0 1-3 .4c-1.59.2-7.37-.6-5.58-2.59s2.39-.6 2.39-.6c1.79-1.19 5.18-2.19 6.17-2.79s.8-1.19 1.8-2.39 2.59-2.79 4.78-2.59 6.17-1.59 7.77-1.39 3 .6 3 1.39-1.19 2.59-1.59 3.19a2.14 2.14 0 0 0-.6 1.79c0 1.21.79.81-.8 2zm10.26 169c0-74.38 72.89-73.19 72.89-73.19 4.48.9 6.27 2.39 8.66 3.88 0 0-67.21 2.39-67.21 69.6s64.82 91.11 93.5 104.55c-27.79-8.37-107.84-30.48-107.84-104.86zm131.73 107.22c-5.32-1.2-101-32.26-61.84-125.46 1.95-4.59 5.08-5.08 6.87-5.08s6.57 2.09 3.29 8.66-36 80.5 44.12 114.33c2.39 1.19 10.17-.17 11-6 .45-1.64 2.24-1.64 3.59 0-.01-.04 2.41 15.67-7.03 13.55zm-12.65-106.32c6.47-1.71 13.64 4.21 16 13.22s-1 17.69-7.42 19.39-13.64-4.21-16-13.22.98-17.69 7.42-19.39zm26.15 40c.49-11.79-.43-50.88-27.51-48.13a16.82 16.82 0 0 0-10.32 9.82c-2.46-3.93-.49-11.29-.49-11.29s8.29-23.21 31-3.75c19.08 16.31 11.83 40.86 7.33 53.38zm15.77 83.92c.89 2.69.3 2.39-.6 1.79-11.05-13.15-14.94-23.3-14.34-25.69a5.34 5.34 0 0 1 4.78-4.18c2.09 0 7.47-3 7.47-3 2.39-.3 7.47 1.49 3 5.68s-1.2 22.74-.3 25.43zm59.45.6c-22.4 4.48-45.4-6-47.2-7.17s2.09-2.09 3.59-4.48 1.49-6.57 2.39-8.07 2.72-3.43 5.11-1.64 18.55 13.36 35.5 10.75c16.25-2.5 17.64-22.26 17.64-22.26 3.11-3.24 4.18 1.2 4.18 1.2s1.2 27.21-21.21 31.7zm40-51.38c-5.71-2.91-10.75-7.17-22.4-5.08S764 604 754.23 609.38c-9.36 5.18-21.8 20.31-23 23.9-1.49 2.09-3.59 2.09-2.69-1.2 0 0 12.08-56.44 81.83-50.78 6.17.5 8.24-3.44 11.67-2.83 2.83.5 3 6.68 4.17 7.83 7.04 6.7 4.99 18.5-5.37 13.23zM240.4 79.68c-.4-1.69-2.48-2.19-6.23-1.5q-7.89 1.45-18.74 7.69-29.33 17.58-38.62 47.85-3.56 12.29 2.66 21.19-16.53 4.63-32.73 8.15-13.82 2.55-25.36 3.74-1.74 4.51-3.19 9.07a281 281 0 0 0 36.51-4.62q16.2-3.51 32.73-8.15-6.22-8.9-2.66-21.19 9.28-30.28 38.62-47.85a77.78 77.78 0 0 1 13-6.13l.47-.73q4.14-4.99 3.54-7.52zm493.34 71.39q-8.58 15.87-3.61 24.47c1.79 3.32 4.13 5.35 7 6.11q-3-8.35 4.57-22.38 8.62-13.22 24.94-41.09 6.12-13.82 4.81-19.4c-.56-2.36-2-3.34-4.22-2.92a13.67 13.67 0 0 0-4.12 1.61 70.58 70.58 0 0 1-4.44 12.53q-16.31 27.85-24.93 41.07z"/><path class="cls-1" d="M560.79 220.48q-18.45 18.34-44.72 41.08-14.49 13.25-37.63 29.68-48 70.2-85.48 103-41.93 36.3-74 42.21-14.62 2.7-23-1.78 7.34 14.3 30.95 10 32.09-5.92 74-42.21 37.48-32.83 85.48-103Q509.53 283 524 269.75q22.3-19.29 38.93-35.4a35.66 35.66 0 0 1-1.74-5.45 25.48 25.48 0 0 1-.4-8.42zM374.53 355.5q10.86-6.25 31.18-14.74 6.05-2.54 11.07-4.74 7.16-10.14 11.7-17.58-8.28 4.7-30.73 14.13-20.31 8.5-31.17 14.74-38.06 22.89-34.1 39.61 1.66 7 8.06 8.54c0-.12-.07-.23-.1-.35q-3.97-16.73 34.09-39.61zm256.79-182.9q-8.82 14.85-4.77 22c1.82 3.36 4.19 5.4 7.11 6.13q-2-7.11 5.62-20l19.1-31q11.92-19.12 9.89-27.74c-.83-3.49-3.4-5.08-7.69-4.8q-.36 8.63-10.16 24.34zm-283.93 40.87q27.42-33.09 55-38.18a20.25 20.25 0 0 1 5.46-.34 11.31 11.31 0 0 0-.37-2.33q-2.36-7.5-13.06-5.53-27.59 5.09-55 38.18-22.1 25.77-16.3 45.32 2.51 7.19 8.09 8.54c0-.12-.09-.22-.13-.34q-5.8-19.56 16.31-45.32zM955 98.09q-.57.11-13.29 18.32-8 11-11.24 19.53a9.13 9.13 0 0 0 1.59 9.23 7.05 7.05 0 0 0 5.85 3.4 9.83 9.83 0 0 1 .52-4.43q3.27-8.54 11.24-19.53 12.72-18.21 13.29-18.32 14-22.68 12.34-29.78a16.59 16.59 0 0 0-3.25-6.28 17.41 17.41 0 0 0-5.8-4.81 13.4 13.4 0 0 1 1.09 2.9Q969 75.42 955 98.09zM597 102q-7.6 10.13-18 13.11a17 17 0 0 1-11.48.21 12.56 12.56 0 0 0 6.68 7.68q5.62 2.67 12.7.3 10.45-3 18-13.11t6-19.35q-1-6.69-6.62-9.36a14.7 14.7 0 0 0-1.74-.68 15.87 15.87 0 0 1 .4 1.84q1.63 9.21-5.94 19.36zm399.2 39.05c-9.45 9.44-18.11 18.85-29.16 29.54q-29.19 28.13-50.7 31.56-26.86 4-34.72-10.9c6.29 3.53 15.33 5.13 26.76 2.71 14.32-3 26.57-10 46.7-27.91zM502.21 255.12l8.69-8q9.89-8.65 18.77-16.68 15.76-26.37 38.2-63.49 11.48-18.51 9.44-27.13-1.33-5.61-7.67-5.31 0 8.58-9.74 24.24-38.84 64.33-57.69 96.37zM665 205.53q-37.73 39.23-61.37 43.58-20.05 3.7-30.91-3 9.72 16.56 38.87 11.18 22.18-4.09 56.76-38.87a29.88 29.88 0 0 1-1.52-2.67 19.54 19.54 0 0 1-1.83-10.22zm-260 80.73q-17.33 3.2-26.66-1.8 7.56 15 34.62 10 17.26-4 40.93-24 9.13-17.26 17.43-32.32-40.38 42.11-66.32 48.12zm-37.79-23.17q-33.14 36.26-59.59 41.14-18 3.32-29.95-2.41a33 33 0 0 1-4.43-2.54 28.83 28.83 0 0 0 12.4 10.72q11.93 5.73 29.94 2.41 24.54-4.53 54.84-36.08a23.61 23.61 0 0 1-1.61-4 26.4 26.4 0 0 1-1.6-9.24zM49.89 106.35q-6.11 23.87 4.2 42.59c1-1.28 2.1-2.57 3.16-3.86q-3.63-14 .59-30.54Q62.7 97.78 77.2 77.12 88 60.85 87.92 60.34c-.8-3.37-3.08-4.72-6.83-4A16 16 0 0 0 75.81 59q-2.52 3.88-6.57 10-14.5 20.59-19.35 37.35zm210.58 158.36q-45.7 47.1-82.28 66a188.65 188.65 0 0 1-52.12 18.08q-40.53 7.48-70.86-6.5a82.05 82.05 0 0 1-19.67-12.8 78.82 78.82 0 0 0 27.63 21q30.32 14 70.86 6.5a188.65 188.65 0 0 0 52.12-18.08q33.62-17.39 75-58.62c-.25-1.25-.46-2.55-.6-3.9a50 50 0 0 1-.08-11.68zm662.1-187.08q-2.85-2.11-8.12.44A77.6 77.6 0 0 0 895 90.21a307.62 307.62 0 0 0-57.34 65.56q-8.24 14.87-16.91 30.34-12 21.43-18.88 27-3.46 2.76-8.88 2.17a28.81 28.81 0 0 1-12.19-4.34q6.83 10.77 20.16 12.54 5.43.59 8.88-2.17 6.91-5.54 18.88-27 8.67-15.47 16.91-30.34A307.57 307.57 0 0 1 903 98.4a77.5 77.5 0 0 1 17.32-11.15c1.17-1.51 2.33-3 3.5-4.54q1.59-2.95-1.25-5.08zM424.43 221.86q-2.62 17.31 7.77 18.49a32.52 32.52 0 0 1 .19-10.3q1.41-11.37 24.27-48.9 6.6-11.79 4.93-18.89c-.48-2-1.36-3.27-2.65-3.74a7.62 7.62 0 0 0-5.12.82q-.73 5.77-5.12 13.63-22.85 37.52-24.27 48.89zm344.25-36.1Q730 225.79 707.18 230q-19.92 3.67-31.05-3.6 10.57 17 39 11.8 21.19-3.91 55.94-38.59a25.51 25.51 0 0 1-2.39-13.85zm-607.9-80.68a239.59 239.59 0 0 1 66.88-52.53q31.14-17.37 61.13-19.74 12.75-1 20.35 3.2-6.93-13.14-28.31-11.4-30 2.36-61.13 19.74a239.59 239.59 0 0 0-66.88 52.53q-30.8 33.72-42.59 70.79c3.52-.17 7.25-.47 11.15-.88q12.39-32.14 39.4-61.71zm166.3-33.98q-17.34 36-72.58 73.15-40.73 26.55-102.36 41.62-27.8 6.71-47.77 6.69a150.08 150.08 0 0 0-1.16 22.44q2.08 28.71 19.15 46.18a36 36 0 0 0 3.28 2.8q-12.64-16.32-14.47-40.8a149.87 149.87 0 0 1 1.16-22.43q20 0 47.77-6.7 61.64-15.05 102.36-41.61Q317.7 115.28 335 79.29q9.31-20.22 5.6-35.94Q337.48 30 327.55 23a37.23 37.23 0 0 1 5.12 12.15q3.72 15.72-5.59 35.95z"/><path class="cls-1" d="M559.41 107.76q5.62 2.67 12.7.3 10.45-3 18-13.11t6-19.35q-1-6.68-6.62-9.36t-12.7-.3q-10.46 3-18.11 12.86t-6.5 19.71a12.89 12.89 0 0 0 7.23 9.25z"/><path class="cls-1" d="M1096.83 126c-11.67-23.25-56.25-25.33-99.16-3.25-4.13 2.29-47.59 21.91-64 18.58-3.74-.76-6.55-.38-8.39-3.21a9.13 9.13 0 0 1-1.6-9.23q3.27-8.54 11.24-19.53 12.72-18.21 13.29-18.32 14-22.68 12.34-29.78a16.61 16.61 0 0 0-3.26-6.26q-7.58-9.71-25.6-6.39-15.77 2.91-41.51 18.23-10.31 6.16-37.63 29.7 15.42-26.64 4-30.36a14.3 14.3 0 0 0-5.87 0Q833.77 69.32 815.29 93l-30.86 40.89c-1.45 1.85-2.82 3.67-4.14 5.46q-27.33 29-40.56 34.06-11.22 4.72-16.44-4.9-5-8.6 3.61-24.47 8.62-13.22 24.94-41.09 6.12-13.82 4.81-19.4-.84-3.54-4.22-2.92Q745.12 82 731 98.06t-41.56 46.54l-11.68 12.73q-28.14 30.06-41.62 35.18-11.22 4.72-16.43-4.9-4.05-7.19 4.77-22l19.1-31q11.92-19.12 9.89-27.74-1.44-6.08-9.88-4.52-17.46 3.22-35.41 26.63l-31.61 40.21c-1.94 2.52-3.73 5-5.42 7.37l-1.78 1.89q-23.92 25.55-65.3 61.69l-8.7 8q18.86-32 57.7-96.32 11.48-18.51 9.44-27.13-1.56-6.58-10-5-16.89 3.12-35.41 26.63a378.38 378.38 0 0 0-22.22 32.52l-13.57 14.8q-19.25 20.48-30.69 29.2T430.72 233q-16.33 3-13.12-18.21 1.41-11.37 24.27-48.9 6.6-11.79 4.93-18.89c-.48-2-1.36-3.27-2.65-3.74q-8.16-2.19-27.89 23.65-.64-12.58-13.44-17.09-7.59-2.29-17.73-.43l-.56.11q-27.59 5.09-55.79 22.45-33.44 21.3-52 41.67-6.2 3.38-17.74 13.54-20.86 18.66-30.47 25.19a94.57 94.57 0 0 1-38.94 16.7 108.47 108.47 0 0 1-45.51-1.13q-19.37-4.88-28.52-13.78Q98.47 236.66 96.38 208a150 150 0 0 1 1.16-22.43q20 0 47.77-6.69 61.69-15.1 102.36-41.66 55.24-37.16 72.58-73.15 9.32-20.22 5.6-35.94-6.36-26.86-40.12-28a133.77 133.77 0 0 0-29.43 2.25Q193.24 14 124.35 67.93q-47.57 37.33-77.08 74Q37 123.19 43.06 99.32q4.85-16.76 19.35-37.42 10.83-16.27 10.72-16.78c-.8-3.37-3.08-4.72-6.83-4q-3.94.73-14.65 10.11Q28.78 71.28 19 94.5T14.75 141a55.93 55.93 0 0 0 13.79 26q-40.9 63.08-23.19 118 10.64 35.07 43 50.25 30.32 14 70.86 6.5a188.63 188.63 0 0 0 52.12-18.08q36.57-18.91 82.28-66a50 50 0 0 0 0 11.71q1.94 18.16 17.17 25.4 11.93 5.73 29.95 2.41 26.46-4.88 59.59-41.14a26.43 26.43 0 0 0 1.59 9.22q5.8 19.56 36.2 14 25.93-6 66.32-48.15-10.77 19.55-22.94 42.79a154 154 0 0 0-7.9 16.27q-2.13.91-6.28 3.27-17.05 7.37-40.95 18.13a330.49 330.49 0 0 0-67.51 40q-46.24 35.5-40 61.85 5 21.28 33.18 16.1 32.09-5.92 74-42.21 37.48-32.83 85.48-103 23.13-16.44 37.63-29.68 26.29-22.74 44.72-41.08a25.49 25.49 0 0 0 .42 8.42q6.36 26.87 42.38 20.22 23.65-4.36 61.37-43.58a19.52 19.52 0 0 0 1.97 10.13q10 19.85 40.35 14.25 22.86-4.22 61.5-44.25a25.56 25.56 0 0 0 2.38 13.8q6.76 13.68 21.92 15.68 5.43.59 8.88-2.18 6.91-5.54 18.88-27 8.67-15.47 16.91-30.34a307.66 307.66 0 0 1 57.34-65.56A77.67 77.67 0 0 1 907.62 71q5.26-2.56 8.12-.44t1.2 5.07q-14.86 19.14-29.6 38.78-19.62 26.37-22.49 39.05a26.72 26.72 0 0 0 .14 18q5.92 20.07 36.56 15.47 18.28-2.93 42.13-23.71c14-11.92 53.5-30.88 61.07-35 35.52-18.73 72.31-18.77 82.16-.09s-16.19 51.68-51.71 70.42L705.84 381.68 724.69 393l315.77-186c42.24-22.2 68.04-57.74 56.37-81zM146 89.86a239.62 239.62 0 0 1 66.88-52.53Q244 20 274 17.59q25.93-2.13 30.61 17.63a28.15 28.15 0 0 1-.7 14.41q-6.75 26.11-41.48 53.14Q249 113.17 238.89 115q-10.7 2-15.35-7.75-4.77-10.23 6.51-27.12 4.11-5 3.51-7.52c-.4-1.69-2.48-2.19-6.23-1.5q-7.89 1.45-18.74 7.69-29.32 17.62-38.59 47.89-3.56 12.3 2.66 21.19-16.53 4.64-32.73 8.15a280.82 280.82 0 0 1-36.51 4.62q11.76-37.08 42.58-70.79zm235.51 118.93q-27.24 38.88-51.43 43.34-10.13 1.87-13.78-8.57-5.81-19.55 16.3-45.32 27.42-33.08 55-38.18 10.69-2 13.06 5.52 3.34 11.58-19.15 43.21zm6.58 149.52q-24.91 26.28-45.18 30-14.63 2.7-17.28-8.45-4-16.72 34.1-39.61 10.86-6.24 31.17-14.74 22.44-9.43 30.73-14.13-10.14 16.7-33.53 46.94z"/></g></g></svg>