<svg xmlns="http://www.w3.org/2000/svg" viewBox="0 0 345.06 229.84"><defs><style>.cls-1{fill:#0f0f10}</style></defs><title>brand-players</title><g id="Layer_2" data-name="Layer 2"><g id="Layer_1-2" data-name="Layer 1"><path class="cls-1" d="M90.67 52s9.3-5.73 9.37.81c0 0-41.64 33-20.76 68.05-.44 0 29.93 47.47 140 33 0 0 42.81-4.84 107.71-32.75 0-.44-90.11 50.44-181.71 42.41 0 .45-121-6-88.22-74.57-.44 0 11.8-25.57 33.57-36.94"/><path class="cls-1" d="M119 53.9s7.66-4.73 7.73.66c0 0-34.32 27.19-17.1 56.09-.37 0 24.65 39.13 115.42 27.2 0 0 35.29-4 88.78-27 0-.37-74.29 41.57-149.78 35 0 .37-99.77-4.92-72.73-61.47-.36 0 9.74-21.07 27.68-30.44"/><path class="cls-1" d="M254.39 112.36s-9.29 5.73-9.38-.8c0 0 41.64-33 20.75-68.05.45 0-29.92-47.47-140-33 0 0-42.8 4.84-107.71 32.75 0 .45 90.12-50.43 181.71-42.4 0-.46 121 5.95 88.22 74.58.44 0-11.8 25.55-33.56 36.92"/><path class="cls-1" d="M226 110.43s-7.66 4.72-7.72-.66c0 0 34.32-27.2 17.11-56.1.37 0-24.67-39.13-115.42-27.2 0 0-35.29 4-88.78 27 0 .37 74.27-41.56 149.77-34.95 0-.37 99.77 4.91 72.73 61.48.36 0-9.73 21.06-27.67 30.44"/><path class="cls-1" d="M210.43 50.76a6.7 6.7 0 0 1 2.75 5.5 8.7 8.7 0 0 1-.22 1.94l-5.06 19.2a11.9 11.9 0 0 1-5.33 6.79 16.39 16.39 0 0 1-9.22 2.81H171a1.9 1.9 0 0 0-2 1.3l-7 31.39a1.91 1.91 0 0 1-2 1.28h-20.64c-.92 0-1.4-.32-1.4-1 0-.15 4.88-19.8 4.88-19.88L154 54.75a1.27 1.27 0 0 0 .11-.54c0-.86-.63-1.87-1.89-3s-1.9-1.83-1.9-2.05.34-.54 1-.54h52.21a10.94 10.94 0 0 1 7 2.16M183 80.85l6.91-26.1a.45.45 0 0 0 .1-.32c0-.65-.47-1-1.4-1H180c-1.15 0-1.82.43-2 1.3l-7 26.14a.82.82 0 0 1-.08.33c0 .64.47 1 1.4 1h8.59c1.15 0 1.83-.44 2-1.31M46.73 195.13a4.56 4.56 0 0 1 1.88 3.75 6.19 6.19 0 0 1-.15 1.32L45 213.3a8.1 8.1 0 0 1-3.64 4.63 11.21 11.21 0 0 1-6.28 1.91H19.87a1.3 1.3 0 0 0-1.4.88l-2.06 8a1.31 1.31 0 0 1-1.4.88H1c-.64 0-1-.22-1-.67v-.22l8.23-30.89a.84.84 0 0 0 .07-.37 3.16 3.16 0 0 0-1.3-2.02q-1.29-1.17-1.29-1.4c0-.24.22-.37.66-.37H42a7.49 7.49 0 0 1 4.74 1.47M28 215.65l4.7-17.8a.33.33 0 0 0 .08-.22q0-.66-1-.66H26c-.79 0-1.25.3-1.4.89l-4.71 17.8a.78.78 0 0 1-.05.22c0 .43.31.65.95.65h5.86c.78 0 1.25-.29 1.4-.88m25.34 13.97c-.64 0-1-.22-1-.66v-.22l8.24-30.89a.84.84 0 0 0 .07-.37 3.16 3.16 0 0 0-1.29-2.06c-.86-.79-1.28-1.25-1.28-1.4s.21-.37.66-.37H77c.59 0 .88.24.88.73v.22l-8.24 30.82v.21q0 .74 1 .74h18.05c.39 0 .59.07.59.22s-.15.25-.44.44L85.9 229a3.56 3.56 0 0 1-2.06.66zM107.3 224l-3.47 4.78a2 2 0 0 1-1.76.88h-5.81c-.49 0-.73-.15-.73-.44q0-.14 21.47-30a2.51 2.51 0 0 0 .44-1.4 6.42 6.42 0 0 0-.33-1.62 6.45 6.45 0 0 1-.33-1.62c0-.49.31-.74 1-.74l18.39-.15c.79 0 1.25.29 1.4.88l7.65 34.27v.16c0 .44-.32.66-1 .66H126c-.74 0-1.17-.27-1.32-.81l-1.2-4.85a1.18 1.18 0 0 0-1.33-.88h-13a2.15 2.15 0 0 0-1.83.88m12.5-16.77c0-.24-.14-.37-.29-.37a.63.63 0 0 0-.51.37L110.9 219a1.14 1.14 0 0 0-.14.44c0 .29.22.44.67.44h10.07q.88 0 .88-.73zm72.49-13.5c.44 0 .66.12.66.37a.87.87 0 0 1-.22.43l-16 17.94a4 4 0 0 0-1 1.76l-3.82 14.49a1.3 1.3 0 0 1-1.39 1l-13.9.14c-.64 0-1-.24-1-.74a.22.22 0 0 1 .07-.14l3.9-14.71a3.59 3.59 0 0 0 .15-1 2.82 2.82 0 0 1-.52-.74l-7.13-14.79a15.05 15.05 0 0 0-1.77-2.17A19.73 19.73 0 0 1 149 194c0-.2.22-.3.66-.3h18.16c.78 0 1.28.27 1.48.81l4 11.4c.1.25.24.37.44.37a.78.78 0 0 0 .59-.37l10.22-11.4a2.39 2.39 0 0 1 1.84-.81zm48.18-.07c.63 0 1 .25 1 .74 0 1.72-.61 2.57-1.84 2.57h-18.14c-.79 0-1.25.3-1.4.88q-3 11.33-3 11.47c0 .5.31.74 1 .74h18.08c.4 0 .59.07.59.22s-.14.22-.44.37l-2.94 2a3.64 3.64 0 0 1-2.14.66h-14a1.24 1.24 0 0 0-1.4 1q-3 11.33-3 11.4c0 .49.32.73 1 .73h18.09c.39 0 .59.08.59.22s-.15.25-.44.44L229 229a3.59 3.59 0 0 1-2.07.66h-30.42c-.64 0-1-.22-1-.66v-.22l8.24-30.89v-.37a3.16 3.16 0 0 0-1.25-2.06c-.83-.78-1.24-1.25-1.24-1.4s.21-.37.66-.37zm51.84 6.54l-3.45 13.09a7.37 7.37 0 0 1-3.17 4 13.62 13.62 0 0 1-5.51 2.32c0 .24.73 1.85 2.05 4.81s2 4.5 2 4.6q0 .59-.88.59h-14c-.79 0-1.27-.27-1.47-.81l-2.9-8.15a1.34 1.34 0 0 0-1.33-.81 1.25 1.25 0 0 0-1.32.88l-2.06 8a1.3 1.3 0 0 1-1.4.88h-14.07c-.63 0-1-.22-1-.66v-.22l8.24-30.89v-.37a3.19 3.19 0 0 0-1.25-2.06c-.84-.79-1.26-1.25-1.26-1.4s.22-.37.67-.37h35.59a7.47 7.47 0 0 1 4.74 1.46 4.59 4.59 0 0 1 1.88 3.76 5.85 5.85 0 0 1-.15 1.32m-21.78 16.36c.78 0 1.24-.29 1.39-.88l4.71-17.8a.29.29 0 0 0 .07-.22c0-.45-.31-.67-1-.67h-5.86c-.79 0-1.25.3-1.4.89l-4.71 17.8a.6.6 0 0 1-.06.22c0 .43.32.66 1 .66zm48.31-9.78H334a7.58 7.58 0 0 1 4.75 1.44 4.46 4.46 0 0 1 1.88 3.71 4.3 4.3 0 0 1-.23 1.4l-2.57 9.78a8.18 8.18 0 0 1-3.6 4.63 11.18 11.18 0 0 1-6.33 1.91h-31.52c-.34 0-.52-.08-.52-.22s.12-.25.36-.44c2.65-1.71 4.36-2.58 5.15-2.58h18.1a1.24 1.24 0 0 0 1.39-1q2.13-8.09 2.13-8.16c0-.49-.29-.74-.88-.74H306.9a7.6 7.6 0 0 1-4.75-1.43 4.47 4.47 0 0 1-1.87-3.71 4.2 4.2 0 0 1 .22-1.33l2.58-9.85a8.23 8.23 0 0 1 3.6-4.6 11 11 0 0 1 6.33-2h31.54c.35 0 .52.08.52.22s-.12.29-.36.44c-2.64 1.76-4.37 2.65-5.15 2.65h-18.1c-.79 0-1.25.29-1.4.88q-2.14 8.09-2.14 8.16c0 .49.3.74.88.74"/></g></g></svg>