<svg id="Layer_1" data-name="Layer 1" xmlns="http://www.w3.org/2000/svg" viewBox="0 0 479.75 117.05"><defs><style>.cls-1,.cls-2{fill:#231f20}.cls-1{fill-rule:evenodd}.cls-3{fill:#ed1d24}</style></defs><title>brand-arachnid</title><path class="cls-1" d="M235.56 11.49c4.84 6.35 10.28 12.4 15.42 18.76 3.32 2.71 9.69 1.5 14.22 3 29 3.91 58.37 7.55 86.8 12.08 7 3.94 12.39 10.9 22.67 9.08 2.12-3 4.55-6.35 9.37-6.05a11.5 11.5 0 0 1 8.16 4.23c1.52 2.44 1.82 6.05 1.2 9.08-1.8 3.94-5.73 6.37-10.87 6.37-4.55-.62-7.57-4.55-9.07-8.48-8.16-3.32-16.63-1.21-24.5.91-13-1.5-23.88-5.75-36.6-7.87-20.86-4.52-42-10-63.19-14.51-11.51 3.93-18.47 14.51-33 14.22-10.57 0-23.59 1.2-29.32-6.35a32.8 32.8 0 0 1-5.14-27.82C184.77 10 190.8 2.73 199.58 0c13.92 1.21 26.32 4.23 36 11.49m225 103.41l-.62.61h-18.45l-.29-4.23c-2.41.59-4.23 2.12-6.05 3.62-5.44 2.43-15.42 3-21.47.61-8.75-3.64-14.51-12.1-14.21-23.27.62-9.37 5.46-16.93 13.31-20.57 7.26-3.32 20-3.32 25.11 2.41l1.83-1.8V54.14l.59-.3 20 .3.3 60.76m-24.26-29.63c2.44 3 4.25 8.16 2.44 13-1.53 2.42-3.33 5.76-7.25 5.44-3.94.91-5.76-1.21-7.87-3-2.73-4.5-3-10.55.29-14.79 2.12-3 9.69-3.64 12.4-.62m-41.12 30.23h-21.49v-45h21.47v45m-29.32-36.6l.89 5.13v31.44h-21.47L345 88a9.89 9.89 0 0 0-3-3.94 10.41 10.41 0 0 0-8.47 0 7.83 7.83 0 0 0-3.94 6.06v25.09h-21.44V70.46h20l.29 4.85c1.82.59 1.82-1.52 3.33-1.82 5.44-5.44 19.65-5.14 26.93-1.82a18.87 18.87 0 0 1 7.26 7.26m-99.81-4.84c1.2.32 2.12-1.2 3-1.8 5.76-3.93 17.54-4.23 24.2-1.52 15.72 5.14 7.55 29 9.67 44.45h-21.48l-.3-27.2a10 10 0 0 0-3.32-4.53c-2.14-.91-6.37-.91-8.17 0a6.39 6.39 0 0 0-3.64 5.14l-.61 26.28h-21.16V53.23h21.16l.61 20.86m-26.32 7c.62 1.82 1.52 3.32 1.23 5.75h-21.18a7.1 7.1 0 0 0-5.75-5.84c-3.62-.91-7 .61-9.37 2.43-2.73 3.62-1.82 10.29-1.5 15.08.89 2.12 2.42 4.23 4.82 4.84 3.34.61 8.17 1.21 10.28-1.82 1.23-.91.91-2.7 1.82-3.94H241c.59 6.37-3.34 9.69-6.66 12.72-9.08 6.35-26 7.55-37.19 3.62-7.26-2.71-13.92-7.85-15.74-16-1.5-4.2-.3-9.35.31-13.6C188.09 72 202 67.15 218.32 68.94c9.39.91 17.24 4.84 21.47 12.1m-65.3-4.23c2.7 10 .59 23.57 1.8 34.76.61 1.21 1.82 1.82 1.82 3.33h-20.87c-1.52-.91-1.52-2.41-1.82-3.94-2.43-.3-3.94 1.52-5.76 2.44-6.64 3-18.74 3.61-25.7.59a13.22 13.22 0 0 1-7.87-12.4c.62-3.62 1.53-6.91 4.26-9.05 8.75-5.44 21.47-4.83 32.64-6.64a4.06 4.06 0 0 0 1.82-3 4.53 4.53 0 0 0-3.32-3.63c-3.32-.6-7.87-.6-10.28 1.52l-1.82 2.41h-20c-1.52-4.23 2.12-6 3.62-9.07 10.61-7.85 31.16-6.35 44.47-2.71a17.67 17.67 0 0 1 7 5.44m-20.58 23.82c-1.2 3-3.91 4.55-7.55 4.84-3 0-5.75.3-7.26-2.12-.3-1.82-1.2-3.32.91-4.52 3.62-1.83 8.76-2.12 13-3.62 2.43 0 1.22 4.21.91 5.41m-36.29-14.78c-6.05-.29-11.8-.29-14.83 3.62-3.91 6.05-1.8 16.63-2.41 24.8H79.22V69.56h20v6.34c1.5 0 2.41-2.12 3.32-3.33 3.64-3.64 8.78-4.22 15.42-3.93l-.3 17.24M51.11 53.23C60.19 72.58 68 92.85 76.52 112.48V114l-23.59-.3-2.73-7.55H26.61c-1.81 2.12-1.52 5.14-2.73 7.85H0c8.78-20.56 17.24-41.12 26.61-61.39l24.5.62M39 73.2c2.12 6.64 4.55 13 6.05 19.95H31.46c1.2-7.54 4.53-13.6 7-20.26l.59.32"/><path class="cls-2" d="M468.51 61.84v-5.77h-2.15v-1.21H472v1.21h-2.08v5.78zm4.32 0v-7H475l1.26 4.8 1.27-4.8h2.19v7h-1.32v-5.57l-1.5 5.57h-1.26l-1.5-5.57v5.57z"/><path class="cls-3" d="M230 9.17v.31c-1.69 1.12-4.53-.19-6.11 1.37-2.61.7-4.9 2.55-7.22 3.82-1.47 1.94-3.56 3.73-4.72 5.74a12.37 12.37 0 0 1-1.64 6.24c2.47-1.77 4.14-5.64 7.66-5.37a32.45 32.45 0 0 1 6.91.66c3.21 1.7 4.34 6.31 8.21 7.09.18.26.48.64.4 1a14 14 0 0 0-3-1.32 32.86 32.86 0 0 0-5.68-5.8c-2.84.07-5-.52-7.86-.45-2.72 1.76-4 5.15-7.25 6 .36.52 1.15 1.11 1.63.32 1.76-1.37 3.64-2.54 5.9-2.5.3.26.88.16.73.72 2.35 2.66 5 4 7.69 6.13 3 2.07 4.69 5.51 7 8.29.36.45 1.38.12 1.48.94-.27.43-.89.09-1.26-.05-3-2.5-4.44-6.81-8.35-8.22-2.49-2.17-4.72-4.7-7.42-6.37-2.59.08-4.46 2.69-7 2.27.17 1.94 1.93.64 3 1.31a7.18 7.18 0 0 1 3.8 4.1c1.27 4.42 4.32 8.18 5.72 12.42.55.27.45 1.21 1.22 1 .36.39-.09.74-.17 1.05h-.32c-1.67-2.13-2.38-4.85-3.93-7-1.33-2.87-3.23-5.57-4.05-8.67a7.15 7.15 0 0 0-4.47-1.62c-.73-.72-1.37-2-2.39-1.79 0 .94 1.71 1.38.72 2.47a1.37 1.37 0 0 1-1.71.24c-.54-.58.74-1 .06-1.56-.45.17-.94-.16-1.33.26 0 .44.21.95 0 1.44-.51 0-1.21.39-1.64-.07a1.32 1.32 0 0 1 .14-1.74l.84-.65c-.68-.28-.07-1.25-.76-1.47a7.22 7.22 0 0 1-5.36 0 75.56 75.56 0 0 1-5.65 10.08 39.83 39.83 0 0 0-.72 8.16c-.27.36-.7.22-1 .15-.66-6.9 2.74-12.88 5.69-18.51a2.62 2.62 0 0 1 2.39-1.34c1.2.05 2 1 3.11.94 1.59-1.75-1.23-.74-1.69-1.7-1.48-.81-2.61-2.29-4.1-3-3.12 2.37-4.35 6.13-7.42 8.69-1.43 2.5-1.69 5.62-4.16 7.58-.19-.07-.3-.26-.43-.39.42-1 2.07-1.35 1.63-2.81 1.16-5.2 5.28-8.72 8.54-12.89 1.09-.33 1.16-2.14 2.47-1.65l4.62 3.98a.91.91 0 0 0 .89-.15 19.61 19.61 0 0 1-5-6.52l-.37-.2c-2.45-.1-5.09-.4-7.12-1.67-2.68.7-4.73 3-7.57 3.25-.44 0-.91.71-1.28.38.27-1.86 2.85-.26 3.49-2 1.64-1.43 3.77-2.72 6-2.56a32.38 32.38 0 0 0 8 2c.77 1.16 1.22 2.55 2.25 3.53a41.91 41.91 0 0 1-.7-4.28c-2.35-2.53-2.82-6.43-6.42-7.77l-2.76-1.87-3.31.86c-.25-.14-.49-.4-.35-.7 1.27-.38 2.64-1.27 3.94-.84 2.77 1.49 5.8 3.06 7.76 5.82.63 1.65 1.88 3.14 2.45 4.73a10.62 10.62 0 0 0 .48 2.15c.69-1.53 1.62-4 3.75-3.91 2 .71 2.84 2.87 3.08 4.82a16.15 16.15 0 0 1-.35 2.42c1.38-1.38.37-4.24 1.94-5.73 1.92-2.11 3.25-5.24 6.18-6l7.2-3.38a14.16 14.16 0 0 0 4.56-.62c.18.09.42.16.51.41z"/></svg>