<svg xmlns="http://www.w3.org/2000/svg" viewBox="0 0 250.69 315.25"><defs><style>.cls-1{fill:#231f20}</style></defs><title>brand-lucasi</title><g id="Layer_2" data-name="Layer 2"><g id="Layer_1-2" data-name="Layer 1"><path class="cls-1" d="M121.26 179.61h79.3a105.66 105.66 0 0 0-8.65-155.71v133.23h-14.65v-75.2h-78v75.19h-14.7V8a105.4 105.4 0 0 0-20.17 11.1v96.17c0 36.67 22.45 64.34 56.87 64.34z"/><path class="cls-1" d="M171 193.08h-55c-32.17 0-67.33-26.18-67.33-77.06V32.58A105.7 105.7 0 0 0 184.55 193H171zm6.26-124.51V13.84a105.74 105.74 0 0 0-78-10.66v65.39zM64.19 266.13a12.16 12.16 0 0 0 3.34-9v-23.31h-3v24c0 5.49-3.58 8.68-9.16 8.72s-9.12-3.23-9.16-8.72v-24h-3v23.36a12.19 12.19 0 0 0 3.34 9 12.34 12.34 0 0 0 8.85 3.22 12.33 12.33 0 0 0 8.79-3.27zm49 2.66H118V266h-4.43c-6.94 0-14.57-4.6-14.57-14.71s7.61-14.71 14.54-14.74H118v-2.74h-4.86c-8.67 0-17.28 6.23-17.29 17.47s8.66 17.49 17.32 17.52zm-103.94 0h7.63V266H9.92c-4.17 0-6.86-3.29-6.88-7.84v-24.34H0v24.46c0 6.85 4.79 10.5 9.24 10.52zm148.52-35.56a12.33 12.33 0 0 0-8.86 3.22 12.2 12.2 0 0 0-3.34 9v23.35h3v-24c0-5.47 3.59-8.68 9.16-8.72s9.12 3.25 9.16 8.71v4.64h-17.34v2.74h17.37v16.63h3v-23.37a12.17 12.17 0 0 0-3.34-9 12.31 12.31 0 0 0-8.83-3.19zm90.41.58h-.5v35h3v-35zm-36.61 15.7c-5.26-1.51-10-2.65-10-7.4.08-3.44 1.47-5.37 7-5.47h11.76v-2.84h-12.55c-5 0-9.32 2.6-9.33 8.11 0 6.91 5.58 8.71 10.7 10.11s10 2.63 10 7.95c0 3.85-2.8 5.89-8.23 5.94h-12.47v2.86h12.72c3.37 0 6.13-.74 8.07-2.28a8.26 8.26 0 0 0 3-6.81c.01-6.78-5.55-8.68-10.69-10.16zM21.71 279.83v15.77H2.88v-15.77H.3v35.42h2.58v-17.38h18.83v17.38h2.57v-35.42h-2.57zm210.72 0h-7.83v35.42h2.57v-33h4.46c9.36 0 16.07 6.78 16.07 15.33 0 8-5.25 15.34-14.18 15.34h-5.08v2.38h5.29c9.21 0 16.64-7 16.66-17.71a17.71 17.71 0 0 0-17.95-17.76zm-162.43 0h-.24v9.92c0 5.17-3.47 8.53-8.34 8.54S53 294.93 53 289.75v-9.92h-2.55v9.77c0 6.7 4.6 10.93 9.63 11.07v14.58h2.57v-14.58c5-.14 9.62-4.37 9.63-11.07v-9.77H70zm45 16.4c3.58-1.53 4.68-4.86 4.68-8.18 0-4.61-3.24-8.82-10.22-8.83-7.18 0-11.31 3.85-11.32 12v24h2.58v-25.3c0-5.67 3.54-8.41 8.49-8.45S117 284 117 288.05c0 5.17-2.89 7.3-9.44 7.35h-5.33v2.27h8.13c5.59 0 8.42 3.16 8.44 7.85 0 4.27-2.54 7.41-9.24 7.44h-7.33v2.28h8.52c7.19 0 10.71-4.43 10.72-9.63s-3.4-8.77-6.47-9.38zm47.09 1c3.7-1.52 5.3-4.69 5.28-8.73 0-5.44-4.44-9.31-10.91-9.32s-10.61 4.43-10.62 11.21v24.8h2.57v-24.84c0-5.21 2.78-8.73 8-8.75 4.85 0 8.24 2.9 8.24 7.14 0 4.57-2.83 7.62-8.84 7.65H150v2.27h7.42c5.91 0 8 2.88 8 6.46v10.12h2.67v-9.83c.03-4.41-2.39-7.27-5.97-8.13zm32.75-17.45v35.42h2.58v-35.37h-2.58z"/></g></g></svg>