<svg id="Background" xmlns="http://www.w3.org/2000/svg" viewBox="0 0 968 389"><defs><style>.cls-1{fill:#72d54a}.cls-2{fill:#2e2a25}.cls-3{fill:#fd0}.cls-4{fill:#fff;fill-rule:evenodd}</style></defs><title>Artboard 2 copy</title><path class="cls-1" d="M601.52 228.18l-43.31.09 13.56-85.81 33-.06q11.55 0 16.6 1.93a14.18 14.18 0 0 1 7.73 7.67q2.7 5.74 1.39 13.94-1.13 7.09-3.6 11a31.51 31.51 0 0 1-7.39 7.76 22.17 22.17 0 0 1 6.1 8.38q1.64 4.32.48 11.64-1.69 10.62-8.39 17a22.63 22.63 0 0 1-16.17 6.46zM597 159.67h-.72l-2.64 16.7h.72c2.91 0 5.12-.63 6.58-1.88s2.42-3.3 2.89-6.19c.5-3.22.25-5.47-.76-6.75s-2.98-1.89-6.07-1.88zm-5.17 31.21h-.47l-2.92 18.44h.83c3.17 0 5.51-.66 7-2s2.52-3.59 3-6.8c.57-3.59.31-6.12-.76-7.54s-3.23-2.12-6.65-2.1zm66.44 22.58l-5.81 14.62-27.65.06 35.62-85.84 38.92-.08 7.34 85.78h-27.33l-1.25-14.61zm8.06-20.14h10.09l-1.67-21zm97.48 34.55l-51.3.11 13.59-85.81h27.27l-10.17 64.21h24zm57.92-.1l-51.28.1L784 142.06l27.27-.06-10.16 64.26h24z"/><path class="cls-2" d="M350.09 188.69l6.26 32.48a43.72 43.72 0 0 1-11.36 6 43.19 43.19 0 0 1-15.56 2.83q-14.56 0-22.18-12.3t-4.59-31.44q3.1-19.4 14.79-32.11T344 141.43a36.18 36.18 0 0 1 13 2.45 27.79 27.79 0 0 1 10.53 6.68l-16.2 30.33a21.65 21.65 0 0 0-10.73-2.4c-5.83 0-9.06 2.17-9.76 6.47a5.12 5.12 0 0 0 1.59 4.95c1.4 1.23 3.46 1.85 6.18 1.84a22 22 0 0 0 11.48-3.06zm25.8-45.85l27.27-.06-4.54 28.68q5.47-.14 10.93-6.72t7.71-20.93l.17-1.05 27.87-.05-.2 1.17q-4.55 28.86-18.76 41.59 11.43 15.3 7.2 42l-.16 1h-29.53l.15-.9q2.25-14.14-.22-22.11c-1.65-5.31-4.72-8.05-9.23-8.28l-5 31.33h-27.27zm116.19 85.55l-51.28.09 13.58-85.8 27.28-.06-10.18 64.26h24zm37.33-21.6h23.89l-3.41 21.54-51.16.1 13.59-85.81 51.16-.1L560 164h-23.87l-1.68 10.65h16.7l-3.41 21.52h-16.7zm-242.84-40a27.46 27.46 0 0 1-13.24-3.2L263 228.83h27.27l10.3-65.13a33.82 33.82 0 0 1-14 3.09z"/><path class="cls-3" d="M661.13 248.52L201 249.4l1.52-10.89 460.12-.89-1.51 10.9z"/><path class="cls-2" d="M668.77 276.86l5.59-41.39 25 33.65 4.38-32.62h3.45l-5.58 41.37-25-33.62-4.34 32.61zm67.15-41.34q9.43 0 15.06 5.32c3.77 3.57 5.64 8.33 5.66 14.28a22.72 22.72 0 0 1-1.8 9.07 21.63 21.63 0 0 1-5.21 7.41 22.71 22.71 0 0 1-7.58 4.6 26.44 26.44 0 0 1-9.21 1.61q-9 0-14.65-5.39t-5.61-14.18a23.37 23.37 0 0 1 1.79-9.25 20.59 20.59 0 0 1 5.12-7.38 21.25 21.25 0 0 1 7.39-4.5 26.53 26.53 0 0 1 9.04-1.59zM752.86 255a15.84 15.84 0 0 0-4.73-11.91q-4.7-4.53-12.33-4.51a19.81 19.81 0 0 0-7.34 1.37 18.14 18.14 0 0 0-6.1 3.94 19.64 19.64 0 0 0-4.45 6.56 20.34 20.34 0 0 0-1.52 7.8c0 4.93 1.57 8.89 4.68 11.9s7.19 4.5 12.25 4.49a20.76 20.76 0 0 0 7.42-1.36 18.63 18.63 0 0 0 6.2-4 19.32 19.32 0 0 0 4.38-6.49 19.75 19.75 0 0 0 1.54-7.79zm18.88 23.07l-9.93-41.69h3.67l7.4 31.61 14.34-32.84L795 268l14.06-31.72h3.79L794.12 278l-7.81-33.23zM228.49 164.51c1.89 0 1.93-3.59-.42-2.94a1.5 1.5 0 0 0 .42 2.94zM257.43 192c-1.6-.1-3.19-.32-4.8-.51-3.79-.41-9.07-.75-11.87-3.68-1-1-1.16-2.51-1.7-3.77-.36-.87-1.55-2.94-2.57-3.15a78.65 78.65 0 0 0-10.39-1.33 17.84 17.84 0 0 1-2.3-1.47c-4.53.57-9.25-.73-14-.79-.24.13-.23.5-.54.55-.51.07-1 6.71-1 7.45a19.39 19.39 0 0 0 .7 6.52 20.46 20.46 0 0 0 7.38 10 31.73 31.73 0 0 0 5.77 3.6c.55.25 5.94 1.92 5.94 1.94.07.58-.45.55-.4 1.07 2.18.87 5.35.75 8 1.19-.4 3.21-.52 8.26-.93 10.74a4.67 4.67 0 0 0 2.58.93c.19.59-.1.81-.27 1.35-1.56.36-2.72-.75-4.72-.4-.15-2.61.23-6.8 0-9.25-2.16-.94-4.51-.55-7.57-.66a28.71 28.71 0 0 0-3.91 5.24c-.17.38 4.4 3.64 4.87 4 .17.13 3.39 1.8 2.84 2.33-2.37 2.3-5.32 4-7.68 6.3-.18.18-.12.37.06.57h.08q15.39 0 27.79-14.17a65.28 65.28 0 0 0 13.49-25.23c-1.35.92-3.28.71-4.85.63z"/><path class="cls-2" d="M223.47 224.51a45.41 45.41 0 0 0-5.14-4c-2.39 1.11-5.81-.62-8.08-1.43a23.58 23.58 0 0 1-7.83-4.58 56.88 56.88 0 0 1-5-5.24c-6.3-7-7.5-17.5-5.19-26.3a30.51 30.51 0 0 1 1.2-3.55 15.71 15.71 0 0 1 1.63-3.67c.2-.32 2.62-4.12 2.52-4.17-2-.81-4.28-1.28-6.35-2-3 2.38-5.94 4.82-8.76 7.4-1.05.21-1.05-.64-1.75-.81 3.57-3.16 7-6.42 10.64-9.54 3 .7 5.94 1.5 8.79 2.39 4.82-5.33 11.51-8.84 18.72-11.83-.05-1.37 1-1.61 1.35-2.57s-2-3-2.55-3.41a7.93 7.93 0 0 0-3.41-1.78c-1.85-.36-5.6-.23-4.31-3.38.56-1.36 3.69-.66 4.66-.4a8.68 8.68 0 0 1 3.55 1.8c1 .82 3.12 5.33 3.56 6.36.06.14 1.44-.95 1.54-1a2.39 2.39 0 0 0 .65-1.79 7.53 7.53 0 0 0-1.67-3.67 12.57 12.57 0 0 0-2-1.79c-1-.75-1.65-.6-2.71-1-.44-.18-2-1.51-1.79-2.11a2.74 2.74 0 0 1 1.83-1.63c2-.66 5.27 1.6 6.42 3.24 1.6 2.3 1.38 5.12 1.64 8.32a2.64 2.64 0 0 0 3.22-2.17c.69-2.32-.81-4.76-2.07-6.58-.42-.59-2.63-3.32-1.59-4 4.2-2.75 6.81 4.19 6.69 7.27a9.46 9.46 0 0 1-1 2.92c-.11.29-1.5 2.54-1.51 2.54.53 1.5 3 2.37 4.06.81a11.81 11.81 0 0 0 1.36-4c.13-.74-1.78-7.9.23-7.7s2.72 1.57 3.18 3.33a8.27 8.27 0 0 1-.79 6.39 10.85 10.85 0 0 1-2 2.34c-.23.21-2.27 1.69-2.2 1.88.34 1.3 1.18 2.45 1.48 4.16.07.41 2.53-1.58 2.72-1.77a8.74 8.74 0 0 0 2-2.58 15.48 15.48 0 0 0 .42-3.17 3.34 3.34 0 0 1 1.16-2.24c1.84-1.16 3.07.9 3.12 2.49a8.06 8.06 0 0 1-2.29 5.38 15.83 15.83 0 0 1-2.17 1.86 3.78 3.78 0 0 1-1.39.6c-.35.12-3.69.85-3.69.91-.1 4.1-2.8 6.51-6.31 7.65a32.73 32.73 0 0 0-3.51.15c-.48 0-.45-.46-.82-.52-2.11 0-4.66-3.33-4.86-3.9a21.3 21.3 0 0 0-7.14 7.8c3.52.93 7.12 1.77 10.8 2.54a2.55 2.55 0 0 1 .57.52 34.46 34.46 0 0 1 8.76.66c2.53.41 5.39 1.41 7.45-.58 1.49-1.45 2.31-3.69 4-5 2.33-1.78 6.11-.94 8.74-.61s5.17.72 7.76 1a13.47 13.47 0 0 1 3.77 1.18 13.41 13.41 0 0 1 1.64 2.27c.67-8.93-.39-16.73-3.25-23.34q-5.3-12.27-15.15-15.53T212 132.12l-44.85.1L142.87 282l46.46-.09L200 218c5.61 7 11.33 11 17.15 12.24 1.17-1 3-2.7 3.23-2.9a29.38 29.38 0 0 1 3.09-2.83z"/><path class="cls-4" d="M243.87 187c2 1.47 4.41 1.64 7.75 2.13 3.51.49 9.43 1.47 10.67-1.52a15.05 15.05 0 0 0 .37-2.8c.47-2.91 1.3-5.7 1-8.08-.44-3.61-4.94-4.06-8.64-4.4-2-.19-4.55-.6-6.6-.62-5 0-4.49 4.65-8.25 6.21a22.71 22.71 0 0 1-.26 2.66c2 1.42 2.09 4.79 3.96 6.42z"/><path class="cls-3" d="M291.34 107a26.19 26.19 0 1 0 26.39 26.14A26.26 26.26 0 0 0 291.34 107zm.66 5.85a6.09 6.09 0 0 1 1.52.2 4.81 4.81 0 0 1 .49.19 4.69 4.69 0 0 1 .75.32 3.4 3.4 0 0 1 .45.34 2.94 2.94 0 0 1 .44.42 1092.38 1092.38 0 0 0 .42.72h-.09a1.76 1.76 0 0 1 .16.51c0 1.47-1.85 2.64-4.13 2.65a5.25 5.25 0 0 1-3.07-.91 49224.58 49224.58 0 0 1-.76-.78 1.93 1.93 0 0 1-.32-1c.02-1.43 1.86-2.62 4.14-2.64zm-25.12 27.4c0 .5 0 .85-.14.87s-.73-1.52-1-3.51-.42-3.62-.18-3.67c.07 0 .16.12.26.33a6.23 6.23 0 0 1 .23.64l.06.23c.07.24.14.51.21.8l.06.26c.09.4.17.82.25 1.28s.13.82.17 1.2c0 .19 0 .35.06.53s0 .31 0 .45v.55c0 .17.02.03.02.06zm.75-17.91c-.15-.11.63-1.56 1.75-3.22s2.15-3 2.3-2.86-.62 1.54-1.75 3.22-2.14 2.97-2.3 2.88zm4.37 10.24a1.76 1.76 0 0 1-.71-.37 3.82 3.82 0 0 1-.34-.29 2 2 0 0 1-.43-.63c-.06-.12-.12-.24-.17-.37a4.34 4.34 0 0 1-.19-.82c0-.15-.06-.29-.07-.44a5.6 5.6 0 0 1 .08-1.41c.42-2.13 1.91-3.63 3.35-3.35a1.88 1.88 0 0 1 1 .51s0 .06.06.09a2.9 2.9 0 0 1 .6.92 5 5 0 0 1 .21 2.82c-.39 2.12-1.93 3.64-3.39 3.34zm4.55 20.8c-1.7-1.07-3-2.13-2.85-2.33s.41 0 .9.22h.08c.25.11.55.26.87.43l.18.09c.41.23.85.48 1.32.78s.71.47 1 .7l.28.2.7.54.12.1.41.37c.21.22.36.4.31.47s-1.59-.5-3.28-1.58zm5-44a24 24 0 0 0 3.43-.6 19.94 19.94 0 0 0 3.61-1.12.09.09 0 0 1 .07.07c.07.25-1.48.83-3.45 1.28s-3.6.64-3.66.4zm8.23 39.84c-.43 1.41-2.55 2-4.74 1.34a5.63 5.63 0 0 1-2.25-1.34v.06c0 .06-.14-.16-.21-.24l-.15-.18a2.9 2.9 0 0 1-.51-.92v-.16a1.83 1.83 0 0 1 0-1c.41-1.39 2.53-2 4.73-1.32a6 6 0 0 1 1.39.63l.24.17a4.62 4.62 0 0 1 .8.68l.21.25a2.93 2.93 0 0 1 .42.75 2.42 2.42 0 0 1 .1.24v.11a1.82 1.82 0 0 1 .03.9zm1.37-14.81a2.56 2.56 0 0 1-.76.51 5.11 5.11 0 0 1-.5.23 6.93 6.93 0 0 1-1.39.28 4.13 4.13 0 0 1-3-1.32 4.05 4.05 0 0 1-.51-.78 3.91 3.91 0 0 1-.3-.46 4.06 4.06 0 0 1-.32-1.57 4.08 4.08 0 0 1 5.62-3.83 3.92 3.92 0 0 1 .41.23 4.1 4.1 0 0 1 .84.56 5.31 5.31 0 0 1 .89 1.16 3.92 3.92 0 0 1 .24.55c0 .12.08.29.06.27a4.26 4.26 0 0 1 .22 1v.14a4 4 0 0 1-.3 1.4c-.05.13-.14.23-.2.36a2.56 2.56 0 0 1-.58.85zm7.55 22.25a5.72 5.72 0 0 1-3.11 1.5c-1.91.39-3.54.15-3.8-.53a.28.28 0 0 1 0-.09c-.17-.73 1.32-1.67 3.3-2.09s3.7-.14 3.85.59a.71.71 0 0 1-.17.59zm1.48-46.82h.1a10.18 10.18 0 0 1 3.2 1.53c1.67 1 2.89 2 2.84 2.29-.14.21-1.64-.48-3.34-1.54s-2.88-2.12-2.74-2.31zm5.23 29a5.28 5.28 0 0 1-2.25-1.12l-.16-.18a4.33 4.33 0 0 1-.62-1.14c0-.08 0-.15-.07-.23a4.92 4.92 0 0 1-.24-1.47c0-2.3 1.48-4.15 3.32-4.16a2.71 2.71 0 0 1 1.16.29 3 3 0 0 1 .36.23 3.35 3.35 0 0 1 .62.52 3.72 3.72 0 0 1 .32.38 4.32 4.32 0 0 1 .45.82c.06.13.13.25.17.39s0 .06 0 .09a5.05 5.05 0 0 1 .24 1.44c.08 2.3-1.41 4.13-3.23 4.15zm7.06 7.94c-.91 1.41-2 2.31-2.78 2.38a.71.71 0 0 1-.47-.08c-.65-.42-.28-2.17.85-3.89s2.59-2.78 3.25-2.37a.81.81 0 0 1 .24.3c.33.75-.05 2.18-1.03 3.67zm2.8-16.18c-.5.13-1.29-1.34-1.82-3.3s-.51-3.61 0-3.75a.48.48 0 0 1 .31.1 6.7 6.7 0 0 1 1.51 3.16c.45 1.75.49 3.22.15 3.6a.62.62 0 0 1-.08.19z"/></svg>