<svg xmlns="http://www.w3.org/2000/svg" viewBox="0 0 277.91 125.86"><defs><style>.cls-1{fill:#231f20}</style></defs><title>Asset 1</title><g id="Layer_2" data-name="Layer 2"><path class="cls-1" d="M23.46 69.74c0-2.85-.13-4.8-.52-5.7A3.57 3.57 0 0 0 21 62.09a31.31 31.31 0 0 0-3.11-.65c-1.43-.13-2.07-.52-2.07-1.17s.13-.78.39-.91.78-.26 1.55-.26h35.9a65.49 65.49 0 0 0 7.91-.52 24.07 24.07 0 0 0 5.31-1.43A14.45 14.45 0 0 0 70 55.09a4 4 0 0 1 1.94-1.17c.52 0 .91.39 1 1.43L77.13 80c.26 1 .26 1.94.39 2.46a1.85 1.85 0 0 1-.26.78c-.26.26-.39.39-.65.39-.65 0-1.43-1.3-2.46-3.76s-2.33-4.54-3.5-6.48a31.91 31.91 0 0 0-7.78-8.94 14.67 14.67 0 0 0-8.68-3c-2.2 0-3.76.52-4.54 1.56s-1.3 3.24-1.3 6.74v15.54h.52A15.88 15.88 0 0 0 57 83.48a10 10 0 0 0 3.76-6.35 11.2 11.2 0 0 0 .52-2.72c.26-1.42.65-2.07 1.17-2.07a.78.78 0 0 1 .78.39c.26.26.26.52.26 1v27.35a1.39 1.39 0 0 1-.26 1 .78.78 0 0 1-.78.39c-.65 0-1-1.17-1.43-3.5a22.13 22.13 0 0 0-.52-3.63A7.58 7.58 0 0 0 57 89.7a14 14 0 0 0-7.91-1.94h-.78v21.52c0 2.72.13 4.41.52 5.31a3.16 3.16 0 0 0 1.69 1.94 10.06 10.06 0 0 0 4.54 1.17c1.94 0 3 .52 3 1.17s-.13.78-.39.91-.78.26-1.56.26H17.76c-.78 0-1.3 0-1.55-.26s-.39-.39-.39-.91.65-1 2.07-1.17A14.35 14.35 0 0 0 21 117a3.57 3.57 0 0 0 1.94-1.94c.39-.91.52-2.72.52-5.7V69.74zM91.9 85a108.27 108.27 0 0 1-8.55 19.44c-3.11 5.7-6.09 9.46-8.56 11.41a13.18 13.18 0 0 1-3.63 1.69c-1.3.39-2.07.78-2.07 1.43a.87.87 0 0 0 .52.78c.26.26.65.26 1.17.26h27.73c.52 0 .91 0 1.17-.26a.78.78 0 0 0 .39-.78c0-.65-.65-1.17-1.81-1.56a11.67 11.67 0 0 1-3.12-1.41 10.54 10.54 0 0 1-3.37-5 23.14 23.14 0 0 1-1.17-7.65 19.16 19.16 0 0 1 .13-2.59c0-1 .13-2.2.26-3.63h16.07l3.63 11a16.13 16.13 0 0 1 .52 2.07 12.11 12.11 0 0 1 .26 1.82 4.62 4.62 0 0 1-1 3.24 7.45 7.45 0 0 1-3.63 2.07c-.39.13-.78.26-1.3.39-1 .26-1.56.65-1.56 1.3a.78.78 0 0 0 .39.78c.26.26.65.26 1.17.26h38.86c.52 0 .78 0 1-.26s.39-.39.39-.78c0-.65-.52-1.17-1.56-1.3a6.63 6.63 0 0 1-2.72-1.17c-1.17-.78-2.33-2.72-3.89-5.7s-3.11-7.13-5.19-12.7l-7.91-21.78c-1.3-3.76-2.85-8.17-4.54-13.22-1.82-5.57-3-8.3-3.76-8.3 0 0-1.82.91-5.19 2.85a48.79 48.79 0 0 1-11.54 4.67c-1.81.39-3.76.78-6.09 1.17s-3.24.91-3.24 1.69q0 .39 2.33 1.55a9.73 9.73 0 0 1 4.28 4L91.9 85zm-.26 9.85l6.61-21.26 7.91 21.26zm92.16 14.39c0 3.76.52 6.09 1.43 7s2.59 1.3 5.18 1.3a13.68 13.68 0 0 1 3 .26c.52.26.78.52.78 1s-.13.78-.39.91a2.58 2.58 0 0 1-1.56.26h-41.75c-.78 0-1.17 0-1.43-.26s-.52-.39-.52-.91.39-.78.91-1a10.93 10.93 0 0 1 2.46-.26c2.72 0 4.67-.39 5.57-1.3s1.43-3.11 1.43-7v-47.8a21.07 21.07 0 0 0-7.91 4.93 29.47 29.47 0 0 0-6.09 8.43c-.78 1.56-1.56 3.37-2.59 5.44q-1.36 3.5-2.33 3.5a.95.95 0 0 1-1-1.17v-.78a1 1 0 0 0 .13-.52l2.59-27.09c0-.26.13-.52.26-.52a.67.67 0 0 1 .52-.26c.52 0 1 .39 1.43 1.17s.91 1.3 1.17 1.69a8.35 8.35 0 0 0 4.41 2.2 55.82 55.82 0 0 0 10 .65h22.81a46 46 0 0 0 8.81-.65 9.55 9.55 0 0 0 4.28-2.2 6.26 6.26 0 0 0 1.17-1.69c.52-.78.91-1.17 1.43-1.17a.68.68 0 0 1 .52.26c.13 0 .26.26.26.52l3.89 27.09a1.4 1.4 0 0 0 .13.65v.65a1.88 1.88 0 0 1-.26.91 1.09 1.09 0 0 1-.78.26c-.65 0-1.3-1-2.2-3-.52-1.43-1-2.46-1.43-3.37a44.31 44.31 0 0 0-6.48-10 25 25 0 0 0-7.78-6v47.83zm48.87-8.17l-11-3.76c-6.09-2.07-10.37-4.67-13.09-7.65a17.1 17.1 0 0 1-4-11.54c0-6.35 2.33-11.54 7.13-15.29s11-5.83 18.8-5.83a72.71 72.71 0 0 1 9.2.78 55.45 55.45 0 0 0 8.17.91 10.52 10.52 0 0 0 4.28-.78 6 6 0 0 0 2.72-2.33l.65-1.3c.39-1.17.91-1.68 1.43-1.68.78 0 1.17.78 1.43 2.33v.65l2.46 17.24c.13.13.13.52.13.91a2.27 2.27 0 0 1 .13.78 1 1 0 0 1-.26.65c-.26.26-.39.39-.65.39-.52 0-1.56-1-2.85-3a36.91 36.91 0 0 0-4.41-5.31 30.26 30.26 0 0 0-7.78-5.44A20.69 20.69 0 0 0 237 60c-2.85 0-4.92.52-6.35 1.68a6.92 6.92 0 0 0-.52 9.59 13.18 13.18 0 0 0 5.57 3.24l11.28 4.15c7.13 2.46 11.93 5.18 14.52 8s3.89 6.87 3.89 11.67a20.85 20.85 0 0 1-8.39 17.29c-5.57 4.28-13.09 6.48-22.43 6.48a83.67 83.67 0 0 1-9.85-.91c-3.89-.52-6.48-.91-7.65-.91-3.89 0-6.48 1.56-7.91 4.54-.39.65-.65 1-.91 1-.52 0-.91-.13-1-.39a3 3 0 0 1-.52-1.43L204 99.81v-.91c0-.52 0-.78.26-1s.39-.26.65-.26c.78 0 2.07 1.68 4.15 5.31.65 1.3 1.3 2.2 1.68 3a31.07 31.07 0 0 0 8.81 9.85 19.28 19.28 0 0 0 10.76 3.5c3.37 0 6.09-.78 8-2.59a8.11 8.11 0 0 0 3.11-6.61 6.74 6.74 0 0 0-2.07-5.18 17.07 17.07 0 0 0-6.68-3.81zm22.04-51.81a3.92 3.92 0 0 1-2.33-1 3.55 3.55 0 0 1-.91-2.46 5.09 5.09 0 0 1 .39-1.69 9.16 9.16 0 0 1 .65-2.07 43.23 43.23 0 0 1-5.06 4.54c-2.33 1.81-4.41 2.72-6.09 2.72a4.39 4.39 0 0 1-3.5-1.43 4.92 4.92 0 0 1-1.3-3.76c0-.65.13-1.43.13-2.07a40.7 40.7 0 0 1-3.24 3.37c-3 2.59-5.83 3.89-8.43 3.89a4.73 4.73 0 0 1-3.5-1 4.21 4.21 0 0 1-1.17-3.11 11.31 11.31 0 0 1 1.65-5.52c.78-1.3 2.07-3.37 4-6.09l6-8.42h-1.69A3.24 3.24 0 0 1 229 25c-.26 0-.39-.13-.39-.26s.13-.26.39-.26a7.36 7.36 0 0 1 .91-.13h2.59s.13 0 .26-.26a.4.4 0 0 0 .13-.26 23.84 23.84 0 0 0 3.5-4.41 14.84 14.84 0 0 0 2.07-6.09h.39a1 1 0 0 0 .52.13H244c.65 0 1.17-.13 1.56-.13a47.61 47.61 0 0 1-1.81 4.54c-.52 1.17-1.43 2.72-2.46 4.54l-1.17 1.94h3.5a1.3 1.3 0 0 1 .39.13.28.28 0 0 1 .26.26c0 .13-.13.13-.26.26s-.52.13-.91.13h-3.37l-8.55 11.79a43.7 43.7 0 0 0-3.5 5.44 6.94 6.94 0 0 0-1.29 3.37 1.58 1.58 0 0 0 .39 1.17 1.26 1.26 0 0 0 1.17.52c1.56-.13 3.63-1.56 6.35-4.15a30.92 30.92 0 0 0 2.85-3c.91-3.5 3-6.74 6.35-10 4.28-4 8.81-6.22 13.61-6.48h.65a5.53 5.53 0 0 1 2.2.52 6.07 6.07 0 0 1 1.94 2.07 14.23 14.23 0 0 0 1.3-1.43c.13-.26.39-.39.39-.65a5.33 5.33 0 0 0 1.43.13h3a13.77 13.77 0 0 1 2.72-.26L259.76 40.7v.13a15.53 15.53 0 0 0-1.29 2.46 6.41 6.41 0 0 0-.91 3.11v.52h.52c2.07-.52 4.54-2.2 7.39-4.8a44.33 44.33 0 0 0 5.71-6.35c.13-.26.39-.39.39-.52s.26-.26.39-.26.13.13.26.26v.26a49.79 49.79 0 0 1-7.39 8.17c-4.15 3.76-7.52 5.57-10.11 5.57zm-55.61 0c5.19 0 10.24-2.33 15-7s7.26-9.33 7.26-14.13a5 5 0 0 0-1.55-4 7.16 7.16 0 0 0-4.67-1.3c-5.05 0-10.11 2.33-14.91 6.87-4.67 4.28-7.13 8.56-7.52 12.57l-.13 1a5.47 5.47 0 0 0 1.81 4.28 6.27 6.27 0 0 0 4.67 1.68zM96.7 16.85a3 3 0 0 1-2.2-.78 2.76 2.76 0 0 1-.91-2.07A4.24 4.24 0 0 1 95 10.63a5.27 5.27 0 0 1 3.5-1.3 2.77 2.77 0 0 1 2.33.91 2.67 2.67 0 0 1 .91 2.2v.26a4.8 4.8 0 0 1-1.56 3 5.68 5.68 0 0 1-3.5 1.17zm78 32.41a5.77 5.77 0 0 1-3.24-.65 2.34 2.34 0 0 1-1.17-2.07 2.56 2.56 0 0 1 .78-1.82 2.28 2.28 0 0 1 1.68-.78c.39 0 .52 0 .65.13a.48.48 0 0 1 .13.39v.91a1 1 0 0 0-.13.39v.39a1.93 1.93 0 0 0 .26 1.17 1.19 1.19 0 0 0 .52.78c.13.13.26.13.39.26h.52c1.82 0 3.37-1.3 5.05-4a26.51 26.51 0 0 0 2.86-7.42 32.4 32.4 0 0 1 1.3-5.83 29.24 29.24 0 0 1 1.7-4.28l-6.61 7.39c-.26 1.68-2.46 4-6.35 7l-.78.78a22.24 22.24 0 0 1-4 3.76 19 19 0 0 1-5.84 3.24h-.13v-.13a1.92 1.92 0 0 1 .26-1.17 15.61 15.61 0 0 1-6.22 1.56 6.43 6.43 0 0 1-4.33-1.69 6.3 6.3 0 0 1-1.43-4.28 11.67 11.67 0 0 1 .26-2.33c-.91.78-1.81 1.56-2.85 2.33-4.41 3.5-8 5.19-10.63 5.19a4.83 4.83 0 0 1-3.24-.91 3.35 3.35 0 0 1-1.11-2.72 8.58 8.58 0 0 1 1.81-4.41 65.41 65.41 0 0 1 4.19-5.57l1.17-1.43 2.46-3.11c.78-.91 1.3-1.69 1.68-2.2a3.06 3.06 0 0 0 .65-1.69 1 1 0 0 0-.26-.65 1.12 1.12 0 0 0-.78-.39h-.26a.48.48 0 0 1-.39.13h-.13c-1.55 0-3.63 1.43-6.35 4.28a42.89 42.89 0 0 0-4.93 6l-9.46 12.7h-7.3c1.94-2.59 3.63-4.93 5.19-7.13L118 43.29c-4.41 3.5-8 5.19-10.63 5.19a4.83 4.83 0 0 1-3.24-.91 3.35 3.35 0 0 1-1.17-2.72 8.58 8.58 0 0 1 1.81-4.41 65.25 65.25 0 0 1 4.15-5.57l1.08-1.43 2.46-3.11c.78-.91 1.3-1.69 1.69-2.2a3.07 3.07 0 0 0 .65-1.69 1 1 0 0 0-.26-.65 1.12 1.12 0 0 0-.78-.39h-.26a.47.47 0 0 1-.39.13H113c-1.56 0-3.63 1.43-6.35 4.28a43 43 0 0 0-4.93 6l-9.46 12.7H85c1.94-2.72 3.76-5.06 5.31-7.26-.65.52-1.17 1-1.94 1.56-4.93 4.41-8.81 6.48-11.54 6.48h-.65a4.81 4.81 0 0 1-2.59-1.17 2.86 2.86 0 0 1-1-2.59 3.23 3.23 0 0 1 .13-1c-4.41 3.5-7.65 5.31-10 5.31a3.69 3.69 0 0 1-3-1.43 5.19 5.19 0 0 1-1.17-3.5c0-2.46 1-5.7 3.11-9.85a83.5 83.5 0 0 1 5.83-9.72l2.07-2.85c0-.13.13-.26.26-.39a1.62 1.62 0 0 1 .26-.39l.26-.26c.13 0 .13-.13.26-.26l3.11-3.89.52-.65a1.59 1.59 0 0 1 .26-.39c.13-.13.26-.26.26-.39L76 14.52c1.69-1.81 3.37-3.63 4.93-5.18s3.24-3 4.93-4.41a60.4 60.4 0 0 0-6.09 4.41 60.1 60.1 0 0 0-5.5 4.66L52.76 39.15A41.35 41.35 0 0 1 46.92 45c-3.11 2.72-5.57 4-7.26 4h-.26v-.13c0-.13 0-.13.13-.26s.13-.13.39-.26c1.69-1 3.11-2.85 4.41-5.57a38.7 38.7 0 0 0 2.59-8.69 63.66 63.66 0 0 1 5.31-15.42 65.9 65.9 0 0 1 6.87-11 15.66 15.66 0 0 0-1.69 1.68 5.65 5.65 0 0 0-.78.91L36 36.29A60.38 60.38 0 0 1 24.11 47.7c-4.41 3-8.56 4.54-12.57 4.54a11.45 11.45 0 0 1-8.43-3.11Q0 46 0 40.57c0-5.83 2.59-11.41 7.78-16.46s10.63-7.52 16.46-7.52a7.86 7.86 0 0 1 5.18 1.94 6.74 6.74 0 0 1 1.94 5.19A11.23 11.23 0 0 1 28.52 31c-1.81 2.46-3.63 3.63-5.18 3.63a.2.2 0 1 1-.13-.39v-.13a13.65 13.65 0 0 0 3.63-3.76 9.33 9.33 0 0 0 1.16-4.3 6.06 6.06 0 0 0-1.94-4.8 7.15 7.15 0 0 0-5.18-1.68 14.26 14.26 0 0 0-11 4.8 16.73 16.73 0 0 0-4.7 12.05c0 3.24.78 5.57 2.2 7.26s3.24 2.46 5.83 2.72c4.93 0 9.85-1.81 14.52-5.18a57.29 57.29 0 0 0 9.72-9.33L53.66 11.8a68 68 0 0 1 6.87-7.65A26.86 26.86 0 0 1 68.05.26h.26a.13.13 0 0 1 .13.13v.13c-.13 0-.13.13-.26.13A14.51 14.51 0 0 0 64 5.7a23.7 23.7 0 0 0-2.33 6.87 93.87 93.87 0 0 1-3.37 13 93.31 93.31 0 0 1-4.41 9.72L53 36.94l20.24-23.72a43.39 43.39 0 0 1 11.53-9.33C89.44 1.3 93.46 0 97 0a.57.57 0 0 1 .39.13c.13 0 .13 0 .13.13l-.13.13a.45.45 0 0 1-.26.13 26.21 26.21 0 0 0-8.3 5.31 41 41 0 0 0-6.74 8 88.24 88.24 0 0 0-5.31 8.3 104 104 0 0 0-4.8 9.33c-.78 1.56-1.56 3.11-2.2 4.54a17.65 17.65 0 0 0-1.43 5.44 2.19 2.19 0 0 0 .48 1.56 1.77 1.77 0 0 0 1.43.52h.52a6 6 0 0 0 2.59-1.3 18.93 18.93 0 0 1 1.69-3.11 81.86 81.86 0 0 1 5.05-6.74l2.89-3.2a11.2 11.2 0 0 0 1.3-2.07 10.71 10.71 0 0 0 1-2.85h.91a9.79 9.79 0 0 0 1.94.13h1c.65 0 1.56-.13 2.72-.26A4.57 4.57 0 0 0 93.2 24a12.85 12.85 0 0 1-1.2 3.35 11.86 11.86 0 0 1-1.69 2.72l-6.09 7.65a23.49 23.49 0 0 0-3 3.63 8.72 8.72 0 0 0-1.94 4.41 1.47 1.47 0 0 0 .39 1c.26.26.65.26 1.17.26 1.43 0 3.63-1.43 6.74-4.54a54.43 54.43 0 0 0 6.22-7l.65-1c.26-.26.39-.39.39-.52.26-.26.52-.39.65-.52 3.24-4.93 4.8-8.17 4.93-9.59h3.24c.52 0 1.43-.13 2.59-.26a14.2 14.2 0 0 1 1.56-.13 11.94 11.94 0 0 1-1.17 3.63 18.54 18.54 0 0 1-1.81 3.24 31.69 31.69 0 0 1 5.57-4.54 11.79 11.79 0 0 1 6.22-2.07 5.3 5.3 0 0 1 3.24.91 2.85 2.85 0 0 1 1.17 2.46 9.29 9.29 0 0 1-1.81 4.67c-.78 1.3-1.81 2.72-3.24 4.67l-2.46 3c-.52.65-.91 1.17-1 1.3a6.9 6.9 0 0 1-.91 1.17 12 12 0 0 0-1.61 2.04 2.67 2.67 0 0 0-.65 1.17c0 .52.13.78.39.91s.65.26 1 .39q2.53 0 7.78-4.67a48.58 48.58 0 0 0 3.63-3.24c.78-1 1.43-2.07 2.07-3.11 4-6.09 6.09-9.85 6.22-11.54h3.24c.52 0 1.43-.13 2.59-.26a14.22 14.22 0 0 1 1.56-.13 11.94 11.94 0 0 1-1.17 3.63 18.5 18.5 0 0 1-1.82 3.24 31.72 31.72 0 0 1 5.57-4.54 11.79 11.79 0 0 1 6.22-2.07 5.3 5.3 0 0 1 3.24.91 3.21 3.21 0 0 1 1.17 2.46 9.3 9.3 0 0 1-1.81 4.67c-.78 1.3-1.82 2.72-3.24 4.67l-2.46 3c-.52.65-.91 1.17-1 1.3a6.91 6.91 0 0 1-.91 1.17 11.89 11.89 0 0 0-1.55 2.07 2.67 2.67 0 0 0-.65 1.17c0 .52.13.78.39.91s.65.26 1 .39q2.53 0 7.78-4.67c.91-.78 1.68-1.43 2.46-2.2.91-3.24 3.24-6.35 7-9.59 5.05-4.28 10-6.35 14.91-6.35a5.54 5.54 0 0 1 3 .52 2 2 0 0 1 .91 1.94c0 2.46-1.69 4.67-5.19 6.61a37.12 37.12 0 0 1-10.37 3.63h-.52a.78.78 0 0 1-.52.13c-.78 1.3-1.56 2.46-2.2 3.63a9.79 9.79 0 0 0-1.43 4.15 2.28 2.28 0 0 0 .78 1.94c.39.52 1 .65 1.94.78h.65q3.3 0 8.56-3.5a42.19 42.19 0 0 0 8.42-7.52l1.3-1.56.52-.52.13-.13h.13l4.8-5.44c.26-.26.91-1 2.2-2.33a26.26 26.26 0 0 1 2.07-2.07h3.11a17.47 17.47 0 0 0 2.59-.13h.91a15.83 15.83 0 0 0-2.72 4.67 20.7 20.7 0 0 0-1.43 3.89l-.39 2.46c-.91 4.67-2.33 8-4.54 10.37-2.46 2.85-6.22 4.15-11 4.15zm-2.04-24.76h-1a10.16 10.16 0 0 0-6.09 3.5 27.89 27.89 0 0 0-3.63 5.44l-1 1.94a21.9 21.9 0 0 0 7.65-3.76c3.11-2.2 4.67-4 4.67-5.83 0-.39 0-.78-.13-.91a.41.41 0 0 0-.39-.39zm43.42-.78a2.31 2.31 0 0 1 1.3.52 2.31 2.31 0 0 1 .52 1.3c0 3.63-2.2 8.3-6.74 14-4.28 5.57-7.78 8.43-10.24 8.43a2.15 2.15 0 0 1-1.56-.65 2.54 2.54 0 0 1-.52-1.82c0-3 2.33-7.39 7-13.09s8-8.68 10.24-8.68zm42.65.78c-2.07 0-4.93 2.2-8.3 6.35a44.63 44.63 0 0 0-6.22 9.33v.13h-.13a23.27 23.27 0 0 1-.91 2.2 7 7 0 0 0-.52 2.46 1.51 1.51 0 0 0 .52 1.3 1.94 1.94 0 0 0 1.3.39c1.55 0 3.37-1.17 5.57-3.37a43.28 43.28 0 0 0 4.8-6.22l1.81-2.46.91-1.43c.78-1.43 1.42-2.46 1.81-3.24a8.71 8.71 0 0 0 1.17-3.76A2.45 2.45 0 0 0 260 25a2.3 2.3 0 0 0-1.27-.5zm11.87 26.6a7.23 7.23 0 0 1 5.24 2.19 7 7 0 0 1 1.54 2.33 7.35 7.35 0 0 1 .53 2.78 7.27 7.27 0 0 1-.55 2.82 6.83 6.83 0 0 1-1.6 2.34 7.36 7.36 0 0 1-2.39 1.58 7.24 7.24 0 0 1-2.77.55 7.05 7.05 0 0 1-2.8-.57 7.37 7.37 0 0 1-2.38-1.63 7.22 7.22 0 0 1-1.83-7 7.73 7.73 0 0 1 .79-1.85 7.09 7.09 0 0 1 6.21-3.52zm0 1.22a6.1 6.1 0 0 0-2.32.44 5.83 5.83 0 0 0-1.91 1.24 6.31 6.31 0 0 0-1.37 2 5.88 5.88 0 0 0-.48 2.33 6 6 0 0 0 .45 2.3 5.89 5.89 0 0 0 1.31 1.94 6.09 6.09 0 0 0 2 1.36 6 6 0 0 0 4.62 0 6.61 6.61 0 0 0 2-1.32 5.82 5.82 0 0 0 1.33-1.91 5.67 5.67 0 0 0 .47-2.27 6.39 6.39 0 0 0-.44-2.39 5.85 5.85 0 0 0-1.3-2 6 6 0 0 0-2-1.37 6.12 6.12 0 0 0-2.34-.35zm-3 1.88h3.17a4.66 4.66 0 0 1 2.59.58 2 2 0 0 1 .87 1.74 2.07 2.07 0 0 1-.47 1.37 2.39 2.39 0 0 1-1.31.77l1.82 3.63H272L270.52 59h-1v3.32h-2zm2 1.25v2.32h1a2.24 2.24 0 0 0 1.25-.27 1 1 0 0 0 .4-.85 1 1 0 0 0-.43-.9 2.37 2.37 0 0 0-1.32-.29z" id="Layer_1-2" data-name="Layer 1"/></g></svg>