<svg id="Layer_1" data-name="Layer 1" xmlns="http://www.w3.org/2000/svg" viewBox="0 0 215 97"><defs><style>.cls-1{fill:#00aeef}</style></defs><title>Artboard 1</title><path class="cls-1" d="M205.94 12.54c-1-.15-99.82-14.41-194.27 0l-1.13.17v72l1.15.15c.63.08 42.81 5.59 99.93 5.59a755.53 755.53 0 0 0 94.29-5.59l1.16-.15v-72zm-1.52 69.8c-91.74 11.49-180.16 1.36-191.22 0V15c88.24-13.24 180-1.52 191.22 0z"/><path class="cls-1" d="M19.88 23h8.41v19.54a38.37 38.37 0 0 0 .26 4.84 9.84 9.84 0 0 0 .87 3.18 3.66 3.66 0 0 0 1.69 1.72 6.31 6.31 0 0 0 2.72.51 6.45 6.45 0 0 0 2.77-.51 3.68 3.68 0 0 0 1.69-1.69 9.61 9.61 0 0 0 .87-3.15 39.13 39.13 0 0 0 .26-4.9V23h8.41v21.08a32.29 32.29 0 0 1-.64 6.77 12.53 12.53 0 0 1-2.23 5.05 10 10 0 0 1-4.28 3.18 18.21 18.21 0 0 1-6.84 1.1A18 18 0 0 1 27 59.07a10 10 0 0 1-4.28-3.18 12.52 12.52 0 0 1-2.23-5.05 32.25 32.25 0 0 1-.64-6.77zM58 43.26a24 24 0 0 1-3-1.49 9.84 9.84 0 0 1-2.43-2 8.25 8.25 0 0 1-1.59-2.72 11 11 0 0 1-.56-3.72 11.23 11.23 0 0 1 .92-4.69 9.47 9.47 0 0 1 2.59-3.41 11.41 11.41 0 0 1 4-2.1 17.91 17.91 0 0 1 5.23-.72 24.81 24.81 0 0 1 4.82.49 46.6 46.6 0 0 1 5.89 1.66l-3.48 6.25a16.14 16.14 0 0 0-7-1.59 7.57 7.57 0 0 0-1.49.15 4.09 4.09 0 0 0-1.38.54 3.2 3.2 0 0 0-1 1.05 3.3 3.3 0 0 0-.52 1.79 2.77 2.77 0 0 0 .33 1.43 3.53 3.53 0 0 0 .85 1 4.91 4.91 0 0 0 1.18.69l1.33.54 3 1.18a36.8 36.8 0 0 1 3.56 1.61 10.22 10.22 0 0 1 2.74 2.05 8.28 8.28 0 0 1 1.74 2.95 13.22 13.22 0 0 1 .62 4.36 11.7 11.7 0 0 1-.95 4.77A9.89 9.89 0 0 1 70.71 57a13.15 13.15 0 0 1-4.49 2.36 20.17 20.17 0 0 1-6.1.85q-1.59 0-2.92-.1a21.14 21.14 0 0 1-2.59-.36q-1.26-.26-2.51-.62t-2.69-.92L51.15 51q2.1.56 4.13 1a19.51 19.51 0 0 0 4.13.44 9.89 9.89 0 0 0 4.31-.74 3.37 3.37 0 0 0 1.74-2.84 3 3 0 0 0-1.28-3 6.19 6.19 0 0 0-1.49-.8L61 44.44zm20.59-13.78h6l3.08 15.28 3.8-15.28h5.14l3.77 15.63 3.32-15.63h5.45q-.48 2.09-.89 3.82t-.94 3.92q-.53 2.19-1.08 4.49l-1.08 4.51q-.53 2.21-1 3.92t-.94 3.8h-5.81l-3.6-14.77L90 53.95h-5.51zm32.35-.03h14.43q-.34 1.3-.69 2.47t-.69 2.4h-7.54a3 3 0 0 0 0 .39 3.42 3.42 0 0 1 0 .39v3.6h6.92v4.9h-6.92v4.69l-.07.79h9v4.87h-14.44zm17.38-.43h5.59v24.5h-5.59zm21.96 16.16h-3.6l2.26-4.39h6.65v12.4a18.61 18.61 0 0 1-3.82.91 27.05 27.05 0 0 1-3.2.22 13.6 13.6 0 0 1-5.24-.93 10.06 10.06 0 0 1-3.7-2.57 10.54 10.54 0 0 1-2.19-3.94 16.74 16.74 0 0 1-.72-5 16.41 16.41 0 0 1 .75-5.07 11.56 11.56 0 0 1 2.21-4 9.92 9.92 0 0 1 3.61-2.64 12.22 12.22 0 0 1 4.93-.94 19.54 19.54 0 0 1 3.1.24 15.53 15.53 0 0 1 3.34 1l-2.33 4.28a7.12 7.12 0 0 0-1.58-.43 12.13 12.13 0 0 0-2-.15 5.59 5.59 0 0 0-4.59 1.83q-1.56 1.92-1.56 5.82t1.54 5.72a5.77 5.77 0 0 0 4.66 1.82 7.2 7.2 0 0 0 1.47-.14zm8.57-15.73h5.62v9.25h7.3v-9.25h5.62v24.5h-5.62V43.5l-.38.07-.41.07h-5.76l-.75-.14v10.45h-5.62zm26.59 4.86h-5.86v-4.86h17.65l-.79 2.39-.79 2.47h-4.59l.1.96v18.68h-5.72V34.31zM78.26 22.51h119.46v2.67H78.26zm0 35.42h119.46v2.67H78.26zM36.84 70.6l-.81-.21v-.58l2.92-.06v.63l-.9.21 1.12 4.73 1.71-5.52 1-.05 1.7 5.68 1.29-4.85-.95-.21v-.57l2.82-.06v.62l-.83.22-1.82 6.48h-1.15l-1.27-4.8-.3-1.13-.32 1.18-1.4 4.76H38.6l-1.76-6.47zm12.57-.03v2.24h2.4v.84h-2.4l.01 2.56 2.4-.01.21-1.04h.68v1.88l-5.28.01v-.63l.89-.21-.01-5.64-.89-.21v-.57l1.98-.06 3.19-.01v1.78h-.68l-.26-.94-2.24.01zm7.22 6.46l-2.87.01v-.63l.88-.21-.01-5.64-.89-.21v-.57l2.88-.06v.62l-.89.21.01 5.65.89.2v.63zm7.05-.54a5.88 5.88 0 0 1-2.66.63c-2.09 0-3.35-1.25-3.35-3.6s1.33-3.91 3.49-3.92a6.88 6.88 0 0 1 2.35.52v1.72h-.68l-.32-1.15a4.94 4.94 0 0 0-1.41-.21c-1.41 0-2.19 1-2.19 3s.95 2.77 2.3 2.76a5 5 0 0 0 1.43-.24v-1.74l-.89-.21v-.58l2.72-.06V74l-.78.21zm4.61.51l-2.97.01-.01-.63.89-.21-.01-5.64-.89-.21v-.57l2.98-.06v.63l-.99.21v2.3l3.5-.01v-2.3l-1-.21v-.57l2.98-.06v.63l-.88.21.01 5.64.88.21.01.63h-2.98v-.63l.99-.21-.01-2.5h-3.5l.01 2.51.99.21V77zm9.46-.02l-3.19.01v-.63l1.05-.21-.02-5.64h-1.35l-.26 1.05h-.68l-.01-1.88 5.7-.01v1.88h-.68l-.26-1.05-1.36.01.01 5.64 1.05.21v.62zm3.13-1.05a2.28 2.28 0 0 0 1.15.26c.76 0 1.61-.38 1.6-1.12 0-1.61-3.73-.9-3.78-3.43 0-1.46 1.17-2.06 2.47-2.09a7.35 7.35 0 0 1 2.21.41v1.78h-.73l-.36-1.12a3.41 3.41 0 0 0-1.11-.18c-.94 0-1.4.49-1.39 1 0 1.59 3.73 1 3.77 3.33 0 1.57-1.26 2.27-2.72 2.31a6.26 6.26 0 0 1-2.15-.42v-1.82h.84zm12.79.39l.99-.21-.01-5.22-.32.78-1.61 3.29-.83.06-1.63-3.39-.26-.73.01 5.22.99.21v.62l-2.82.01v-.63l.89-.21-.01-5.64-.89-.21v-.57l2.35-.06 1.9 4.18 1.96-4.14 2.2-.05v.62l-.89.22.01 5.64.89.2v.63l-2.92.01v-.63zm10.76-.02l-.87-.2-2.33-6.48-1 .06-2.37 6.44-.86.2v.63h2.87v-.63l-1-.2.4-1.16H102l.4 1.16-1 .2v.63h3zm-4.9-2.18l1.09-3.12 1.06 3.14zm8.86-4.52h-1.31l-2 .06v.57l.89.21v5.64l-.89.21v.63h3.13c2.09 0 3.45-1.47 3.44-3.77s-1.23-3.55-3.26-3.55zm-.09 6.48h-1.2v-5.64h1.25c1.31 0 2.14.83 2.15 2.76s-.9 2.88-2.2 2.88zm6.41-5.66l.01 2.25 2.4-.01v.84h-2.4v2.56h2.41l.2-1.05h.68l.01 1.88-5.28.02v-.63l.89-.21-.02-5.65-.89-.2v-.58l1.99-.05 3.19-.01v1.78h-.68l-.26-.94h-2.25zm9.63 6.46l-2.87.01v-.63l.88-.21-.01-5.64-.89-.21v-.58l2.87-.06.01.63-.89.21.01 5.65.89.2v.63zm2.65-5.76l.01 4.92 1 .2v.63l-2.82.01-.01-.63.89-.21-.01-5.64-.89-.21v-.57l2.2-.06 3.45 5.83v-5l-.89-.21-.01-.57 2.72-.06v.62l-.88.21.01 6.48h-1.31l-3.46-5.74zm12.97 5.72l-3.18.01v-.63l1.04-.21-.01-5.64h-1.36l-.26 1.05h-.68v-1.88l5.69-.01.01 1.88h-.68l-.27-1.05-1.36.01.02 5.64 1.04.21v.62zm4.76-.01l-2.98.01v-.63l.89-.21-.02-5.64-.88-.21-.01-.57 2.98-.06v.63l-.99.21.01 2.3 3.5-.01-.01-2.3-.99-.21v-.57l2.97-.06.01.63-.89.21.01 5.64.89.21v.62l-2.98.01v-.63l.99-.21v-2.51l-3.5.01V76l1 .21v.62zm7.51-6.49v2.24h2.41v.84h-2.4v2.56h2.4l.21-1.05h.68v1.88l-5.27.01v-.63l.89-.21-.02-5.64-.89-.21v-.57l1.99-.06h3.18l.01 1.77h-.68l-.26-.94-2.25.01zm13.28 3.47c0 1.93-.67 3.08-2.87 3.09-2 0-2.77-1-2.78-2.92v-3.66l-.89-.21v-.57l3-.06v.63l-1 .21V74c0 1.57.53 2 1.73 2s1.72-.58 1.72-2.2v-3.5l-1-.21v-.57l3-.06v.63l-.89.21zm3.09 1.93a2.28 2.28 0 0 0 1.15.26c.76 0 1.61-.38 1.6-1.12 0-1.61-3.73-.9-3.78-3.43 0-1.46 1.17-2.06 2.47-2.08a7.36 7.36 0 0 1 2.21.41v1.78h-.68l-.36-1.12a3.39 3.39 0 0 0-1.11-.19c-.94 0-1.4.49-1.39 1 0 1.59 3.73 1 3.77 3.32 0 1.57-1.26 2.27-2.72 2.31a6.26 6.26 0 0 1-2.15-.42v-1.82h.84zm11.99.39l-.87-.2-2.33-6.48-1 .06-2.39 6.43-.86.2v.63H176v-.63l-1-.2.41-1.16h2.72l.4 1.16-1 .2v.63h3zm-4.89-2.18l1.09-3.15 1.06 3.14zM30.72 70.01l.67 2.08h2.19l-1.77 1.28.67 2.08-1.76-1.28-1.77 1.28.67-2.08-1.77-1.28h2.19l.68-2.08zm155.56 0l.68 2.08h2.18l-1.77 1.28.68 2.08-1.77-1.28-1.77 1.28.68-2.08-1.77-1.28h2.18l.68-2.08z"/></svg>