<svg xmlns="http://www.w3.org/2000/svg" viewBox="0 0 719.52 95.04"><title>brand-ping-pong</title><g data-name="Layer 2"><g data-name="Layer 1"><path d="M354.88 83.83a2.14 2.14 0 0 1 .38 1.85l-.38 1.88h-10.4a5.38 5.38 0 0 1-4.46-2 5.64 5.64 0 0 1-1-4.87l4.49-22.25h6.89l-2 10h5.53L353 72.9h-5.53l-1.53 7.6a2.1 2.1 0 0 0 .4 1.82 2 2 0 0 0 1.67.77h5.22a2 2 0 0 1 1.65.74zm28.26-12.28a2.15 2.15 0 0 0-.38-1.85 2 2 0 0 0-1.69-.74h-13.61l-3.75 18.6h-6.89l5.88-29.14h6.89l-1.22 6.05h16.19a5.39 5.39 0 0 1 4.46 2 5.65 5.65 0 0 1 1 4.87l-3.27 16.2h-6.89zm14.35 8.9a2.2 2.2 0 0 0 .38 1.84 2 2 0 0 0 1.68.79h13.65a2 2 0 0 1 1.68.74 2.12 2.12 0 0 1 .37 1.85l-.38 1.88h-18.81a5.42 5.42 0 0 1-4.5-2 5.64 5.64 0 0 1-1-4.91l1.87-9.3a8.42 8.42 0 0 1 3-4.92 8.14 8.14 0 0 1 5.32-2H417a5.47 5.47 0 0 1 4.51 2 5.71 5.71 0 0 1 1 4.92l-.06.31a8.45 8.45 0 0 1-3 4.91 8.15 8.15 0 0 1-5.32 2h-16.26zm18-9a2.25 2.25 0 0 0-.37-1.84 2 2 0 0 0-1.69-.79h-11.01a3 3 0 0 0-2 .75 3.18 3.18 0 0 0-1.12 1.88l-.52 2.59h13.64a3.09 3.09 0 0 0 2-.75 3.22 3.22 0 0 0 1.12-1.79zm48.89-4.7a5.68 5.68 0 0 1 1 4.82l-1.85 9.17a8.34 8.34 0 0 1-3 4.84 8 8 0 0 1-5.2 2h-16a5.39 5.39 0 0 1-4.45-2 5.63 5.63 0 0 1-1-4.84l1.85-9.17a8.32 8.32 0 0 1 3-4.84 8 8 0 0 1 5.24-2h16a5.27 5.27 0 0 1 4.41 2.02zm-8.71 15.63a3.26 3.26 0 0 0 1.1-1.82l1.78-8.82a2.14 2.14 0 0 0-.39-1.83 2 2 0 0 0-1.64-.76h-10.9a2.94 2.94 0 0 0-2 .78 3.17 3.17 0 0 0-1.09 1.81l-1.79 8.82a2.18 2.18 0 0 0 .36 1.86 2 2 0 0 0 1.66.73h10.9a3 3 0 0 0 2.01-.77zm19.85-12.46a3.23 3.23 0 0 0-1.1 1.81l-3.19 15.83h-6.83l3.22-16a8.35 8.35 0 0 1 3-4.84 8 8 0 0 1 5.24-2h9.95a5.36 5.36 0 0 1 4.44 2 5.58 5.58 0 0 1 1 4.84l-.13.65h-6.83l.1-.48a2.17 2.17 0 0 0-.36-1.86 2 2 0 0 0-1.66-.73h-4.85a2.93 2.93 0 0 0-2 .78zm25.33-2.59l-4.09 20.23a5.33 5.33 0 0 1-4.4-2 5.55 5.55 0 0 1-1-4.8l2.71-13.45zM494.74 64l1-5.1h6.79l-1 5.1zm6.8 21.57a5.57 5.57 0 0 1-1-4.8l1.86-9.21a8.32 8.32 0 0 1 3-4.84 8 8 0 0 1 5.24-2h16a5.25 5.25 0 0 1 4.41 2 5.64 5.64 0 0 1 1 4.82l-3.37 16.69a8.26 8.26 0 0 1-3 4.8 8 8 0 0 1-5.2 2h-18.56l.38-1.86a3.06 3.06 0 0 1 1.1-1.81 3 3 0 0 1 2-.74h13.44a3 3 0 0 0 1.95-.75 3.16 3.16 0 0 0 1.12-1.79l.1-.52H506a5.38 5.38 0 0 1-4.46-1.99zm23.64-13.84a2.12 2.12 0 0 0-.37-1.81 2 2 0 0 0-1.67-.73h-10.89a3 3 0 0 0-2 .73 3.08 3.08 0 0 0-1.11 1.81l-1.79 8.87a2.09 2.09 0 0 0 .39 1.8 2 2 0 0 0 1.64.75h13.45zm16.95-4.4l-4.08 20.23a5.34 5.34 0 0 1-4.4-2 5.59 5.59 0 0 1-1-4.8l2.71-13.45zM536 64l1-5.1h6.79l-1 5.1zm15.89 5.92a3.21 3.21 0 0 0-1.1 1.81l-3.2 15.83h-6.83l3.22-16a8.35 8.35 0 0 1 3-4.84 8 8 0 0 1 5.25-2h16a5.36 5.36 0 0 1 4.44 2 5.6 5.6 0 0 1 1 4.84l-3.23 16h-6.84l3.19-15.83a2.18 2.18 0 0 0-.36-1.86 2 2 0 0 0-1.67-.73h-10.89a2.93 2.93 0 0 0-1.98.78zM598 73.6l.37-1.86a2.1 2.1 0 0 0-.37-1.84 2 2 0 0 0-1.64-.76H582.9a2.07 2.07 0 0 1-1.72-.73 2.13 2.13 0 0 1-.37-1.82l.38-1.86h18.59a5.36 5.36 0 0 1 4.44 2 5.58 5.58 0 0 1 1 4.84l-1.85 9.17a8.3 8.3 0 0 1-3 4.84 8 8 0 0 1-5.24 2h-16a5.38 5.38 0 0 1-4.45-2 5.62 5.62 0 0 1-1-4.84l.06-.3a8.31 8.31 0 0 1 3-4.84 8 8 0 0 1 5.24-2zm-17.45 7a2.21 2.21 0 0 0 .37 1.82 2 2 0 0 0 1.66.78h10.93a3 3 0 0 0 1.95-.75 3.14 3.14 0 0 0 1.13-1.84l.51-2.55h-13.48a3 3 0 0 0-1.95.76 3.1 3.1 0 0 0-1.12 1.74zm-479.08-59c.1-7.94-4.47-14.16-12.33-17.5A42.67 42.67 0 0 0 74.34 1H44.83a53.55 53.55 0 0 0-15.89 3.06c-11.05 4-18.08 11.62-20.14 22.1L0 69.76h22l3.54-17.57h39.33a53.46 53.46 0 0 0 15.88-3.06c11.05-4 18.08-11.61 20.14-22.1a27.48 27.48 0 0 0 .58-5.43zm-22.39 4.56c-2.22 10.4-6.46 15-13.27 15.83H27.6l3-15-2.13-.43 2.13.43c2.21-10.39 6.46-15 13.27-15.82h29A7.27 7.27 0 0 1 78 13.64c1.09 1.36 1.76 3.36 1.77 6.44a31.32 31.32 0 0 1-.69 6.08zM111.1 1l-.35 1.74-10 49.45h22L133.09 1zm91.68 3.09A45.89 45.89 0 0 0 187.41 1h-47.56l-10.34 51.19h22l8.28-41H186c2.92.32 4.78 1.26 6 2.64s2 3.52 2 6.68a29.13 29.13 0 0 1-.63 5.65l-5.26 26h22L215.15 27a26.83 26.83 0 0 0 .55-5.27c.1-8.04-4.7-14.31-12.93-17.64zM298.31 38q-3.89 0-3.33-2.79l1-5.1c.38-1.87 1.86-2.81 4.45-2.81H310V27a27.42 27.42 0 0 0 .58-5.41c.09-7.94-4.43-14.17-12.34-17.5A42.81 42.81 0 0 0 283.46 1h-29.51a53.54 53.54 0 0 0-15.88 3.06C227 8.09 220 15.68 217.93 26.16a27 27 0 0 0-.58 5.43c-.09 7.94 4.43 14.16 12.34 17.49a42.67 42.67 0 0 0 14.79 3.1h38.36c-2.35 8.56-6.42 12.45-12.61 13.23H251l-.35 1.74-1.72 8.46h20.34a53.85 53.85 0 0 0 15.88-3.06c11.05-4 18.08-11.61 20.14-22.1L307.8 38zm-10.1-11.89L285 42h-39.06a7.32 7.32 0 0 1-5.14-2.46c-1.07-1.32-1.75-3.38-1.75-6.43a31 31 0 0 1 .69-6.09C242 16.62 246.21 12 253 11.19h29a7.28 7.28 0 0 1 5.11 2.46c1.07 1.32 1.75 3.38 1.75 6.43a31.07 31.07 0 0 1-.65 6.08z"/><path d="M398.95 4.2a43 43 0 0 0-14.8-3.1h-29.53a53.65 53.65 0 0 0-15.87 3.05c-11.06 4-18.1 11.7-20.16 22.19l-.17 1h10.12q3.89 0 3.32 2.81l-1.06 5.17q-.54 2.68-4.43 2.68h-10.12l-6.44 31.84h22l3.55-17.57h39.34a53.43 53.43 0 0 0 15.88-3.06c11-4 18.08-11.61 20.14-22.1a27.74 27.74 0 0 0 .57-5.42c.07-7.92-4.44-14.16-12.34-17.49zm-10.06 22.06c-2.22 10.4-6.47 15-13.27 15.83h-38.21l3-15c2.22-10.4 6.46-15 13.27-15.83h29a7.29 7.29 0 0 1 5.13 2.46c1.07 1.33 1.75 3.39 1.75 6.44a31 31 0 0 1-.67 6.1zm117.26-4.57c.09-7.93-4.42-14.17-12.33-17.49A42.82 42.82 0 0 0 479 1.1h-29.51a53.76 53.76 0 0 0-15.87 3.06c-11.05 4-18.09 11.62-20.15 22.1a27.27 27.27 0 0 0-.58 5.42c-.09 7.93 4.43 14.16 12.34 17.49A42.94 42.94 0 0 0 440 52.28h29.52a53.83 53.83 0 0 0 15.87-3.07c11.05-4 18.07-11.62 20.14-22.1a27.92 27.92 0 0 0 .62-5.42zm-22.39 4.56c-2.21 10.39-6.45 15-13.24 15.83h-29.06a7.3 7.3 0 0 1-5.1-2.46c-1.07-1.33-1.75-3.38-1.75-6.43a31.28 31.28 0 0 1 .69-6.08c2.22-10.4 6.46-15 13.27-15.83h29a7.3 7.3 0 0 1 5.13 2.46c1.07 1.32 1.75 3.38 1.75 6.43a31.39 31.39 0 0 1-.69 6.09zM671.85 4.2a43.06 43.06 0 0 0-14.8-3.1h-29.52a53.69 53.69 0 0 0-15.86 3.06c-11.06 4-18.08 11.62-20.15 22.1a27.06 27.06 0 0 0-.58 5.42c-.09 7.94 4.43 14.17 12.35 17.5a42.88 42.88 0 0 0 14.8 3.11h38.35c-2.35 8.57-6.42 12.46-12.64 13.23h-19.2l-.35 1.74-1.71 8.46h20.22a53.89 53.89 0 0 0 16-3.06c11.05-4 18.08-11.61 20.15-22.1l4.73-23.43a27.79 27.79 0 0 0 .57-5.41c.06-7.95-4.46-14.19-12.36-17.52zm-10.06 22.06l-3.2 15.83h-39.1a7.28 7.28 0 0 1-5.1-2.46c-1.07-1.32-1.74-3.38-1.74-6.43a30.63 30.63 0 0 1 .69-6.09c2.21-10.4 6.47-15 13.26-15.83h29a7.26 7.26 0 0 1 5.1 2.46c1.07 1.32 1.75 3.38 1.75 6.43a31.53 31.53 0 0 1-.66 6.09zM546.56 0a58 58 0 0 0-16.61 3c-11.5 4-18.88 11.5-21.18 22l-5.82 26h22l5.6-25c2.43-10.27 7.05-14.9 14.78-15.79h25.29L561.52 51h22l11.42-51zm139.7 38.34Q687.52 32 697.94 32h12.29q10.42 0 9.15 6.31l-1.69 8.38Q716.43 52.95 706 53h-12.27q-10.42 0-9.15-6.31zm21.48 12.24q6 0 6.82-4.19l1.6-7.93q.87-4.31-5.1-4.31h-15q-6 0-6.85 4.31l-1.58 7.85c-.57 2.85 1.12 4.27 5.11 4.27zm-15-2.78l2.21-11h11.7q5.31 0 4.83 2.36l-.26 1.33q-.4 2-4.16 2.32l2.53 4.94h-3l-2.49-4.9h-7.6l-1 4.9zm4.67-9.35l-.57 2.83h8.93c1.66 0 2.54-.25 2.64-.75l.28-1.33c.09-.49-.69-.75-2.35-.75z"/><path d="M617.14 58.86h-6.78l-4.43 21.92a5.59 5.59 0 0 0 1 4.8 5.33 5.33 0 0 0 4.39 2z"/></g></g></svg>