<svg xmlns="http://www.w3.org/2000/svg" xmlns:xlink="http://www.w3.org/1999/xlink" viewBox="0 0 764.65 230.19"><defs><style>.cls-1{isolation:isolate}.cls-2{opacity:.75;mix-blend-mode:multiply}.cls-3{fill:#231f20}.cls-4{fill:url(#New_Gradient_Swatch)}.cls-5{fill:url(#New_Gradient_Swatch-2)}</style><linearGradient id="New_Gradient_Swatch" x1="237.61" y1="170.66" x2="724.62" y2="170.66" gradientUnits="userSpaceOnUse"><stop offset=".02" stop-color="#e8a21d"/><stop offset=".09" stop-color="#fdbb1d"/><stop offset=".49" stop-color="#ffdf05"/><stop offset=".92" stop-color="#febc1c"/><stop offset="1" stop-color="#e49f1d"/></linearGradient><linearGradient id="New_Gradient_Swatch-2" x1="142.11" y1="-15.95" x2="607.38" y2="252.67" xlink:href="#New_Gradient_Swatch"/></defs><title>Artboard 2</title><g class="cls-1"><g id="Layer_1" data-name="Layer 1"><g class="cls-2"><path class="cls-3" d="M298 189.42l.81-3.11-6.6.57.84-3.23 7.52-.65.82-3.13-13.71 1.13-4.16 16.21 14-1.2.81-3.12-7.84.67.93-3.61zm127.11-20.2l-2.46 9.56h-.06l-2.49-9.13-6.72.58-4.17 16.21 5.94-.51 2.59-10h.07l2.39 9.59 6.7-.58 4.19-16.21zm16.75-1.69c-4.58.39-8.31 2.21-9.14 5.37l-1.9 7.36c-.73 2.88 1.83 4.42 6.72 4s8.4-2.49 9.14-5.36l1.9-7.37c.8-3.16-2.15-4.4-6.73-4.01zm.64 4.21l-2.06 8c-.11.43-.38 1.48-2.16 1.63s-1.51-.89-1.39-1.33l2.06-8c.15-.55.38-1.48 2.17-1.63s1.53.77 1.37 1.32zm16.17-5.4l-6.16.53-4.17 16.21 12.85-1.08.8-3.12-6.68.57zM404.39 171l-1.56 6.07-3.54.3 1.57-6.07-6.17.53-4.16 16.17 6.14-.54 1.79-6.89 3.55-.31-1.78 6.9 6.15-.53 4.18-16.21zm-144 12.38l-5.18 11.71h-.07l1.09-11.36-6 .51-5 11.69h-.07l.8-11.33-6.32.54.36 15.82 6.86-.6 4.61-10.15h.07l-.77 9.82 6.86-.59 8.85-16.61zm58.2 10.84l14-1.2.82-3.12-7.82.68.92-3.62 6.59-.57.8-3.11-6.58.57.83-3.23 7.53-.65.8-3.13-13.67 1.16zm41.12-19.39l-14.11 1.21-.8 3.13 4-.34-3.37 13.08 6.15-.53 3.42-13.07 4-.34zm-40.94 7.35c.74-2.91-1.31-3.71-6.79-3.24l-8.13.7-4.17 16.21 6.16-.53 1.8-7a5.88 5.88 0 0 1 .92-.09c.32 0 .48.36.57.78.38 1.72 1.33 5.91 1.27 5.92l6.48-.56-1.71-7.07a1.42 1.42 0 0 0-1.08-1c3.49-.93 4.24-2.2 4.74-4.11zm-6.32 1.17c-.26 1.05-.5 1.9-2.6 2.08l-1.51.13.95-3.68 1.21-.11c2.5-.21 2.29.44 2.01 1.59zm-34.15-1.51l-1.57 6.07-3.54.31 1.56-6.07-6.15.53-4.19 16.21 6.16-.53 1.78-6.9 3.54-.3-1.78 6.9 6.16-.53 4.19-16.21zm103 2.49l1.78-7c.14-.54.37-1.47 2.14-1.63l5.47-.48.8-3.12-5.49.47c-4.58.39-8.21 2-9 5.11l-1.9 7.37c-.73 2.88 1.9 4.17 6.8 3.75l6-.54.8-3.13-6 .54c-1.7.14-1.47-.91-1.36-1.34zm-6.9-7.69l.8-3.13-13.68 1.17-4.17 16.21 14-1.2.79-3.12-7.83.67.93-3.61 6.59-.57.8-3.11-6.59.57.84-3.23zm252.39-21.71l6.69-.58.8-3.13-12.86 1.11-4.17 16.21 6.16-.53 1.74-6.74 6-.51.83-3.11-6 .52zm38.79-1.9c.14-.55.38-1.49 2.16-1.64l6.54-.57.8-3.12-6.59.57c-4.58.39-8.19 1.94-9 5.1l-1.92 7.37c-.74 2.88 1.92 4.16 6.8 3.74l7.51-.65 2.3-8.93-5.93.51-1.5 5.8-1.58.14c-1.77.15-1.5-.91-1.4-1.33zm21.45-.41l-3.58.31 1.57-6.07-6.14.53-4.18 16.21 6.16-.53 1.77-6.9 3.56-.31-1.79 6.9 6.16-.53 4.22-16.23-6.17.53zm-212.6 12.1c-4.57.39-8.32 2.21-9.13 5.36l-1.91 7.37c-.74 2.87 1.83 4.42 6.72 4s8.41-2.49 9.14-5.37l1.9-7.37c.85-3.14-2.15-4.39-6.68-3.99zm.65 4.21l-2.06 8a2.09 2.09 0 0 1-2.16 1.63c-1.77.15-1.51-.91-1.39-1.33l2.05-8c.15-.55.39-1.47 2.15-1.63s1.58.78 1.44 1.33zm235.56-24.28l-14.1 1.21-.82 3.13 4-.34-3.37 13.08 6.16-.53 3.36-13.08 4-.34zm-68.13 5.86l-6.16.53-4.18 16.21 12.85-1.11.8-3.12-6.7.58zm81.33-.24l-4 7.24-.26-6.87-2.9.25-2.51 9.31 1.72-.15 2.11-7.65h.05l.35 7.48 1.73-.15 4.5-7.89-2.06 7.68 1.74-.15 2.5-9.31zm-8.57.74l-7 .6-.4 1.47 2.59-.22-2.09 7.84 1.79-.15 2.11-7.84 2.59-.22zm-63.8-1.27L647.32 166l6.15-.53 4.16-16.21zm-111.11 12.63l.82-3.13-14.18 1.21-.79 3.13 4-.34-3.36 13.08 6.13-.53 3.39-13.08zm-32.72 5.12h-.08l-.28-5.33-6.36.54 2.49 9.38-1.65 6.4 6.15-.53 1.73-6.67 7.47-10-6.25.54zm-16.16 8.82l-1.57.14c-1.77.15-1.5-.91-1.39-1.33l1.79-7c.14-.55.38-1.48 2.15-1.63l5.46-.47.81-3.12-5.51.47c-4.59.4-8.21 1.94-9 5.11l-1.89 7.36c-.75 2.88 1.91 4.17 6.79 3.75l7.51-.65 2.3-8.93-5.93.51zm110.32-19.73c1.73-.15 5.08-.39 5.08-.39l.76-2.69-5.53.48c-4.91.36-8.1 1.77-8.92 5-.62 2.47.67 2.74 2.84 3.76s4.37 1.6 4 3c-.18.71-1.07 1.32-2.46 1.44l-5.83.5-.72 3.08 6.57-.52c7-.62 9.13-3.06 9.54-4.62.83-3.27-1.51-3.84-3.48-4.86-2.2-.91-4.53-1.81-4.28-2.78.18-.75 1.09-1.28 2.43-1.4zm-12.8 7.8l.8-3.11-6.58.57.84-3.23 7.53-.65.8-3.13-13.66 1.17-4.17 16.21 14-1.2.78-3.12-7.82.67.94-3.62zm-43.8-5.49l-9.15 16.63 6.17-.53 1.39-2.93 4.31-.37-.18 2.83 6.46-.55-.86-15.78zm2.87 10l-3.08.27 3.62-8.05h.07zm28.64-12.69l-6.52.56-5.79 7h-.11l1.7-6.64-6 .51-4.17 16.21 6-.51 1.14-4.46 1.8-1.47 1.25 5.57 6.54-.56-2.7-9zM489.75 42l-51.29 4.4-27.38 101.53 52.8-4.54s25.33.86 33.21-26.79c3.49-12.2 12.15-44.35 12.15-44.35S522.36 39.2 489.75 42zm-23.18 77.33l-18.47 1.59 13.71-52.47 18.86-1.62zM154.86 65.75l15.72-58.28L2.16 232.35l86.48-7.44L123 181.43l2.52-25.78s19.7-73.12 21.93-81.42c2.12-8.03 7.41-8.48 7.41-8.48zm245.06-16l-20.54 77-17.54 1.51 20.93-77-31.32 2.69-18.19 68.8s-13.11 33 19.51 30.23l51.27-4.41 27.2-101.5zm-98.63 32.44L338.81 79l6.54-24.49L304 58s-25.33-.86-33.21 26.79c-3.53 12.21-12.19 44.37-12.19 44.37s-13.11 33 19.51 30.24l40.73-3.5 6.43-24.48-38.07 3.27zm-72.65 6.25l37.53-3.23 6.53-24.49-41.4 3.55s-25.3-.85-33.21 26.79c-.65 2.28-1 3.38-1.1 3.88L175.22 7.07l-15.7 58.27s5.28-.45 3.1 7.57l-21.93 81.42-11.59 26.57 12 39.5 85.23-7.33-11.95-48.22-8.87.8c-32.63 2.8-19.52-30.24-19.52-30.24L197 95l17.51 69.91 31.68-2.72 6.45-24.48-38.09 3.28zM747.8 11.61a10.63 10.63 0 0 0-1.8-5.07 9.91 9.91 0 0 0-4.18-3.46 10.56 10.56 0 0 0-10.2.88 9.56 9.56 0 0 0-3.53 4.13 10.39 10.39 0 0 0-.95 5.31 10.15 10.15 0 0 0 1.83 5 9.7 9.7 0 0 0 4.13 3.49 10.49 10.49 0 0 0 5.26.92 10.36 10.36 0 0 0 5-1.8 9.67 9.67 0 0 0 3.5-4.14 10.2 10.2 0 0 0 .94-5.26zM745 16a7.72 7.72 0 0 1-2.77 3.32 8.48 8.48 0 0 1-4.06 1.45A8.23 8.23 0 0 1 734 20a7.7 7.7 0 0 1-3.33-2.8A8.19 8.19 0 0 1 730 9a7.75 7.75 0 0 1 2.83-3.3 8.2 8.2 0 0 1 3.94-1.39 8.49 8.49 0 0 1 4.2.69 7.65 7.65 0 0 1 3.33 2.77A8.17 8.17 0 0 1 745 16zM575.47 34.67l-49 4.22L520 63.37l46.38-4-2.86 10.9-24 2s-25.34-.86-33.22 26.79c-2.09 7.35-2.55 9.09-2.58 9.31-1.32 3.61-11 32.5 19.64 29.87l53-4.56L595 64.9s13.08-33.04-19.53-30.23zm-23.18 77.22l-19.79 1.7 4.86-18.46 20-1.6zm188.1-97.67a8.16 8.16 0 0 0-.78-.78 3.06 3.06 0 0 0-.83-.33 3.65 3.65 0 0 0 2.08-1.22 2.94 2.94 0 0 0 .58-2.09 3 3 0 0 0-.53-1.53 2.59 2.59 0 0 0-1.12-.94A4.17 4.17 0 0 0 738 7c-.26 0-1.42.08-3.49.26l-2.22.19.94 10.86 2.23-.19-.38-4.44h.56a2.58 2.58 0 0 1 1.6.31 7.49 7.49 0 0 1 1.76 2.12l1 1.67 2.72-.23-1.42-2.08a13.11 13.11 0 0 0-.91-1.25zm-2.2-2.66a10.52 10.52 0 0 1-2.35.35L735 12l-.25-2.93.85-.07a10.76 10.76 0 0 1 2.38 0 1.47 1.47 0 0 1 .77.44 1.51 1.51 0 0 1 .34.77 1.55 1.55 0 0 1-.2.85 1.29 1.29 0 0 1-.69.5zm-82 40.13l11.07-1-20.37 77L678 125l20.54-77 17.65-1.52L722.86 22l-60.23 5.13zm2-24.14l-21.15 1.82s-25.35-.86-33.21 26.79c-3.5 12.2-20.54 77-20.54 77l30.34-2.61 20.74-77 17.3-1.55z"/></g><path class="cls-4" d="M295.83 187.26l.81-3.11-6.6.57.84-3.23 7.52-.65.82-3.13-13.69 1.18-4.16 16.21 14-1.2.81-3.12-7.84.67.93-3.61zm127.11-20.2l-2.46 9.56h-.06l-2.49-9.13-6.72.58-4.21 16.21 5.94-.51 2.59-10h.07l2.39 9.59 6.7-.58 4.19-16.21zm16.75-1.69c-4.58.39-8.31 2.21-9.14 5.37l-1.9 7.36c-.73 2.88 1.83 4.42 6.72 4s8.4-2.49 9.14-5.36l1.9-7.37c.81-3.16-2.14-4.37-6.72-4.01zm.64 4.21l-2.06 8c-.11.43-.38 1.48-2.16 1.63s-1.51-.89-1.39-1.33l2.06-8c.15-.55.38-1.48 2.17-1.63s1.54.75 1.38 1.32zm16.17-5.4l-6.16.53-4.17 16.21L459 179.8l.8-3.12-6.68.57zm-54.28 4.67l-1.56 6.07-3.54.3 1.57-6.07-6.17.53-4.17 16.21 6.14-.54 1.79-6.89 3.55-.31-1.78 6.9 6.15-.53 4.18-16.21zm-144 12.38l-5.18 11.71H253l1.09-11.36-6 .51-5 11.69h-.07l.8-11.33-6.32.54.36 15.82 6.86-.6 4.61-10.15h.07l-.77 9.82 6.86-.59 8.85-16.61zm58.2 10.84l14-1.2.82-3.12-7.82.68.92-3.62 6.59-.57.8-3.11-6.58.57.83-3.23 7.53-.65.8-3.13-13.68 1.18zm41.12-19.39l-14.11 1.21-.8 3.13 4-.34-3.37 13.08 6.15-.53 3.37-13.08 4-.34zM316.67 180c.74-2.91-1.31-3.71-6.79-3.24l-8.13.7-4.17 16.21 6.16-.53 1.8-7a5.88 5.88 0 0 1 .92-.09c.32 0 .48.36.57.78.38 1.72 1.33 5.91 1.27 5.92l6.48-.56-1.71-7.07a1.42 1.42 0 0 0-1.08-1c3.43-.91 4.18-2.18 4.68-4.12zm-6.32 1.17c-.26 1.05-.5 1.9-2.6 2.08l-1.51.13.95-3.68 1.21-.11c2.42-.19 2.23.46 1.95 1.61zm-34.15-1.51l-1.57 6.07-3.54.31 1.56-6.07-6.15.53-4.19 16.21 6.16-.53 1.78-6.9 3.54-.3-1.78 6.9 6.16-.53 4.19-16.21zm103 2.49l1.78-7c.14-.54.37-1.47 2.14-1.63l5.47-.48.8-3.12-5.49.47c-4.58.39-8.21 2-9 5.11l-1.9 7.37c-.73 2.88 1.9 4.17 6.8 3.75l6-.54.8-3.13-6 .54c-1.8.16-1.53-.89-1.42-1.32zm-6.9-7.69l.8-3.13-13.68 1.17-4.17 16.21 14-1.2.79-3.12-7.83.67.93-3.61 6.59-.57.8-3.11-6.59.57.84-3.23zm252.39-21.71l6.69-.58.8-3.13-12.86 1.11-4.17 16.21 6.16-.53 1.69-6.73 6-.51.83-3.11-6 .52zm38.79-1.9c.14-.55.38-1.49 2.16-1.64l6.54-.57.8-3.12-6.59.57c-4.58.39-8.19 1.94-9 5.1l-1.92 7.37c-.74 2.88 1.92 4.16 6.8 3.74l7.51-.65 2.3-8.93-5.93.51-1.5 5.8-1.58.14c-1.77.15-1.5-.91-1.4-1.33zm21.45-.41l-3.58.31 1.57-6.07-6.14.53-4.18 16.21 6.16-.53 1.77-6.9 3.56-.31-1.79 6.9 6.16-.53 4.19-16.21-6.17.53zm-212.6 12.1c-4.57.39-8.32 2.21-9.13 5.36l-1.91 7.37c-.74 2.87 1.83 4.42 6.72 4s8.41-2.49 9.14-5.37l1.9-7.37c.79-3.12-2.17-4.37-6.74-3.97zm.65 4.21l-2.06 8a2.09 2.09 0 0 1-2.16 1.63c-1.77.15-1.51-.91-1.39-1.33l2.05-8c.15-.55.39-1.47 2.15-1.63s1.52.8 1.43 1.35zm235.56-24.28l-14.1 1.21-.82 3.13 4-.34-3.37 13.08 6.16-.53 3.33-13.02 4-.34zm-68.13 5.86l-6.16.53-4.25 16.23 12.9-1.09.8-3.12-6.7.58zm81.33-.24l-4 7.24-.26-6.87-2.9.25L712 158l1.72-.15 2.07-7.65h.05l.35 7.48 1.73-.15 4.5-7.89-2.06 7.68 1.74-.15 2.5-9.31zm-8.57.74l-7 .6-.4 1.47 2.59-.22-2.09 7.84 1.79-.15 2.11-7.84 2.59-.22zm-63.8-1.27l-4.19 16.21 6.15-.53 4.16-16.21zM538.2 160.21l.82-3.13-14.13 1.22-.79 3.13 4-.34-3.36 13.08 6.13-.53 3.39-13.08zm-32.72 5.12h-.08l-.28-5.33-6.36.54 2.49 9.38-1.65 6.4 6.15-.53 1.73-6.67 7.47-10-6.25.54zm-16.16 8.82l-1.57.14c-1.77.15-1.5-.91-1.39-1.33l1.79-7c.14-.55.38-1.48 2.15-1.63l5.46-.47.81-3.12-5.51.47c-4.59.4-8.21 1.94-9 5.11l-1.89 7.36c-.75 2.88 1.91 4.17 6.79 3.75l7.51-.65 2.3-8.93-5.93.51zm110.31-19.72c1.73-.15 5.08-.39 5.08-.39l.76-2.69-5.53.48c-4.91.36-8.1 1.77-8.92 5-.62 2.47.67 2.74 2.84 3.76s4.37 1.6 4 3c-.18.71-1.07 1.32-2.46 1.44l-5.83.5-.72 3.08 6.57-.52c7-.62 9.13-3.06 9.54-4.62.83-3.27-1.51-3.84-3.48-4.86-2.2-.91-4.53-1.81-4.28-2.78.19-.76 1.1-1.29 2.44-1.41zm-12.77 7.79l.8-3.11-6.58.57.84-3.23 7.53-.65.8-3.13-13.68 1.18-4.17 16.21 14-1.2.78-3.12-7.82.67.94-3.62zm-43.8-5.49l-9.15 16.63 6.17-.53 1.39-2.93 4.31-.37-.18 2.83 6.46-.55-.84-15.81zm2.87 10l-3.08.27 3.62-8.05h.07zM574.57 154l-6.52.56-5.79 7h-.11l1.7-6.64-6 .51-4.17 16.21 6-.51 1.14-4.46 1.8-1.47 1.25 5.57 6.54-.56-2.7-9z"/><path class="cls-5" d="M487.59 39.85l-51.29 4.4-27.38 101.52 52.8-4.54s25.33.86 33.21-26.79c3.49-12.2 12.15-44.35 12.15-44.35S520.2 37 487.59 39.85zm-23.18 77.33l-18.47 1.59 13.71-52.47 18.86-1.62zM152.7 63.59l15.72-58.28L0 230.19l86.48-7.44 34.32-43.48 2.52-25.78S143 80.37 145.25 72.07c2.16-8.07 7.45-8.48 7.45-8.48zm245.06-16l-20.54 77-17.54 1.51 20.93-77-31.31 2.68-18.19 68.8s-13.11 33 19.51 30.23l51.27-4.41 27.19-101.49zM299.13 80l37.52-3.23 6.54-24.49-41.39 3.58s-25.33-.86-33.21 26.79C265.1 94.86 256.44 127 256.44 127s-13.11 33 19.56 30.24l40.73-3.5 6.43-24.48-38.16 3.27zm-72.65 6.25L264 83l6.53-24.49-41.39 3.56s-25.33-.86-33.21 26.79c-.65 2.28-1 3.38-1.1 3.88L173.06 4.91l-15.7 58.27s5.28-.45 3.1 7.57l-21.93 81.42-11.59 26.56 12 39.5 85.23-7.33-11.95-48.22-8.87.8c-32.63 2.8-19.52-30.24-19.52-30.24l11-40.45 17.51 69.91L244 160l6.45-24.48-38.09 3.28zm519.16-76.8a10.63 10.63 0 0 0-1.82-5.07 9.91 9.91 0 0 0-4.17-3.46 10.56 10.56 0 0 0-10.2.88 9.56 9.56 0 0 0-3.53 4.13 10.39 10.39 0 0 0-.95 5.31 10.15 10.15 0 0 0 1.83 5 9.7 9.7 0 0 0 4.13 3.49 10.49 10.49 0 0 0 5.26.92 10.36 10.36 0 0 0 5-1.8 9.67 9.67 0 0 0 3.5-4.14 10.2 10.2 0 0 0 .95-5.26zm-2.82 4.35a7.72 7.72 0 0 1-2.82 3.33 8.48 8.48 0 0 1-4 1.44 8.23 8.23 0 0 1-4.17-.74 7.7 7.7 0 0 1-3.33-2.8 8.19 8.19 0 0 1-.68-8.24 7.75 7.75 0 0 1 2.83-3.3 8.2 8.2 0 0 1 3.94-1.39 8.49 8.49 0 0 1 4.2.69 7.65 7.65 0 0 1 3.33 2.77 8.17 8.17 0 0 1 .72 8.24zM573.31 32.51l-49 4.22-6.43 24.48 46.38-4-2.86 10.9-24 2S512.08 69.3 504.2 97c-2.09 7.35-2.55 9.09-2.58 9.31-1.32 3.61-11 32.5 19.64 29.87l53-4.56 18.58-68.84s13.08-33.08-19.53-30.27zm-23.18 77.22l-19.79 1.7L535.2 93l20-1.6zm188.1-97.67a8.16 8.16 0 0 0-.78-.78 3.06 3.06 0 0 0-.83-.33 3.65 3.65 0 0 0 2.08-1.22 2.94 2.94 0 0 0 .58-2.09 3 3 0 0 0-.53-1.53 2.59 2.59 0 0 0-1.12-.94 4.17 4.17 0 0 0-1.74-.29c-.26 0-1.42.08-3.49.26l-2.22.19.94 10.86 2.23-.19-.38-4.44h.56a2.58 2.58 0 0 1 1.6.31 7.49 7.49 0 0 1 1.72 2.12l1.05 1.67 2.72-.23-1.42-2.08a13.11 13.11 0 0 0-.97-1.29zM736 9.4a10.52 10.52 0 0 1-2.35.35l-.89.08-.25-2.93.89-.08a10.76 10.76 0 0 1 2.38 0 1.47 1.47 0 0 1 .77.44 1.51 1.51 0 0 1 .34.77 1.55 1.55 0 0 1-.2.85 1.29 1.29 0 0 1-.69.52zm-82 40.13l11.07-1-20.37 77 31.11-2.68 20.54-77L714 44.33l6.65-24.5L660.47 25zm2-24.14l-21.1 1.82s-25.34-.86-33.2 26.79c-3.5 12.2-20.54 77-20.54 77l30.34-2.61 20.74-77 17.28-1.49z"/></g></g></svg>