<svg xmlns="http://www.w3.org/2000/svg" viewBox="0 0 936.05 179.79"><defs><style>.cls-1{fill:#d22333}.cls-2{fill:#231f20}</style></defs><title>Asset 1</title><g id="Layer_2" data-name="Layer 2"><g id="Layer_1-2" data-name="Layer 1"><path class="cls-1" d="M209.6 124.26c-23.08-21-46-41-54.8-48.65l3.52-4.39c29.94-4.79 69.63-15.76 74.83-30.67l-14.7-21.7C183.53 1.84 97.19-.32 46.49 0H45C26.28-.09 10.31.22 0 .49L10.53 9c11.34-.73 15.79-.83 31.39-.47l3.49.08c1.49.15 7.51.12 9 .25 38.49 3.08 64.43 7.14 81.47 11.22 9.8 2.16 43.24 12.52 43.24 12.52l-16.66 4-4.2 1-39 9.31c-7.5 6.7-21.29 22.34-13.71 40.28l73.48 63 3.83 4.12 1.85 2 .5.85 3.46 11.36 75.81 11.25c-4.48-8.86-27.41-30.5-54.88-55.51z"/><path class="cls-1" d="M96.43 32.41l-17 .4-23 .67L46.24 62c-.19.38-.28.61-.28.61L32.52 99.37 36 105.3h45.85l8.93-24.2 13.4-40z"/><path class="cls-2" d="M522.07 142.79l1.49-4.09h29.22c3 0 4.51-.59 4.93-1.75l.78-2.14c.42-1.15-.69-1.75-3.65-1.75h-19.46c-6.53 0-9.22-1.5-8.14-4.48l1-2.62c1-2.68 4.7-4 11.13-4h29.26l-1.48 4.09h-29.54c-2 0-2.68.22-2.88.76l-.45 1.24c-.25.67.26.93 2.31.93h19.68c8.21 0 10.42 2 9.08 5.66l-.91 2.48c-1.34 3.69-5 5.67-13.2 5.67zm45.16 0l7.58-20.79h30.45c8.22 0 10.42 2 9.08 5.66l-1 2.7c-1.35 3.69-5 5.66-13.2 5.66h-23.83l-2.47 6.79zm10.47-10.59h23.87c3 0 4.51-.59 4.93-1.75l1-2.65c.42-1.15-.69-1.75-3.66-1.75h-23.9zm46.24 10.59c-8.22 0-10.42-2-9.08-5.67l3.45-9.49c1.35-3.69 5-5.66 13.2-5.66h19.31c8.21 0 10.42 2 9.08 5.66l-3.46 9.49c-1.34 3.69-5 5.67-13.2 5.67zm-2.22-5.79c-.42 1.16.69 1.75 3.65 1.75h19.4c3 0 4.51-.59 4.93-1.75l3.33-9.15c.42-1.15-.69-1.75-3.66-1.75H630c-3 0-4.5.59-4.92 1.75zm37.6 5.79l7.59-20.79h30.45c8.21 0 10.42 2 9.08 5.66l-.75 2.05c-1.35 3.69-5 5.66-13.2 5.66h-5.11l14.55 7.44H690l-13.27-7.44h-8.12l-2.71 7.44zm10.68-11.1h23.87c3 0 4.51-.59 4.93-1.75l.78-2.14c.42-1.15-.69-1.75-3.66-1.75H672zm51.15 11.1l6.09-16.73h-17.49l1.49-4.09h41.59l-1.49 4.09h-17.48l-6.09 16.73zm27.72 0l1.49-4.09h29.21c3 0 4.51-.59 4.93-1.75l.78-2.14c.42-1.15-.69-1.75-3.65-1.75h-19.46c-6.53 0-9.23-1.5-8.14-4.48l1-2.62c1-2.68 4.7-4 11.14-4h29.26l-1.48 4.09h-29.54c-2 0-2.68.22-2.88.76l-.45 1.24c-.25.67.26.93 2.31.93h19.68c8.22 0 10.42 2 9.08 5.66l-.9 2.48c-1.34 3.69-5 5.67-13.2 5.67zm-482.4-65.47h44.92a31.12 31.12 0 0 0 12.56-2.48q5.69-2.48 6.94-6l1.92-5.43h-61.42l6.18-17.46h82.5L365 32h-98.08a31.12 31.12 0 0 0-12.56 2.48q-5.69 2.47-6.94 6l-25.72 72.67h114.57l5.35-15.1h-82.5zm219.11-35.39Q471.22 32 435 32h-45.37a31.12 31.12 0 0 0-12.57 2.48q-5.69 2.47-6.94 6l-25.72 72.67h53.17q22.45 0 34-1.65a121.12 121.12 0 0 0 23.54-5.66 74.31 74.31 0 0 0 24.09-13.68 48.42 48.42 0 0 0 13.4-19.56q7.18-20.29-7.02-30.67zm-26 30.67q-5 14.16-17.1 19.82-12.72 6.14-35.17 6.13h-26.1l18.54-52.37H430q20.16 0 27.08 6.37 7.37 6.36 2.52 20.05zM545.92 32h-16a31.12 31.12 0 0 0-12.56 2.48q-5.68 2.47-6.94 6l-25.72 72.67h109.49l5.35-15.1h-77zm91.91 29.6c-9 2.92-21.15 10-21.15 10l-14.81 41.59h32.54l19.35-55.1a85.43 85.43 0 0 0-15.92 3.53zM769.5 31.79L749.7 87.7l-44.37-55.91h-17.42a34.24 34.24 0 0 0-12.65 2.71q-5.69 2.47-6.94 6l-25.72 72.68h32.08l19.79-55.92 44.83 55.92h33.46l28.81-81.39z"/><path class="cls-1" d="M618.43 66.22l8.89-25.83q1.25-3.54 6.94-6a31.11 31.11 0 0 1 12.57-2.48h16l-7.37 20.86A90.05 90.05 0 0 0 637 57.09a111 111 0 0 0-18.57 9.13z"/><path class="cls-2" d="M911 103.24h-4.45l.65-1.86h11.39l-.65 1.86h-4.45l-3.52 10h-2.49zm9.64-1.85h3.58l.91 9.19 7.36-9.19H936l-4.18 11.85h-2.34l3.55-9.8-7.84 9.8h-2.12l-.9-9.8-3.35 9.8h-2.34zm-138.99 11.79l25.72-72.67q1.25-3.54 6.94-6A31.1 31.1 0 0 1 826.87 32H925l-5 13.94h-82.5l-6.15 17.46h61.42l-1.92 5.43q-1.26 3.54-6.94 6a31.1 31.1 0 0 1-12.56 2.48h-44.92l-7.35 20.76h82.49l-5.34 15.1z"/></g></g></svg>