<svg xmlns="http://www.w3.org/2000/svg" xmlns:xlink="http://www.w3.org/1999/xlink" viewBox="0 0 245.11 32.83"><defs><style>.cls-1{fill:#ca2127}.cls-2{fill:#231f20}.cls-3{opacity:.5}.cls-4{fill:url(#linear-gradient)}.cls-5{fill:url(#linear-gradient-2)}.cls-6{fill:url(#linear-gradient-3)}.cls-7{fill:url(#linear-gradient-4)}.cls-8{fill:url(#linear-gradient-5)}.cls-9{fill:url(#linear-gradient-6)}</style><linearGradient id="linear-gradient" x1="68.59" y1="30.19" x2="68.59" y2="1.86" gradientUnits="userSpaceOnUse"><stop offset="0" stop-color="#fff"/><stop offset="1" stop-color="#2484c6" stop-opacity="0"/></linearGradient><linearGradient id="linear-gradient-2" x1="165.82" y1="30.19" x2="165.82" y2="1.86" xlink:href="#linear-gradient"/><linearGradient id="linear-gradient-3" x1="117.43" y1="30.19" x2="117.43" y2="1.86" xlink:href="#linear-gradient"/><linearGradient id="linear-gradient-4" x1="213.38" y1="30.19" x2="213.38" y2="1.86" xlink:href="#linear-gradient"/><linearGradient id="linear-gradient-5" x1="36.24" y1="30.19" x2="36.24" y2="1.86" xlink:href="#linear-gradient"/><linearGradient id="linear-gradient-6" x1="15.52" y1="30.19" x2="15.52" y2="1.86" xlink:href="#linear-gradient"/></defs><title>Asset 1</title><g id="Layer_2" data-name="Layer 2"><g id="Layer_2-2" data-name="Layer 2"><path class="cls-1" d="M0 32.2V.46h12.36l19.07 23.59V.46h9.62v31.7H28.61L9.57 8.72l.05 23.45L0 32.2zm69.2.63zm22.55-17.09C91.75-.38 71.26-.09 68.59 0c-2.68-.11-23.17-.4-23.17 15.72 0 16.63 17.27 17.08 23.17 17.09s23.16-.44 23.16-17.07zM69 27.57h-.7c-7.53 0-12.82-1.89-12.82-12.59 0-10.19 12-10 13.17-9.95S81.82 4.79 81.82 15c0 10.67-5.28 12.57-12.82 12.57zm97.81 5.26zm22.56-17.09C189.36-.38 168.87-.09 166.2 0 163.52-.09 143-.38 143 15.74c0 16.63 17.27 17.08 23.17 17.09s23.19-.46 23.19-17.09zm-22.75 11.83h-.7c-7.53 0-12.82-1.89-12.82-12.59 0-10.19 12-10 13.17-9.95s13.17-.25 13.17 9.95c-.01 10.69-5.3 12.59-12.82 12.59zM139.12 15S140.35.5 118.19.5H95.87v31.66h22.32c22.16 0 20.93-14.54 20.93-14.54zm-10.58 1.36C128.54 28 115 26.87 115 26.87h-9.54V5.94H115s13.51-1.12 13.51 10.46zM225 19.19s8.44-.21 8.44-9.37S222.36.45 222.36.45h-28.93v31.61l9.47.1V19.65H214l9.32 12.46h11.17zm-3.19-8c-.52 4.12-6.44 3.55-6.44 3.55H203V5.85h13.79c2.59 0 5.57 1.15 5.06 5.31z"/><path class="cls-2" d="M240.62 1.36a4.57 4.57 0 0 1 2.21.58 4.17 4.17 0 0 1 1.67 1.66 4.5 4.5 0 0 1 0 4.49 4.23 4.23 0 0 1-1.66 1.66 4.5 4.5 0 0 1-4.47 0 4.23 4.23 0 0 1-1.66-1.66 4.5 4.5 0 0 1 0-4.49 4.17 4.17 0 0 1 1.67-1.66 4.57 4.57 0 0 1 2.24-.58zm0 .88a3.66 3.66 0 0 0-1.78.46 3.36 3.36 0 0 0-1.33 1.3 3.62 3.62 0 0 0 0 3.62A3.41 3.41 0 0 0 238.83 9a3.59 3.59 0 0 0 3.59 0 3.44 3.44 0 0 0 1.33-1.34 3.61 3.61 0 0 0 0-3.62 3.36 3.36 0 0 0-1.34-1.33 3.68 3.68 0 0 0-1.78-.47zm-2 6V3.49h2.49a1.88 1.88 0 0 1 .75.19 1.19 1.19 0 0 1 .45.46 1.33 1.33 0 0 1 .18.68 1.26 1.26 0 0 1-.34.88 1.53 1.53 0 0 1-.95.45 1.19 1.19 0 0 1 .33.18 2.38 2.38 0 0 1 .32.37s.15.24.35.58l.56 1h-1.2l-.4-.77a3.22 3.22 0 0 0-.67-1 1.07 1.07 0 0 0-.67-.2h-.25v2zm1-2.71h.38a4.77 4.77 0 0 0 1-.06.61.61 0 0 0 .44-.59.58.58 0 0 0-.11-.35.63.63 0 0 0-.33-.22 4.62 4.62 0 0 0-1-.07h-.39z"/><g class="cls-3"><path class="cls-4" d="M55.49 15c0-10.19 12-10 13.17-9.95S81.82 4.79 81.82 15a26.08 26.08 0 0 1-.14 2.61q5-.48 10-.94v-.91C91.75-.38 71.26-.09 68.59 0c-2.68-.11-23.17-.4-23.17 15.72a18.75 18.75 0 0 0 .84 5.75q4.84-.61 9.82-1.19a21.12 21.12 0 0 1-.59-5.28z"/><path class="cls-5" d="M166.26 5c.94 0 9.32-.17 12.2 5.54l9.86-.51C184.13-.3 168.51-.07 166.2 0c-2.49-.1-20.44-.36-22.88 12.65L153.5 12c2.09-7.16 11.76-7 12.76-7z"/><path class="cls-6" d="M105.49 5.93H115s11.3-.93 13.23 7.77L139 13C138.38 9 135.08.54 118.2.54H95.87v15.74l9.62-.82z"/><path class="cls-7" d="M203 5.85h13.79c2 0 4.11.66 4.87 2.69 4.71-.19 8.66-.34 11.72-.44-1.3-7.47-11-7.65-11-7.65h-28.95V9.8l9.57-.45z"/><path class="cls-8" d="M41 .46h-9.57v23q4.71-.69 9.62-1.34z"/><path class="cls-9" d="M9.58 8.72l13.09 16.13q4.09-.66 8.36-1.28L12.35.46H0v28.62c3-.67 6.26-1.33 9.61-2z"/></g></g></g></svg>