<svg id="Layer_1" data-name="Layer 1" xmlns="http://www.w3.org/2000/svg" viewBox="0 0 428.43 125.91"><defs><style>.cls-1,.cls-2,.cls-3{fill:#262262}.cls-1,.cls-2{stroke:#262262;stroke-miterlimit:10}.cls-1{stroke-width:.92px}.cls-2{stroke-width:.48px}.cls-4{opacity:.85}</style></defs><title>brand-viva-sol</title><path class="cls-1" d="M232.16 91l.13.07z"/><path class="cls-2" d="M33.26 86.45c1.82-4.18 2.39-9.24 3.37-13.75l3.29-18.48-2.31 2.11q3.09-12.49 6.26-25c2-7.69 1.3-17.63 3.65-25.36 1.7-5.57 8.73-9.31 7.41-.58Q49.06 44.11 43 82.77c-.81 5.21-.35 25.49-9 24-4.64-.8-7.28-9.86-8.58-13.57-2.94-8.36-6.81-16.29-8.87-25-.46-1.92-1.11-3.73-1.73-5.57-.36-1-.5-2.17-.78-3.25-.18-.7-.44-1.39-.67-2.07-.18-.53-.45-1-.58-1.57-.49-2-.87-4.12-1.42-6.14-.47-1.73-1.16-3.4-1.7-5.12-.6-1.86-1.13-3.78-1.67-5.68-1.34-4.27-2.65-8.54-3.95-12.8-.23-.77-.38-1.56-.58-2.34a11.32 11.32 0 0 0-.53-2A36.91 36.91 0 0 1 .33 11.25C-.13 8 1.24 6.62 3.72 5.6a2.36 2.36 0 0 1 2.46.32 8 8 0 0 1 2.76 3.41 92.49 92.49 0 0 1 4.38 13.8c.7 2.75 1.46 5.49 2.24 8.22Q17.95 39.67 20.4 48c1.43 4.82 2.95 9.62 4.33 14.45 1 3.33 2 6.62 3.15 9.89.79 2.28 1.3 4.65 2 7a14.17 14.17 0 0 0 .69 1.7 31.51 31.51 0 0 0 2.69 5.41zm7-35.73l.41-.14-.25-.76c-.11 0-.32.09-.31.12.05.26.12.52.17.78zm66.55 33.17c4.23-5.09 6-13.11 6.36-19.63l1.39 1.28 5.83-15.74c3.07-8.29 8.47-14.41 10-23.64.46-2.7-.42-8.73 2.53-10.22 3.31-1.67 7 2.58 7.25 5.59.37 4.06-2.08 7.77-4.28 11.21a138.57 138.57 0 0 0-21.1 61.47c-.33 3.58-.66 7.49-3.15 10.08-7.62 7.92-11.32-7.66-12.51-11.95a91.81 91.81 0 0 1-2.8-12.54c-.68-5.23-1.55-10.43-2.44-15.63-.72-4.27-1.62-8.51-2.36-12.77-.39-2.28-.54-4.59-.92-6.87-.3-1.77-.82-3.5-1.17-5.26s-.61-3.54-.92-5.31q-.63-3.58-1.29-7.16a4 4 0 0 1 2.35-4.54c1.86-.88 3.67-.94 5 .79a7.87 7.87 0 0 1 1.5 2.89c.71 3 1.27 6 1.82 9 .73 4 1.44 8.1 2.08 12.17.7 4.46 1.32 8.93 2 13.39.4 2.75.8 5.5 1.23 8.24.48 3 1 6.07 1.54 9.09.49 2.37.61 4.41 2.06 6.06zM114 67.4c-.07.06-.19.1-.2.17s.08.16.13.24.19-.1.21-.17-.14-.16-.14-.24z"/><path class="cls-3" d="M379.32 96.54c14.26 0 40.76-10.82 48.83 4.12-12.17 5-25-2.39-37.95 1.2-6.45 2.52-12.94 4.31-19.77 4.45a2.16 2.16 0 0 1-2-1.6c-.66-2.25-1.12-4.35.06-6.76a33.72 33.72 0 0 0 2.23-7.68q1.34-6.23 2.35-12.53c.39-2.37.48-4.79.71-7.18.16-1.73.34-3.45.47-5.18.32-4.52.61-9 .92-13.57.18-2.62.47-5.24.57-7.86.07-1.73-.17-3.47-.14-5.2.12-6 .24-9.87.33-11.23a5.48 5.48 0 0 1 .52-2.08 3.24 3.24 0 0 1 3-1.77 5.48 5.48 0 0 1 4.92 2.63 2.62 2.62 0 0 1 .35 1.08 33.23 33.23 0 0 1-.11 8.32 23.65 23.65 0 0 0 .09 4c0 2.18.09 4.37 0 6.54-.22 3.67-.57 7.34-.87 11 0 .28-.1.55-.11.83-.18 3.23-.31 6.47-.55 9.7-.13 1.71-.51 3.41-.7 5.12-.14 1.27-.17 2.56-.21 3.84a4.37 4.37 0 0 1-.54 2.74c-.19.26-.08.75-.1 1.13a39.33 39.33 0 0 1-.93 7.43 46.74 46.74 0 0 0-.68 5.13c-.17 1.07-.44 2.12-.69 3.38z"/><path class="cls-3" d="M379.36 96.3a51.05 51.05 0 0 0 6.38-.5c2.14-.28 4.27-.63 6.4-1 4.26-.72 8.52-1.47 12.83-1.91a60 60 0 0 1 6.49-.34q1.63 0 3.25.16a28.58 28.58 0 0 1 3.23.5 19.54 19.54 0 0 1 3.13 1 11.91 11.91 0 0 1 1.49.69c.24.13.49.25.72.39l.68.46a13.55 13.55 0 0 1 2.47 2.16c.37.41.68.86 1 1.29s.57.93.86 1.4l.12.2-.22.08-2.28.79-2.35.55-2.39.32-2.41.13h-2.41l-2.4-.15c-1.6-.14-3.19-.32-4.77-.52l-4.76-.56c-1.59-.17-3.18-.28-4.77-.34h-2.39c-.8 0-1.59.08-2.38.14l-2.36.32-2.32.52a73.91 73.91 0 0 1-9.72 3.1 47.47 47.47 0 0 1-10.11 1.34 2.33 2.33 0 0 1-2-1.56 18.19 18.19 0 0 1-.61-2.5 7.81 7.81 0 0 1 0-2.58 8.92 8.92 0 0 1 .86-2.43 26.29 26.29 0 0 0 1.49-4.84c.38-1.65.7-3.32 1-5l1.89-10c.26-1.67.39-3.37.52-5.06l.45-5.08c.32-3.38.49-6.78.74-10.17l.74-10.3a38.25 38.25 0 0 0 .21-5.08c0-.85-.1-1.7-.11-2.55s0-1.71.06-2.55l.16-5.1.08-2.55a18 18 0 0 1 .16-2.55 3.83 3.83 0 0 1 1.19-2.25 3.38 3.38 0 0 1 2.41-.8 5.62 5.62 0 0 1 4.49 2.14 3.43 3.43 0 0 1 .62 1.13 7.05 7.05 0 0 1 .16 1.28c.06.85.11 1.7.13 2.55a26.62 26.62 0 0 1-.32 5.09 11 11 0 0 0 0 2.53 21.34 21.34 0 0 1 .07 2.55v5.1c-.23 3.4-.53 6.78-.79 10.17 0 .42-.06.85-.11 1.27a10 10 0 0 0-.13 1.27l-.15 2.55-.3 5.09a36.28 36.28 0 0 1-.58 5.06 19 19 0 0 0-.27 2.53l-.14 2.55A7.56 7.56 0 0 1 382 79a3.47 3.47 0 0 1-.32.55 1.33 1.33 0 0 0-.07.62 10.62 10.62 0 0 1 0 1.27 44.19 44.19 0 0 1-.61 5.06c-.13.84-.4 1.65-.54 2.49s-.22 1.69-.29 2.53a38.68 38.68 0 0 1-.81 4.78zm0 .24a43.44 43.44 0 0 0 .85-5c.08-.85.15-1.69.29-2.53s.41-1.65.54-2.49a44.19 44.19 0 0 0 .53-5.07 10.6 10.6 0 0 0 0-1.27 1.35 1.35 0 0 1 .07-.64A3.45 3.45 0 0 0 382 79a7.54 7.54 0 0 0 .27-2.51l.14-2.55a19.07 19.07 0 0 1 .26-2.54 36.23 36.23 0 0 0 .58-5.06l.29-5.09.14-2.55a10 10 0 0 1 .12-1.27c.05-.42.07-.85.11-1.27.26-3.39.55-6.78.77-10.17v-5.1a21.21 21.21 0 0 0-.08-2.54 11.07 11.07 0 0 1 0-2.56 26.5 26.5 0 0 0 .31-5.07c0-.85-.07-1.7-.14-2.54a7 7 0 0 0-.15-1.25 3.31 3.31 0 0 0-.6-1.09 5.49 5.49 0 0 0-4.4-2.08 3.24 3.24 0 0 0-2.31.77 3.69 3.69 0 0 0-1.14 2.17 18 18 0 0 0-.16 2.53l-.07 2.55-.15 5.1c0 .85-.07 1.7-.05 2.54s.08 1.69.12 2.54a38.37 38.37 0 0 1-.2 5.1l-.71 10.18c-.25 3.39-.41 6.79-.73 10.18l-.44 5.08c-.13 1.69-.25 3.4-.51 5.08l-1.87 10c-.3 1.67-.62 3.35-1 5a26.53 26.53 0 0 1-1.5 4.9 8.64 8.64 0 0 0-.84 2.36 7.53 7.53 0 0 0 0 2.49 18 18 0 0 0 .6 2.45 2 2 0 0 0 1.8 1.36 47.18 47.18 0 0 0 10-1.35 73.59 73.59 0 0 0 9.67-3.11l2.35-.53 2.39-.33c.8-.07 1.6-.1 2.4-.15s1.6 0 2.41 0c1.6.06 3.2.17 4.79.34l4.76.56c1.59.19 3.17.37 4.76.51l2.38.15h2.38l2.38-.13 2.36-.32 2.31-.55 2.24-.78-.1.27-.84-1.36c-.33-.41-.64-.86-1-1.25a13.15 13.15 0 0 0-2.4-2.09l-.66-.44c-.23-.13-.47-.25-.7-.38a11.54 11.54 0 0 0-1.45-.67 19.13 19.13 0 0 0-3.06-.94 28.16 28.16 0 0 0-3.18-.49q-1.6-.14-3.22-.15a59.6 59.6 0 0 0-6.45.35c-4.29.45-8.54 1.2-12.8 1.93-2.13.36-4.26.72-6.41 1a51.36 51.36 0 0 1-6.48.52z"/><path class="cls-2" d="M66.46 74.31q-.64-5.17-1.27-10.31c-.12-1-.27-2-.39-2.95q-.68-5.83-1.34-11.66c-.17-1.54-.33-3.08-.48-4.63-.29-2.85-.72-5.69-.82-8.54-.12-3.52 0-7.05.11-10.58.07-2.74 2.86-4.15 5.28-4.2a2.12 2.12 0 0 1 1.25.71 6.12 6.12 0 0 1 1.93 3.34c.41 2.39.88 4.77 1.19 7.17.43 3.33.76 6.66 1.07 10 .45 4.95.83 9.9 1.27 14.85.1 1.17.34 2.33.52 3.49.06.37.13.74.16 1.11.41 4.89.73 9.79 1.26 14.67.37 3.39 1.1 6.75 1.51 10.14a66.63 66.63 0 0 0 2.37 10.51 10 10 0 0 0 .9 2.25c1 1.78 1 3.29-.58 4.8a8.34 8.34 0 0 1-2 1.79c-1.4.67-1.93.64-2.94-.39a15.75 15.75 0 0 0-1.64-1.45 7.45 7.45 0 0 1-2.59-4c-1-3.27-1.92-6.55-2.68-9.86a41.52 41.52 0 0 1-1-6.82 36.91 36.91 0 0 0-1-6.8 17.56 17.56 0 0 1-.27-2.58z"/><path class="cls-3" d="M293.69 73.5a12.82 12.82 0 0 0-1.56-.89c-2.7-1.3-5.35-2.7-8.1-3.86-2-.86-4.21-1.4-6.33-2.06-.64-.2-1.33-.29-1.94-.55a24.76 24.76 0 0 0-5.95-1.56c-1.48-.23-3-.51-4.43-.78-3.76-.69-7.52-1.42-11.3-2-2.19-.36-4.42-.53-6.63-.8-2.46-.3-4.92-.7-7.39-.93a60.23 60.23 0 0 1-13-2.17c-1.37-.44-2.79-.88-3.53-2.37.1-.17.17-.39.32-.5 1.52-1.13 3-2.33 4.6-3.32 1.88-1.16 3.87-2.14 5.82-3.18 16.7-8.91 34-17.3 51.37-25a4.84 4.84 0 0 0 2.27-1.8 3.63 3.63 0 0 0-1-5.14 6.81 6.81 0 0 0-6.52-.26c-1.22.55-2.33 1.33-3.51 2-3.18 1.73-6.34 3.5-9.55 5.15-2.76 1.42-5.58 2.7-8.37 4.05a26.5 26.5 0 0 0-3.56 1.85 9.7 9.7 0 0 1-2.88 1.4c-1.06.31-2.32.49-2.93 1.58a2.75 2.75 0 0 1-2.64 1.5 3 3 0 0 0-1.32.31c-2.75 1.41-5.48 2.85-8.28 4.32a2.91 2.91 0 0 1-.14.52c-.48 1.06-2.75 2.71-3.71 2.39a2.66 2.66 0 0 0-2.63.67 3.52 3.52 0 0 1-.51.32c-1.39.63-2.84 1.16-4.16 1.9a78.26 78.26 0 0 0-9.48 6.11 4 4 0 0 0-1.34 1.84c-.84 2.17-.42 4.25.18 6.38a4.6 4.6 0 0 0 2.41 3c1.48.8 2.74 2.08 4.28 2.72a33.72 33.72 0 0 0 6.4 1.82c2.23.43 4.52.56 6.78.82 4.37.52 8.73 1.09 13.11 1.55A67.39 67.39 0 0 1 258 69.9a11.14 11.14 0 0 0 4.74.41 3.5 3.5 0 0 1 2 .33 24.2 24.2 0 0 0 4.82 1.36 17.45 17.45 0 0 1 3.73.85c1.15.52 2.45.55 3.68 1.2a27.4 27.4 0 0 0 4.13 1.62 28.07 28.07 0 0 1 5.87 2.7 25.43 25.43 0 0 1 3 2.4 1 1 0 0 1 .19 1.4 18.89 18.89 0 0 1-5.54 5.1c-2.47 1.4-5 2.6-7.6 3.83a28.92 28.92 0 0 1-2.74 1 11.31 11.31 0 0 0-3 1.15 10.22 10.22 0 0 1-3.06 1.45c-1.88.54-3.81.89-5.72 1.3-2.38.51-4.73 1.18-7.14 1.47-4.26.52-8.53 1.11-12.85.65-2.16-.23-4.33-.36-6.48-.67-1.73-.25-3.43-.74-5.16-1.06a6.15 6.15 0 0 0-1.5.1l.13.88-1.33 1.07 2.12 1-2 1.44-.6-.3-1.37.13c.45 1.37.79 2.36 2.14 3a22.84 22.84 0 0 0 3.8 1.15 48.38 48.38 0 0 0 9.33 1.39c1.07.09 2.19-.22 3.25-.07 2.88.41 5.66-.38 8.48-.57a26.69 26.69 0 0 0 4.44-.59 45.22 45.22 0 0 1 5.87-1.35 7.06 7.06 0 0 0 1.21-.28c2-.59 4.06-1.17 6.08-1.78 1.34-.4 2.7-.76 4-1.29 3.43-1.41 6.85-2.86 10.23-4.39 5.26-2.38 11.71-6 13-12.18a9.74 9.74 0 0 0-4.46-10.25zm-15.69.37v-.25l.65-.09v.26zm-48.07 24.69c-.06 0-.21-.14-.19-.18a1.28 1.28 0 0 1 .21-.32l.4.3a1.55 1.55 0 0 1-.42.2z"/><path class="cls-3" d="M293.58 73.71c-.66-.36-1.33-.79-2-1.1l-2.06-1c-1.37-.68-2.73-1.36-4.12-2a32.67 32.67 0 0 0-4.24-1.61c-1.45-.43-2.93-.91-4.38-1.29a6.85 6.85 0 0 1-1.13-.34c-.36-.15-.7-.28-1.06-.41a21.71 21.71 0 0 0-2.18-.63c-1.47-.35-3-.55-4.49-.83l-9-1.63-4.52-.87c-1.5-.22-3-.38-4.54-.57l-9.09-1.13c-1.51-.19-3-.29-4.56-.47s-3-.38-4.55-.66a37.73 37.73 0 0 1-4.47-1.09 11.76 11.76 0 0 1-2.17-.84 3.92 3.92 0 0 1-1.66-1.7l-.05-.11.06-.09a2.69 2.69 0 0 1 .29-.49c.18-.16.29-.22.44-.34l.84-.63 1.69-1.26a32.32 32.32 0 0 1 3.58-2.24l7.42-3.93q7.44-3.91 15-7.66 15-7.49 30.4-14.31l1.92-.85a9.55 9.55 0 0 0 1.83-.94 3.93 3.93 0 0 0 1.65-3.48 3.32 3.32 0 0 0-.73-1.83 4.3 4.3 0 0 0-1.7-1.09 6.42 6.42 0 0 0-4-.33 12.69 12.69 0 0 0-3.74 1.74c-1.2.74-2.46 1.36-3.68 2l-7.4 4-7.56 3.66c-1.25.63-2.57 1.14-3.74 1.87A10.77 10.77 0 0 1 252 31a4.57 4.57 0 0 0-1.85.8 2.79 2.79 0 0 0-.61.79 3 3 0 0 1-.75.8 3.38 3.38 0 0 1-2.07.55 2.89 2.89 0 0 0-1 .24l-.93.48-7.45 3.88.07-.09a2.94 2.94 0 0 1-.23.69 3.31 3.31 0 0 1-.44.59 6.71 6.71 0 0 1-1.08.94 5.59 5.59 0 0 1-1.26.69 2.09 2.09 0 0 1-.74.14c-.28 0-.49-.12-.7-.15-.91-.18-1.65.48-2.45 1s-1.72.76-2.57 1.14a46.59 46.59 0 0 0-4.9 2.69c-1.6 1-3.17 2-4.69 3.06l-1.13.83a6.58 6.58 0 0 0-1 .89 5.29 5.29 0 0 0-1.1 2.47 11.6 11.6 0 0 0 .63 5.46 4.35 4.35 0 0 0 1.59 2.16c.37.27.78.47 1.19.73s.78.53 1.16.8a14.26 14.26 0 0 0 2.34 1.5 24.09 24.09 0 0 0 2.62.95 39.37 39.37 0 0 0 5.46 1.21c1.85.26 3.72.38 5.57.61l11.14 1.32A90.07 90.07 0 0 1 258 69.78a17.27 17.27 0 0 0 2.74.51 8.4 8.4 0 0 0 1.38 0 7.82 7.82 0 0 1 1.41-.12 15.22 15.22 0 0 1 2.68.87c.89.28 1.8.48 2.71.67s1.83.34 2.76.51a7.91 7.91 0 0 1 1.37.38 8.81 8.81 0 0 0 1.31.47 12.46 12.46 0 0 1 2.68.86 20.24 20.24 0 0 0 2.54 1.07 39.25 39.25 0 0 1 5.24 2 26.24 26.24 0 0 1 2.46 1.37 21.13 21.13 0 0 1 2.2 1.75l.53.46a1.29 1.29 0 0 1 .43.6 1 1 0 0 1-.06.74 4.67 4.67 0 0 1-.42.58 24.23 24.23 0 0 1-1.87 2.11 17.31 17.31 0 0 1-4.56 3.27c-1.65.89-3.34 1.7-5 2.51a24.08 24.08 0 0 1-2.57 1.14c-.89.28-1.77.62-2.67.86a8.3 8.3 0 0 0-1.31.46 12.31 12.31 0 0 0-1.19.73 10.46 10.46 0 0 1-2.59 1.11c-1.8.51-3.65.85-5.48 1.24s-3.64.87-5.48 1.22-3.71.5-5.57.73a55.11 55.11 0 0 1-5.6.37 44.24 44.24 0 0 1-5.6-.38l-2.79-.29a26.09 26.09 0 0 1-2.78-.37c-.92-.18-1.83-.4-2.74-.6-.46-.1-.92-.2-1.37-.27a8.08 8.08 0 0 0-1.38.12v-.06l.13.88-1.33 1.07v-.08l2.12 1h.07-.06l-2 1.44-.6-.3-1.37.13v-.06a5.08 5.08 0 0 0 1.35 2.49 7 7 0 0 0 2.62 1.15c.94.23 1.88.48 2.81.73s1.89.42 2.84.56c1.91.29 3.84.44 5.77.61 1 .05 1.92-.19 2.9-.1a14.08 14.08 0 0 0 2.89.11c1.93-.12 3.83-.52 5.76-.65a24.93 24.93 0 0 0 5.71-.91c.93-.25 1.86-.52 2.81-.73s1.91-.28 2.85-.54l5.57-1.62a40.66 40.66 0 0 0 5.49-1.84l5.33-2.28c1.77-.78 3.57-1.48 5.32-2.32a38.18 38.18 0 0 0 5.05-2.84 19.57 19.57 0 0 0 4.3-3.85 11.52 11.52 0 0 0 2.43-5.19 9.28 9.28 0 0 0-.72-5.66 10.78 10.78 0 0 0-3.79-4.3zm.12-.21a10.78 10.78 0 0 1 3.8 4.29 9.29 9.29 0 0 1 .73 5.66 11.53 11.53 0 0 1-2.43 5.2 19.59 19.59 0 0 1-4.31 3.86 38.21 38.21 0 0 1-5.05 2.85c-1.74.84-3.55 1.55-5.31 2.33l-5.34 2.31a40.7 40.7 0 0 1-5.5 1.85l-5.57 1.62c-.93.26-1.91.32-2.85.54s-1.87.47-2.81.73a25 25 0 0 1-5.72.92c-1.93.13-3.83.54-5.76.66a14.16 14.16 0 0 1-2.9-.11c-1-.08-1.92.16-2.89.11-1.93-.16-3.86-.31-5.77-.6-1-.14-1.91-.32-2.85-.56s-1.87-.5-2.81-.73a7.06 7.06 0 0 1-2.66-1.16 5.16 5.16 0 0 1-1.38-2.53v-.05h.06l1.37-.13.6.3 2-1.44v.08l-2.12-1h-.07.06l1.33-1.07-.13-.88v-.15h.05a8 8 0 0 1 1.41-.12c.47.08.92.18 1.38.27.91.2 1.82.42 2.74.6a26 26 0 0 0 2.78.37l2.79.29a44.1 44.1 0 0 0 5.59.37 55 55 0 0 0 5.59-.37c1.85-.23 3.72-.39 5.56-.73s3.64-.83 5.47-1.22 3.67-.73 5.47-1.24a10.32 10.32 0 0 0 2.55-1.1 12.37 12.37 0 0 1 1.2-.74 8.43 8.43 0 0 1 1.33-.47c.9-.25 1.77-.59 2.66-.86a24 24 0 0 0 2.55-1.14c1.69-.81 3.37-1.62 5-2.51a17.14 17.14 0 0 0 4.46-3.25 24.07 24.07 0 0 0 1.85-2.09 4.72 4.72 0 0 0 .4-.55.82.82 0 0 0 0-.62c-.13-.42-.58-.65-.92-1a21 21 0 0 0-2.19-1.73 26.06 26.06 0 0 0-2.44-1.36 39.07 39.07 0 0 0-5.22-2 20.42 20.42 0 0 1-2.59-1.1 12.32 12.32 0 0 0-2.65-.84 9 9 0 0 1-1.33-.48 7.72 7.72 0 0 0-1.33-.37c-.91-.16-1.85-.28-2.76-.5s-1.83-.39-2.73-.68a15.35 15.35 0 0 0-2.64-.85 7.76 7.76 0 0 0-1.38.12 8.58 8.58 0 0 1-1.42 0 17.45 17.45 0 0 1-2.77-.52 89.91 89.91 0 0 0-11.08-1.59l-11.14-1.31c-1.85-.23-3.72-.35-5.58-.61a39.6 39.6 0 0 1-5.49-1.21 24.28 24.28 0 0 1-2.65-1 14.46 14.46 0 0 1-2.38-1.52c-.38-.27-.76-.55-1.15-.79s-.82-.45-1.2-.73a4.59 4.59 0 0 1-1.65-2.22 11.83 11.83 0 0 1-.65-5.58 5.53 5.53 0 0 1 1.15-2.6 6.8 6.8 0 0 1 1.08-.93l1.13-.83a73.01 73.01 0 0 1 4.7-3.08q1.2-.73 2.42-1.42a22.62 22.62 0 0 1 2.51-1.29c.85-.39 1.75-.71 2.55-1.13.41-.24.75-.52 1.19-.75a2.24 2.24 0 0 1 1.44-.26c.9.41 1.74-.13 2.5-.63a6.43 6.43 0 0 0 1-.9 3 3 0 0 0 .42-.6 2.69 2.69 0 0 0 .21-.63v-.06l7.45-3.89.94-.49a3.17 3.17 0 0 1 1.06-.26 3.11 3.11 0 0 0 1.92-.49 2.71 2.71 0 0 0 .67-.72 3.08 3.08 0 0 1 .66-.86 4.83 4.83 0 0 1 2-.87 10.47 10.47 0 0 0 3.78-1.73c1.21-.75 2.52-1.26 3.77-1.89l7.54-3.68 7.39-4c1.23-.68 2.48-1.3 3.66-2a13 13 0 0 1 3.84-1.78 6.75 6.75 0 0 1 4.22.35 4.61 4.61 0 0 1 1.78 1.21 3.65 3.65 0 0 1 .81 2 4.27 4.27 0 0 1-1.77 3.79 9.85 9.85 0 0 1-1.93 1l-1.92.85q-15.34 6.83-30.37 14.34-7.51 3.75-14.94 7.67l-7.41 3.94a31.9 31.9 0 0 0-3.5 2.2l-1.68 1.25-.84.63-.39.3a3.15 3.15 0 0 0-.24.42v-.2a3.5 3.5 0 0 0 1.5 1.52 11.42 11.42 0 0 0 2.1.8 37.32 37.32 0 0 0 4.43 1.08c1.5.27 3 .48 4.52.65s3 .28 4.56.47l9.1 1.13c1.52.19 3 .34 4.55.57l4.51.81L268 64c1.5.28 3 .48 4.52.83a22.15 22.15 0 0 1 2.22.64c.36.13.73.27 1.08.42a6.39 6.39 0 0 0 1.06.32c1.51.39 2.93.86 4.41 1.29a33.18 33.18 0 0 1 4.3 1.65c1.4.63 2.77 1.31 4.14 2l2.05 1c.72.33 1.34.74 2 1.11z"/><path class="cls-3" d="M277.8 73.87v-.45h1v.47h-1zm.47-.05l.4-.1-.08.1-.07-.26.14.1-.63.17.18-.23zM229.92 98.8h-.2l-.08-.09a.59.59 0 0 1-.07-.12.3.3 0 0 1 0-.08.25.25 0 0 1 0-.09v-.05a1.44 1.44 0 0 1 .25-.27l.12-.12.09.09.36.36.09.09h-.1a1.84 1.84 0 0 1-.45.14zm0-.24a1.83 1.83 0 0 0 .39-.26v.12l-.45-.24h.2a1.2 1.2 0 0 0-.13.27.2.2 0 0 0 0-.07h-.06zm95.32-62.2c.68-.63 1.37-1.23 2.08-1.81-3.2 1.5-5.83 4.95-8.09 8.64-.34.56-.7 1.15-1.05 1.76.35-.59.7-1.17 1.05-1.76a33.18 33.18 0 0 1 6.01-6.83z"/><path class="cls-3" d="M325.09 36.18l2.09-1.79.23.36a15.47 15.47 0 0 0-5.24 4.45 50.45 50.45 0 0 0-3.92 5.8l-.16-.1c.49-.79 1-1.6 1.48-2.37a23.52 23.52 0 0 1 1.71-2.22 47.52 47.52 0 0 1 4-3.95zm.16.18a47.48 47.48 0 0 0-3.89 4 23.42 23.42 0 0 0-1.67 2.23c-.51.78-1 1.6-1.44 2.39l-.16-.1a50.7 50.7 0 0 1 3.83-5.9 15.82 15.82 0 0 1 5.3-4.64l1.43-.7-1.2 1.06-2.06 1.83zm18.23 6.16c-.72-.94-1.48-1.84-2.27-2.7l1 1.25z"/><path class="cls-3" d="M343.3 42.68l-2.18-2.78.18-.16 2.18 2.78zm.18-.15l-2.36-2.62.18-.16 2.36 2.62zm-5.24-5.33a1.61 1.61 0 0 0 .39.4 6.44 6.44 0 0 1 1.19.8 24.52 24.52 0 0 0-2.38-2c.27.26.56.52.8.8z"/><path class="cls-3" d="M338.42 37a2.55 2.55 0 0 0 .28.34l.2.12.22.14a7.1 7.1 0 0 1 .81.63l-.22.24-2.29-2.09.06-.07.77.83zm-.18.16l-.83-.77.06-.07 2.46 1.92-.22.24a6.72 6.72 0 0 0-.81-.54l-.21-.11c-.08 0-.12-.05-.24-.12a2.47 2.47 0 0 1-.39-.39zM311.8 57.47q-.46 1.06-.89 2.15a3 3 0 0 0 .83-1.63l.06-.52z"/><path class="cls-3" d="M312 57.57l-1 2.1-.2-.13a3.61 3.61 0 0 0 .69-.93 3.53 3.53 0 0 0 .29-1.14zm-.22-.09a3.6 3.6 0 0 1-.18 1.19 3.79 3.79 0 0 1-.63 1l-.44.53.23-.65 1.07-3zm10.97 41.87l-2.3-.5a21.66 21.66 0 0 0 2.3.5z"/><path class="cls-3" d="M322.7 99.58l-2.28-.58.06-.23 2.27.62zm.05-.23l-2.33-.35.06-.23 2.32.38zm14.09 5.65a1.26 1.26 0 0 0 .16.4l.49-.27a1.8 1.8 0 0 0-.41-.32c-.08.01-.25.19-.24.19z"/><path class="cls-3" d="M337.08 105v.06a.43.43 0 0 0 0 .08l.07.21-.26-.09.53-.21v.18c-.1-.11-.19-.23-.28-.32s-.08-.07-.15 0a.29.29 0 0 0-.15.13zm-.24 0a.31.31 0 0 1 .12-.18.19.19 0 0 1 .12-.06h.12c.14.08.24.17.36.24l.13.08-.15.11-.46.33-.13.1-.12-.18-.12-.18-.07-.12a.72.72 0 0 1 0-.16zm15.57-42.62c.17.58.4 1.15.58 1.73a43.5 43.5 0 0 0-2.93-10.24 29.56 29.56 0 0 1 1.83 6.9 11.64 11.64 0 0 0 .52 1.61z"/><path class="cls-3" d="M352.64 62.31l.56 1.69-.43.1A43.33 43.33 0 0 0 350 53.91l.18-.08a32.37 32.37 0 0 1 1.29 4.24q.24 1.08.4 2.18a5.43 5.43 0 0 0 .2 1.08c.11.35.26.69.36 1zm-.23.07c-.11-.35-.26-.69-.39-1a5.47 5.47 0 0 1-.23-1.08q-.18-1.09-.45-2.16a32.22 32.22 0 0 0-1.34-4.23l.18-.08a43.66 43.66 0 0 1 3.06 10.24l-.43.1-.6-1.73zM306.43 78.5c.24-1.86.5-3.7.57-5.57a39.47 39.47 0 0 0-.57 5.57z"/><path class="cls-3" d="M306.19 78.47c.28-1.85.58-3.69.68-5.54h.24a39.48 39.48 0 0 0-.69 5.55zm.24 0a39.6 39.6 0 0 1 .45-5.59h.24c0 1.88-.25 3.74-.45 5.6l-.25 2.33zm46.73-11.75c.09.35.17.7.23 1.06q-.06-1-.18-2a3.12 3.12 0 0 1-.1.57.76.76 0 0 0 .05.37z"/><path class="cls-3" d="M353.39 66.67l.17 1.07h-.35l-.06-2h.11l-.11.47a.74.74 0 0 0 0 .46zm-.23.05a.78.78 0 0 1-.06-.48l.06-.47.05-.43.06.43.29 2h-.35l-.3-1zM310 62.44c0-.09 0-.19-.07-.28l-.14.38q-.56 1.56-1 3.14c.84-.82.8-2.06 1.24-3.07a1 1 0 0 0-.03-.17z"/><path class="cls-3" d="M310 62.24h.13c-.23.56-.43 1.16-.65 1.73l-.64 1.74-.19-.12a3 3 0 0 0 .79-1.4 11.79 11.79 0 0 1 .52-1.59v-.18zm0-.62v1.01a11.77 11.77 0 0 0-.42 1.62 3.18 3.18 0 0 1-.75 1.53l-.32.32.13-.44.53-1.78c.18-.59.34-1.19.54-1.78l.24-.71zm44.5-12.1c-.31 1.22-.3 1.23 1 1.82-.23-.75.23-1.71-1-1.82z"/><path class="cls-3" d="M354.73 49.58c-.11.38-.29.83-.15 1a1.29 1.29 0 0 0 .42.42l.55.29-.16.14a10.91 10.91 0 0 1-.07-1.2.68.68 0 0 0-.27-.47 1 1 0 0 0-.32-.18zm-.48-.07h.24a1.33 1.33 0 0 1 .58.14.77.77 0 0 1 .35.5c.1.4.06.81.18 1.15l.09.24-.25-.1-.58-.24a1.55 1.55 0 0 1-.58-.38 1 1 0 0 1-.14-.74l.12-.57zm4.48 20.57c0 .1.06.27.11.28a2.13 2.13 0 0 0 .5 0c-.05-.15-.08-.33-.12-.33a2.69 2.69 0 0 0-.49.05z"/><path class="cls-3" d="M359 70.08v.13l-.08-.06c-.08-.06 0 0 0 0a3 3 0 0 0 .39 0l-.11.16V70h-.2zm-.47.07l.65-.19h.13l.05.11.09.19.06.13h-.17a3.1 3.1 0 0 1-.42.09h-.07a.25.25 0 0 1-.1 0 .27.27 0 0 1-.15-.13v-.07a1.77 1.77 0 0 0-.08-.18zm-19.41 25.4c-2.2 1-4.39 2.08-6.65 2.91a32.18 32.18 0 0 1-5.48 1.2A26.23 26.23 0 0 0 344.94 92a29.11 29.11 0 0 0 2.4-2.78 27.29 27.29 0 0 1-3.33 3 26.94 26.94 0 0 1-4.89 3.33z"/><path class="cls-3" d="M339.22 95.77c-2 .87-3.89 1.81-5.91 2.59a17.24 17.24 0 0 1-3.11.92c-1.06.22-2.12.37-3.18.55v-.35a26.24 26.24 0 0 0 2.93-.22 24.61 24.61 0 0 0 2.89-.55 26.77 26.77 0 0 0 2.81-.87c.45-.19.92-.34 1.36-.55s.9-.4 1.33-.63.87-.45 1.3-.7.84-.51 1.26-.77a25.26 25.26 0 0 0 2.37-1.76c.37-.32.75-.63 1.1-1l.53-.51.48-.55 1.95-2.23.08.07c-.6.63-1.23 1.23-1.89 1.8s-1.35 1.1-2 1.63a22.37 22.37 0 0 1-4.33 2.89zm-.1-.22a22.35 22.35 0 0 0 4.29-2.94c.69-.53 1.38-1.06 2-1.64s1.27-1.18 1.86-1.82l.08.07-1.92 2.25-.43.53-.53.52c-.35.35-.73.67-1.1 1a25.42 25.42 0 0 1-2.37 1.83c-.42.26-.82.55-1.26.79s-.86.5-1.3.72-.89.44-1.34.65-.91.38-1.37.57a27 27 0 0 1-2.83.91 24.91 24.91 0 0 1-2.92.59 26.55 26.55 0 0 1-3 .25v-.35c1.06-.19 2.12-.35 3.16-.58a16.8 16.8 0 0 0 3-.93c2-.79 3.9-1.74 5.86-2.64zm14.22-49.11c-.33 2.12-.33 2.12 1.15 3 .99-1.44-.86-1.68-1.15-3z"/><path class="cls-3" d="M353.51 46.89a4.76 4.76 0 0 0-.13 1.33 1 1 0 0 0 .44.63c.23.18.49.34.74.51h-.16a1.38 1.38 0 0 0 .29-.76 1.15 1.15 0 0 0-.36-.74c-.19-.22-.41-.43-.6-.66a2.18 2.18 0 0 1-.22-.31zm-.16-.45a1.84 1.84 0 0 0 .43.76c.2.22.42.41.64.62a1.29 1.29 0 0 1 .45.81 1.58 1.58 0 0 1-.27.9l-.06.1-.11-.06c-.27-.15-.53-.3-.79-.48a1.34 1.34 0 0 1-.61-.8 3.34 3.34 0 0 1 0-1l.17-1.53zm1.14 3.02v.05z"/><path class="cls-3" d="M354.49 49.4v.06l-.1.07h.08v-.13zm-.12.11l.13-.05.06.07-.1.07zm-53.69 47.7l-4.38-16.53c.7 10.82.93 12.51 4.38 16.53z"/><path class="cls-3" d="M300.3 96.74l-4.13-16h.24c.2 2.91.33 5.83.71 8.72a15.08 15.08 0 0 0 1.11 4.21 14.56 14.56 0 0 0 2.07 3.07zm.37.48a16.08 16.08 0 0 1-2.49-3.59 15.17 15.17 0 0 1-1.18-4.22c-.43-2.89-.6-5.81-.84-8.72h.24l4.63 17z"/><path class="cls-3" d="M361.68 63.73l-2.4.85c.41-12.32-6.69-23.77-15.49-32.4-4.14-4.06-8.93-7.8-14.61-9-13.62-2.91-15.61 9.17-20.47 18.17a108.52 108.52 0 0 0-12.41 39.33l4.38 16.54c.38.38.77.76 1.16 1.12a35.71 35.71 0 0 0 50.5-2.06 38.38 38.38 0 0 0 9.34-32.55zM337 105.43a1.26 1.26 0 0 1-.16-.4c0-.07.18-.21.24-.19a1.8 1.8 0 0 1 .41.32zm16.4-28.67c-.1 1.31-.11 2.63-.32 3.92a5.29 5.29 0 0 1-.86 1.56l-.89 1.54a28.36 28.36 0 0 1-4 5.41 29.11 29.11 0 0 1-2.4 2.78A26.23 26.23 0 0 1 327 99.66l-.54.09a4.31 4.31 0 0 1-1.68 0l-2-.44a21.66 21.66 0 0 1-2.3-.5c-1.42-.32-2.83-.67-4.22-1.12a13 13 0 0 1-6.93-5.67 18.5 18.5 0 0 1-3-12.67q.05-.45.11-.9a39.47 39.47 0 0 1 .57-5.57v-1.35a2.83 2.83 0 0 0 .44-.94v-.15c.21-1 0-2 .18-3 .08-.49.17-1.22.48-1.37a2.36 2.36 0 0 0 .62-.44q.49-1.58 1-3.14l.14-.38a2.49 2.49 0 0 1 .86-2.42l.11-.13q.43-1.08.89-2.15a11.71 11.71 0 0 1 1.74-4.68c1.58-2.59 3.08-5.24 4.63-7.84.36-.61.71-1.2 1.05-1.76 2.26-3.69 4.89-7.14 8.09-8.64.53-.44 1.07-.87 1.64-1.27a3.15 3.15 0 0 1 3.47-.33 18.9 18.9 0 0 1 5 3.45 24.52 24.52 0 0 1 2.38 2 11.75 11.75 0 0 1 1.39 1.42c.79.86 1.55 1.76 2.27 2.7a28.32 28.32 0 0 1 3 4 53.62 53.62 0 0 1 3.62 7.32A43.5 43.5 0 0 1 353 64.11a4.33 4.33 0 0 1 .23 1.67q.11 1 .18 2a33.48 33.48 0 0 1-.01 8.98zm1.09-27.23v-.05c-1.48-.9-1.48-.91-1.15-3 .29 1.32 2.13 1.54 1.15 3 1.24.1.78 1.07 1 1.82-1.29-.54-1.3-.56-.99-1.78zm4.35 20.84c-.05 0-.07-.18-.11-.28a2.69 2.69 0 0 1 .49-.07s.07.18.12.33a2.13 2.13 0 0 1-.5.01z"/><path class="cls-3" d="M361.72 64l-2.36.83-.33.12v-.35a35.12 35.12 0 0 0-3.18-15.23 53.46 53.46 0 0 0-8.56-13.13 69.29 69.29 0 0 0-5.49-5.63 37 37 0 0 0-6.28-4.7 20.51 20.51 0 0 0-7.3-2.69 16.68 16.68 0 0 0-3.89-.25 18.16 18.16 0 0 0-1.92.29l-.93.28a3.62 3.62 0 0 0-.9.35A13.43 13.43 0 0 0 315 29.1a54.37 54.37 0 0 0-3.57 7q-.81 1.8-1.67 3.59l-1.82 3.51c-1.2 2.34-2.34 4.71-3.38 7.12a107.33 107.33 0 0 0-8.13 30.37l4.36 16.54 1 1c.35.32.74.62 1.1.93.76.6 1.45 1.29 2.26 1.81l2.39 1.62 2.54 1.38c.84.48 1.76.78 2.64 1.18a20.62 20.62 0 0 0 2.72 1l1.38.43c.46.14.94.21 1.41.32l1.42.3a9.34 9.34 0 0 0 1.43.24c1 .1 1.92.24 2.88.31l2.89.06a36.53 36.53 0 0 0 5.75-.6l1.43-.25 1.4-.39a22.47 22.47 0 0 0 2.76-.86c.89-.36 1.81-.67 2.69-1.08l2.58-1.31a36.53 36.53 0 0 0 4.78-3.26 19.69 19.69 0 0 0 2.19-1.89c.68-.68 1.4-1.33 2.06-2a36.88 36.88 0 0 0 6.32-9.66A38.33 38.33 0 0 0 361.72 64zm0-.24a38.34 38.34 0 0 1-2.84 22.68 36.93 36.93 0 0 1-6.31 9.69c-.66.71-1.37 1.36-2.06 2a19.76 19.76 0 0 1-2.19 1.9 36.62 36.62 0 0 1-4.79 3.27l-2.59 1.32c-.87.41-1.8.72-2.69 1.08a22.57 22.57 0 0 1-2.77.87L334 107l-1.43.26a36.64 36.64 0 0 1-5.77.62h-2.91c-1-.08-1.93-.21-2.89-.31a9.41 9.41 0 0 1-1.43-.23l-1.42-.3c-.47-.11-1-.18-1.42-.32l-1.39-.43a20.75 20.75 0 0 1-2.74-1c-.88-.4-1.81-.7-2.65-1.18l-2.56-1.38L305 101c-.82-.52-1.51-1.21-2.27-1.8-.37-.31-.75-.6-1.11-.94l-1-1-4.4-16.53a107.58 107.58 0 0 1 8.09-30.45c1-2.43 2.17-4.8 3.37-7.15l1.81-3.5q.85-1.78 1.65-3.58a54.63 54.63 0 0 1 3.58-7.05 13.77 13.77 0 0 1 5.76-5.37 13.21 13.21 0 0 1 7.84-.71 20.88 20.88 0 0 1 7.43 2.72 37.39 37.39 0 0 1 6.35 4.73 69.69 69.69 0 0 1 5.51 5.63 53.89 53.89 0 0 1 8.65 13.22 35.58 35.58 0 0 1 3.25 15.42l-.32-.23 2.44-.87z"/><path class="cls-3" d="M336.77 105.52c0-.08-.07-.18-.1-.31a.66.66 0 0 1 0-.11.45.45 0 0 1 0-.08.35.35 0 0 1 0-.08.56.56 0 0 1 .18-.14h.12a.21.21 0 0 1 .13 0 .71.71 0 0 1 .15.13l.21.24.07.09h-.09l-.53.21zm.42-.23l.27-.19v.12l-.27-.18-.12-.06a.2.2 0 0 0-.06.08s0-.05 0 0zm16.45-28.51c-.1 1.17-.11 2.37-.27 3.56 0 .15 0 .29-.07.46a1.94 1.94 0 0 1-.18.48 7.8 7.8 0 0 1-.5.77c-.31.47-.6 1-.9 1.52a29.06 29.06 0 0 1-4.23 5.78l-2 2.25-.49.57-.53.51c-.35.35-.74.67-1.11 1a25.54 25.54 0 0 1-2.36 1.76c-.42.26-.83.55-1.27.78s-.86.49-1.31.71-.89.44-1.35.64-.92.38-1.38.57a27.11 27.11 0 0 1-2.84.89 25 25 0 0 1-2.93.57 26.58 26.58 0 0 1-3 .23 6.16 6.16 0 0 1-2.2.14l-2.1-.46-2.1-.46c-.71-.17-1.39-.36-2.09-.54l-1.97-.51a10.65 10.65 0 0 1-2-.8 12.42 12.42 0 0 1-3.46-2.67 18.67 18.67 0 0 1-2.52-3.53 19 19 0 0 1-1.7-4 18.26 18.26 0 0 1-.74-4.26 22.3 22.3 0 0 1 .24-4.31 39.67 39.67 0 0 1 .58-5.59v-1.31a2.92 2.92 0 0 0 .51-1.44 15.84 15.84 0 0 0 0-1.6 8 8 0 0 1 .19-1.62 2.73 2.73 0 0 1 .12-.41.8.8 0 0 1 .27-.39 3.17 3.17 0 0 0 .34-.2 2.52 2.52 0 0 0 .29-.25v.05l.59-1.77c.2-.59.38-1.18.6-1.76v.07a2.4 2.4 0 0 1 .14-1.47 2.9 2.9 0 0 1 .38-.64c.15-.2.34-.37.49-.54l.9-2.15a11 11 0 0 1 1-3.39c.52-1.07 1.18-2 1.76-3.06l3.59-6.06a51.22 51.22 0 0 1 3.9-5.88 15.76 15.76 0 0 1 5.32-4.58l1.18-.91a5.47 5.47 0 0 1 1.26-.81 3 3 0 0 1 1.48-.26 3.78 3.78 0 0 1 1.43.45 18.91 18.91 0 0 1 4.86 3.39l1.54 1.37c.51.44 1.05.85 1.52 1.35.93 1 1.76 2.06 2.64 3.09a39.83 39.83 0 0 1 2.51 3.2c.77 1.12 1.4 2.32 2 3.51s1.23 2.41 1.77 3.66 1 2.5 1.5 3.78a43.12 43.12 0 0 1 2 7.86 4.35 4.35 0 0 1 .22 1.68l.17 2a33.52 33.52 0 0 1 0 9zm-.24 0a33.51 33.51 0 0 0 0-9l-.18-2a4.32 4.32 0 0 0-.23-1.66 43.07 43.07 0 0 0-2-7.85c-.46-1.27-1-2.52-1.51-3.77s-1.14-2.45-1.78-3.65-1.28-2.39-2-3.5a39.74 39.74 0 0 0-2.51-3.18c-.88-1-1.72-2.1-2.64-3.08-.47-.49-1-.9-1.52-1.34l-1.55-1.3a18.78 18.78 0 0 0-4.84-3.36 3.64 3.64 0 0 0-1.38-.43 2.86 2.86 0 0 0-1.41.25 5.35 5.35 0 0 0-1.23.8l-1.17.91a15.61 15.61 0 0 0-5.25 4.55 51.06 51.06 0 0 0-3.97 5.83l-3.57 6.07c-.58 1-1.23 2-1.74 3.05a10.79 10.79 0 0 0-1 3.32l-.92 2.22c-.16.19-.33.34-.47.52a2.67 2.67 0 0 0-.35.59 2.16 2.16 0 0 0-.12 1.33v.07c-.22.58-.4 1.17-.6 1.76l-.58 1.76a2.77 2.77 0 0 1-.32.27 3.15 3.15 0 0 1-.35.21 1.16 1.16 0 0 0-.28.64 7.69 7.69 0 0 0-.18 1.57 16 16 0 0 1 0 1.62 3.2 3.2 0 0 1-.56 1.56v-.08 1.36a39.4 39.4 0 0 0-.56 5.55 22 22 0 0 0-.23 4.26 18 18 0 0 0 .74 4.18 18.67 18.67 0 0 0 1.68 3.9 18.33 18.33 0 0 0 2.49 3.45 12.08 12.08 0 0 0 3.35 2.56 10.32 10.32 0 0 0 2 .77l2.08.55c.69.18 1.39.38 2.07.54l2.1.45 2.09.45a5.83 5.83 0 0 0 2.06-.15 26.21 26.21 0 0 0 2.93-.24 24.55 24.55 0 0 0 2.88-.57 26.68 26.68 0 0 0 2.8-.89c.45-.19.92-.35 1.36-.56s.89-.4 1.32-.63.87-.46 1.29-.71.83-.52 1.25-.78a25.12 25.12 0 0 0 2.34-1.76c.37-.32.74-.63 1.09-1l.53-.51.48-.55 1.92-2.23a28.6 28.6 0 0 0 4.15-5.7c.31-.52.57-1 .91-1.55a7.53 7.53 0 0 0 .47-.73 1.49 1.49 0 0 0 .13-.35c0-.13 0-.28.06-.42.15-1.16.16-2.35.26-3.54zm1.04-27.02l-.37-.07.19-.3.07.34c-.26-.17-.52-.33-.78-.52a1.4 1.4 0 0 1-.59-.85 3.27 3.27 0 0 1 0-1l.15-.91.15-.9.18.89a1.7 1.7 0 0 0 .36.72c.18.22.39.42.6.65a1.35 1.35 0 0 1 .42.86 1.57 1.57 0 0 1-.31.89v-.14h.06v.07l-.08-.12a1.41 1.41 0 0 1 .6.19.8.8 0 0 1 .34.54c.07.41 0 .81.11 1.18v.11h-.1l-.56-.28a1.49 1.49 0 0 1-.51-.37.76.76 0 0 1-.07-.61c.07-.13.1-.25.14-.37zm.06-.23c0 .2-.1.4-.13.61a.73.73 0 0 0 .09.58 1.44 1.44 0 0 0 .5.34l.57.25-.07.06c-.13-.39-.07-.81-.15-1.18a.64.64 0 0 0-.29-.43 1.25 1.25 0 0 0-.53-.14h-.11v-.16.11h-.08l.05-.09a1.37 1.37 0 0 0 .25-.77 1.11 1.11 0 0 0-.38-.69c-.2-.21-.43-.4-.64-.64a2 2 0 0 1-.46-.84h.33l-.11.9a3 3 0 0 0 0 .85c.09.47.72.73 1.22 1l.2.13-.12.21v.06l-.18-.38h.07zm4.26 21.05l-.08-.05a.27.27 0 0 1-.05-.07.34.34 0 0 1 0-.08.71.71 0 0 1 0-.1v-.4h.77c.09.07 0 .06.07.08a.61.61 0 0 1 0 .12v.31h-.08a2.27 2.27 0 0 1-.5 0zm.08-.23a2.24 2.24 0 0 0 .49-.09l-.06.1-.09-.2v-.08h-.05l-.39.12.15-.26.07.16h-.07z"/><path class="cls-2" d="M356.49 79.5l-.48.26a1.24 1.24 0 0 1-.16-.39c0-.06.18-.21.23-.19a1.76 1.76 0 0 1 .41.32zM46.43 89.3a1.38 1.38 0 0 0 0-.38c-.13.07-.26.09-.27.14a1.22 1.22 0 0 0 0 .34c.13-.03.26-.05.27-.1zm-1.16 1.39l-.61 1.4c1.06-.09 1.11-.22.61-1.4zm137.22 10.12A29.76 29.76 0 0 0 178.63 90l-.93 1-3.87-12.61a3.92 3.92 0 0 0 3.13-4.47c-.47-2.29-2.92-3.3-5-2.93a62.8 62.8 0 0 0-1.06-7.56 24.42 24.42 0 0 1-.42-2.93c0-1-.35-1.92-.4-2.93-.09-1.87-.55-3.72-.82-5.58s-.46-3.65-.75-5.47a31.44 31.44 0 0 0-.88-4.12c-.43-1.44-.41-3-.72-4.49-.38-1.89-.9-3.75-1.34-5.62a25.84 25.84 0 0 0-3.34-8.71 6.65 6.65 0 0 0-.84-1.13c-.47-.45-1-.85-1.69-.28a.72.72 0 0 1-.59.14c-6.56 0-10 12.74-11.84 17.63-4.11 11.16-5.7 23.16-7.12 34.92-.18 1.49-.46 3.16-1.67 4-1.86 1.35-5 .18-6.42 2-3.08 3.81 4.31 5.55 6.63 5a34.38 34.38 0 0 0-.39 13.68c.31 1.78 1.05 3.84 2.81 4.25a3.43 3.43 0 0 0 3.6-2.08 10 10 0 0 0 .65-4.41v-8.18c0-1.36 0-2.85.93-3.86a5.65 5.65 0 0 1 3-1.43c5.81-1.55 12.09-4 18.08-4.33 2.16 6.8 4.35 13.85 6.57 20.73a11.38 11.38 0 0 0 2.54 4.9c1.34 1.29 3.65 1.77 5.05.55s1.21-3.17.96-4.87zm-31-66.67a1.27 1.27 0 0 1 0 .35s-.13.06-.2.1a1.13 1.13 0 0 1 0-.32s.12-.07.24-.13zm-1.08 1.63c.47 1.08.42 1.22-.56 1.28zm-3.83 41.63c.1-1.11.15-2 .27-2.92.57-4.37 1.11-8.75 1.76-13.12.4-2.71 1-5.39 1.46-8.09.35-2.2.61-4.41.8-6.62.09-1-.27-2-.1-3.05a14.12 14.12 0 0 1 1.6-5v.1l.92-2.11c.15-.06.35-.08.41-.18a10.63 10.63 0 0 0 .81-1.46 25.18 25.18 0 0 1 3.26-5.12c0-.06.15-.07.39-.17.19.61.42 1.2.55 1.8.56 2.46 1.13 4.93 1.62 7.41.31 1.6.44 3.23.71 4.83s.66 3.18.93 4.79c.37 2.24.66 4.49 1 6.73.6 3.67 1.25 7.34 1.85 11 .34 2.06.62 4.13 1 6.34zM48.31 91.64z"/><path class="cls-1" d="M115 61.41c.05.08.15.18.14.25s-.14.12-.22.18-.15-.18-.14-.25.22-.12.22-.18z"/><ellipse class="cls-3" cx="197.14" cy="62.93" rx="3.72" ry="3.67"/><g class="cls-4"><path class="cls-3" d="M201.42 60.49l-.13-.29a.9.9 0 0 1-.18.3c-.05.11.13.03.31-.01zm-.26-.55v-.05H201zm-.51-.26a.25.25 0 0 0 .21.17c-.01-.1-.07-.17-.21-.17zm.1.45a.54.54 0 0 1 .29-.22l-.19-.05a.6.6 0 0 1-.1.27zm0 0l-.2.27a2.11 2.11 0 0 0 .2-.27zM198.28 62c-.09.05.59-.52.41-.42s-.58.33-.62.29c-.14.14.41-.66.25-.54a2.56 2.56 0 0 0-.57.59 1.71 1.71 0 0 0-.29.5 1.42 1.42 0 0 1 .53-.26 2.35 2.35 0 0 1 1.13-.31c.06 0 0 .11 0 .17a1.8 1.8 0 0 0 .26-.38c.12-.2-.9.36-1.1.36zm3.26.69l-.3-.12c.61-.26.33-.5 0-.64l-.41.19c.08.09.32.07.49-.08-.48.36-.54.54-.44.76a1.84 1.84 0 0 0 .66-.11z"/><path class="cls-3" d="M201 62.92l-.08-.13h-.08l.13.12z"/><path class="cls-3" d="M199.36 59.64a8.79 8.79 0 0 0-1.51-.69c-.07.16-.12.36-.16.25a.93.93 0 0 0-.1-.33l-.22-.06-.08.07a.69.69 0 0 0 0 .37 3.22 3.22 0 0 1 .06.32l-.06-.32a.71.71 0 0 0-.1-.26c-.1.06-.15.09-.23 0 .08-.11.14-.11.23 0l.13-.11v-.08H197l-.29-.05a.4.4 0 0 0-.11.08c-.12.14-.22.27-.39-.14h-.11v.07l-.06-.07a4.49 4.49 0 0 0-.47 0c0 .19-.06.42-.09.57l-.26-.37a1.12 1.12 0 0 1 0 .47c.18.21.35.45.47.59.22.39-.15-.89.22-.14-.37-.75 0 .53-.22.14-.12-.14-.29-.39-.47-.59-.05.19-.25.13-.6-.16 0-.42.3-.19.6.16a1.12 1.12 0 0 0 0-.47l.26.37c0-.15.05-.38.09-.57a4.27 4.27 0 0 0-.94.18 4 4 0 0 0-2.47 2.05 5.53 5.53 0 0 0-.34.79 6.11 6.11 0 0 0-.22.9 6.31 6.31 0 0 0-.06 1.81 7.89 7.89 0 0 0 1.65 4.18 4.31 4.31 0 0 0 2 1.38 6.15 6.15 0 0 0 1.33.3h1.04a25.26 25.26 0 0 0 5.5-.8 4.16 4.16 0 0 0 2.29-2.19 7.4 7.4 0 0 0 .59-1.64c.06-.27.1-.53.14-.77s.07-.59.09-.83a2.32 2.32 0 0 0-.25-.49l-.34-.14a5.87 5.87 0 0 0-.79-.2 12.51 12.51 0 0 0-1.75-.19 18.86 18.86 0 0 0-2.27 0 15.23 15.23 0 0 1-1.64.19 1.57 1.57 0 0 0-.57 0c-.2 0-.33.24-1.16-.22.47.26.94.49.95.68s-.43.17-1.11-.7l-.15-.2v-.11h.16-.24.11s-.12.09-.11.07h.09V63v-.27a.42.42 0 0 1 0 .09v.08a2.48 2.48 0 0 1 0-.32.81.81 0 0 0 0 .27c0 .1 0 0 0 0l-.12-.33a3.08 3.08 0 0 1-.16-.79c0-.2.22.75.18.56 0 0 0-.4.07-.66v.55H197a2 2 0 0 0 .38-.69c0-.27.08-.48.09-.36s0 .28 0 .42 0 .09.06.07l.12-.19.29-.89a3 3 0 0 1 0 .32 3 3 0 0 0 0-.32l-.29.89a2.24 2.24 0 0 1 1.21-.88v-.06c-.19 0-.25-.17-.18-.74 0 .21-.14.42-.24.43l.13-.43c.26-.16.58-.25.37.37l.26-.18a2.22 2.22 0 0 1-.33.55h.13a2.56 2.56 0 0 0 .25-.65 2.8 2.8 0 0 0 .11-.2z"/><path class="cls-3" d="M197.14 59l.12-.07c-.17-.05-.31-.07-.47-.11.11.39.21.26.35.18z"/></g><path class="cls-3" d="M294.16 103.49c-.6 5.85-6.79 8.73-8 14.46"/><g class="cls-4"><path class="cls-3" d="M286.68 116.67l.07-.15-.06.07s-.01.05-.01.08zm.14-.29v-.05zm.1-.27a.6.6 0 0 0-.06.13.37.37 0 0 0 .06-.13zm-.11.2v-.08zm0 0h-.05zm-.29-.19s.09 0 .08-.06a1.52 1.52 0 0 1 0-.41c0-.07.15-.1.15-.17s0-.58-.1-.37-.11.53-.16.83a5.67 5.67 0 0 1-.07.71 1.69 1.69 0 0 1-.06.18l.1-.23c.09-.11.04-.28.06-.48zm-.27 1.7v-.08a2.69 2.69 0 0 0 .12-.39v.05c0 .08 0 .09 0 0a3.26 3.26 0 0 0-.14.44zm-.05.18v-.09.09zm.9-2.48a5.34 5.34 0 0 1 .56-.95v-.1h.11l.09-.12v-.05l-.07-.05h.1a.24.24 0 0 1 .11-.25.19.19 0 0 1-.08.13v.09a2.85 2.85 0 0 1 .23-.27v-.07c0-.09 0-.17.18-.15l.19-.19a2.07 2.07 0 0 1 0-.23h.15a.24.24 0 0 1-.05-.16h-.27c-.14 0 .15.27-.1.18.25.09 0-.21.1-.18h.27c0-.1.12-.15.29-.13s-.13.15-.29.13a.24.24 0 0 0 .05.16h-.15a2.07 2.07 0 0 0 0 .23c.12-.13.26-.24.39-.36.91-.75 1.64-1.51 2.68-2.25a10.26 10.26 0 0 1 2-1 5 5 0 0 0 1.77-1.31 4.71 4.71 0 0 1 1-.77 5.82 5.82 0 0 1 1.59-.71A2.1 2.1 0 0 0 299 106a6.46 6.46 0 0 0 .39-1.39 5.17 5.17 0 0 0-3-.91c-1.16-.11-2.17-.12-2.27-.12-1.62 0-2 .06-2.14.2s-.21.35-1.06.39c.47-.05.95.13 1 .34s-.23.42-1.14.26c-1.36-.27-1.39-.07-1.33.33s.29.95 0 1.15c-.15.1-.14.36-.23.56a3 3 0 0 0-.76 1.72 9.08 9.08 0 0 1-.67 2.13 4.59 4.59 0 0 0-.06 1.32c-.06.26-.29.41-.37.61a3.09 3.09 0 0 0-.17.92l.2-.87c.07-.22.22.35.22.51s-.25 0-.23.11a1.49 1.49 0 0 0 0 .46c0 .08-.17 0-.16 0 0 .22.14.49 0 .57l-.18.19a.48.48 0 0 0-.07.14v.12a.51.51 0 0 1 .18 0 1.18 1.18 0 0 0-.12.13 1.18 1.18 0 0 1 .12-.13.51.51 0 0 0-.18 0 4.4 4.4 0 0 1-.09.86.7.7 0 0 1 .27-.39c-.06 0-.09 0-.07-.06h.09a.41.41 0 0 1-.19.36v.1h-.11v.09a1.67 1.67 0 0 0 .23-.18z"/><path class="cls-3" d="M287.9 114.17v.07a2.85 2.85 0 0 1 .19-.23c-.15-.01-.17.07-.19.16z"/></g><path class="cls-3" d="M315.13 112.17c.58 4.89-2.37 9-2.89 13.74"/><g class="cls-4"><path class="cls-3" d="M312.51 124.78v-.13.13zm.09-.26zm.04-.24a.43.43 0 0 0 0 .12.27.27 0 0 0 0-.12zm-.07.19v-.07zm0 0zm-.32-.13s.09 0 .07-.06a1.56 1.56 0 0 1-.05-.35c0-.06.12-.1.1-.16s-.19-.48-.19-.3v.71a4 4 0 0 1 .07.6 1.2 1.2 0 0 1 0 .16l.05-.21c.06-.09-.03-.23-.05-.39zm.01 1.45v-.07a1.93 1.93 0 0 0 .06-.33c0 .07 0 .07 0 0a2.33 2.33 0 0 0-.07.38zm-.02.12v-.08.08zm.44-2.15a6.29 6.29 0 0 1 .28-.89s-.07-.06 0-.08h.09l.05-.12h-.18.17a.19.19 0 0 1 0-.12.13.13 0 0 1 0 .12v.1c0-.09.08-.18.13-.27a.41.41 0 0 0 0-.06c0-.08 0-.16.12-.16l.11-.2a1.89 1.89 0 0 1-.1-.19h.15a.24.24 0 0 1-.1-.12h-.26c-.14 0 .23.19 0 .17.26 0-.11-.17 0-.17h.26c0-.08.05-.16.22-.18s-.06.16-.22.18a.24.24 0 0 0 .1.12h-.15a1.89 1.89 0 0 0 .1.19l.24-.39c.57-.84.94-1.67 1.59-2.56a7.82 7.82 0 0 1 1.41-1.36 4.15 4.15 0 0 0 1.12-1.52 4.15 4.15 0 0 1 1.89-1.75c.86-.52.8-1.65.78-2.23a6.48 6.48 0 0 0-3.1-.11c-1.15.15-2.14.34-2.24.36-1.58.33-1.89.46-2 .62s-.13.35-.93.6c.44-.17.94-.12 1.07 0s-.11.41-1 .51c-1.38.14-1.35.34-1.15.66s.61.71.38 1 0 .33 0 .52a2.15 2.15 0 0 0 0 1.58 6.18 6.18 0 0 1 .24 1.87 4.33 4.33 0 0 0 .44 1.08c0 .23-.11.4-.12.58a2.42 2.42 0 0 0 .15.78c0-.26-.08-.46-.1-.75s.33.24.37.37-.23.06-.18.13.08.25.13.38-.17 0-.15 0 .28.38.21.46l-.11.19a.34.34 0 0 0 0 .13v.1a.59.59 0 0 1 .18 0s-.06.09-.08.13.06-.09.08-.13a.59.59 0 0 0-.18 0 3.06 3.06 0 0 1 .13.73.51.51 0 0 1 .16-.36h-.08.09a.3.3 0 0 1-.09.33v.08h-.1v.08a1.32 1.32 0 0 0 .18-.43z"/><path class="cls-3" d="M313.06 122.48a.43.43 0 0 1 0 .06l.11-.23c-.17.02-.12.1-.11.17z"/></g><path class="cls-3" d="M334.66 111.45c2.33 3.85 5 8.31 8 11.57"/><g class="cls-4"><path class="cls-3" d="M341.93 122.09l-.08-.12a.33.33 0 0 1 0 .08s.05.03.08.04zm-.15-.23l-.01-.02-.02-.02.03.04zm-.16-.19a.43.43 0 0 0 .08.1.27.27 0 0 0-.08-.1zm.1.18l-.05-.05a.27.27 0 0 1 .05.05zm0 0v.06a.32.32 0 0 0 0-.06zm-.3.15s.05-.07 0-.09a1.88 1.88 0 0 1-.3-.17c-.06 0 0-.16-.06-.17s-.49-.13-.35 0 .39.25.58.39a3.86 3.86 0 0 1 .51.31l.11.11-.13-.17c-.06-.09-.22-.11-.36-.21zm1.12.93v-.05a1.9 1.9 0 0 0-.21-.26s.05 0 0 0a2.32 2.32 0 0 0 .24.3zm.07.07l-.05-.06.05.06zm-1.38-1.68a7.77 7.77 0 0 1-.54-.76h-.09a.26.26 0 0 0 0-.1l-.07-.11s-.06 0-.07.05v.08-.08a.2.2 0 0 0 0-.09.2.2 0 0 1-.08-.1.13.13 0 0 1 .08.1h.07l-.14-.27h-.05c-.07 0-.13-.08-.06-.19l-.1-.21h-.21l.09-.12a.24.24 0 0 1-.16 0c0 .08-.1.17-.13.23s.29-.07.12.13c.17-.2-.2 0-.12-.13s.08-.15.13-.23-.09-.13 0-.28c.15 0 .09.14 0 .28a.24.24 0 0 0 .16 0l-.09.12h.21l-.17-.42a29.11 29.11 0 0 1-1-2.77 5 5 0 0 1 0-1.85 4.62 4.62 0 0 0-.12-1.67 2.79 2.79 0 0 1 .67-2.16 1.55 1.55 0 0 0-.08-1.73c-1.34.21-4.55 2.46-4.69 2.58-1.29 1-1.49 1.25-1.53 1.49a1.55 1.55 0 0 1-.43 1.12c.26-.42.73-.61.94-.51s.16.47-.5 1.12c-1 1-.78 1.27-.36 1.47s1 .3 1.09.72c0 .21.29.28.44.46.18.59.74.91 1.32 1.23a9 9 0 0 1 1.68 1 4 4 0 0 0 1.14.3c.2.1.26.33.39.43a2.4 2.4 0 0 0 .72.33c-.22-.13-.41-.21-.66-.35s.38-.12.52-.08-.08.22 0 .22a1.25 1.25 0 0 0 .38.12c.08 0-.11.13-.07.14s.46 0 .49.11l.09.2a.33.33 0 0 0 .09.1h.1a.59.59 0 0 1 .12-.14s0 .1.05.14 0-.1-.05-.14a.59.59 0 0 0-.12.14 3.07 3.07 0 0 1 .65.33.51.51 0 0 1-.19-.35c0 .07 0 .08-.08 0v-.09c.11.06.21.13.2.27h.08v.09l.06.05a1.28 1.28 0 0 0-.12-.22z"/><path class="cls-3" d="M340.44 120.26l-.12-.22c-.01.14.06.18.12.22z"/></g><path class="cls-3" d="M352 104.22a10.42 10.42 0 0 1 8.68 2.17"/><g class="cls-4"><path class="cls-3" d="M360.16 105.84l-.07-.07v.05s.05.02.07.02zm-.13-.14l-.01-.01H360l.03.01zm-.14-.09l.06.05a.12.12 0 0 0-.06-.05zm.11.11zm0 0zm-.25.28v-.07a2 2 0 0 1-.24 0s0-.12-.06-.11-.38.12-.26.14a4.49 4.49 0 0 1 .46 0 1.75 1.75 0 0 1 .41.05l.09.05-.15-.06c0-.06-.14 0-.25 0zm.89.33a.83.83 0 0 0-.16-.15 1 1 0 0 0 .19.18zm.05.06z"/><path class="cls-3" d="M359.55 105.5l-.51-.34s-.06.06-.07 0a.24.24 0 0 0 0-.09l-.07-.05a.11.11 0 0 0 0 .08.57.57 0 0 1 0 .08v-.08a.18.18 0 0 0 0-.08.09.09 0 0 1-.08 0 .06.06 0 0 1 .08 0h.08l-.16-.13c-.06 0-.11 0-.09-.11l-.12-.11-.15.09v-.14a.29.29 0 0 1-.11.11v.24c0 .13.18-.22.11 0 .07-.25-.13.11-.11 0v-.24c-.06 0-.1 0-.09-.2s.1.05.09.2a.29.29 0 0 0 .11-.11v.14l.15-.09-.24-.21a15.38 15.38 0 0 0-1.75-1.25 6.22 6.22 0 0 1-1-1.14 2.74 2.74 0 0 0-1.16-.85 3.21 3.21 0 0 1-1.37-1.65 1.35 1.35 0 0 0-1.53-.65c-.27 1.32.7 5.13.72 5.3a6.33 6.33 0 0 0 .62 2c.12.13.25.12.49.89a1.67 1.67 0 0 1-.09-1.06c.09-.14.28.08.44 1 .23 1.35.35 1.3.51 1.06s.36-.71.52-.53.18-.08.28-.11c.24.18.52-.07.85-.32a2.46 2.46 0 0 1 1-.57c.2-.07.48-.41.71-.56s.23.07.33.06a1.61 1.61 0 0 0 .52-.18c-.17 0-.31.09-.49.13s.21-.32.32-.37 0 .21 0 .16.18-.09.28-.13 0 .16 0 .14.32-.25.35-.18l.09.11a.13.13 0 0 0 .08 0h.08a.92.92 0 0 1 .07-.16s0 .06.06.08 0-.06-.06-.08a.92.92 0 0 0-.07.16 1.36 1.36 0 0 1 .52 0 .24.24 0 0 1-.18-.19s0 .08-.05.07v-.08c.09 0 .17 0 .18.13h.07v.09a.84.84 0 0 0-.16-.28z"/><path class="cls-3" d="M358.81 105l-.13-.11c.02.17.07.11.13.11z"/></g><path class="cls-3" d="M292.38 59.43h-8"/><g class="cls-4"><path class="cls-3" d="M285.08 59.53h.08s-.07-.01-.08 0zm.15.04zm.14-.01h-.07a.09.09 0 0 0 .07 0zm-.11-.04zm0 0zm.03-.33v.06c0-.02.12-.11.18-.13s.07.09.1.06.23-.3.13-.26-.24.15-.37.21a1.6 1.6 0 0 1-.32.19c.13.03.2-.08.28-.13zm-.8.25a.62.62 0 0 0 .19 0 .75.75 0 0 0-.22 0zm-.07-.01z"/><path class="cls-3" d="M285.66 59.48a3.38 3.38 0 0 1 .53 0v-.06a.25.25 0 0 0 0 .07h.07a.12.12 0 0 0 0-.09v-.08.08a.17.17 0 0 0 0 .06.07.07 0 0 1 .07 0h-.07.17s.08-.06.11.06h.13s.06-.11.08-.15v.14a.31.31 0 0 1 0-.14l-.06-.23c0-.13-.06.28-.1 0 0 .25.07-.16.1 0l.06.23s.09 0 .13.15-.1 0-.13-.15a.31.31 0 0 0 0 .14v-.14s-.06.1-.08.15l.25.1c.55.28 1.06.35 1.64.7a3.38 3.38 0 0 1 .9 1 2.56 2.56 0 0 0 .85.78c.28.22.56.54.86 1.69.23.84.65.78.87.83a33.26 33.26 0 0 0 .13-5.35c-.09-1.6-.17-1.92-.27-2.08s-.23-.16-.41-.95a1.56 1.56 0 0 1 0 1.07c-.11.13-.27-.11-.39-1-.17-1.36-.38-1.32-.59-1.07s-.44.72-.65.55-.22.09-.34.13c-.33-.16-.64.14-1 .45a4 4 0 0 1-1 .82c-.18.13-.34.54-.49.76s-.23 0-.32.07a1.42 1.42 0 0 0-.38.38c.13-.1.23-.21.37-.32s-.07.38-.13.47-.07-.2-.1-.13-.12.15-.18.24 0-.16 0-.13-.16.37-.21.33l-.12-.05a.11.11 0 0 0-.07 0v.06a1 1 0 0 1 0 .18h-.08.08a1 1 0 0 0 0-.18 1.41 1.41 0 0 1-.37.3.19.19 0 0 1 .22.07v-.09.08c-.06 0-.13.08-.19 0s0-.06 0-.09a.83.83 0 0 0 .11.34z"/><path class="cls-3" d="M286.41 59.51h.14c-.06-.06-.1-.03-.14 0z"/></g><path class="cls-3" d="M361.05 87.55h8"/><g class="cls-4"><path class="cls-3" d="M368.36 87.45h-.08s.06.01.08 0zm-.16-.04zm-.14.01h.07a.09.09 0 0 0-.07 0zm.11.04zm0 0zm-.03.33v-.06c0 .02-.12.11-.18.13s-.07-.09-.1-.06-.23.3-.13.26.24-.15.37-.21a1.6 1.6 0 0 1 .32-.19c-.12-.03-.19.08-.28.13zm.8-.25a.61.61 0 0 0-.19 0 .75.75 0 0 0 .22 0zm.06.01z"/><path class="cls-3" d="M367.77 87.5a3.38 3.38 0 0 1-.53 0v.06a.25.25 0 0 0 0-.07h-.07a.12.12 0 0 0 0 .09v.08-.08a.17.17 0 0 0 0-.06.07.07 0 0 1-.07 0h.07-.17s-.08.06-.11-.06h-.13s-.06.11-.08.15v-.14a.31.31 0 0 1 0 .14l.06.23c0 .13.06-.28.1 0 0-.25-.07.16-.1 0l-.06-.23s-.09 0-.13-.15.1 0 .13.15a.31.31 0 0 0 0-.14v.14s.06-.1.08-.15l-.25-.1c-.55-.28-1.06-.35-1.64-.7a3.38 3.38 0 0 1-.9-1 2.56 2.56 0 0 0-.85-.78c-.28-.22-.56-.54-.86-1.69-.23-.84-.65-.78-.87-.83a33.25 33.25 0 0 0-.13 5.35c.09 1.6.17 1.92.27 2.08s.23.16.41.95a1.56 1.56 0 0 1 0-1.07c.11-.13.27.11.39 1 .17 1.36.38 1.32.59 1.07s.44-.72.65-.55.22-.09.34-.13c.33.16.64-.14 1-.45a4 4 0 0 1 1-.82c.18-.13.34-.54.49-.76s.23 0 .32-.07a1.42 1.42 0 0 0 .38-.38c-.13.1-.23.21-.37.32s.07-.38.13-.47.07.2.1.13.12-.15.18-.24 0 .16 0 .13.16-.37.21-.33l.12.05a.11.11 0 0 0 .07 0v-.06a1 1 0 0 1 0-.18h.08-.08a1 1 0 0 0 0 .18 1.41 1.41 0 0 1 .38-.3.19.19 0 0 1-.22-.07v.09-.08c.07 0 .13-.08.19 0s0 .06 0 .09a.83.83 0 0 0-.12-.34z"/><path class="cls-3" d="M367 87.47h-.14c.08.06.14.03.14 0z"/></g><path class="cls-3" d="M298.16 42.22c-3.53-2.33-8-2.63-11.57-5.06"/><g class="cls-4"><path class="cls-3" d="M287.43 37.79l.1.08v-.06s-.07-.02-.1-.02zm.2.15zm.2.06l-.1-.06a.22.22 0 0 0 .1.06zm-.14-.08h.06zm0 0v-.05zm.21-.27v.08a3 3 0 0 1 .31 0c.06 0 .06.13.11.12s.45-.11.3-.14-.41 0-.62-.07a2.92 2.92 0 0 1-.53-.08l-.13-.06.16.1c.1.08.25.03.4.05zm-1.22-.43h.06a1.55 1.55 0 0 0 .25.18c-.05 0-.06 0 0 0a1.88 1.88 0 0 0-.29-.2zm-.09-.06h.06-.06zm1.7 1.02l.75.39s.07-.06.08 0a.25.25 0 0 0 0 .09l.1.06v-.08a.49.49 0 0 1 0-.09v.09a.19.19 0 0 0 0 .08.17.17 0 0 1 .11 0 .1.1 0 0 1-.11 0h-.1l.23.14h.06c.07 0 .14 0 .14.12l.17.12.18-.09v.15a.25.25 0 0 1 .12-.1v-.25c0-.06-.19.22-.15 0 0 .26.16-.1.15 0s0 .16 0 .25.14.05.15.22-.14-.06-.15-.22a.25.25 0 0 0-.12.1V39l-.18.09.34.24c.74.58 1.5.9 2.25 1.52a4.13 4.13 0 0 1 1 1.38 4.48 4.48 0 0 0 .88 1.17 2.21 2.21 0 0 1 .3 2c-.15.87.23 1 .37 1.16a20.55 20.55 0 0 0 1.84-2.49c.64-1 1.13-1.84 1.18-1.93.75-1.42.78-1.77.7-2a1.75 1.75 0 0 1-.21-1.21c0 .5-.33.9-.55.91s-.38-.33-.19-1.22c.3-1.37-.11-1.52-.58-1.44s-1 .36-1.32.06c-.15-.15-.39 0-.61-.08a2 2 0 0 0-1.66-.1 6.77 6.77 0 0 1-1.73.28 4.09 4.09 0 0 0-1 .46c-.2 0-.34-.1-.49-.11a2.08 2.08 0 0 0-.69.14c.23 0 .4-.07.65-.09s-.23.32-.36.36 0-.22-.09-.18-.22.08-.35.12 0-.17 0-.15-.37.24-.43.17l.13-.06a.25.25 0 0 0-.11 0h-.09a.67.67 0 0 1 0 .17s-.07-.07-.1-.09.06.07.1.09a.67.67 0 0 0 0-.17 2.14 2.14 0 0 1-.66 0 .41.41 0 0 1 .28.22v-.07.09c-.11 0-.22 0-.27-.15h-.08v-.1h-.07a1.09 1.09 0 0 0 .19.19z"/><path class="cls-3" d="M289.36 38.7h-.06l.19.12c.01-.12-.06-.12-.13-.12z"/></g><path class="cls-3" d="M309.21 29.5c-2.48-3.51-5.66-6.36-8.68-9.4"/><g class="cls-4"><path class="cls-3" d="M301.21 20.91l.08.1a.29.29 0 0 1 0-.07s-.06-.02-.08-.03zm.15.2l.02.02.01.01-.03-.03zm.16.15a.37.37 0 0 0-.08-.08.22.22 0 0 0 .08.08zm-.1-.15h.05a.24.24 0 0 1-.05 0zm0 0v-.05a.3.3 0 0 0 0 .05zm.28-.2v.08a1.92 1.92 0 0 1 .3.11c.06 0 0 .15.07.15h.33c-.15 0-.38-.17-.58-.27a3.18 3.18 0 0 1-.5-.23l-.11-.09.13.14c.07.05.22.05.36.11zm-1.09-.73a1.58 1.58 0 0 0 .21.23s-.05 0 0 0a1.92 1.92 0 0 0-.24-.26zm-.07-.08zm1.38 1.43c.21.21.4.41.58.62h.09a.25.25 0 0 0 0 .1l.07.09s.05 0 .06-.06v-.08.08a.19.19 0 0 0 0 .09.16.16 0 0 1 .09.07.11.11 0 0 1-.09-.07h-.07l.16.22h.05c.07 0 .14 0 .08.16l.11.18h.2l-.07.13a.25.25 0 0 1 .15 0c0-.09.08-.18.09-.24s-.27.12-.13-.1c-.14.22.19 0 .13.1s-.06.15-.09.24.1.11 0 .26-.1-.12 0-.26a.25.25 0 0 0-.15 0l.07-.13h-.2l.22.36c.43.83 1 1.46 1.34 2.36a4.23 4.23 0 0 1 .25 1.7 4.27 4.27 0 0 0 .27 1.49 2.46 2.46 0 0 1-.52 2 1.19 1.19 0 0 0 .05 1.44 24 24 0 0 0 4.46-3c1.22-1 1.39-1.35 1.42-1.59a1.61 1.61 0 0 1 .32-1.14c-.22.44-.67.68-.88.61s-.19-.44.37-1.15c.88-1.08.6-1.36.16-1.49s-1.05-.12-1.16-.51c-.06-.19-.32-.22-.49-.35a2.08 2.08 0 0 0-1.44-.89 7.92 7.92 0 0 1-1.73-.6 3.79 3.79 0 0 0-1.11 0c-.2-.05-.28-.25-.42-.32a2.13 2.13 0 0 0-.71-.16c.22.08.41.11.66.2s-.35.19-.48.18.06-.22 0-.2-.24 0-.37 0 .09-.15.05-.14-.44.09-.47 0l-.1-.17a.27.27 0 0 0-.09-.07h-.1a.65.65 0 0 1-.1.15s0-.09-.06-.12 0 .09.06.12a.65.65 0 0 0 .1-.15 2.4 2.4 0 0 1-.64-.21.43.43 0 0 1 .2.3c0-.06 0-.08.07-.05v.09c-.11 0-.21-.09-.21-.23h-.08v-.09h-.06a1.15 1.15 0 0 0 .09.23z"/><path class="cls-3" d="M302.76 22.4h-.05l.14.19c.04-.14-.03-.16-.09-.19z"/></g><path class="cls-3" d="M324 20V2.17"/><g class="cls-4"><path class="cls-3" d="M323.86 3.63v.18-.09a.11.11 0 0 0 0-.09zm-.04.37zm.01.29a.7.7 0 0 0 0-.16.43.43 0 0 0 0 .16zm.03-.29v.09a.39.39 0 0 1 0-.09zm0 0v-.06zm.34.12s-.08 0-.06.09a3.22 3.22 0 0 1 .13.41c0 .06-.09.16-.06.22s.3.52.26.3-.15-.54-.21-.84a5.64 5.64 0 0 1-.19-.72 1.89 1.89 0 0 1 0-.2v.27c-.07.12.08.27.13.47zm-.25-1.8v.09a3.05 3.05 0 0 0 0 .43v-.06c0-.08 0-.09 0 0a3.7 3.7 0 0 0 0-.49zm.05-.15v.1-.1z"/><path class="cls-3" d="M323.91 4.94v1.18s.08 0 .06.09a.3.3 0 0 0-.07.09v.23h.09l.08-.06-.08.06a.24.24 0 0 0-.06.09.31.31 0 0 1 0 .16.2.2 0 0 1 0-.16v-.09.46c0 .09.06.18-.06.24v.36a2.27 2.27 0 0 1 .15.19l-.14.06a.25.25 0 0 1 .14.11l.23-.14c.13-.06-.28-.14 0-.22-.25.08.15.15 0 .22l-.23.14c0 .09 0 .21-.15.3-.12-.12 0-.22.15-.3a.25.25 0 0 0-.14-.11l.14-.06a2.27 2.27 0 0 0-.15-.19l-.1.57c-.28 1.24-.35 2.38-.7 3.67a7.29 7.29 0 0 1-1 2 6.52 6.52 0 0 0-.78 1.91 3.24 3.24 0 0 1-1.69 1.92 2.17 2.17 0 0 0-.83 1.94c1.26.66 5.17.32 5.35.29 1.6-.2 1.92-.38 2.08-.61a1.71 1.71 0 0 1 .95-.93c-.44.28-.94.18-1.07-.06s.11-.61 1-.88c1.36-.38 1.32-.85 1.07-1.33s-.72-1-.55-1.47c.08-.24-.09-.49-.13-.77a3.55 3.55 0 0 0-.45-2.15 11.08 11.08 0 0 1-.82-2.21 5.16 5.16 0 0 0-.76-1.11c-.1-.25 0-.52-.07-.72a3.31 3.31 0 0 0-.38-.86c.1.3.21.51.32.84s-.38-.15-.47-.3.2-.16.13-.22a1.63 1.63 0 0 0-.24-.4c-.06-.06.16-.05.13-.09-.09-.2-.37-.35-.33-.48l.05-.27a.52.52 0 0 0 0-.16l-.06-.11a.49.49 0 0 1-.18 0v-.18.18a.49.49 0 0 0 .18 0 4 4 0 0 1-.3-.84.79.79 0 0 1-.07.49c0-.07.07-.06.09 0l-.08.06a.45.45 0 0 1 0-.43v-.09s.06 0 .09-.05v-.1a1.71 1.71 0 0 0-.34.3z"/><path class="cls-3" d="M323.88 6.62v-.08.32c.06-.05.03-.14 0-.24z"/></g><path class="cls-3" d="M344 23.41c-.61-6.23 6-11.22 8-16.63"/><g class="cls-4"><path class="cls-3" d="M351.24 8.14l-.1.16.07-.07a.12.12 0 0 0 .03-.09zm-.24.31zm-.1.29a.72.72 0 0 0 .08-.14.48.48 0 0 0-.08.14zm.15-.22v.09zm0 0h.06zm.26.24s-.09 0-.09.05a2.58 2.58 0 0 1-.1.44c0 .08-.17.1-.17.17s0 .63.06.41.17-.58.27-.88a6.89 6.89 0 0 1 .18-.77c0-.07.06-.13.09-.19l-.14.25c-.08.11-.05.31-.1.52zm.58-1.83v.09a3.38 3.38 0 0 0-.19.41v-.06c0-.08 0-.09 0 0a4.1 4.1 0 0 0 .22-.47zm.11-.15v.09-.09zm-1.38 2.59a9.89 9.89 0 0 1-.69 1v.11h-.11l-.11.14v.06s0 .05.07.05h-.11a.34.34 0 0 1-.09.14.22.22 0 0 1 .09-.14v-.1l-.26.3v.08c0 .1-.06.19-.19.17v.05l-.21.22a2.05 2.05 0 0 1 0 .25h-.15a.25.25 0 0 1 0 .17h.28c.15 0-.14-.28.11-.2-.25-.08 0 .22-.11.2h-.28c0 .11-.13.18-.31.17 0-.17.14-.18.31-.17a.25.25 0 0 0 0-.17h.15a2.05 2.05 0 0 0 0-.25l-.43.43c-1 .9-1.74 1.83-2.79 2.81a14.3 14.3 0 0 1-2 1.44A5.87 5.87 0 0 0 342 18a5.36 5.36 0 0 1-.87 1 6.84 6.84 0 0 1-1.49 1.1c-1 .62-1.07 2.27-1 3.11.64.54 1.95.51 3.1.39s2.15-.32 2.25-.34c1.59-.34 1.91-.47 2.06-.66a2 2 0 0 1 .22-.3 1.84 1.84 0 0 1 .73-.3c-.46.15-1 .05-1.06-.16s.17-.51 1.1-.51a2.54 2.54 0 0 0 1.2-.14c.17-.11.16-.28.1-.48-.17-.4-.37-1-.08-1.25s.11-.41.19-.65a3.71 3.71 0 0 0 .64-1.94 8.63 8.63 0 0 1 .58-2.3 5.71 5.71 0 0 0 0-1.39c.07-.28.3-.46.38-.67a3.62 3.62 0 0 0 .21-1l-.24.93c-.08.23-.22-.35-.2-.53s.26 0 .24-.12a1.74 1.74 0 0 0 0-.49c0-.09.17 0 .16 0 0-.22-.1-.52 0-.61l.2-.21a.58.58 0 0 0 .08-.15v-.13a.47.47 0 0 1-.18-.05s.1-.09.14-.14-.1.09-.14.14a.47.47 0 0 0 .18.05 5.75 5.75 0 0 1 .2-.92.87.87 0 0 1-.32.41c.07 0 .1 0 .06.06h-.1a.5.5 0 0 1 .24-.38v-.08h.11V9.2a1.88 1.88 0 0 0-.07.17z"/><path class="cls-3" d="M349.65 10.85v-.08l-.22.25c.17-.02.19-.08.22-.17z"/></g><path class="cls-3" d="M354.91 33.34a68.6 68.6 0 0 0 9.4-4.34"/><g class="cls-4"><path class="cls-3" d="M363.52 29.34h-.1.06s.03.02.04 0zm-.19.07h-.02v.02l.02-.02zm-.15.09h.08a.15.15 0 0 0-.08 0zm.14-.04zm0 0zm.12.32s-.05-.07-.07 0a1.25 1.25 0 0 1-.15.22c0 .05-.13 0-.14 0s-.13.41 0 .31.21-.28.34-.42a2.36 2.36 0 0 1 .27-.37l.1-.07-.14.07c-.11.01-.13.16-.21.26zm.79-.78a1 1 0 0 0-.22.11 1.26 1.26 0 0 0 .26-.13zm.08 0zm-1.43.75a4.7 4.7 0 0 1-.63.28v.08h-.17a.1.1 0 0 0 0 .08l.06.05-.06-.05h-.07a.11.11 0 0 1-.08 0 .07.07 0 0 1 .08 0l-.22.06s-.07.1-.15 0h-.17a1.65 1.65 0 0 1 0 .18l-.1-.11a.26.26 0 0 1 0 .15l.18.18c.09.1 0-.28.11-.07-.15-.21 0 .18-.11.07l-.18-.18c0 .07-.11.05-.22-.06s.12 0 .22.06a.26.26 0 0 0 0-.15l.1.11a1.65 1.65 0 0 0 0-.18h-.34a19.83 19.83 0 0 1-2.21.24 3.75 3.75 0 0 1-1.45-.44 3.19 3.19 0 0 0-1.31-.3c-.42-.07-.87-.22-1.66-1.15a1.09 1.09 0 0 0-1.35-.34 25.48 25.48 0 0 0 1.86 5c.71 1.44.93 1.7 1.11 1.79s.34 0 .86.67a1.22 1.22 0 0 1-.37-1c.08-.17.37 0 .85.74.72 1.18 1 1 1.13.7s.27-.89.6-.84c.16 0 .23-.2.37-.3.47 0 .74-.46 1-.92a5.82 5.82 0 0 1 .88-1.29 3.43 3.43 0 0 0 .28-1c.09-.16.27-.15.36-.25a1.71 1.71 0 0 0 .29-.57c-.11.17-.18.32-.3.51s-.09-.38 0-.5.17.14.18.06.07-.21.11-.32.1.13.11.1 0-.42.1-.42h.16a.18.18 0 0 0 .08-.05v-.08a.77.77 0 0 1-.11-.14.77.77 0 0 0 .11.14 1.93 1.93 0 0 1 .29-.5.29.29 0 0 1-.29.07c.05 0 .07 0 0 .08h-.07c.05-.08.11-.15.23-.11v-.07l.07.07a1 1 0 0 0-.16-.08z"/><path class="cls-3" d="M362 30.18h-.18c.11.1.18.04.18 0z"/></g><path class="cls-3" d="M359.25 50c3.92-2.24 7.79-4.94 11.57-7.23"/><g class="cls-4"><path class="cls-3" d="M369.81 43.24l-.12.06h.08s.03-.03.04-.06zm-.24.11l-.02.02-.02.01.04-.03zm-.2.13l.11-.06a.25.25 0 0 0-.11.06zm.18-.06h-.06zm0 0zm.13.31s-.06-.06-.09 0a2.16 2.16 0 0 1-.2.27c0 .06-.15 0-.17 0s-.17.47-.06.34.27-.35.43-.52a3.51 3.51 0 0 1 .37-.45l.12-.09-.18.1c-.08.07-.12.23-.22.35zm1.04-.93h-.06a1.79 1.79 0 0 0-.29.16h.05c.05 0 .06 0 0 0a2.18 2.18 0 0 0 .33-.18zm.1-.06h-.06.06zM369 43.83c-.27.17-.53.32-.78.45v.09h-.1l-.12.06v.08h.08-.17a.19.19 0 0 1-.1.07.12.12 0 0 1 .1-.07v-.06l-.27.12c0 .06-.08.13-.19 0l-.21.08a2 2 0 0 1 0 .2l-.12-.09a.25.25 0 0 1 0 .16l.22.14c.11.09-.06-.29.13-.11-.19-.18 0 .19-.13.11L367 45c0 .08-.13.08-.28 0 0-.15.14-.08.28 0a.25.25 0 0 0 0-.16l.12.09a2 2 0 0 0 0-.2l-.42.15c-1 .28-1.73.69-2.74.93a5 5 0 0 1-1.82 0 4.5 4.5 0 0 0-1.63.1 2.67 2.67 0 0 1-2.09-.7 1.42 1.42 0 0 0-1.62 0c.22 1.32 2.37 4.6 2.48 4.74.93 1.31 1.21 1.52 1.45 1.56a1.57 1.57 0 0 1 1.11.45c-.41-.27-.6-.74-.5-.94s.47-.15 1.11.51c1 1 1.26.78 1.46.37s.28-1 .69-1.07c.2 0 .27-.28.44-.43.57-.17.87-.72 1.16-1.27a7.55 7.55 0 0 1 1-1.6 4.1 4.1 0 0 0 .3-1.1c.1-.19.32-.23.43-.36a2.29 2.29 0 0 0 .35-.68c-.14.2-.22.39-.36.62s-.11-.38-.06-.51.21.1.21 0 .08-.24.13-.37.12.12.13.08 0-.45.13-.47l.2-.06a.3.3 0 0 0 .1-.08v-.09a.61.61 0 0 1-.13-.13h.14-.14a.61.61 0 0 0 .13.13 2.58 2.58 0 0 1 .38-.6.48.48 0 0 1-.36.14c.06 0 .08 0 0 .08h-.08c.07-.1.14-.19.28-.16v-.08s.06 0 .08.06l.05-.05a1.22 1.22 0 0 0-.11-.07z"/><path class="cls-3" d="M367.88 44.49l-.23.1c.15.02.19-.04.23-.1z"/></g><path class="cls-3" d="M364.31 65.89h5.79"/><g class="cls-4"><path class="cls-3" d="M369.62 65.79h-.06s.05.01.06 0zm-.11-.04h-.01l-.01.01.02-.01zm-.1.01zm.08.03zm0 0zm-.03.34v-.06c0 .02-.09.11-.13.13s-.05-.09-.07-.06-.17.3-.1.26.18-.15.27-.21a1.16 1.16 0 0 1 .23-.19s-.13.08-.2.13zm.54-.25a.33.33 0 0 0-.14 0 .4.4 0 0 0 .16 0zm.1.01z"/><path class="cls-3" d="M369.19 65.84a1.8 1.8 0 0 1-.38 0v.06a.29.29 0 0 0 0-.07h-.05a.17.17 0 0 0 0 .09V66v-.08a.19.19 0 0 0 0-.06h-.12s-.06.06-.08-.06h-.09s0 .11-.06.15v-.14a.39.39 0 0 1 0 .14v.23c0 .13 0-.28.07 0 0-.25-.05.16-.07 0v-.23s-.07 0-.1-.15.07 0 .1.15a.39.39 0 0 0 0-.14v.14s0-.1.06-.15l-.18-.1a13.08 13.08 0 0 1-1.19-.7 3.19 3.19 0 0 1-.66-1 2.24 2.24 0 0 0-.62-.78 3.08 3.08 0 0 1-.62-1.69c-.16-.84-.47-.78-.63-.83a45.68 45.68 0 0 0-.09 5.35 7.29 7.29 0 0 0 .2 2.08 1.89 1.89 0 0 1 .3.95 2.11 2.11 0 0 1 0-1.07c.08-.13.2.11.29 1 .12 1.36.27 1.32.43 1.07s.32-.72.48-.55.16-.09.25-.13c.24.16.47-.14.7-.45a3.35 3.35 0 0 1 .72-.82 3.89 3.89 0 0 0 .36-.76c.08-.1.17 0 .23-.07a1.29 1.29 0 0 0 .28-.38c-.1.1-.17.21-.27.32s0-.38.1-.47.05.2.07.13.08-.15.13-.24 0 .16 0 .13.11-.37.15-.33l.09.05a.06.06 0 0 0 .05 0v-.06a1.36 1.36 0 0 1 0-.18h.06-.06a1.36 1.36 0 0 0 0 .18 1.17 1.17 0 0 1 .27-.3c-.05 0-.1 0-.16-.07s0 .07 0 .09v-.08s.09-.08.14 0a.2.2 0 0 1 0 .09.81.81 0 0 0-.1-.34z"/><path class="cls-3" d="M368.65 65.81h-.1c.04.06.07.03.1 0z"/></g></svg>