<svg xmlns="http://www.w3.org/2000/svg" viewBox="0 0 566.03 113.04"><defs><style>.cls-1{fill:#e2231a}</style></defs><title>brand-childlife</title><g id="Layer_2" data-name="Layer 2"><path class="cls-1" d="M172.46 68.21v-.94c0-8.59-2.43-14.36-6.26-18.09s-9.29-5.57-15.78-5.7h-.81c-8.56 0-14.45 2.7-20.77 9.21L125.67 56l.63-30.77-24.45 3.17-1.66 81.56 24.42-1.96.76-37.46.34-.46c3.41-4.66 7.54-7.49 12.25-7.49h.24a9.12 9.12 0 0 1 7.29 3.46 13.74 13.74 0 0 1 2.45 8.53v.47l-.75 36.9h1.69l22.77-3.95zM100.81 6.54C90.66 2.28 78.51 0 64.9 0h-1.7C22.72.68.09 25.22 0 57v.91c.17 12.5 4.26 26.31 13.85 36.93S38.56 113 61.34 113h1.41a92.27 92.27 0 0 0 31.1-5.53l3.67-27.83C88.31 84.1 80.3 86 71 86.16h-.76c-10.1 0-18.55-2.78-24.54-7.9s-9.37-12.56-9.47-21.37v-.52c0-8.93 3.23-16.42 9.15-21.58s14.33-8 24.53-8.12h.87a55 55 0 0 1 20.08 3.69l10-23.42zm87.9 10.94A10.27 10.27 0 1 0 199 27.74a10.19 10.19 0 0 0-10.29-10.26zm-12.09 27.65v62.71L201 110V46.17l-24.38-1.04zm55.13 61.64l-2.66-82.47-24.32 2.48 2.68 82.89 24.3-2.9zm37.49-62.92H267c-20 .9-32.77 14.11-32.86 33.88v1.82c.91 20 13.73 32.77 33.7 32.87h1.86l42.93-1.71-3.41-85.23-24.46-1.36.9 22.71-2.39-.73a45.54 45.54 0 0 0-14.03-2.25zm17.17 20.58l1 26.29-1.38.36a40 40 0 0 1-9.2 1.62h-1.16c-4.83 0-9-1.24-12.08-3.64a13.28 13.28 0 0 1-5.09-10.2v-.7c-.07-8.7 6.78-14.91 16.09-15.17h1.16a43.65 43.65 0 0 1 9.28 1.14zm124.92 47.81l.5-24.91-44.61-.9 1.71-85.06-36.22-.73-2.22 109.98 80.84 1.62zm13-91.24a10.27 10.27 0 1 0 10.27 10.25A10.19 10.19 0 0 0 424.33 21zm16.81 88.33l-3.16-63.49-24.34 1.27 3.09 62.37 24.41-.15zm48.33-56.41l-12.09-.28.09-3.79c.09-3.42.73-6.17 2.39-8.2a8.88 8.88 0 0 1 7.2-2.91h.38a12.44 12.44 0 0 1 1.89.18l1.35-13.86v-.66a47 47 0 0 0-10.28-1.34h-1.05c-8.23 0-14.65 2.22-19.06 6.23s-7 9.92-7.14 17.85L453 52.1l-10.88-.25-.31 14.15 10.88.25-1 43.63 24.39-.25 1-42.83 12.09.27zm66.28 33.25a36.85 36.85 0 0 1-16.35 9.43 26.52 26.52 0 0 1-6.69.87c-8.46 0-15.94-4.16-17.9-10.81l-.49-1.75 45-11.81c-3.2-19-17.22-29.68-33.17-29.73a36.7 36.7 0 0 0-9.31 1.22c-16.17 4.27-26.19 17.5-26.21 32.91a37.11 37.11 0 0 0 1.24 9.43c4.14 15.63 17.1 25.82 34.19 25.85a47.45 47.45 0 0 0 12-1.6c11.58-3 22.39-9.41 27.94-18-3-1.79-7.42-4.4-10.25-6.01zm-44.9-12.67a16.23 16.23 0 0 1-1-5.14c.21-7.1 4.49-11.77 10.37-13.21a16.28 16.28 0 0 1 4.11-.57 12.51 12.51 0 0 1 8.67 3.76 21.1 21.1 0 0 1 4.59 7.92zm37.84-44.95a6.32 6.32 0 1 1-6.52 6.3 6.37 6.37 0 0 1 6.49-6.3zm-.07 1.27a5 5 0 0 0 .07 10.06 4.81 4.81 0 0 0 4.8-5 4.86 4.86 0 0 0-4.84-5zm-1 8.29h-1.42v-6.26a12.25 12.25 0 0 1 2.42-.23 3.59 3.59 0 0 1 2.19.5 1.73 1.73 0 0 1 .62 1.35 1.62 1.62 0 0 1-1.31 1.5V35c.62.19 1 .69 1.15 1.53a4 4 0 0 0 .47 1.53h-1.58a5.28 5.28 0 0 1-.5-1.5c-.11-.69-.49-1-1.3-1h-.7zm0-3.53h.69c.81 0 1.46-.27 1.46-.92s-.43-1-1.35-1a3.46 3.46 0 0 0-.81.08z" id="Layer_1-2" data-name="Layer 1"/></g></svg>