<svg xmlns="http://www.w3.org/2000/svg" xmlns:xlink="http://www.w3.org/1999/xlink" viewBox="0 0 127.61 61.87"><defs><style>.cls-1,.cls-5,.cls-8{fill:none}.cls-2{fill:#231f20}.cls-3{clip-path:url(#clip-path)}.cls-4{fill:url(#linear-gradient)}.cls-5{stroke:#939598}.cls-5,.cls-8{stroke-width:.45px}.cls-6{clip-path:url(#clip-path-2)}.cls-7{fill:url(#linear-gradient-2)}.cls-8{stroke:#bcbec0}</style><clipPath id="clip-path"><path class="cls-1" d="M86 2c1.55 2.56 5.12 9.24 8 14.25 1.53 3 2.95 6 2.95 7.7s-1.42 4.73-2.95 7.7c-2.91 5-6.47 11.7-8 14.25-1.34 2.21.67 1.71.67 1.71S96 36.94 99.79 32.38c2.3-2.78 3.63-5.64 3.74-8.45-.11-2.81-1.44-5.66-3.74-8.45C96 10.93 86.65.27 86.65.27a1.94 1.94 0 0 0-.42 0C85.73.22 85.06.46 86 2"/></clipPath><linearGradient id="linear-gradient" x1="51.12" y1="246.37" x2="52.11" y2="246.37" gradientTransform="matrix(0 -47.79 -47.79 0 11868.7 2490.86)" gradientUnits="userSpaceOnUse"><stop offset="0" stop-color="#231f20"/><stop offset=".28" stop-color="#d1d3d4"/><stop offset=".38" stop-color="#bcbec0"/><stop offset=".54" stop-color="#e6e7e8"/><stop offset=".64" stop-color="#939598"/><stop offset=".69" stop-color="#3b3b3c"/><stop offset=".86" stop-color="#bcbec0"/><stop offset="1" stop-color="#231f20"/></linearGradient><clipPath id="clip-path-2"><path class="cls-1" d="M123.24.27s-9.38 10.66-13.14 15.22c-2.29 2.78-3.63 5.64-3.74 8.45.11 2.81 1.44 5.66 3.74 8.45 3.76 4.56 13.14 15.22 13.14 15.22s2 .5.67-1.71c-1.55-2.56-5.12-9.24-8-14.25-1.52-3-2.95-6-2.95-7.7s1.42-4.72 2.95-7.7c2.91-5 6.47-11.7 8-14.25.92-1.52.25-1.76-.25-1.76a1.94 1.94 0 0 0-.42 0"/></clipPath><linearGradient id="linear-gradient-2" x1="51.12" y1="246.38" x2="52.11" y2="246.38" gradientTransform="matrix(0 -47.79 -47.79 0 11890.58 2490.86)" xlink:href="#linear-gradient"/></defs><title>brand-pure-x</title><g id="Layer_2" data-name="Layer 2"><g id="Layer_1-2" data-name="Layer 1"><path class="cls-2" d="M21.86 53.65h-2.42l.27-1.52h7.71l-.27 1.52h-2.42l-1.33 7.58h-2.87zm8.71-1.52h6.62l-.27 1.54h-3.76l-.35 2.05h3.07l-.28 1.54h-3.06l-.43 2.42h3.81l-.27 1.54H29zM46 61a7.72 7.72 0 0 1-1 .26 9.62 9.62 0 0 1-1.83.19 4.51 4.51 0 0 1-3-.82 3.13 3.13 0 0 1-.92-2.46 9.24 9.24 0 0 1 .2-1.82 7.83 7.83 0 0 1 .6-1.8 4.66 4.66 0 0 1 1-1.36 4.39 4.39 0 0 1 1.48-.91 6.6 6.6 0 0 1 2.07-.38 9.87 9.87 0 0 1 1.79.13 6.86 6.86 0 0 1 .94.22l.16 2a4.63 4.63 0 0 0-.9-.41 4.88 4.88 0 0 0-1.66-.26 2.38 2.38 0 0 0-1.42.39 2.29 2.29 0 0 0-.79 1 6.6 6.6 0 0 0-.4 1.42 9.16 9.16 0 0 0-.17 1.54q0 1.81 1.56 1.85a7.16 7.16 0 0 0 1.54-.14 5.17 5.17 0 0 0 1-.32l.36-.18zm9.43-3.73H53l-.71 4h-2.82l1.6-9.1h2.87l-.62 3.6h2.38l.62-3.6h2.88l-1.6 9.1h-2.87zm12.28.16l.94-5.29h2.09l-1.6 9.1H66l-1.9-5.49-1 5.49H61l1.6-9.1H66zm10.72-5.57a4.41 4.41 0 0 1 2.94.8 3.06 3.06 0 0 1 .91 2.42 9.58 9.58 0 0 1-.16 1.58 8.56 8.56 0 0 1-.64 2.16 4.76 4.76 0 0 1-1.09 1.52 4.22 4.22 0 0 1-1.58.9 6.83 6.83 0 0 1-2.11.3 4.15 4.15 0 0 1-2.8-.8 3.14 3.14 0 0 1-.9-2.48 10.2 10.2 0 0 1 .16-1.6 6.25 6.25 0 0 1 1.74-3.6 5.11 5.11 0 0 1 3.53-1.2zm-2.53 4.81a10.41 10.41 0 0 0-.16 1.56q0 1.62 1.25 1.64a1.66 1.66 0 0 0 1.58-.87 7.5 7.5 0 0 0 .71-2.31 8.75 8.75 0 0 0 .2-1.6q0-1.54-1.3-1.57a1.68 1.68 0 0 0-1.58.86 6.69 6.69 0 0 0-.71 2.29zm11.81 3.04h3.81l-.28 1.52h-6.67l1.6-9.1H89zm12.39-7.85a4.41 4.41 0 0 1 2.94.8 3.06 3.06 0 0 1 .91 2.42 9.58 9.58 0 0 1-.16 1.58 8.56 8.56 0 0 1-.64 2.16 4.76 4.76 0 0 1-1.09 1.52 4.22 4.22 0 0 1-1.58.9 6.83 6.83 0 0 1-2.11.3 4.15 4.15 0 0 1-2.8-.8 3.14 3.14 0 0 1-.91-2.48 10.2 10.2 0 0 1 .16-1.6 6.25 6.25 0 0 1 1.74-3.6 5.11 5.11 0 0 1 3.54-1.2zm-2.53 4.81a10.41 10.41 0 0 0-.16 1.56q0 1.62 1.25 1.64a1.66 1.66 0 0 0 1.59-.85 7.49 7.49 0 0 0 .71-2.31 8.75 8.75 0 0 0 .2-1.6q0-1.54-1.3-1.57a1.68 1.68 0 0 0-1.58.86 6.69 6.69 0 0 0-.71 2.27zm17.24.56l-.6 3.44a2.11 2.11 0 0 1-.57.25 9.33 9.33 0 0 1-1.47.38 10.2 10.2 0 0 1-1.93.17 5.15 5.15 0 0 1-2.09-.36A2.32 2.32 0 0 1 107 60a3.73 3.73 0 0 1-.36-1.72 10.59 10.59 0 0 1 .21-1.92q.87-4.38 4.92-4.49a15.2 15.2 0 0 1 1.74.09 11.13 11.13 0 0 1 1.19.19 1.79 1.79 0 0 1 .44.13v2a8 8 0 0 0-1.31-.48 5.24 5.24 0 0 0-1.28-.14h-.61a2.23 2.23 0 0 0-1.62.79 4.26 4.26 0 0 0-.78 1.93 10.78 10.78 0 0 0-.21 1.82q0 1.43 1.15 1.53a5.31 5.31 0 0 0 1.08-.1 6 6 0 0 0 .64-.16l.41-2.31zm3.85-5.1h3.18l1 2.54 1.91-2.54h2.38l-3.69 4.67-.78 4.43h-2.85l.78-4.43z"/><g class="cls-3"><path class="cls-4" d="M84.65.22h18.89v47.87H84.65z"/></g><path class="cls-5" d="M99.79 15.49C96 10.93 86.65.27 86.65.27s-2-.5-.65 1.73c1.55 2.56 5.12 9.24 8 14.25 1.52 3 2.95 6 2.95 7.7s-1.43 4.73-2.95 7.7c-2.91 5-6.47 11.7-8 14.25-1.34 2.21.67 1.71.67 1.71S96 36.94 99.79 32.38c2.3-2.78 3.63-5.64 3.74-8.45-.11-2.81-1.44-5.66-3.74-8.44z"/><g class="cls-6"><path class="cls-7" d="M106.36.22h18.89v47.87h-18.89z"/></g><path class="cls-5" d="M110.1 15.49C113.86 10.93 123.24.27 123.24.27s2-.5.67 1.71c-1.55 2.56-5.12 9.24-8 14.25-1.52 3-2.95 6-2.95 7.7s1.42 4.73 2.95 7.7c2.91 5 6.47 11.7 8 14.25 1.34 2.21-.67 1.71-.67 1.71s-9.38-10.66-13.14-15.22c-2.29-2.78-3.63-5.64-3.74-8.45.11-2.8 1.44-5.65 3.74-8.43z"/><path class="cls-2" d="M23.68 18.18a1.49 1.49 0 0 1 1.36.68l.34.57a1.78 1.78 0 0 1 0 1.61l-2.23 5.75a3.82 3.82 0 0 1-1.33 1.64l-.77.56a3.33 3.33 0 0 1-1.93.68H9.59a1.36 1.36 0 0 0-1.33.93L6 36.35a1.33 1.33 0 0 1-1.33 1H.88c-.43 0-.65-.21-.65-.62a1.27 1.27 0 0 1 .06-.34L5.54 23a1.33 1.33 0 0 1 1.33-1h3.82c.43 0 .65.2.65.62a1.13 1.13 0 0 1-.06.34l-1.53 3.8a1.26 1.26 0 0 0-.05.34c0 .41.21.62.65.62h5.75a1.33 1.33 0 0 0 1.33-1L19.66 21a.75.75 0 0 0 .08-.34c0-.4-.21-.59-.65-.59H5.71c-.43 0-.65-.21-.65-.62a1.14 1.14 0 0 1 .05-.34 1.34 1.34 0 0 1 1.33-1z"/><path class="cls-8" d="M23.68 18.18a1.49 1.49 0 0 1 1.36.68l.34.57a1.78 1.78 0 0 1 0 1.61l-2.23 5.75a3.82 3.82 0 0 1-1.33 1.64l-.77.56a3.33 3.33 0 0 1-1.93.68H9.59a1.36 1.36 0 0 0-1.33.93L6 36.35a1.33 1.33 0 0 1-1.33 1H.88c-.43 0-.65-.21-.65-.62a1.27 1.27 0 0 1 .06-.34L5.54 23a1.33 1.33 0 0 1 1.33-1h3.82c.43 0 .65.2.65.62a1.13 1.13 0 0 1-.06.34l-1.53 3.8a1.26 1.26 0 0 0-.05.34c0 .41.21.62.65.62h5.75a1.33 1.33 0 0 0 1.33-1L19.66 21a.75.75 0 0 0 .08-.34c0-.4-.21-.59-.65-.59H5.71c-.43 0-.65-.21-.65-.62a1.14 1.14 0 0 1 .05-.34 1.34 1.34 0 0 1 1.33-1z"/><path class="cls-2" d="M35.14 18.18c.43 0 .65.21.65.62a.93.93 0 0 1-.08.34l-6 15.31a.75.75 0 0 0-.08.34c0 .4.21.59.65.59H36a1.34 1.34 0 0 0 1.33-.93L42.61 21a1 1 0 0 0 .06-.34c0-.32-.21-.52-.65-.59s-.65-.28-.65-.62a1.19 1.19 0 0 1 .47-.89 1.44 1.44 0 0 1 .95-.41h5.74c.44 0 .65.21.65.62a.87.87 0 0 1-.08.34l-6 15.31a3.59 3.59 0 0 1-1.33 1.61l-.76.57a3.22 3.22 0 0 1-1.9.68H25.72a1.52 1.52 0 0 1-1.39-.68l-.33-.53a1.77 1.77 0 0 1 0-1.61L29.23 21a1 1 0 0 0 .06-.34q0-.59-.65-.59c-.43 0-.65-.21-.65-.62a1.19 1.19 0 0 1 .47-.89 1.43 1.43 0 0 1 .95-.41z"/><path class="cls-8" d="M35.14 18.18c.43 0 .65.21.65.62a.93.93 0 0 1-.08.34l-6 15.31a.75.75 0 0 0-.08.34c0 .4.21.59.65.59H36a1.34 1.34 0 0 0 1.33-.93L42.61 21a1 1 0 0 0 .06-.34c0-.32-.21-.52-.65-.59s-.65-.28-.65-.62a1.19 1.19 0 0 1 .47-.89 1.44 1.44 0 0 1 .95-.41h5.74c.44 0 .65.21.65.62a.87.87 0 0 1-.08.34l-6 15.31a3.59 3.59 0 0 1-1.33 1.61l-.76.57a3.22 3.22 0 0 1-1.9.68H25.72a1.52 1.52 0 0 1-1.39-.68l-.33-.53a1.77 1.77 0 0 1 0-1.61L29.23 21a1 1 0 0 0 .06-.34q0-.59-.65-.59c-.43 0-.65-.21-.65-.62a1.19 1.19 0 0 1 .47-.89 1.43 1.43 0 0 1 .95-.41z"/><path class="cls-2" d="M66 36.91a1.42 1.42 0 0 1-1 .41h-5.64a1.24 1.24 0 0 1-1.27-.74l-2.52-6.19a1 1 0 0 0-1-.74 1.27 1.27 0 0 0-1.16.93l-2.23 5.77a1.34 1.34 0 0 1-1.33 1H46c-.43 0-.65-.21-.65-.62a1.19 1.19 0 0 1 .06-.34L50.65 23A1.34 1.34 0 0 1 52 22h3.8c.43 0 .65.2.65.62a1 1 0 0 1-.06.34l-1.53 3.8a1.36 1.36 0 0 0-.05.34c0 .41.22.62.65.62h5.74a1.33 1.33 0 0 0 1.33-1L64.77 21a.79.79 0 0 0 .08-.34q0-.59-.65-.59H50.82c-.43 0-.65-.21-.65-.62a1 1 0 0 1 .06-.34 1.34 1.34 0 0 1 1.33-1h17.22a1.49 1.49 0 0 1 1.36.68l.34.56a1.77 1.77 0 0 1 0 1.61l-2.23 5.73a3.8 3.8 0 0 1-1.33 1.64l-.76.56a3.34 3.34 0 0 1-1.92.68H62c-.45 0-.68.17-.68.51a1.06 1.06 0 0 0 0 .23L63 34.65a1.24 1.24 0 0 0 1.28.74h1.53c.43 0 .65.21.65.62a1.2 1.2 0 0 1-.45.89"/><path class="cls-8" d="M66 36.91a1.42 1.42 0 0 1-1 .41h-5.64a1.24 1.24 0 0 1-1.27-.74l-2.52-6.19a1 1 0 0 0-1-.74 1.27 1.27 0 0 0-1.16.93l-2.23 5.77a1.34 1.34 0 0 1-1.33 1H46c-.43 0-.65-.21-.65-.62a1.19 1.19 0 0 1 .06-.34L50.65 23A1.34 1.34 0 0 1 52 22h3.8c.43 0 .65.2.65.62a1 1 0 0 1-.06.34l-1.53 3.8a1.36 1.36 0 0 0-.05.34c0 .41.22.62.65.62h5.74a1.33 1.33 0 0 0 1.33-1L64.77 21a.79.79 0 0 0 .08-.34q0-.59-.65-.59H50.82c-.43 0-.65-.21-.65-.62a1 1 0 0 1 .06-.34 1.34 1.34 0 0 1 1.33-1h17.22a1.49 1.49 0 0 1 1.36.68l.34.56a1.77 1.77 0 0 1 0 1.61l-2.23 5.73a3.8 3.8 0 0 1-1.33 1.64l-.76.56a3.34 3.34 0 0 1-1.92.68H62c-.45 0-.68.17-.68.51a1.06 1.06 0 0 0 0 .23L63 34.65a1.24 1.24 0 0 0 1.28.74h1.53c.43 0 .65.21.65.62a1.2 1.2 0 0 1-.46.9z"/><path class="cls-2" d="M91.7 18.18c.44 0 .65.21.65.62a1.17 1.17 0 0 1-.47.89 1.43 1.43 0 0 1-.95.41h-9.55A1.33 1.33 0 0 0 80 21l-2.26 5.75a1.22 1.22 0 0 0-.06.34c0 .41.22.62.65.62h5.75c.43 0 .65.21.65.62a.92.92 0 0 1-.08.34 1.34 1.34 0 0 1-1.33.94h-5.71a1.36 1.36 0 0 0-1.33.94l-1.5 3.87a1.11 1.11 0 0 0-.06.34c0 .4.22.6.65.6h9.56c.43 0 .65.21.65.62a1.19 1.19 0 0 1-.47.89 1.45 1.45 0 0 1-.95.41H68.9c-.43 0-.65-.21-.65-.62a1.37 1.37 0 0 1 .05-.34l6-15.32a.74.74 0 0 0 .09-.34c0-.32-.22-.52-.65-.59s-.65-.28-.65-.62a1.2 1.2 0 0 1 .45-.89 1.38 1.38 0 0 1 .93-.41z"/><path class="cls-8" d="M91.7 18.18c.44 0 .65.21.65.62a1.17 1.17 0 0 1-.47.89 1.43 1.43 0 0 1-.95.41h-9.55A1.33 1.33 0 0 0 80 21l-2.26 5.75a1.22 1.22 0 0 0-.06.34c0 .41.22.62.65.62h5.75c.43 0 .65.21.65.62a.92.92 0 0 1-.08.34 1.34 1.34 0 0 1-1.33.94h-5.71a1.36 1.36 0 0 0-1.33.94l-1.5 3.87a1.11 1.11 0 0 0-.06.34c0 .4.22.6.65.6h9.56c.43 0 .65.21.65.62a1.19 1.19 0 0 1-.47.89 1.45 1.45 0 0 1-.95.41H68.9c-.43 0-.65-.21-.65-.62a1.37 1.37 0 0 1 .05-.34l6-15.32a.74.74 0 0 0 .09-.34c0-.32-.22-.52-.65-.59s-.65-.28-.65-.62a1.2 1.2 0 0 1 .45-.89 1.38 1.38 0 0 1 .93-.41zM21.86 53.75h-2.42l.27-1.52h7.71l-.27 1.52h-2.42l-1.33 7.58h-2.87zm8.71-1.52h6.62l-.27 1.54h-3.76l-.35 2h3.07l-.28 1.54h-3.06l-.43 2.42h3.81l-.27 1.54H29zM46 61.12a7.67 7.67 0 0 1-1 .26 9.62 9.62 0 0 1-1.83.19 4.52 4.52 0 0 1-3-.82 3.13 3.13 0 0 1-.92-2.46 9.24 9.24 0 0 1 .2-1.82 7.83 7.83 0 0 1 .6-1.8 4.69 4.69 0 0 1 1-1.36 4.39 4.39 0 0 1 1.48-.91 6.6 6.6 0 0 1 2.01-.4 9.89 9.89 0 0 1 1.79.13 7 7 0 0 1 .94.22l.16 2a4.75 4.75 0 0 0-.9-.41 4.93 4.93 0 0 0-1.66-.26 2.39 2.39 0 0 0-1.42.39 2.3 2.3 0 0 0-.79 1 6.62 6.62 0 0 0-.4 1.42 9.15 9.15 0 0 0-.19 1.51q0 1.81 1.56 1.85a7.16 7.16 0 0 0 1.54-.14 5.17 5.17 0 0 0 1-.32l.36-.18zm9.43-3.75H53l-.71 4h-2.82l1.6-9.1h2.87l-.62 3.59h2.38l.62-3.59h2.88l-1.6 9.1h-2.87zm12.28.15l.94-5.29h2.09l-1.6 9.1H66l-1.9-5.48-1 5.49H61l1.6-9.1H66zM78.43 52a4.4 4.4 0 0 1 2.94.8 3.05 3.05 0 0 1 .91 2.42 9.58 9.58 0 0 1-.16 1.58 8.58 8.58 0 0 1-.64 2.16 4.75 4.75 0 0 1-1.09 1.52 4.24 4.24 0 0 1-1.58.9 6.86 6.86 0 0 1-2.11.3 4.15 4.15 0 0 1-2.8-.8 3.14 3.14 0 0 1-.9-2.52 10.19 10.19 0 0 1 .16-1.6 6.24 6.24 0 0 1 1.74-3.6A5.11 5.11 0 0 1 78.43 52zm-2.53 4.81a10.43 10.43 0 0 0-.16 1.56q0 1.62 1.25 1.64a1.66 1.66 0 0 0 1.59-.85 7.49 7.49 0 0 0 .71-2.31 8.76 8.76 0 0 0 .2-1.6q0-1.54-1.3-1.57a1.68 1.68 0 0 0-1.58.86 6.7 6.7 0 0 0-.72 2.23zm11.81 3h3.81l-.28 1.52h-6.67l1.6-9.1H89zM100.1 52a4.4 4.4 0 0 1 2.94.8 3.05 3.05 0 0 1 .91 2.42 9.58 9.58 0 0 1-.16 1.58 8.58 8.58 0 0 1-.64 2.16 4.75 4.75 0 0 1-1.09 1.52 4.24 4.24 0 0 1-1.58.9 6.86 6.86 0 0 1-2.11.3 4.15 4.15 0 0 1-2.8-.8 3.14 3.14 0 0 1-.91-2.48 10.19 10.19 0 0 1 .16-1.6 6.24 6.24 0 0 1 1.74-3.6 5.11 5.11 0 0 1 3.54-1.2zm-2.53 4.81a10.43 10.43 0 0 0-.16 1.56q0 1.62 1.25 1.64a1.66 1.66 0 0 0 1.59-.85 7.49 7.49 0 0 0 .71-2.31 8.76 8.76 0 0 0 .2-1.6q0-1.54-1.3-1.57a1.68 1.68 0 0 0-1.58.86 6.7 6.7 0 0 0-.71 2.23zm17.24.52l-.6 3.44a2.14 2.14 0 0 1-.57.25 9.54 9.54 0 0 1-1.47.38 10.2 10.2 0 0 1-1.93.17 5.16 5.16 0 0 1-2.09-.36 2.32 2.32 0 0 1-1.15-1.06 3.74 3.74 0 0 1-.36-1.72 10.6 10.6 0 0 1 .21-1.92q.87-4.38 4.92-4.49a15.19 15.19 0 0 1 1.74.09 10.85 10.85 0 0 1 1.19.19 1.79 1.79 0 0 1 .44.13v2a8 8 0 0 0-1.31-.48 5.24 5.24 0 0 0-1.28-.14h-.61a2.23 2.23 0 0 0-1.62.79 4.26 4.26 0 0 0-.78 1.93 10.76 10.76 0 0 0-.21 1.82q0 1.43 1.15 1.53a5.37 5.37 0 0 0 1.08-.1 5.94 5.94 0 0 0 .64-.16l.41-2.31zm3.85-5.1h3.18l1 2.54 1.91-2.54h2.38l-3.69 4.67-.78 4.43h-2.85l.78-4.43z"/></g></g></svg>