<svg xmlns="http://www.w3.org/2000/svg" viewBox="0 0 151.93 106.82"><defs><style>.cls-1{fill:#231f20}.cls-2{fill:#f05133}</style></defs><title>brand-zume</title><g id="Layer_2" data-name="Layer 2"><g id="Layer_1-2" data-name="Layer 1"><path class="cls-1" d="M0 102.93c.41-1.58.61-2.37 1-3.94a155.58 155.58 0 0 0 23.29-16.44 116.52 116.52 0 0 0-18.42 2.6l1.05-4.54a175.35 175.35 0 0 1 34.79-4.1c.38 1.79.58 2.68 1 4.46-6.1 6.48-13 11.4-20.24 16.43a165.15 165.15 0 0 1 25.16 2.35c.54 2.39.8 3.58 1.35 6A208.84 208.84 0 0 0 0 102.93zm78.29-12.24v9.93h8.89v-9.9a6.48 6.48 0 0 1 1.09-4.09 4.34 4.34 0 0 1 3.21-1.5h.91v15.47h8.89V85.21h5.21v15.38h8.89V81.28l-24-.15a22.12 22.12 0 0 0-6.38 1.1c-4.28 1.45-6.75 4.44-6.71 8.46z"/><path class="cls-1" d="M67.62 81.23l-.11 15.27h-10.3A4.35 4.35 0 0 1 54 94.95a6.39 6.39 0 0 1-1.06-4.08l.06-9.65h-8.88l-.07 9.64c-.06 4 2.38 7 6.66 8.5a22.08 22.08 0 0 0 6.37 1.27h19.3l.12-19.39zM151.93 91c.08-4-2.27-7-6.42-8.5a20.35 20.35 0 0 0-6.14-1.15h-22.54v9.76c0 3.94 2.27 6.92 6.38 8.4a20.13 20.13 0 0 0 6.14 1.16l17.6.07a5.91 5.91 0 0 0 2.38-.75 4 4 0 0 0 2.23-3.25l-22.09-.09a3.7 3.7 0 0 1-2.82-1.49 6.2 6.2 0 0 1-.95-3.21h26.23zm-25.73-3.13v-2.49h13.06a3.52 3.52 0 0 1 3.32 2.52zm-11.34 17.35a1.5 1.5 0 0 0 .12-.56v-.41h-5.38v.75h3.58l-.08.11a1.43 1.43 0 0 1-.41.34 2.54 2.54 0 0 1-.63.24 3 3 0 0 1-.74.09h-2.74v-1.21a.71.71 0 0 1 .13-.42 1.35 1.35 0 0 1 .4-.39 2.46 2.46 0 0 1 .65-.27 2.87 2.87 0 0 1 .8-.1h4.43v-.81h-5.15a4.29 4.29 0 0 0-1.43.25 2.61 2.61 0 0 0-.59.3 2.15 2.15 0 0 0-.48.39 1.86 1.86 0 0 0-.32.49 1.42 1.42 0 0 0-.12.57v2h5.16a4.28 4.28 0 0 0 .74-.06 3.84 3.84 0 0 0 .7-.19 3.23 3.23 0 0 0 .58-.29 2.28 2.28 0 0 0 .47-.4 1.78 1.78 0 0 0 .31-.42zm12.14.25l-2.54-2.78h-1.56v3.93l-3.61-3.94h-1.42l-3.61 4h1.31l1.1-1.22h3.29l1.14 1.23h2.9v-2.5l2.29 2.5h1.41l2.31-2.48v2.49h1.08v-4h-1.55zm-9.58-.84l.89-1 .92 1zm16.41-.75a2.26 2.26 0 0 1 .61-.24 2.88 2.88 0 0 1 .75-.09h4.43v-.8h-5.13a4.44 4.44 0 0 0-.76.06 4.68 4.68 0 0 0-.7.19 3.37 3.37 0 0 0-.6.3 2.84 2.84 0 0 0-.47.4 1.82 1.82 0 0 0-.31.48 1.45 1.45 0 0 0 0 1.13 1.81 1.81 0 0 0 .32.5 2.19 2.19 0 0 0 .47.4 3 3 0 0 0 .59.3 3.5 3.5 0 0 0 .7.19 4.17 4.17 0 0 0 .76.07h5.12V106h-4.43a2.77 2.77 0 0 1-.75-.1 2.34 2.34 0 0 1-.61-.24 1.52 1.52 0 0 1-.42-.36l-.07-.1h6.27v-.81h-6.28l.08-.1a1.35 1.35 0 0 1 .43-.41zm8.02-.16a.8.8 0 0 1 .24-.09 1.42 1.42 0 0 1 .36 0h5.72v-.81h-6.5a2.18 2.18 0 0 0-.59.08 1.88 1.88 0 0 0-.5.24 1.26 1.26 0 0 0-.34.36.81.81 0 0 0-.15.49 1 1 0 0 0 .14.49 1.35 1.35 0 0 0 .34.37 1.53 1.53 0 0 0 .5.27 1.75 1.75 0 0 0 .61.11h4.12a1.63 1.63 0 0 1 .34 0 1 1 0 0 1 .26.1.55.55 0 0 1 .14.11.24.24 0 0 1 0 .12.29.29 0 0 1 0 .13.58.58 0 0 1-.17.15.78.78 0 0 1-.24.11 1.24 1.24 0 0 1-.34 0h-5.73v.81h6.48a1.75 1.75 0 0 0 .6-.1 2 2 0 0 0 .51-.25 1.37 1.37 0 0 0 .35-.39 1 1 0 0 0 .14-.49.91.91 0 0 0-.14-.49 1.27 1.27 0 0 0-.35-.37 1.75 1.75 0 0 0-.5-.24 2 2 0 0 0-.59-.09h-4.13a1.17 1.17 0 0 1-.33 0 .88.88 0 0 1-.26-.12.46.46 0 0 1-.14-.14.24.24 0 0 1 0-.13.17.17 0 0 1 0-.11.5.5 0 0 1 .15-.12z"/><path class="cls-2" d="M126.9 16.17s0-2.9-3.92-5C117.48 8.22 105 0 77.14 0h-.52C48.73 0 36.36 8.4 30.77 11.17a6.94 6.94 0 0 0-3.92 5v4.49c21-4.49 52.47-10.25 80.09-10.25.68 3.18 1 4.76 1.73 7.92-10.85 11.52-23.06 20.28-36 29.23a415.46 415.46 0 0 1 54.24 6.09V16.17z"/><path class="cls-2" d="M32.73 57.42c.74-2.81 1.08-4.21 1.81-7a276.67 276.67 0 0 0 41.4-29.23c-12.67.94-35.8 5.1-49.09 7.84V59.2a7.38 7.38 0 0 0 4.35 6.16c5.57 2.81 18 9.87 45.84 9.87h-.09c27.88 0 40.22-8.46 45.84-11.17a8.85 8.85 0 0 0 1.1-.63C95.6 59 59.61 55.84 32.73 57.42z"/></g></g></svg>