<svg xmlns="http://www.w3.org/2000/svg" viewBox="0 0 583.32 96.12"><defs><style>.cls-1{fill:#646569}.cls-2{fill:#ff4612}</style></defs><title>Asset 1</title><g id="Layer_2" data-name="Layer 2"><g id="art"><path class="cls-1" d="M126.23 77.58a2.8 2.8 0 0 1-.13 1.05 2.33 2.33 0 0 1-1.08.15H93.44a2.75 2.75 0 0 1-1.05-.13 2.3 2.3 0 0 1-.15-1.07V49.44a2.79 2.79 0 0 1 .13-1.05 2.32 2.32 0 0 1 1.08-.15H125a2.72 2.72 0 0 1 1.05.13 2.28 2.28 0 0 1 .16 1.08v28.13zm1-42.65H91.26c-9 0-13.16 4.18-13.16 13.16v30.84c0 9 4.18 13.16 13.16 13.16h35.93c9 0 13.16-4.18 13.16-13.16V48.09c0-9-4.18-13.16-13.16-13.16zM64.05 82.59V34.93H50c-1.84 0-3.07.62-3.66 1.85-.93 1.92.55 3.8 1 4.41l2.56 3.24V55.2a2.81 2.81 0 0 1-.13 1.06 2.31 2.31 0 0 1-1.07.15H19.23a2.79 2.79 0 0 1-1.05-.13A2.3 2.3 0 0 1 18 55.2V34.93H4c-1.84 0-3.07.62-3.66 1.85-.93 1.92.55 3.8 1 4.41l2.56 3.23v47.67H18c1.84 0 3.07-.62 3.66-1.84.93-1.92-.55-3.8-1-4.41L18 82.59V70.92a2.75 2.75 0 0 1 .13-1.05 2.28 2.28 0 0 1 1.08-.16h29.51a2.78 2.78 0 0 1 1.05.13 2.34 2.34 0 0 1 .15 1.08v21.17H64c1.84 0 3.07-.62 3.66-1.84.93-1.92-.55-3.8-1-4.41L64.1 82.6zm138.47-5.01a2.73 2.73 0 0 1-.13 1.05 2.31 2.31 0 0 1-1.07.15h-31.59a2.76 2.76 0 0 1-1.05-.13 2.28 2.28 0 0 1-.16-1.07V49.44a2.72 2.72 0 0 1 .13-1.05 2.31 2.31 0 0 1 1.07-.15h31.59a2.65 2.65 0 0 1 1.05.13 2.28 2.28 0 0 1 .16 1.08v28.13zm1-42.65h-35.96c-9 0-13.16 4.18-13.16 13.16v30.84c0 9 4.18 13.16 13.16 13.16h35.93c9 0 13.16-4.18 13.16-13.16V48.09c0-9-4.18-13.16-13.16-13.16zm71.82 21.24a2.75 2.75 0 0 1-.13 1.05 2.26 2.26 0 0 1-1.07.16h-29.06v-9.15h29.05a2.64 2.64 0 0 1 1.05.13 2.34 2.34 0 0 1 .15 1.08v6.74zm1-21.25H231c-1.84 0-3.07.62-3.66 1.85-.93 1.92.55 3.8 1 4.41l2.66 3.24v47.67h14c1.84 0 3.07-.62 3.66-1.84.93-1.92-.55-3.8-1-4.41l-2.56-3.24V70.68h31.2c9 0 13.16-4.18 13.16-13.16v-9.43c0-9-4.18-13.16-13.16-13.16z"/><path class="cls-2" d="M564.84 56.17a2.78 2.78 0 0 1-.13 1.05 2.3 2.3 0 0 1-1.08.16h-30.55v-9.15h30.55a2.8 2.8 0 0 1 1.05.13 2.28 2.28 0 0 1 .15 1.08v6.74zm3.49 14.38c7.23-.75 10.63-4.95 10.63-13v-9.46c0-9-4.18-13.16-13.16-13.16h-83.71L467.2.32a.53.53 0 0 0-.49-.32.54.54 0 0 0-.5.32l-14.9 34.62h-84.65v13a4.75 4.75 0 0 0 .41 2.1 3 3 0 0 0 2.72 1.74 4.91 4.91 0 0 0 3-1.3l2.79-2.24h13.53a2.32 2.32 0 0 1 1.05.13 2.25 2.25 0 0 1 .16 1.08v42.64h14.06c1.84 0 3.07-.62 3.66-1.84.93-1.92-.55-3.8-1-4.41l-2.55-3.24.07-33.16a2.82 2.82 0 0 1 .13-1.05 2.33 2.33 0 0 1 1.08-.15h22.19l14.39 10.69-14.67 37.2s20.88-14.35 21-14.43L466.43 36l18.46 45.77L506.79 96l-15.63-37 24.65-18.56a9.68 9.68 0 0 0 .59.82l2.6 3.16v47.67h14.13V70.68h18.53l9.5 13.62-1.22 1.53c-.48.62-2 2.49-1 4.41.59 1.23 1.82 1.84 3.66 1.84h20.8l-15-21.53zM344.07 56.41H316.3a2.84 2.84 0 0 1-1.06-.13 2.4 2.4 0 0 1-.15-1.08v-5.76a2.83 2.83 0 0 1 .13-1.05 2.32 2.32 0 0 1 1.08-.15h39.44V34.93h-41.62c-9 0-13.16 4.18-13.16 13.16v8.46c0 9 4.18 13.16 13.16 13.16h27.77a2.44 2.44 0 0 1 1.06.13 2.35 2.35 0 0 1 .15 1.08v6.66a2.77 2.77 0 0 1-.13 1.05 2.33 2.33 0 0 1-1.07.15h-32l-2.78-2.23a5 5 0 0 0-3-1.32c-.32 0-3.13.11-3.13 3.83v13h43.11c9 0 13.16-4.18 13.16-13.16v-9.33c0-9-4.18-13.16-13.16-13.16z"/></g></g></svg>