<svg xmlns="http://www.w3.org/2000/svg" viewBox="0 0 543.26 176.61"><defs><style>.cls-1{fill:none;stroke:#e9362f;stroke-width:4.88px}.cls-2{fill:#fff}.cls-3{fill:#0063a6}.cls-4{fill:#ea2d30}</style></defs><title>Asset 1</title><g id="Layer_2" data-name="Layer 2"><g id="Layer_1-2" data-name="Layer 1"><path class="cls-1" d="M506.14 126c20.43-6.16 34.68-20 34.68-36.16S526.72 60 506.46 53.81L270.49 2.5 37.11 53.81C16.68 60 2.44 73.85 2.44 90s14.1 29.84 34.35 36l233.7 48.07z"/><path class="cls-2" d="M90.79 107.87a21.07 21.07 0 0 1 3.52-7.11l8.83-13.24H90.3c-.07.14-2.9 3.1-2.9 3.1l-7.31 7.87c-7.52 7.52-15.24 12.69-22 11a9.31 9.31 0 0 1-6.83-6.35c-2.14-6.34.2-13.52 5.1-19.24s11.73-9 16.83-8.21a7.13 7.13 0 0 1 5.73 4.35 10.79 10.79 0 0 1-1.65 9.31A7.84 7.84 0 0 1 75 91.6c-.41.34-1.93 1.38-2.27.83A8.76 8.76 0 0 0 76.44 84c-.34-2.48-1.65-4.27-4.55-5.38s-8.07 0-11.52 2.9c-4.55 3.93-6.55 11.24-5.72 15.59.55 2.62 1.72 4.9 4.89 6 6.42 2 12.62-1.73 20.77-8.76l2.48-2.21 3.1-3.14 1.58-1.65h-3.72l.83-1.31h3.93l13.73-13.66c6.41-6.38 13.76-12.1 20.2-10.65a3.67 3.67 0 0 1 2.9 2.14c1 2.49-2.41 7.93-3.72 9.86L100 107.87zM99.47 86c5.86-.07 4.2 1.52 8.55-4.34L115.55 71c1.52-2.28 4-5.38 3.59-6.55-.14-.48-.55-.76-1.38-.83-4.41-.69-11.94 6.48-15.59 10.62L91.68 86h7.79zm28.36 1.25a13.86 13.86 0 0 0-.69 1.24l-.9 1.38.21-.14c4.35-3.24 7.52-6.21 11.18-5.38a2.78 2.78 0 0 1 2.21 1.93 9 9 0 0 1-.55 4c4.21-3.79 7.66-6.69 11.59-5.73a3.07 3.07 0 0 1 2.48 2c.76 2.35-1.79 6.07-3.65 8.69l-2.55 3.45c-3.66 5-4 5.59-3.73 6.35s.49.69 1.18.76c2.13.14 9.52-7.45 11.24-9.66l.69-.9s.41-.62.62-.62.14.28.14.28c-4.14 5.45-11.73 13.79-16.83 12.9a3.64 3.64 0 0 1-3.11-2.28c-1.24-3.31 2.69-7.52 6.21-12l2.43-3.17c1.86-2.28 1.86-3.1 1.45-3.79-.21-.41-.76-.28-.76-.28-4.35 1-8.07 6.07-10.42 9.79l-7.52 11.8h-7.58l9.18-13.93c2.76-4.21 4.07-6.07 3.66-6.9-.28-.62-.62-.62-1.11-.62-2.62.14-8.41 6.48-11.1 10.48l-7.52 11h-7.17L120 88.7c1.38-2.21 1.45-2.69 1.66-4 0 0 2.21.14 3.52.07 1.73-.13 3.58-.34 3.58-.34a5.59 5.59 0 0 1-.93 2.82z"/><path class="cls-2" d="M159.49 104.91a2.43 2.43 0 0 0 2.27 1.45c4.42.55 11.93-4.9 16.49-10.21l1.17-1.45.48-.49s.21-.2.34-.2.14.28.14.28c-4.35 6.62-15 14.56-21.52 14.28a5.48 5.48 0 0 1-4.83-2.83c-1.24-2.21-.48-5.59.76-8.07 3.87-7.52 12.77-12.28 18.7-13 1-.21 3.38-.07 4.21.82A2.76 2.76 0 0 1 178 88c-1.45 4.14-8 6.83-10.83 7.66a32.49 32.49 0 0 1-4.48 1c-1.27 1.69-4.17 6.25-3.2 8.25zm15-19c-.07-.21-.21-.48-.42-.55a3.64 3.64 0 0 0-.89 0c-6 1.17-8 6.76-10.07 10.28 4.03-.94 12.72-6.18 11.41-9.7z"/><path class="cls-2" d="M197.14 85.32c-2.55 3.8-13.38 15-12.27 19a1.39 1.39 0 0 0 1.31 1.17c2.21.28 9.24-7.45 10.41-8.89l.9-1s.41-.69.69-.69.07.34.07.34c-3.52 5.11-12.25 13.75-17.11 13.25a3.31 3.31 0 0 1-3-2.42c-1.17-4.21 6.07-9.52 10.83-13.79l3-2.62a7.91 7.91 0 0 1-6.69-.83s-3.86 5.45-6.55 8.62c-4.35 5.1-8.48 9.31-13.31 11a.91.91 0 0 1-.9-.27c-.07-.48.07-.55.48-.69a12.42 12.42 0 0 0 2.27-.9 15.36 15.36 0 0 0 3.52-2.14 58.42 58.42 0 0 0 7-7.18c1-1.17 5-6.27 7.72-10.41.55-.83 1.66-2.41 1.66-2.41 3.7 2.24 6.11 1.54 9.97.86z"/><path class="cls-2" d="M208.39 85.32c1.65-.07 3.72-.27 3.72-.27a15.28 15.28 0 0 1-2.69 5.65l-5.72 7.18c-1.38 1.72-5.24 6.27-4.48 7.86.2.62.62.83 1.37.83 2.9 0 9.73-7.73 12.14-10.76l.62-1s.9-1.31 1.11-.83c.07.2-.14.55-.14.55-3.31 5-11.86 14.69-18.07 14a3.88 3.88 0 0 1-3.24-2.21c-1.24-3.24 3.1-9 6.9-13.52l2.62-3a10.73 10.73 0 0 0 2.21-4.55s1.85.14 3.65.07zm10.69-13.45a3.06 3.06 0 0 1 1 2.62 4.71 4.71 0 0 1-2.55 3.32A3.77 3.77 0 0 1 214 78a3.2 3.2 0 0 1-1.58-2.41 4.4 4.4 0 0 1 3.38-4.07 3.79 3.79 0 0 1 3.28.35z"/><path class="cls-2" d="M231.36 90.63c0-.14.41-1.31.48-1.52a4.13 4.13 0 0 0-.48-3 1.79 1.79 0 0 0-1.86-.76c-3.73.62-10.21 10.55-11.87 14-.69 1.45-1.86 3.93-.9 5.31.63 1 1.66 1.38 3.1 1.38 4.42-.13 12.77-7.24 16.9-12.27 0 0 1.38-1.73 1.24-1.11a.48.48 0 0 1-.14.28c-4.34 6.42-14.48 15.72-21.38 15.66a6 6 0 0 1-5.17-2.76c-1.59-2.48-1.11-5.38.13-8.21 3.18-7.52 10.21-11.59 17.38-13 1.59-.34 5.24-.48 6.35.48a1.58 1.58 0 0 1 .55 1.65c-.07.48-.83 1.45-2.07 3a10.72 10.72 0 0 1-1.17 1.45c-.21.28-.83 1.24-1.38 1s-.07-.82.29-1.58z"/><path class="cls-2" d="M257.43 85.39a24.76 24.76 0 0 0 6.62-.21l-10.14 15.45a14 14 0 0 0-2.14 5.31s0 .34.07.41a1.57 1.57 0 0 0 .48.07c3.59-1 9.38-6.9 11.45-9.45l.76-1c.89-1.31 1-.28 1-.28-2.24 3.31-11.9 13.31-16.38 12.88a3 3 0 0 1-2.69-1.87c-.55-1.38-.13-2.83.62-4.89-3.31 3-7.24 7.52-11.45 6.69a3.79 3.79 0 0 1-3-2.49c-1.24-2.89.48-7.52 2.48-10.76 3.72-5.79 11-10.07 16.21-10.35 1.79-.07 3 .07 4.49 2.41a12.92 12.92 0 0 0 1.62-1.92zm-19.31 20.07a1.48 1.48 0 0 0 1.51.76c3.24-.07 7.38-5.45 9.66-9l1.66-2.34c1.1-1.93 4-6 3.65-7.79a2 2 0 0 0-1-1.45c-.48-.28-1.1-.21-2 .27-4.69 1.94-10.7 11-12.21 14.21-.65 1.34-2.03 4.17-1.27 5.34z"/><path class="cls-2" d="M276.61 87.8c-.28.48-1.24 2.35-1.72 3.1 3.52-3.45 8.34-7 12.41-6.07a3.34 3.34 0 0 1 2.55 2.17c.83 2.48-2.42 6.83-4.55 9.52l-2.3 2.87c-2.83 3.59-4.21 4.76-3.8 5.72.14.55.35.69 1.24.76 2.49.13 10.55-6.76 13.1-9.94l.84-1c.48-.76.82-.76.76-.28-3 4.9-13.66 14.14-18.83 13.18-1.17-.21-2.83-.69-3.17-2.55-.62-3 2.48-6.42 6.55-11.45L282 91c1.66-2 2.62-3.38 2.14-4.07s-1-.55-1.59-.41a5.35 5.35 0 0 0-1.66.69 12.81 12.81 0 0 0-3.24 2.28 49.84 49.84 0 0 0-5.74 6.51l-8.76 11.86h-6.76s4.42-6 6.9-9.79 6.21-9.79 6.21-9.79a6 6 0 0 0 1.24-3.38s1.93.07 3 0c1.38-.07 3.93-.42 3.93-.42a26 26 0 0 1-1.06 3.32zm45.56 17.35c3.31 1.59 9 4.83 12.76 2.21 5.38-3.66 6.83-8.48 6.41-14.28-.07-.55.14-.55.42-.13a8.33 8.33 0 0 1 1.31 6.41c-.41 3-2.69 6.41-6.41 8.62-6.35 3.58-10.9 2.76-18 .55l-1.17-.48c-2.28-.69-4.21-1.45-4.21-1.45a18.63 18.63 0 0 0-2.62.69 35.24 35.24 0 0 1-7 1.73c-2.07.28-8.55.07-10.48-2.07a2.4 2.4 0 0 1-.69-2.14c.41-1.1 1.45-1.79 3.11-2.41a31.31 31.31 0 0 1 17.1-.55 24.63 24.63 0 0 0 2.9-3.86L320 90c-2.84-.21-9.25-1-11.87-5.58a9 9 0 0 1 .13-9.1c3-5.79 9.86-9 14.28-9.52 2.42-.28 5.31.34 6.34 1.1.35.21.28.49 0 .42-.48-.07-1.65-.42-2.54-.62a13.35 13.35 0 0 0-2.76-.13 11.2 11.2 0 0 0-5.39 1.93 13.4 13.4 0 0 0-5.89 12.1 7.58 7.58 0 0 0 4.7 6.75 10.52 10.52 0 0 0 4.21 1.11l1.79-2.62c6.63-10.62 19.66-21.66 28.7-22.21 1.38-.14 3.72 0 5 1.45a4.23 4.23 0 0 1 .41 4c-2.07 7.1-14.82 15.45-21.38 18.07l-1.93.69c-1.18.42-2.27.83-2.27.83l-1.18 1.59c-.2.27-2 3-2.83 4.21-2.41 3.37-4.27 5.45-7.52 7.45a23.27 23.27 0 0 0-2 1.24zm-25.38-1.38a2.74 2.74 0 0 0-.76 2.14 2.52 2.52 0 0 0 1.93 1.93c3 1.11 7.31-.14 11-2.69a15.89 15.89 0 0 0-6.62-2.34c-1.34-.21-4.34-.21-5.56.96zm56.83-38.48a2 2 0 0 0-2-.9c-6.76.42-15.46 15.11-17.59 19.18L332.3 87A39.28 39.28 0 0 0 352 70.6c.93-1.6 2.17-4.42 1.62-5.31zm-.76 40.62a2.42 2.42 0 0 0 2.28 1.45c4.41.55 11.93-4.89 16.49-10.21l1.18-1.45.47-.48s.21-.2.35-.2.13.27.13.27c-4.35 6.63-15 14.56-21.52 14.28a5.49 5.49 0 0 1-4.83-2.83c-1.24-2.21-.48-5.59.76-8.07 3.86-7.52 12.76-12.28 18.69-13 1-.21 3.38-.07 4.21.83a2.74 2.74 0 0 1 .27 2.55c-1.45 4.13-8 6.83-10.83 7.65a31.56 31.56 0 0 1-4.48 1c-1.24 1.66-4.14 6.21-3.17 8.21zm15-19a.85.85 0 0 0-.41-.56 3.83 3.83 0 0 0-.9 0c-6 1.18-8 6.76-10.07 10.28 4.04-.93 12.72-6.17 11.41-9.68z"/><path class="cls-2" d="M395.28 86.39s2.62.14 3.38.14c1.52 0 3.59-.21 3.59-.21s-4.9 7-7.87 11.45c-2.48 3.73-6.35 9.59-6.35 9.59-7.72 11.66-16.35 17.38-25.66 17.52-1.45.07-5-.35-6.42-2.35a2.75 2.75 0 0 1-.34-2.69 3.07 3.07 0 0 1 2.28-1.72 2.38 2.38 0 0 1 2.07.69c.76.75.69 1.65.21 1.86a1 1 0 0 0-.76 1 2.31 2.31 0 0 0 .48 1.59c.76 1 2.28 1.17 3.93 1 5.45-.41 10.07-6.14 14.21-12l5.52-8.34c-3.8 3.45-7.86 6.56-11.53 5.45a4 4 0 0 1-2.82-3.17c-1-4.14 1.8-9.11 5.93-13.24s11.93-7.93 16.14-7a3.62 3.62 0 0 1 2.41 2.48zm-20.21 19.31a1.64 1.64 0 0 0 1.1 1.52c.62.34 2.14-.21 3.38-1 4.07-2.48 12.56-13.79 12.76-17.1.14-1.24-.07-1.8-.48-2.14s-1.11-.41-1.93-.13c-1.8.55-4.49 3-6.21 4.82-3.17 3.28-9.04 11.28-8.62 14.03zm30.76.21a2.42 2.42 0 0 0 2.27 1.45c4.42.55 11.94-4.89 16.48-10.21l1.17-1.45.49-.48s.21-.2.34-.2.14.27.14.27c-4.34 6.63-15 14.56-21.52 14.28a5.48 5.48 0 0 1-4.82-2.83c-1.25-2.21-.48-5.59.76-8.07 3.86-7.52 12.76-12.28 18.69-13 1-.21 3.38-.07 4.21.83a2.76 2.76 0 0 1 .27 2.55c-1.45 4.13-8 6.83-10.83 7.65a31.41 31.41 0 0 1-4.48 1c-1.24 1.66-4.13 6.21-3.17 8.21zm15-19a.84.84 0 0 0-.41-.56 3.8 3.8 0 0 0-.89 0c-6 1.18-8 6.76-10.07 10.28 4.03-.93 12.72-6.17 11.41-9.68z"/><path class="cls-2" d="M437.56 88.8c-.27.48-1.24 2.34-1.72 3.1 3.52-3.45 8.34-7 12.42-6.06A3.33 3.33 0 0 1 450.8 88c.83 2.48-2.41 6.83-4.55 9.52l-2.25 2.87c-2.82 3.59-4.21 4.76-3.79 5.73.14.55.34.69 1.24.75 2.48.14 10.55-6.76 13.11-9.93l.82-1c.49-.76.83-.76.76-.27-3 4.9-13.66 14.14-18.83 13.17-1.17-.21-2.83-.69-3.18-2.55-.62-3 2.49-6.41 6.56-11.45l2.25-2.84c1.66-2 2.62-3.38 2.14-4.07s-1-.56-1.59-.42a5.41 5.41 0 0 0-1.66.69 12.92 12.92 0 0 0-3.24 2.28 49.87 49.87 0 0 0-5.72 6.52l-8.76 11.86h-6.75s4.41-6 6.9-9.8 6.2-9.79 6.2-9.79a6 6 0 0 0 1.24-3.38s1.93.07 3 0c1.38-.07 3.93-.41 3.93-.41a26.61 26.61 0 0 1-1.07 3.32z"/><path class="cls-2" d="M492 74.11s-5 6.76-9.24 13.24c-4.83 7.25-7.45 11.52-7.45 11.52-2.07 3.1-3.66 6.21-3.18 7.31.14.48.55.69 1.18.63 2.55 0 9.37-8.08 10.76-10.15l1-1.45s.27-.48.55-.34a.42.42 0 0 1 .14.27c-2.42 3.66-10.83 14.55-15.67 14.28a3.52 3.52 0 0 1-2.89-1.45c-1.11-1.52-.28-4.48.27-6.07-3.65 3.86-7.59 8.34-11.93 7.58a4.46 4.46 0 0 1-3.52-2.76c-1.17-2.69.27-6.9 2.07-9.79 4.35-6.83 11.72-11.45 17.46-11.66a5 5 0 0 1 2.21.35 4.51 4.51 0 0 1 2 1.8l8.28-12.14c1.31-1.86 3-4.35 3-6.76 0 0 2.27.07 3.72 0s3.45-.27 3.45-.27c-.02 1.87-.36 3.31-2.21 5.86zm-32.64 24.14c-1.8 2.63-2.76 5.93-1.8 7.94a2.59 2.59 0 0 0 1.93 1 5.91 5.91 0 0 0 2-.76 18.05 18.05 0 0 0 4-3.38 83.14 83.14 0 0 0 5.8-8.05 38.65 38.65 0 0 0 2.49-4.49 7 7 0 0 0 .82-2.27 2 2 0 0 0-1-2.21 4.36 4.36 0 0 0-1.11-.21 2.71 2.71 0 0 0-1.66.41c-2.99 2.16-6.71 5.12-11.47 12.02zm27.22 7.75a5.34 5.34 0 0 0-.18.73c0 .35.49.3.82.31l-.07.21h-2.67l.06-.21c.83 0 .9-.27 1.1-1l1.29-4.86c-1.3 0-2.13 0-2.62 1.38h-.18l.42-1.59H490v1.59h-.19c-.21-1.25-.54-1.38-2-1.38zm9.88-5h1.76l-.06.21c-.87 0-.86.4-1 1.12l-.7 4.1c-.11.61.42.57.82.6v.21h-2.62l.05-.21c.74-.07.82-.07.94-.79l.82-4.61-3.32 5.62H493l-1-5.66-1 3.41a10.08 10.08 0 0 0-.35 1.58c0 .53.37.5.8.52l-.05.21h-2.17l.06-.21a.86.86 0 0 0 .9-.5 12.51 12.51 0 0 0 .56-1.65l1-3.28c.11-.37-.57-.39-.78-.39v-.21h1.74l.88 4.87z"/><path class="cls-3" d="M88.09 108.14a21.08 21.08 0 0 1 3.52-7.14l8.83-13.24H87.61c-.07.14-2.9 3.1-2.9 3.1l-7.31 7.9c-7.52 7.52-15.24 12.69-22 11a9.31 9.31 0 0 1-6.83-6.35c-2.14-6.34.2-13.52 5.1-19.24s11.73-9 16.83-8.17a7.13 7.13 0 0 1 5.73 4.35 10.79 10.79 0 0 1-1.65 9.31 7.84 7.84 0 0 1-2.28 2.21c-.41.34-1.93 1.38-2.27.83a8.76 8.76 0 0 0 3.72-8.42c-.34-2.48-1.65-4.27-4.55-5.38s-8.07 0-11.52 2.9C53.12 85.72 51.12 93 52 97.38c.55 2.62 1.72 4.9 4.89 6 6.42 2 12.62-1.73 20.77-8.76l2.48-2.21 3.11-3.11 1.58-1.65h-3.77l.83-1.31h3.93l13.72-13.65C106 66.27 113.27 60.55 119.75 62a3.67 3.67 0 0 1 2.9 2.14c1 2.49-2.41 7.93-3.72 9.86l-21.67 34.14zm8.69-21.87c5.86-.07 4.21 1.52 8.55-4.34l7.52-10.62c1.52-2.28 4-5.38 3.59-6.55-.14-.48-.55-.76-1.38-.83-4.41-.69-11.94 6.48-15.59 10.62L89 86.27h7.79zm28.36 1.24a13.88 13.88 0 0 0-.69 1.24l-.9 1.38.21-.14c4.35-3.24 7.52-6.21 11.18-5.38a2.78 2.78 0 0 1 2.21 1.93 9 9 0 0 1-.55 4c4.21-3.79 7.66-6.69 11.59-5.73a3.07 3.07 0 0 1 2.48 2c.76 2.35-1.79 6.07-3.65 8.69l-2.57 3.5c-3.66 5-4 5.59-3.73 6.35s.49.69 1.18.76c2.13.14 9.52-7.45 11.24-9.66l.69-.9s.41-.62.62-.62.14.28.14.28c-4.14 5.45-11.73 13.79-16.83 12.9a3.64 3.64 0 0 1-3.11-2.28c-1.24-3.31 2.69-7.52 6.21-12l2.41-3.17c1.86-2.28 1.86-3.1 1.45-3.79-.21-.41-.76-.28-.76-.28-4.35 1-8.07 6.07-10.42 9.79L126 108.14h-7.58l9.18-13.93c2.76-4.21 4.07-6.07 3.66-6.9-.28-.62-.62-.62-1.11-.62-2.62.14-8.41 6.48-11.1 10.48l-7.52 11h-7.17L117.27 89c1.38-2.21 1.45-2.69 1.66-4 0 0 2.21.14 3.52.07 1.73-.13 3.58-.34 3.58-.34a5.59 5.59 0 0 1-.89 2.78z"/><path class="cls-3" d="M156.8 105.17a2.43 2.43 0 0 0 2.27 1.45c4.42.55 11.93-4.9 16.49-10.21l1.17-1.41.48-.49s.21-.21.34-.21.14.28.14.28c-4.35 6.62-15 14.56-21.52 14.28a5.48 5.48 0 0 1-4.83-2.83c-1.24-2.21-.48-5.59.76-8.07 3.87-7.52 12.77-12.28 18.7-13 1-.21 3.38-.07 4.21.82a2.76 2.76 0 0 1 .28 2.55c-1.45 4.14-8 6.83-10.83 7.66a32.49 32.49 0 0 1-4.48 1c-1.25 1.63-4.15 6.18-3.18 8.18zm15-19c-.07-.21-.21-.48-.42-.55a3.64 3.64 0 0 0-.89 0c-6 1.17-8 6.76-10.07 10.28 4.03-.9 12.72-6.18 11.41-9.7z"/><path class="cls-3" d="M194.45 85.58c-2.55 3.8-13.38 15-12.27 19a1.39 1.39 0 0 0 1.31 1.17c2.21.28 9.24-7.45 10.41-8.89l.9-1s.41-.69.69-.69.07.34.07.34c-3.52 5.17-12.21 13.79-17.11 13.31a3.31 3.31 0 0 1-3-2.42c-1.17-4.21 6.07-9.52 10.83-13.79l3-2.62a7.91 7.91 0 0 1-6.69-.83s-3.86 5.45-6.55 8.62c-4.35 5.1-8.48 9.31-13.31 11a.91.91 0 0 1-.9-.27c-.07-.48.07-.55.48-.69a12.43 12.43 0 0 0 2.27-.9 15.36 15.36 0 0 0 3.52-2.14 58.41 58.41 0 0 0 7-7.18c1-1.17 5-6.27 7.72-10.41.55-.83 1.66-2.41 1.66-2.41 3.7 2.22 6.11 1.49 9.97.8z"/><path class="cls-3" d="M205.7 85.58c1.65-.07 3.72-.27 3.72-.27a15.28 15.28 0 0 1-2.69 5.69L201 98.14c-1.38 1.72-5.24 6.27-4.48 7.86.2.62.62.83 1.37.83 2.9 0 9.73-7.73 12.14-10.76l.62-1s.9-1.31 1.11-.83c.07.21-.14.55-.14.55-3.31 5-11.86 14.69-18.07 14a3.88 3.88 0 0 1-3.24-2.21c-1.24-3.24 3.1-9 6.9-13.52l2.62-3a10.73 10.73 0 0 0 2.17-4.54s1.9.13 3.7.06zm10.69-13.45a3.06 3.06 0 0 1 1 2.62 4.71 4.71 0 0 1-2.55 3.32 3.77 3.77 0 0 1-3.52.2 3.2 3.2 0 0 1-1.58-2.41 4.4 4.4 0 0 1 3.38-4.07 3.79 3.79 0 0 1 3.27.34z"/><path class="cls-3" d="M228.67 90.89c0-.14.41-1.31.48-1.52a4.13 4.13 0 0 0-.48-3 1.79 1.79 0 0 0-1.86-.76c-3.73.62-10.21 10.55-11.87 14-.69 1.45-1.86 3.93-.9 5.31.63 1 1.66 1.38 3.1 1.38 4.42-.16 12.77-7.3 16.86-12.3 0 0 1.38-1.73 1.24-1.11a.48.48 0 0 1-.14.28c-4.34 6.42-14.48 15.72-21.38 15.66a6 6 0 0 1-5.17-2.76c-1.59-2.48-1.11-5.38.13-8.21 3.18-7.52 10.21-11.59 17.38-13 1.59-.34 5.24-.48 6.35.48A1.58 1.58 0 0 1 233 87c-.07.48-.83 1.45-2.07 3a10.74 10.74 0 0 1-1.17 1.45c-.21.28-.83 1.24-1.38 1s-.06-.8.29-1.56z"/><path class="cls-3" d="M254.74 85.65a24.76 24.76 0 0 0 6.62-.21l-10.14 15.46a14 14 0 0 0-2.14 5.31s0 .34.07.41a1.57 1.57 0 0 0 .48.07c3.59-1 9.38-6.9 11.45-9.45l.76-1c.89-1.31 1-.28 1-.28-2.21 3.24-11.87 13.31-16.35 12.83a3 3 0 0 1-2.69-1.87c-.55-1.38-.13-2.83.62-4.89-3.31 3-7.24 7.52-11.45 6.69a3.79 3.79 0 0 1-3-2.49c-1.24-2.89.48-7.52 2.48-10.76 3.72-5.79 11-10.07 16.21-10.35 1.8-.07 3 .07 4.49 2.41a12.91 12.91 0 0 0 1.59-1.88zm-19.31 20.07a1.48 1.48 0 0 0 1.51.76c3.24-.07 7.38-5.45 9.66-9l1.66-2.34c1.1-1.93 4-6 3.65-7.79a2 2 0 0 0-1-1.45c-.48-.28-1.1-.21-2 .27-4.69 1.94-10.7 11-12.21 14.21-.7 1.35-2.03 4.17-1.27 5.34z"/><path class="cls-3" d="M273.92 88.07c-.28.48-1.24 2.35-1.72 3.1 3.52-3.45 8.34-7 12.41-6.07a3.34 3.34 0 0 1 2.55 2.21c.83 2.48-2.42 6.83-4.55 9.52l-2.28 2.83c-2.83 3.59-4.21 4.76-3.8 5.72.14.55.35.69 1.24.76 2.49.13 10.55-6.76 13.1-9.94l.84-1c.48-.76.82-.76.76-.28-3 4.9-13.66 14.14-18.83 13.18-1.17-.21-2.83-.69-3.17-2.55-.62-3 2.48-6.42 6.55-11.45l2.27-2.83c1.66-2 2.63-3.38 2.14-4.07s-1-.55-1.59-.42a5.35 5.35 0 0 0-1.66.69 12.81 12.81 0 0 0-3.18 2.25 49.83 49.83 0 0 0-5.73 6.55l-8.76 11.86h-6.81s4.42-6 6.9-9.79 6.21-9.79 6.21-9.79a6 6 0 0 0 1.24-3.38s1.93.07 3 0c1.38-.07 3.93-.42 3.93-.42a26 26 0 0 1-1.06 3.32zm45.56 17.35c3.31 1.59 9 4.83 12.76 2.21 5.38-3.66 6.83-8.48 6.41-14.28-.07-.55.14-.55.42-.13a8.33 8.33 0 0 1 1.31 6.41c-.41 3-2.69 6.41-6.41 8.62-6.35 3.58-10.9 2.76-18 .55l-1.17-.48c-2.28-.69-4.21-1.45-4.21-1.45a18.62 18.62 0 0 0-2.62.69 35.24 35.24 0 0 1-7 1.73c-2.07.28-8.55.07-10.48-2.07a2.4 2.4 0 0 1-.69-2.14c.41-1.1 1.45-1.79 3.11-2.41a31.31 31.31 0 0 1 17.1-.55 24.62 24.62 0 0 0 2.9-3.86l4.42-7.93c-2.84-.21-9.25-1-11.87-5.58a9 9 0 0 1 .13-9.1c3-5.79 9.86-9 14.28-9.52 2.42-.28 5.31.34 6.34 1.1.35.21.28.49 0 .42-.48-.07-1.65-.42-2.54-.62a13.35 13.35 0 0 0-2.76-.13 11.2 11.2 0 0 0-5.39 1.93 13.4 13.4 0 0 0-5.93 12.07 7.58 7.58 0 0 0 4.69 6.75 10.52 10.52 0 0 0 4.21 1.11l1.79-2.62C326.92 75.48 340 64.44 349 63.89c1.38-.14 3.72 0 5 1.45a4.23 4.23 0 0 1 .41 4c-2.07 7.1-14.82 15.45-21.38 18.07l-1.93.69c-1.18.42-2.27.83-2.27.83l-1.18 1.59c-.2.27-2 3-2.83 4.21-2.41 3.37-4.27 5.45-7.52 7.45a23.27 23.27 0 0 0-2 1.24zM294.09 104a2.74 2.74 0 0 0-.76 2.14 2.52 2.52 0 0 0 1.93 1.93c3 1.11 7.31-.14 11-2.69a15.89 15.89 0 0 0-6.62-2.34c-1.34-.17-4.38-.17-5.55.96zm56.83-38.48a2 2 0 0 0-2-.9c-6.76.42-15.46 15.11-17.59 19.18l-1.72 3.45a39.28 39.28 0 0 0 19.73-16.41c.9-1.57 2.14-4.4 1.59-5.29zm-.75 40.65a2.42 2.42 0 0 0 2.28 1.45c4.41.55 11.93-4.89 16.49-10.21l1.17-1.41.47-.48s.21-.2.35-.2.13.27.13.27c-4.35 6.63-15 14.56-21.52 14.28a5.49 5.49 0 0 1-4.83-2.83c-1.24-2.21-.48-5.59.76-8.07 3.86-7.52 12.76-12.28 18.69-13 1-.21 3.38-.07 4.21.83a2.74 2.74 0 0 1 .27 2.55c-1.45 4.13-8 6.83-10.83 7.65a31.56 31.56 0 0 1-4.48 1c-1.23 1.62-4.13 6.17-3.16 8.17zm15-19a.85.85 0 0 0-.41-.56 3.83 3.83 0 0 0-.9 0c-6 1.18-8 6.76-10.07 10.28 4.04-.89 12.72-6.16 11.41-9.68z"/><path class="cls-3" d="M392.59 86.65s2.62.14 3.38.14c1.52 0 3.59-.21 3.59-.21s-4.9 7-7.87 11.45c-2.48 3.73-6.35 9.59-6.35 9.59-7.72 11.66-16.34 17.38-25.65 17.53-1.45.07-5-.35-6.42-2.35a2.75 2.75 0 0 1-.34-2.69 3.07 3.07 0 0 1 2.28-1.72 2.38 2.38 0 0 1 2.07.69c.76.75.69 1.65.21 1.86a1 1 0 0 0-.76 1 2.31 2.31 0 0 0 .48 1.59c.76 1 2.28 1.17 3.93 1 5.45-.41 10.07-6.14 14.21-12l5.52-8.34c-3.8 3.45-7.86 6.56-11.53 5.45a4 4 0 0 1-2.82-3.17c-1-4.14 1.8-9.11 5.93-13.24s11.93-7.93 16.14-7a3.62 3.62 0 0 1 2.41 2.49zM372.38 106a1.64 1.64 0 0 0 1.1 1.52c.62.34 2.14-.21 3.38-1 4.07-2.48 12.56-13.79 12.76-17.1.14-1.24-.07-1.8-.48-2.14s-1.11-.41-1.93-.13c-1.8.55-4.49 3-6.21 4.82-3.17 3.24-9 11.24-8.62 14.03zm30.76.17a2.42 2.42 0 0 0 2.27 1.45c4.42.55 11.94-4.89 16.48-10.21l1.18-1.41.49-.48s.21-.2.34-.2.14.27.14.27c-4.34 6.63-15 14.56-21.52 14.28a5.48 5.48 0 0 1-4.82-2.83c-1.25-2.21-.48-5.59.76-8.07 3.86-7.52 12.76-12.28 18.69-13 1-.21 3.38-.07 4.21.83a2.76 2.76 0 0 1 .27 2.55c-1.45 4.13-8 6.83-10.83 7.65a31.42 31.42 0 0 1-4.48 1c-1.25 1.62-4.14 6.17-3.18 8.17zm15-19a.84.84 0 0 0-.41-.56 3.8 3.8 0 0 0-.89 0c-6 1.18-8 6.76-10.07 10.28 4.03-.89 12.72-6.16 11.41-9.68z"/><path class="cls-3" d="M434.87 89.07c-.27.48-1.24 2.34-1.72 3.1 3.52-3.45 8.34-7 12.42-6.06a3.33 3.33 0 0 1 2.54 2.21c.83 2.48-2.41 6.83-4.55 9.52l-2.28 2.83c-2.82 3.59-4.21 4.76-3.79 5.73.14.54.34.69 1.24.75 2.48.14 10.55-6.76 13.11-9.93l.82-1c.49-.76.83-.76.76-.27-3 4.9-13.66 14.14-18.83 13.17-1.17-.21-2.83-.69-3.18-2.55-.62-3 2.49-6.41 6.56-11.45l2.28-2.83c1.66-2 2.62-3.38 2.14-4.07s-1-.56-1.59-.41a5.41 5.41 0 0 0-1.66.69 12.92 12.92 0 0 0-3.24 2.28 49.88 49.88 0 0 0-5.72 6.55l-8.76 11.86h-6.75s4.41-6 6.9-9.8 6.2-9.79 6.2-9.79a6 6 0 0 0 1.23-3.42s1.93.07 3 0c1.38-.07 3.93-.41 3.93-.41a26.63 26.63 0 0 1-1.06 3.3z"/><path class="cls-3" d="M489.36 74.38s-5 6.76-9.24 13.24c-4.83 7.25-7.45 11.52-7.45 11.52-2.07 3.1-3.66 6.21-3.18 7.31.14.48.55.69 1.18.63 2.55 0 9.37-8.08 10.76-10.15l1-1.45s.27-.48.55-.34a.42.42 0 0 1 .14.27c-2.41 3.66-10.83 14.55-15.66 14.28a3.52 3.52 0 0 1-2.89-1.45c-1.11-1.52-.28-4.48.27-6.07-3.65 3.86-7.59 8.34-11.93 7.58a4.46 4.46 0 0 1-3.52-2.76c-1.17-2.69.27-6.9 2.07-9.79 4.35-6.83 11.72-11.45 17.45-11.66a5 5 0 0 1 2.21.35 4.51 4.51 0 0 1 2 1.8l8.28-12.14c1.31-1.86 3-4.35 3-6.76 0 0 2.27.07 3.72 0s3.45-.27 3.45-.27c-.07 1.86-.41 3.31-2.21 5.86zm-32.69 24.14c-1.8 2.63-2.76 5.93-1.8 7.94a2.59 2.59 0 0 0 1.93 1 5.91 5.91 0 0 0 2-.76 18.06 18.06 0 0 0 4-3.38 83.13 83.13 0 0 0 5.79-8.07 38.65 38.65 0 0 0 2.49-4.49 7 7 0 0 0 .82-2.27 2 2 0 0 0-1-2.21 4.36 4.36 0 0 0-1.11-.2 2.71 2.71 0 0 0-1.66.41c-2.98 2.17-6.71 5.13-11.46 12.03zm27.22 7.77a5.33 5.33 0 0 0-.18.73c0 .35.49.3.82.31l-.07.21h-2.67l.06-.21c.83 0 .9-.27 1.1-1l1.29-4.86c-1.3 0-2.13 0-2.62 1.38h-.18l.42-1.59h5.45v1.59h-.19c-.21-1.25-.54-1.38-2-1.38zm9.88-4.99h1.76l-.06.21c-.87 0-.86.4-1 1.12l-.7 4.1c-.11.61.42.57.82.6v.21h-2.62l.05-.21c.74-.07.82-.07.94-.8l.82-4.61-3.32 5.62h-.15l-1-5.66-.9 3.37a10.08 10.08 0 0 0-.35 1.58c0 .53.37.5.8.52l-.05.21h-2.17l.06-.21a.86.86 0 0 0 .9-.5 12.51 12.51 0 0 0 .56-1.65l1-3.28c.11-.37-.57-.39-.78-.39v-.21h1.74l.88 4.87z"/><path class="cls-4" d="M271.63 9.73l3.94 7.99 8.82 1.28-6.38 6.22 1.5 8.78-7.88-4.14-7.89 4.14 1.51-8.78-6.38-6.22 8.82-1.28 3.94-7.99zm0 132.8l3.94 8 8.82 1.28-6.38 6.22 1.5 8.78-7.88-4.15-7.89 4.15 1.51-8.78-6.38-6.22 8.82-1.28 3.94-8z"/></g></g></svg>