<svg id="Layer_1" data-name="Layer 1" xmlns="http://www.w3.org/2000/svg" viewBox="0 0 868.79 241.53"><defs><style>.cls-1,.cls-2{fill:#00adee}.cls-2{stroke:#00adee;stroke-miterlimit:10;stroke-width:.25px}</style></defs><title>esca3</title><path class="cls-1" d="M1038.4 7689.34l-17.14 1.1a3.54 3.54 0 0 0-3.25 2.88 31.86 31.86 0 0 1-11.82 18.8c-8.92 5.94-21.64 4.11-30.83-4l56.15-38.6a3.53 3.53 0 0 0 1.11-4.58c-1.06-2-3.75-6.21-9.94-12.58a51 51 0 0 0-24.22-13.07 46.49 46.49 0 0 0-56.77 39.07 53 53 0 0 0 3.49 27.14 54.54 54.54 0 0 0 5.62 10.49 32.09 32.09 0 0 0 2.76 3.64 51.59 51.59 0 0 0 29.09 18.34 45.55 45.55 0 0 0 37.26-6.77 56.71 56.71 0 0 0 17.57-21.15 58.91 58.91 0 0 0 4.66-16.68 3.53 3.53 0 0 0-3.74-4.03zm-63.77-23.77c7-4.84 16.61-5 24.9-.58l-34.31 23.58c-1.01-9.38 2.5-18.24 9.41-22.99zm142.62 16.43c-4.47-2.53-19.11-6.09-22.72-6.71-13.49-2.87-14.62-5.84-14.62-8.63 0-2.31 1.93-4.83 4.81-6.26a19 19 0 0 1 8.46-1.67c3.5 0 10.6 1 18.93 7.45a3.52 3.52 0 0 0 4.84-.48l10.24-11.88a3.53 3.53 0 0 0-.46-5.06 57.41 57.41 0 0 0-27.1-12c-2.39-.21-4.92-.42-7.28-.42a41.58 41.58 0 0 0-17.67 3.81c-5.86 2.71-10 5.93-13.14 10.26a29.45 29.45 0 0 0-5.1 16.3c0 10.78 5.15 19.42 14.89 25 4.74 2.71 14.57 5 21.56 6.44l1 .19a3.61 3.61 0 0 0 .52.13c15.32 2.71 15.32 7.13 15.32 9 0 4.13-2.89 6.33-5.26 7.42a23.36 23.36 0 0 1-9.44 2c-5.24 0-13.58-1.77-23.53-10.22a3.52 3.52 0 0 0-4.89.31l-11.06 12.02a3.53 3.53 0 0 0 .32 5.07 65.79 65.79 0 0 0 29.7 14.3 54.25 54.25 0 0 0 10.28 1.08 44.78 44.78 0 0 0 18.33-3.83c6.2-3 10.75-6.73 13.84-11.37a29.73 29.73 0 0 0 .11-33.33c-2.45-3.09-4.8-5.72-10.88-8.92zm130.22 32.23l-14.34-10.45a3.53 3.53 0 0 0-4.95.79 28 28 0 1 1-22.53-44.6 28.27 28.27 0 0 1 22.56 11.67 3.54 3.54 0 0 0 2.32 1.4 3.58 3.58 0 0 0 2.63-.65l14.14-10.45a3.53 3.53 0 0 0 .79-4.86 46.09 46.09 0 0 0-5.31-6.21 53.24 53.24 0 0 0-74.47 0 53 53 0 0 0 0 74.62 53.24 53.24 0 0 0 74.44 0 73.29 73.29 0 0 0 5.38-6.23 3.53 3.53 0 0 0-.66-5.03zm117.16-76.48H1347a3.53 3.53 0 0 0-3.53 3.53v3.77c-7.26-4.91-16.91-9.35-28-9.35a52.49 52.49 0 1 0 0 105c11.11 0 20.75-4.45 28-9.35v3.77a3.53 3.53 0 0 0 3.53 3.53h17.62a3.53 3.53 0 0 0 3.53-3.53v-93.82a3.53 3.53 0 0 0-3.52-3.55zm-49.17 78.66a28.22 28.22 0 1 1 28-28.22 28.15 28.15 0 0 1-28 28.23z" transform="translate(-941.21 -7581.22)"/><rect class="cls-1" x="459.22" width="24.68" height="157.42" rx="3.53" ry="3.53"/><path class="cls-1" d="M1551.47 7637.75h-17.62a3.53 3.53 0 0 0-3.53 3.53v3.77c-7.26-4.91-16.91-9.35-28-9.35a52.49 52.49 0 1 0 0 105c11.11 0 20.75-4.45 28-9.35v3.77a3.53 3.53 0 0 0 3.53 3.53h17.62a3.53 3.53 0 0 0 3.53-3.53v-93.82a3.53 3.53 0 0 0-3.53-3.55zm-49.16 78.66a28.22 28.22 0 1 1 28-28.22 28.15 28.15 0 0 1-28.01 28.23zm178.43-135.19h-17.62a3.53 3.53 0 0 0-3.53 3.53v60.31c-7.26-4.91-16.91-9.35-28-9.35a52.49 52.49 0 1 0 0 105c11.11 0 20.75-4.45 28-9.35v3.77a3.53 3.53 0 0 0 3.53 3.53h17.62a3.53 3.53 0 0 0 3.53-3.53v-150.38a3.53 3.53 0 0 0-3.53-3.53zm-49.16 135.2a28.22 28.22 0 1 1 28-28.22 28.15 28.15 0 0 1-28 28.22zm156.18 14.73a56.69 56.69 0 0 0 17.56-21.15 58.77 58.77 0 0 0 4.66-16.68 3.53 3.53 0 0 0-3.73-4l-17.14 1.1a3.52 3.52 0 0 0-3.25 2.88 31.87 31.87 0 0 1-11.82 18.8c-8.92 5.94-21.64 4.11-30.83-4l56.15-38.6a3.53 3.53 0 0 0 1.11-4.58c-1-2-3.73-6.2-9.95-12.59a51.06 51.06 0 0 0-24.23-13.06 46.49 46.49 0 0 0-56.76 39.08 53 53 0 0 0 3.49 27.14 54.49 54.49 0 0 0 5.62 10.49 31.65 31.65 0 0 0 2.76 3.63 51.59 51.59 0 0 0 29.09 18.33 45.55 45.55 0 0 0 37.26-6.78zm-45.28-65.57c7-4.84 16.61-5 24.9-.58l-34.3 23.58c-1.02-9.38 2.49-18.25 9.39-23z" transform="translate(-941.21 -7581.22)"/><path class="cls-2" d="M1026.92 7799c-9.15-2.17-10.15-3.67-10.15-6.34 0-3.09 3.72-5.26 9-5.26 4.84 0 7.5 1.15 10 2.88a2.48 2.48 0 0 0 3-.15l.62-.54a1.87 1.87 0 0 0 .67-1.55 2 2 0 0 0-.89-1.46c-3-2-6.7-3.86-13.38-3.86-8.43 0-14.54 4.18-14.54 9.94 0 6.27 5 8.65 14.15 10.84s10.68 4 10.68 7.42c0 4.26-4.2 7-10.7 7-5.47 0-8.55-1.39-11.5-3.49a2.48 2.48 0 0 0-3 .11l-.62.52a1.87 1.87 0 0 0-.7 1.53 1.93 1.93 0 0 0 .84 1.47 24.4 24.4 0 0 0 15 4.55c9.52 0 16.17-4.82 16.17-11.72.02-7.78-6.92-10.06-14.65-11.89zm136.46-15.76h-8.91a2.14 2.14 0 0 0-2.26 2v34.91a2.14 2.14 0 0 0 2.26 2h1a2.14 2.14 0 0 0 2.26-2v-12.65h5.41c15.42 0 18.66-6.62 18.66-12.18-.03-8.01-6.22-12.08-18.42-12.08zm-.18 19.58h-5.5v-14.89h5.67c10.68 0 12.86 3 12.86 7.42.01 3.47-1.48 7.47-13.03 7.47zm145.4-20.09c-12.21 0-20.1 7.88-20.1 20.07s7.7 19.83 20.1 19.83c12.61 0 20.14-7.44 20.14-19.91s-7.74-19.99-20.14-19.99zm0 35.21c-9.26 0-14.57-5.52-14.57-15.15s5.45-15.38 14.57-15.38c9.42 0 14.6 5.43 14.6 15.3 0 6.95-2.53 15.23-14.6 15.23zm151.01-13.31c6.07-1.5 9.47-5.16 9.47-10.37 0-7.31-5.79-11-17.21-11h-9.78a2.14 2.14 0 0 0-2.26 2v34.91a2.14 2.14 0 0 0 2.26 2h1a2.14 2.14 0 0 0 2.26-2v-14.82h8.2l12.12 15.94a2.35 2.35 0 0 0 1.88.88h1.25a2.32 2.32 0 0 0 2-1.06 1.79 1.79 0 0 0-.12-2.05zm-14.28-4v-12.71h6.43c11.8 0 11.8 4.28 11.8 6.34 0 5.27-5.44 6.37-10 6.37h-8.23zm158.8-17.39h-29.86a2.14 2.14 0 0 0-2.26 2v.76a2.14 2.14 0 0 0 2.26 2h12.11v32.2a2.14 2.14 0 0 0 2.26 2h1a2.14 2.14 0 0 0 2.26-2V7788h12.1a2.2 2.2 0 0 0 2.23-1.65l.14-.72a1.83 1.83 0 0 0-.49-1.63 2.4 2.4 0 0 0-1.75-.76zm120.73 15.76c-9.15-2.17-10.15-3.67-10.15-6.34 0-3.09 3.72-5.26 9-5.26 4.84 0 7.5 1.15 10 2.88a2.48 2.48 0 0 0 3-.15l.62-.54a1.87 1.87 0 0 0 .67-1.55 1.94 1.94 0 0 0-.89-1.46c-3-2-6.71-3.86-13.38-3.86-8.43 0-14.54 4.18-14.54 9.94 0 6.27 5 8.65 14.15 10.84s10.68 4 10.68 7.42c0 4.26-4.2 7-10.7 7-5.47 0-8.56-1.39-11.5-3.49a2.48 2.48 0 0 0-3 .11l-.62.52a1.87 1.87 0 0 0-.7 1.53 1.93 1.93 0 0 0 .84 1.47 24.4 24.4 0 0 0 15 4.55c9.52 0 16.17-4.82 16.17-11.72.02-7.78-6.92-10.06-14.65-11.89z" transform="translate(-941.21 -7581.22)"/></svg>