<svg xmlns="http://www.w3.org/2000/svg" viewBox="0 0 2374.71 1608.14"><defs><style>.cls-1{isolation:isolate}.cls-2{opacity:.5;mix-blend-mode:screen}.cls-3{fill:#fff}</style></defs><title>playlines</title><g class="cls-1"><g id="Layer_2" data-name="Layer 2"><g class="cls-2" id="Layer_1-2" data-name="Layer 1"><path class="cls-3" d="M1428.56 428.36c-11 22.28-13.64 50.28 3 70.59 14.23 17.38 40.49 23.62 59.19 9.67 17.71-13.22 26.35-38.84 25.93-60.36-.48-24.29-16.09-43.94-40.71-46.71-26.46-3-48.83 17.49-55.23 42-3.13 12 15.48 17.16 18.61 5.13 3.54-13.6 14-26.69 28.88-28s27 8.23 28.86 23.07c1.86 14.57-3 33-12.45 44.32s-24.23 11.65-35.11 1.86c-14.7-13.23-12.3-35.6-4.31-51.81 5.47-11.1-11.17-20.9-16.67-9.74zm-77.93 110.73l-262.35 201.46-263.42 202.28-262.35 201.46-262.35 201.46L36.74 1548l-32 24.57c-4.17 3.2-6.27 8.27-3.46 13.21 2.33 4.09 9.08 6.63 13.21 3.46l262.35-201.44 263.42-202.28 262.35-201.45L1065 782.61l263.42-202.28 32-24.57c4.17-3.2 6.27-8.27 3.46-13.21-2.33-4.09-9.08-6.63-13.21-3.46zM1290.9 537h71.35c12.42 0 12.44-19.3 0-19.3h-71.35c-12.42 0-12.44 19.3 0 19.3z"/><path class="cls-3" d="M1359 524.66a360.69 360.69 0 0 0-9.67 70.78c-.45 12.42 18.85 12.41 19.3 0a333.58 333.58 0 0 1 9-65.64c2.89-12.07-15.72-17.23-18.61-5.13zM1606.72 568a341 341 0 0 0 39.09 102c6.24 10.74 22.93 1 16.67-9.74a324.26 324.26 0 0 1-37.15-97.31c-2.52-12.16-21.13-7-18.61 5.13z"/><path class="cls-3" d="M1677.3 566.47a786.68 786.68 0 0 0-98.89 73.29c-9.39 8.17 4.31 21.77 13.65 13.65a754.57 754.57 0 0 1 95-70.27c10.51-6.57.83-23.28-9.74-16.67zm98.17 102.61c67.72 4.69 132.28 34.23 184 77.5 55.63 46.5 96.36 108.21 122.57 175.5 27.32 70.14 40.27 145.5 42.52 220.57a781.89 781.89 0 0 1-113.24 428.27q-7.12 11.66-14.66 23.06c-6.86 10.4 9.85 20.08 16.67 9.74a791.37 791.37 0 0 0 97.26-209 802.15 802.15 0 0 0 33.62-228.18c.08-77.23-10.7-155.49-35.88-228.66-24.55-71.35-63.34-138.55-118.73-190.39-51.51-48.21-116.6-83.91-186.81-94.66-9.07-1.39-18.19-2.43-27.35-3.07-5.21-.36-9.65 4.69-9.65 9.65 0 5.52 4.43 9.29 9.65 9.65z"/><path class="cls-3" d="M1727.88 653q12.44 22.48 27.06 43.63c3 4.28 8.46 6.24 13.21 3.46 4.24-2.48 6.44-8.9 3.46-13.21q-14.61-21.13-27.06-43.63c-6-10.87-22.69-1.15-16.67 9.74z"/><path class="cls-3" d="M1730.48 653.68a464.69 464.69 0 0 0 62.85-19.17c4.86-1.87 8.22-6.49 6.74-11.87-1.28-4.65-7-8.62-11.87-6.74a464.69 464.69 0 0 1-62.85 19.17c-12.1 2.78-7 21.39 5.13 18.61zm363.61-46.28c-14 22.47-10.74 53.93 8 72.8s51.74 22.36 73.92 7.28c20.39-13.87 28-39.5 23.27-63S2175.88 582.5 2152 579c-26.69-3.86-55.71 8.79-68.26 33.3-5.65 11 11 20.82 16.67 9.74 15.22-29.72 64.21-34.71 77.7-1.33 5.85 14.47 4.44 33.23-6.3 45.05-12.65 13.93-34.88 15.28-50.39 5.38-17.7-11.3-21.38-36.85-10.65-54 6.6-10.57-10.1-20.27-16.67-9.74zm-4.17-595.22A2359.93 2359.93 0 0 1 2130 359.27q2 48.89 2 97.83c0 12.42 19.3 12.44 19.3 0a2395 2395 0 0 0-26-351.65q-7.32-49.37-16.72-98.4c-1-5.12-7.14-8-11.87-6.74-5.36 1.47-7.72 6.74-6.74 11.87zm-.98 442.68l38 62.18c6.47 10.58 23.17.9 16.67-9.74l-38-62.18c-6.47-10.58-23.17-.9-16.67 9.74z"/><path class="cls-3" d="M2172.6 449.22l-43 64.32c-6.92 10.36 9.79 20 16.67 9.74l43-64.32c6.92-10.36-9.79-20-16.67-9.74zm123.49 207.24A393.71 393.71 0 0 0 2330 769c2.22 4.72 9 5.93 13.21 3.46 4.83-2.83 5.69-8.47 3.46-13.21a377.81 377.81 0 0 1-31.93-107.92c-.73-5.17-7.31-8-11.87-6.74-5.56 1.53-7.47 6.69-6.74 11.87z"/><path class="cls-3" d="M2358.25 664.13q-40.77 32.22-83.63 61.65c-4.29 3-6.23 8.47-3.46 13.21 2.49 4.25 8.89 6.43 13.21 3.46q44.85-30.85 87.54-64.67c4.09-3.24 3.38-10.27 0-13.65-4-4-9.55-3.24-13.65 0z"/></g></g></g></svg>